%TF.GenerationSoftware,KiCad,Pcbnew,6.0.2+dfsg-1*%
%TF.CreationDate,2023-09-22T14:52:27+02:00*%
%TF.ProjectId,MaxPilot,4d617850-696c-46f7-942e-6b696361645f,rev?*%
%TF.SameCoordinates,Original*%
%TF.FileFunction,Legend,Top*%
%TF.FilePolarity,Positive*%
%FSLAX46Y46*%
G04 Gerber Fmt 4.6, Leading zero omitted, Abs format (unit mm)*
G04 Created by KiCad (PCBNEW 6.0.2+dfsg-1) date 2023-09-22 14:52:27*
%MOMM*%
%LPD*%
G01*
G04 APERTURE LIST*
%ADD10C,0.150000*%
%ADD11C,0.120000*%
G04 APERTURE END LIST*
D10*
X65556755Y-48712380D02*
X65681755Y-47712380D01*
X65925803Y-48426666D01*
X66348422Y-47712380D01*
X66223422Y-48712380D01*
X67128184Y-48712380D02*
X67193660Y-48188571D01*
X67157946Y-48093333D01*
X67068660Y-48045714D01*
X66878184Y-48045714D01*
X66776994Y-48093333D01*
X67134136Y-48664761D02*
X67032946Y-48712380D01*
X66794851Y-48712380D01*
X66705565Y-48664761D01*
X66669851Y-48569523D01*
X66681755Y-48474285D01*
X66741279Y-48379047D01*
X66842470Y-48331428D01*
X67080565Y-48331428D01*
X67181755Y-48283809D01*
X67509136Y-48712380D02*
X68116279Y-48045714D01*
X67592470Y-48045714D02*
X68032946Y-48712380D01*
X68413898Y-48712380D02*
X68538898Y-47712380D01*
X68919851Y-47712380D01*
X69009136Y-47760000D01*
X69050803Y-47807619D01*
X69086517Y-47902857D01*
X69068660Y-48045714D01*
X69009136Y-48140952D01*
X68955565Y-48188571D01*
X68854375Y-48236190D01*
X68473422Y-48236190D01*
X69413898Y-48712380D02*
X69497232Y-48045714D01*
X69538898Y-47712380D02*
X69485327Y-47760000D01*
X69526994Y-47807619D01*
X69580565Y-47760000D01*
X69538898Y-47712380D01*
X69526994Y-47807619D01*
X70032946Y-48712380D02*
X69943660Y-48664761D01*
X69907946Y-48569523D01*
X70015089Y-47712380D01*
X70556755Y-48712380D02*
X70467470Y-48664761D01*
X70425803Y-48617142D01*
X70390089Y-48521904D01*
X70425803Y-48236190D01*
X70485327Y-48140952D01*
X70538898Y-48093333D01*
X70640089Y-48045714D01*
X70782946Y-48045714D01*
X70872232Y-48093333D01*
X70913898Y-48140952D01*
X70949613Y-48236190D01*
X70913898Y-48521904D01*
X70854375Y-48617142D01*
X70800803Y-48664761D01*
X70699613Y-48712380D01*
X70556755Y-48712380D01*
X71259136Y-48045714D02*
X71640089Y-48045714D01*
X71443660Y-47712380D02*
X71336517Y-48569523D01*
X71372232Y-48664761D01*
X71461517Y-48712380D01*
X71556755Y-48712380D01*
X74676190Y-47712380D02*
X75009523Y-48712380D01*
X75342857Y-47712380D01*
X76200000Y-48712380D02*
X75628571Y-48712380D01*
X75914285Y-48712380D02*
X75914285Y-47712380D01*
X75819047Y-47855238D01*
X75723809Y-47950476D01*
X75628571Y-47998095D01*
X76628571Y-48617142D02*
X76676190Y-48664761D01*
X76628571Y-48712380D01*
X76580952Y-48664761D01*
X76628571Y-48617142D01*
X76628571Y-48712380D01*
X77057142Y-47807619D02*
X77104761Y-47760000D01*
X77200000Y-47712380D01*
X77438095Y-47712380D01*
X77533333Y-47760000D01*
X77580952Y-47807619D01*
X77628571Y-47902857D01*
X77628571Y-47998095D01*
X77580952Y-48140952D01*
X77009523Y-48712380D01*
X77628571Y-48712380D01*
%TO.C,R2*%
X81562380Y-33186666D02*
X81086190Y-33520000D01*
X81562380Y-33758095D02*
X80562380Y-33758095D01*
X80562380Y-33377142D01*
X80610000Y-33281904D01*
X80657619Y-33234285D01*
X80752857Y-33186666D01*
X80895714Y-33186666D01*
X80990952Y-33234285D01*
X81038571Y-33281904D01*
X81086190Y-33377142D01*
X81086190Y-33758095D01*
X80657619Y-32805714D02*
X80610000Y-32758095D01*
X80562380Y-32662857D01*
X80562380Y-32424761D01*
X80610000Y-32329523D01*
X80657619Y-32281904D01*
X80752857Y-32234285D01*
X80848095Y-32234285D01*
X80990952Y-32281904D01*
X81562380Y-32853333D01*
X81562380Y-32234285D01*
%TO.C,F1*%
X22406666Y-12498571D02*
X22073333Y-12498571D01*
X22073333Y-13022380D02*
X22073333Y-12022380D01*
X22549523Y-12022380D01*
X23454285Y-13022380D02*
X22882857Y-13022380D01*
X23168571Y-13022380D02*
X23168571Y-12022380D01*
X23073333Y-12165238D01*
X22978095Y-12260476D01*
X22882857Y-12308095D01*
%TO.C,U3*%
X45172380Y-41401904D02*
X45981904Y-41401904D01*
X46077142Y-41354285D01*
X46124761Y-41306666D01*
X46172380Y-41211428D01*
X46172380Y-41020952D01*
X46124761Y-40925714D01*
X46077142Y-40878095D01*
X45981904Y-40830476D01*
X45172380Y-40830476D01*
X45172380Y-40449523D02*
X45172380Y-39830476D01*
X45553333Y-40163809D01*
X45553333Y-40020952D01*
X45600952Y-39925714D01*
X45648571Y-39878095D01*
X45743809Y-39830476D01*
X45981904Y-39830476D01*
X46077142Y-39878095D01*
X46124761Y-39925714D01*
X46172380Y-40020952D01*
X46172380Y-40306666D01*
X46124761Y-40401904D01*
X46077142Y-40449523D01*
%TO.C,J1*%
X21882380Y-43483333D02*
X22596666Y-43483333D01*
X22739523Y-43530952D01*
X22834761Y-43626190D01*
X22882380Y-43769047D01*
X22882380Y-43864285D01*
X22882380Y-42483333D02*
X22882380Y-43054761D01*
X22882380Y-42769047D02*
X21882380Y-42769047D01*
X22025238Y-42864285D01*
X22120476Y-42959523D01*
X22168095Y-43054761D01*
%TO.C,R1*%
X73942380Y-33186666D02*
X73466190Y-33520000D01*
X73942380Y-33758095D02*
X72942380Y-33758095D01*
X72942380Y-33377142D01*
X72990000Y-33281904D01*
X73037619Y-33234285D01*
X73132857Y-33186666D01*
X73275714Y-33186666D01*
X73370952Y-33234285D01*
X73418571Y-33281904D01*
X73466190Y-33377142D01*
X73466190Y-33758095D01*
X73942380Y-32234285D02*
X73942380Y-32805714D01*
X73942380Y-32520000D02*
X72942380Y-32520000D01*
X73085238Y-32615238D01*
X73180476Y-32710476D01*
X73228095Y-32805714D01*
%TO.C,PS1*%
X32749880Y-21024285D02*
X31749880Y-21024285D01*
X31749880Y-20643333D01*
X31797500Y-20548095D01*
X31845119Y-20500476D01*
X31940357Y-20452857D01*
X32083214Y-20452857D01*
X32178452Y-20500476D01*
X32226071Y-20548095D01*
X32273690Y-20643333D01*
X32273690Y-21024285D01*
X32702261Y-20071904D02*
X32749880Y-19929047D01*
X32749880Y-19690952D01*
X32702261Y-19595714D01*
X32654642Y-19548095D01*
X32559404Y-19500476D01*
X32464166Y-19500476D01*
X32368928Y-19548095D01*
X32321309Y-19595714D01*
X32273690Y-19690952D01*
X32226071Y-19881428D01*
X32178452Y-19976666D01*
X32130833Y-20024285D01*
X32035595Y-20071904D01*
X31940357Y-20071904D01*
X31845119Y-20024285D01*
X31797500Y-19976666D01*
X31749880Y-19881428D01*
X31749880Y-19643333D01*
X31797500Y-19500476D01*
X32749880Y-18548095D02*
X32749880Y-19119523D01*
X32749880Y-18833809D02*
X31749880Y-18833809D01*
X31892738Y-18929047D01*
X31987976Y-19024285D01*
X32035595Y-19119523D01*
%TO.C,RV1*%
X23474761Y-32542380D02*
X23141428Y-32066190D01*
X22903333Y-32542380D02*
X22903333Y-31542380D01*
X23284285Y-31542380D01*
X23379523Y-31590000D01*
X23427142Y-31637619D01*
X23474761Y-31732857D01*
X23474761Y-31875714D01*
X23427142Y-31970952D01*
X23379523Y-32018571D01*
X23284285Y-32066190D01*
X22903333Y-32066190D01*
X23760476Y-31542380D02*
X24093809Y-32542380D01*
X24427142Y-31542380D01*
X25284285Y-32542380D02*
X24712857Y-32542380D01*
X24998571Y-32542380D02*
X24998571Y-31542380D01*
X24903333Y-31685238D01*
X24808095Y-31780476D01*
X24712857Y-31828095D01*
%TO.C,U2*%
X62727380Y-41411904D02*
X63536904Y-41411904D01*
X63632142Y-41364285D01*
X63679761Y-41316666D01*
X63727380Y-41221428D01*
X63727380Y-41030952D01*
X63679761Y-40935714D01*
X63632142Y-40888095D01*
X63536904Y-40840476D01*
X62727380Y-40840476D01*
X62822619Y-40411904D02*
X62775000Y-40364285D01*
X62727380Y-40269047D01*
X62727380Y-40030952D01*
X62775000Y-39935714D01*
X62822619Y-39888095D01*
X62917857Y-39840476D01*
X63013095Y-39840476D01*
X63155952Y-39888095D01*
X63727380Y-40459523D01*
X63727380Y-39840476D01*
%TO.C,U1*%
X106813095Y-48042380D02*
X106813095Y-48851904D01*
X106860714Y-48947142D01*
X106908333Y-48994761D01*
X107003571Y-49042380D01*
X107194047Y-49042380D01*
X107289285Y-48994761D01*
X107336904Y-48947142D01*
X107384523Y-48851904D01*
X107384523Y-48042380D01*
X108384523Y-49042380D02*
X107813095Y-49042380D01*
X108098809Y-49042380D02*
X108098809Y-48042380D01*
X108003571Y-48185238D01*
X107908333Y-48280476D01*
X107813095Y-48328095D01*
%TO.C,D1*%
X29741904Y-48642380D02*
X29741904Y-47642380D01*
X29980000Y-47642380D01*
X30122857Y-47690000D01*
X30218095Y-47785238D01*
X30265714Y-47880476D01*
X30313333Y-48070952D01*
X30313333Y-48213809D01*
X30265714Y-48404285D01*
X30218095Y-48499523D01*
X30122857Y-48594761D01*
X29980000Y-48642380D01*
X29741904Y-48642380D01*
X31265714Y-48642380D02*
X30694285Y-48642380D01*
X30980000Y-48642380D02*
X30980000Y-47642380D01*
X30884761Y-47785238D01*
X30789523Y-47880476D01*
X30694285Y-47928095D01*
X35298095Y-48272380D02*
X35298095Y-47272380D01*
X35869523Y-48272380D02*
X35440952Y-47700952D01*
X35869523Y-47272380D02*
X35298095Y-47843809D01*
%TO.C,D2*%
X29741904Y-36082380D02*
X29741904Y-35082380D01*
X29980000Y-35082380D01*
X30122857Y-35130000D01*
X30218095Y-35225238D01*
X30265714Y-35320476D01*
X30313333Y-35510952D01*
X30313333Y-35653809D01*
X30265714Y-35844285D01*
X30218095Y-35939523D01*
X30122857Y-36034761D01*
X29980000Y-36082380D01*
X29741904Y-36082380D01*
X30694285Y-35177619D02*
X30741904Y-35130000D01*
X30837142Y-35082380D01*
X31075238Y-35082380D01*
X31170476Y-35130000D01*
X31218095Y-35177619D01*
X31265714Y-35272857D01*
X31265714Y-35368095D01*
X31218095Y-35510952D01*
X30646666Y-36082380D01*
X31265714Y-36082380D01*
X25138095Y-36452380D02*
X25138095Y-35452380D01*
X25709523Y-36452380D02*
X25280952Y-35880952D01*
X25709523Y-35452380D02*
X25138095Y-36023809D01*
%TO.C,C1*%
X75993333Y-18177142D02*
X75945714Y-18224761D01*
X75802857Y-18272380D01*
X75707619Y-18272380D01*
X75564761Y-18224761D01*
X75469523Y-18129523D01*
X75421904Y-18034285D01*
X75374285Y-17843809D01*
X75374285Y-17700952D01*
X75421904Y-17510476D01*
X75469523Y-17415238D01*
X75564761Y-17320000D01*
X75707619Y-17272380D01*
X75802857Y-17272380D01*
X75945714Y-17320000D01*
X75993333Y-17367619D01*
X76945714Y-18272380D02*
X76374285Y-18272380D01*
X76660000Y-18272380D02*
X76660000Y-17272380D01*
X76564761Y-17415238D01*
X76469523Y-17510476D01*
X76374285Y-17558095D01*
D11*
%TO.C,R2*%
X77370000Y-29750000D02*
X77370000Y-36290000D01*
X80110000Y-29750000D02*
X77370000Y-29750000D01*
X80110000Y-36290000D02*
X80110000Y-29750000D01*
X78740000Y-28980000D02*
X78740000Y-29750000D01*
X78740000Y-37060000D02*
X78740000Y-36290000D01*
X77370000Y-36290000D02*
X80110000Y-36290000D01*
%TO.C,F1*%
X14640000Y-13470000D02*
X14640000Y-20410000D01*
X30840000Y-13470000D02*
X14640000Y-13470000D01*
X24340000Y-18940000D02*
X21140000Y-18940000D01*
X21140000Y-14940000D02*
X24340000Y-14940000D01*
X14640000Y-20410000D02*
X30840000Y-20410000D01*
X30840000Y-20410000D02*
X30840000Y-13470000D01*
X21990000Y-16940000D02*
X23490000Y-16940000D01*
%TO.C,U3*%
X49575000Y-39650000D02*
X49575000Y-38000000D01*
X41835000Y-43300000D02*
X49575000Y-43300000D01*
X49575000Y-43300000D02*
X49575000Y-41650000D01*
X49575000Y-38000000D02*
X41835000Y-38000000D01*
X41835000Y-38000000D02*
X41835000Y-43300000D01*
X49575000Y-39650000D02*
G75*
G03*
X49575000Y-41650000I0J-1000000D01*
G01*
%TO.C,J1*%
X13970000Y-50800000D02*
X21590000Y-50800000D01*
X21590000Y-35560000D02*
X21590000Y-50800000D01*
X13970000Y-35560000D02*
X13970000Y-50800000D01*
X15240000Y-35560000D02*
X15240000Y-50800000D01*
X13970000Y-35560000D02*
X21590000Y-35560000D01*
%TO.C,R1*%
X71120000Y-28980000D02*
X71120000Y-29750000D01*
X69750000Y-29750000D02*
X69750000Y-36290000D01*
X72490000Y-36290000D02*
X72490000Y-29750000D01*
X72490000Y-29750000D02*
X69750000Y-29750000D01*
X71120000Y-37060000D02*
X71120000Y-36290000D01*
X69750000Y-36290000D02*
X72490000Y-36290000D01*
%TO.C,PS1*%
X68037500Y-32960000D02*
X68037500Y-12760000D01*
X68037500Y-12760000D02*
X33837500Y-12760000D01*
X33447500Y-19360000D02*
X33447500Y-21370000D01*
X33837500Y-12760000D02*
X33837500Y-32960000D01*
X33837500Y-32960000D02*
X68037500Y-32960000D01*
D10*
%TO.C,RV1*%
X18070000Y-26590000D02*
X18070000Y-31090000D01*
X30070000Y-26590000D02*
X30070000Y-31090000D01*
X18070000Y-26590000D02*
X30070000Y-26590000D01*
X18070000Y-31090000D02*
X30070000Y-31090000D01*
D11*
%TO.C,U2*%
X54535000Y-38000000D02*
X54535000Y-43300000D01*
X62275000Y-38000000D02*
X54535000Y-38000000D01*
X62275000Y-39650000D02*
X62275000Y-38000000D01*
X62275000Y-43300000D02*
X62275000Y-41650000D01*
X54535000Y-43300000D02*
X62275000Y-43300000D01*
X62275000Y-39650000D02*
G75*
G03*
X62275000Y-41650000I0J-1000000D01*
G01*
%TO.C,U1*%
X84075000Y-40810000D02*
X84075000Y-15380000D01*
X86615000Y-40810000D02*
X86615000Y-47710000D01*
X86615000Y-47710000D02*
X109935000Y-47710000D01*
X107815000Y-13250000D02*
X86205000Y-13250000D01*
X109935000Y-47710000D02*
X109935000Y-15380000D01*
X84075000Y-40810000D02*
X86615000Y-40810000D01*
X86205000Y-13250000D02*
G75*
G03*
X84075000Y-15380000I2J-2130002D01*
G01*
X109935000Y-15380000D02*
G75*
G03*
X107805000Y-13250000I-2130002J-2D01*
G01*
D10*
X83035000Y-20955000D02*
X83035000Y-22225000D01*
X83035000Y-22225000D02*
X83670000Y-21590000D01*
X83670000Y-21590000D02*
X83035000Y-20955000D01*
G36*
X83670000Y-21590000D02*
G01*
X83035000Y-22225000D01*
X83035000Y-20955000D01*
X83670000Y-21590000D01*
G37*
X83670000Y-21590000D02*
X83035000Y-22225000D01*
X83035000Y-20955000D01*
X83670000Y-21590000D01*
D11*
%TO.C,D1*%
X26740000Y-45720000D02*
X27760000Y-45720000D01*
X33200000Y-47190000D02*
X33200000Y-44250000D01*
X32180000Y-47190000D02*
X32180000Y-44250000D01*
X27760000Y-47190000D02*
X33200000Y-47190000D01*
X32300000Y-47190000D02*
X32300000Y-44250000D01*
X27760000Y-44250000D02*
X27760000Y-47190000D01*
X32420000Y-47190000D02*
X32420000Y-44250000D01*
X33200000Y-44250000D02*
X27760000Y-44250000D01*
X34220000Y-45720000D02*
X33200000Y-45720000D01*
%TO.C,D2*%
X26740000Y-38100000D02*
X27760000Y-38100000D01*
X28660000Y-36630000D02*
X28660000Y-39570000D01*
X28540000Y-36630000D02*
X28540000Y-39570000D01*
X33200000Y-36630000D02*
X27760000Y-36630000D01*
X33200000Y-39570000D02*
X33200000Y-36630000D01*
X27760000Y-36630000D02*
X27760000Y-39570000D01*
X34220000Y-38100000D02*
X33200000Y-38100000D01*
X28780000Y-36630000D02*
X28780000Y-39570000D01*
X27760000Y-39570000D02*
X33200000Y-39570000D01*
%TO.C,C1*%
X72040000Y-18950000D02*
X80280000Y-18950000D01*
X72040000Y-21690000D02*
X80280000Y-21690000D01*
X72040000Y-18950000D02*
X72040000Y-21690000D01*
X80280000Y-18950000D02*
X80280000Y-21690000D01*
%TD*%
M02*
