solid OpenSCAD_Model
  facet normal 1 -0 0
    outer loop
      vertex 103.86 3.2 0
      vertex 103.86 42.9 -5
      vertex 103.86 42.9 0
    endloop
  endfacet
  facet normal 1 0 0
    outer loop
      vertex 103.86 42.9 -5
      vertex 103.86 3.2 0
      vertex 103.86 3.2 -5
    endloop
  endfacet
  facet normal 0 0 -1
    outer loop
      vertex 107.06 0 0
      vertex 103.86 3.2 0
      vertex 107.06 46.1 0
    endloop
  endfacet
  facet normal 0 0 -1
    outer loop
      vertex 107.06 0 0
      vertex 3.2 3.2 0
      vertex 103.86 3.2 0
    endloop
  endfacet
  facet normal -0 0 -1
    outer loop
      vertex 3.2 3.2 0
      vertex 0 0 0
      vertex 3.2 42.9 0
    endloop
  endfacet
  facet normal 0 0 -1
    outer loop
      vertex 0 0 0
      vertex 3.2 3.2 0
      vertex 107.06 0 0
    endloop
  endfacet
  facet normal 0 0 -1
    outer loop
      vertex 103.86 42.9 0
      vertex 107.06 46.1 0
      vertex 103.86 3.2 0
    endloop
  endfacet
  facet normal 0 0 -1
    outer loop
      vertex 3.2 42.9 0
      vertex 107.06 46.1 0
      vertex 103.86 42.9 0
    endloop
  endfacet
  facet normal 0 0 -1
    outer loop
      vertex 3.2 42.9 0
      vertex 0 46.1 0
      vertex 107.06 46.1 0
    endloop
  endfacet
  facet normal 0 0 -1
    outer loop
      vertex 0 46.1 0
      vertex 3.2 42.9 0
      vertex 0 0 0
    endloop
  endfacet
  facet normal 0 0 -1
    outer loop
      vertex 5.2 5.2 0
      vertex 101.86 40.9 0
      vertex 101.86 5.2 0
    endloop
  endfacet
  facet normal -0 0 -1
    outer loop
      vertex 101.86 40.9 0
      vertex 5.2 5.2 0
      vertex 5.2 40.9 0
    endloop
  endfacet
  facet normal 0 0 -1
    outer loop
      vertex 103.86 3.2 -5
      vertex 101.86 5.2 -5
      vertex 103.86 42.9 -5
    endloop
  endfacet
  facet normal 0 0 -1
    outer loop
      vertex 103.86 3.2 -5
      vertex 5.2 5.2 -5
      vertex 101.86 5.2 -5
    endloop
  endfacet
  facet normal -0 0 -1
    outer loop
      vertex 5.2 5.2 -5
      vertex 3.2 3.2 -5
      vertex 5.2 40.9 -5
    endloop
  endfacet
  facet normal 0 0 -1
    outer loop
      vertex 3.2 3.2 -5
      vertex 5.2 5.2 -5
      vertex 103.86 3.2 -5
    endloop
  endfacet
  facet normal 0 0 -1
    outer loop
      vertex 101.86 40.9 -5
      vertex 103.86 42.9 -5
      vertex 101.86 5.2 -5
    endloop
  endfacet
  facet normal 0 0 -1
    outer loop
      vertex 5.2 40.9 -5
      vertex 103.86 42.9 -5
      vertex 101.86 40.9 -5
    endloop
  endfacet
  facet normal 0 0 -1
    outer loop
      vertex 5.2 40.9 -5
      vertex 3.2 42.9 -5
      vertex 103.86 42.9 -5
    endloop
  endfacet
  facet normal 0 0 -1
    outer loop
      vertex 3.2 42.9 -5
      vertex 5.2 40.9 -5
      vertex 3.2 3.2 -5
    endloop
  endfacet
  facet normal -1 0 0
    outer loop
      vertex 3.2 3.2 -5
      vertex 3.2 42.9 0
      vertex 3.2 42.9 -5
    endloop
  endfacet
  facet normal -1 -0 0
    outer loop
      vertex 3.2 42.9 0
      vertex 3.2 3.2 -5
      vertex 3.2 3.2 0
    endloop
  endfacet
  facet normal 0 1 -0
    outer loop
      vertex 103.86 42.9 -5
      vertex 3.2 42.9 0
      vertex 103.86 42.9 0
    endloop
  endfacet
  facet normal 0 1 0
    outer loop
      vertex 3.2 42.9 0
      vertex 103.86 42.9 -5
      vertex 3.2 42.9 -5
    endloop
  endfacet
  facet normal 0 -1 0
    outer loop
      vertex 3.2 3.2 -5
      vertex 103.86 3.2 0
      vertex 3.2 3.2 0
    endloop
  endfacet
  facet normal 0 -1 -0
    outer loop
      vertex 103.86 3.2 0
      vertex 3.2 3.2 -5
      vertex 103.86 3.2 -5
    endloop
  endfacet
  facet normal -1 0 0
    outer loop
      vertex 101.86 5.2 -5
      vertex 101.86 40.9 0
      vertex 101.86 40.9 -5
    endloop
  endfacet
  facet normal -1 -0 0
    outer loop
      vertex 101.86 40.9 0
      vertex 101.86 5.2 -5
      vertex 101.86 5.2 0
    endloop
  endfacet
  facet normal 1 -0 0
    outer loop
      vertex 5.2 5.2 0
      vertex 5.2 40.9 -5
      vertex 5.2 40.9 0
    endloop
  endfacet
  facet normal 1 0 0
    outer loop
      vertex 5.2 40.9 -5
      vertex 5.2 5.2 0
      vertex 5.2 5.2 -5
    endloop
  endfacet
  facet normal 0 -1 0
    outer loop
      vertex 5.2 40.9 -5
      vertex 101.86 40.9 0
      vertex 5.2 40.9 0
    endloop
  endfacet
  facet normal 0 -1 -0
    outer loop
      vertex 101.86 40.9 0
      vertex 5.2 40.9 -5
      vertex 101.86 40.9 -5
    endloop
  endfacet
  facet normal 0 1 -0
    outer loop
      vertex 101.86 5.2 -5
      vertex 5.2 5.2 0
      vertex 101.86 5.2 0
    endloop
  endfacet
  facet normal 0 1 0
    outer loop
      vertex 5.2 5.2 0
      vertex 101.86 5.2 -5
      vertex 5.2 5.2 -5
    endloop
  endfacet
  facet normal 1 -0 0
    outer loop
      vertex 107.06 0 3
      vertex 107.06 46.1 0
      vertex 107.06 46.1 3
    endloop
  endfacet
  facet normal 1 0 0
    outer loop
      vertex 107.06 46.1 0
      vertex 107.06 0 3
      vertex 107.06 0 0
    endloop
  endfacet
  facet normal -0 0 1
    outer loop
      vertex 0 46.1 3
      vertex 107.06 0 3
      vertex 107.06 46.1 3
    endloop
  endfacet
  facet normal 0 0 1
    outer loop
      vertex 107.06 0 3
      vertex 0 46.1 3
      vertex 0 0 3
    endloop
  endfacet
  facet normal -1 0 0
    outer loop
      vertex 0 0 0
      vertex 0 46.1 3
      vertex 0 46.1 0
    endloop
  endfacet
  facet normal -1 -0 0
    outer loop
      vertex 0 46.1 3
      vertex 0 0 0
      vertex 0 0 3
    endloop
  endfacet
  facet normal 0 1 -0
    outer loop
      vertex 107.06 46.1 0
      vertex 0 46.1 3
      vertex 107.06 46.1 3
    endloop
  endfacet
  facet normal 0 1 0
    outer loop
      vertex 0 46.1 3
      vertex 107.06 46.1 0
      vertex 0 46.1 0
    endloop
  endfacet
  facet normal 0 -1 0
    outer loop
      vertex 0 0 0
      vertex 107.06 0 3
      vertex 0 0 3
    endloop
  endfacet
  facet normal 0 -1 -0
    outer loop
      vertex 107.06 0 3
      vertex 0 0 0
      vertex 107.06 0 0
    endloop
  endfacet
endsolid OpenSCAD_Model
