%TF.GenerationSoftware,KiCad,Pcbnew,9.0.3+dfsg-1*%
%TF.CreationDate,2026-02-21T17:58:44+01:00*%
%TF.ProjectId,MaxPilot,4d617850-696c-46f7-942e-6b696361645f,rev?*%
%TF.SameCoordinates,Original*%
%TF.FileFunction,Drillmap*%
%TF.FilePolarity,Positive*%
%FSLAX45Y45*%
G04 Gerber Fmt 4.5, Leading zero omitted, Abs format (unit mm)*
G04 Created by KiCad (PCBNEW 9.0.3+dfsg-1) date 2026-02-21 17:58:44*
%MOMM*%
%LPD*%
G01*
G04 APERTURE LIST*
%ADD10C,0.100000*%
%ADD11C,0.200000*%
%ADD12C,0.110000*%
%ADD13C,0.160000*%
%ADD14C,0.178000*%
G04 APERTURE END LIST*
D10*
X1270000Y-1270000D02*
X11176000Y-1270000D01*
X11176000Y-5080000D02*
X1270000Y-5080000D01*
X11176000Y-1270000D02*
X11176000Y-5080000D01*
X1270000Y-5080000D02*
X1270000Y-1270000D01*
D11*
D10*
X5011880Y-3346500D02*
X5051880Y-3386500D01*
X5051880Y-3346500D02*
X5011880Y-3386500D01*
X2744000Y-3169000D02*
G75*
G02*
X2664000Y-3169000I-40000J0D01*
G01*
X2664000Y-3169000D02*
G75*
G02*
X2744000Y-3169000I40000J0D01*
G01*
X2924000Y-2419000D02*
G75*
G02*
X2844000Y-2419000I-40000J0D01*
G01*
X2844000Y-2419000D02*
G75*
G02*
X2924000Y-2419000I40000J0D01*
G01*
X3596000Y-2032000D02*
G75*
G02*
X3516000Y-2032000I-40000J0D01*
G01*
X3516000Y-2032000D02*
G75*
G02*
X3596000Y-2032000I40000J0D01*
G01*
X3596000Y-2540000D02*
G75*
G02*
X3516000Y-2540000I-40000J0D01*
G01*
X3516000Y-2540000D02*
G75*
G02*
X3596000Y-2540000I40000J0D01*
G01*
X4358000Y-2286000D02*
G75*
G02*
X4278000Y-2286000I-40000J0D01*
G01*
X4278000Y-2286000D02*
G75*
G02*
X4358000Y-2286000I40000J0D01*
G01*
X4358000Y-2540000D02*
G75*
G02*
X4278000Y-2540000I-40000J0D01*
G01*
X4278000Y-2540000D02*
G75*
G02*
X4358000Y-2540000I40000J0D01*
G01*
X4866000Y-1778000D02*
G75*
G02*
X4786000Y-1778000I-40000J0D01*
G01*
X4786000Y-1778000D02*
G75*
G02*
X4866000Y-1778000I40000J0D01*
G01*
X4866000Y-2286000D02*
G75*
G02*
X4786000Y-2286000I-40000J0D01*
G01*
X4786000Y-2286000D02*
G75*
G02*
X4866000Y-2286000I40000J0D01*
G01*
X5628000Y-2032000D02*
G75*
G02*
X5548000Y-2032000I-40000J0D01*
G01*
X5548000Y-2032000D02*
G75*
G02*
X5628000Y-2032000I40000J0D01*
G01*
X5628000Y-2286000D02*
G75*
G02*
X5548000Y-2286000I-40000J0D01*
G01*
X5548000Y-2286000D02*
G75*
G02*
X5628000Y-2286000I40000J0D01*
G01*
X6644000Y-1524000D02*
G75*
G02*
X6564000Y-1524000I-40000J0D01*
G01*
X6564000Y-1524000D02*
G75*
G02*
X6644000Y-1524000I40000J0D01*
G01*
X6644000Y-2032000D02*
G75*
G02*
X6564000Y-2032000I-40000J0D01*
G01*
X6564000Y-2032000D02*
G75*
G02*
X6644000Y-2032000I40000J0D01*
G01*
X7660000Y-1524000D02*
G75*
G02*
X7580000Y-1524000I-40000J0D01*
G01*
X7580000Y-1524000D02*
G75*
G02*
X7660000Y-1524000I40000J0D01*
G01*
X7660000Y-2032000D02*
G75*
G02*
X7580000Y-2032000I-40000J0D01*
G01*
X7580000Y-2032000D02*
G75*
G02*
X7660000Y-2032000I40000J0D01*
G01*
X8168000Y-4072000D02*
G75*
G02*
X8088000Y-4072000I-40000J0D01*
G01*
X8088000Y-4072000D02*
G75*
G02*
X8168000Y-4072000I40000J0D01*
G01*
X8168000Y-4572000D02*
G75*
G02*
X8088000Y-4572000I-40000J0D01*
G01*
X8088000Y-4572000D02*
G75*
G02*
X8168000Y-4572000I40000J0D01*
G01*
X4572000Y-3640500D02*
X4572000Y-3740500D01*
X4522000Y-3690500D02*
X4622000Y-3690500D01*
X4572000Y-4140500D02*
X4572000Y-4240500D01*
X4522000Y-4190500D02*
X4622000Y-4190500D01*
X7512000Y-3120500D02*
X7512000Y-3220500D01*
X7462000Y-3170500D02*
X7562000Y-3170500D01*
X7512000Y-4660500D02*
X7512000Y-4760500D01*
X7462000Y-4710500D02*
X7562000Y-4710500D01*
X8557500Y-2109000D02*
X8557500Y-2209000D01*
X8507500Y-2159000D02*
X8607500Y-2159000D01*
X8557500Y-2363000D02*
X8557500Y-2463000D01*
X8507500Y-2413000D02*
X8607500Y-2413000D01*
X8557500Y-2617000D02*
X8557500Y-2717000D01*
X8507500Y-2667000D02*
X8607500Y-2667000D01*
X8557500Y-2871000D02*
X8557500Y-2971000D01*
X8507500Y-2921000D02*
X8607500Y-2921000D01*
X8557500Y-3125000D02*
X8557500Y-3225000D01*
X8507500Y-3175000D02*
X8607500Y-3175000D01*
X8557500Y-3379000D02*
X8557500Y-3479000D01*
X8507500Y-3429000D02*
X8607500Y-3429000D01*
X8557500Y-3633000D02*
X8557500Y-3733000D01*
X8507500Y-3683000D02*
X8607500Y-3683000D01*
X8557500Y-3887000D02*
X8557500Y-3987000D01*
X8507500Y-3937000D02*
X8607500Y-3937000D01*
X10843500Y-2109000D02*
X10843500Y-2209000D01*
X10793500Y-2159000D02*
X10893500Y-2159000D01*
X10843500Y-2363000D02*
X10843500Y-2463000D01*
X10793500Y-2413000D02*
X10893500Y-2413000D01*
X10843500Y-2617000D02*
X10843500Y-2717000D01*
X10793500Y-2667000D02*
X10893500Y-2667000D01*
X10843500Y-2871000D02*
X10843500Y-2971000D01*
X10793500Y-2921000D02*
X10893500Y-2921000D01*
X10843500Y-3125000D02*
X10843500Y-3225000D01*
X10793500Y-3175000D02*
X10893500Y-3175000D01*
X10843500Y-3379000D02*
X10843500Y-3479000D01*
X10793500Y-3429000D02*
X10893500Y-3429000D01*
X10843500Y-3633000D02*
X10843500Y-3733000D01*
X10793500Y-3683000D02*
X10893500Y-3683000D01*
X10843500Y-3887000D02*
X10843500Y-3987000D01*
X10793500Y-3937000D02*
X10893500Y-3937000D01*
D12*
X3086891Y-3594891D02*
X3086891Y-3517109D01*
X3009109Y-3517109D01*
X3009109Y-3594891D01*
X3086891Y-3594891D01*
X3086891Y-4610891D02*
X3086891Y-4533109D01*
X3009109Y-4533109D01*
X3009109Y-4610891D01*
X3086891Y-4610891D01*
X3848891Y-3340891D02*
X3848891Y-3263109D01*
X3771109Y-3263109D01*
X3771109Y-3340891D01*
X3848891Y-3340891D01*
X3848891Y-4356891D02*
X3848891Y-4279109D01*
X3771109Y-4279109D01*
X3771109Y-4356891D01*
X3848891Y-4356891D01*
D13*
X1778000Y-3128000D02*
X1858000Y-3048000D01*
X1778000Y-2968000D01*
X1698000Y-3048000D01*
X1778000Y-3128000D01*
X1778000Y-3890000D02*
X1858000Y-3810000D01*
X1778000Y-3730000D01*
X1698000Y-3810000D01*
X1778000Y-3890000D01*
X1778000Y-4652000D02*
X1858000Y-4572000D01*
X1778000Y-4492000D01*
X1698000Y-4572000D01*
X1778000Y-4652000D01*
D14*
X1689000Y-1519000D02*
X1867000Y-1697000D01*
X1867000Y-1519000D02*
X1689000Y-1697000D01*
X1867000Y-1608000D02*
G75*
G02*
X1689000Y-1608000I-89000J0D01*
G01*
X1689000Y-1608000D02*
G75*
G02*
X1867000Y-1608000I89000J0D01*
G01*
X1689000Y-1859000D02*
X1867000Y-2037000D01*
X1867000Y-1859000D02*
X1689000Y-2037000D01*
X1867000Y-1948000D02*
G75*
G02*
X1689000Y-1948000I-89000J0D01*
G01*
X1689000Y-1948000D02*
G75*
G02*
X1867000Y-1948000I89000J0D01*
G01*
X2681000Y-1519000D02*
X2859000Y-1697000D01*
X2859000Y-1519000D02*
X2681000Y-1697000D01*
X2859000Y-1608000D02*
G75*
G02*
X2681000Y-1608000I-89000J0D01*
G01*
X2681000Y-1608000D02*
G75*
G02*
X2859000Y-1608000I89000J0D01*
G01*
X2681000Y-1859000D02*
X2859000Y-2037000D01*
X2859000Y-1859000D02*
X2681000Y-2037000D01*
X2859000Y-1948000D02*
G75*
G02*
X2681000Y-1948000I-89000J0D01*
G01*
X2681000Y-1948000D02*
G75*
G02*
X2859000Y-1948000I89000J0D01*
G01*
D11*
X1525777Y-5396484D02*
X1525777Y-5196484D01*
X1525777Y-5196484D02*
X1573396Y-5196484D01*
X1573396Y-5196484D02*
X1601967Y-5206008D01*
X1601967Y-5206008D02*
X1621015Y-5225055D01*
X1621015Y-5225055D02*
X1630539Y-5244103D01*
X1630539Y-5244103D02*
X1640062Y-5282198D01*
X1640062Y-5282198D02*
X1640062Y-5310770D01*
X1640062Y-5310770D02*
X1630539Y-5348865D01*
X1630539Y-5348865D02*
X1621015Y-5367912D01*
X1621015Y-5367912D02*
X1601967Y-5386960D01*
X1601967Y-5386960D02*
X1573396Y-5396484D01*
X1573396Y-5396484D02*
X1525777Y-5396484D01*
X1725777Y-5396484D02*
X1725777Y-5263150D01*
X1725777Y-5301246D02*
X1735301Y-5282198D01*
X1735301Y-5282198D02*
X1744824Y-5272674D01*
X1744824Y-5272674D02*
X1763872Y-5263150D01*
X1763872Y-5263150D02*
X1782920Y-5263150D01*
X1849586Y-5396484D02*
X1849586Y-5263150D01*
X1849586Y-5196484D02*
X1840062Y-5206008D01*
X1840062Y-5206008D02*
X1849586Y-5215531D01*
X1849586Y-5215531D02*
X1859110Y-5206008D01*
X1859110Y-5206008D02*
X1849586Y-5196484D01*
X1849586Y-5196484D02*
X1849586Y-5215531D01*
X1973396Y-5396484D02*
X1954348Y-5386960D01*
X1954348Y-5386960D02*
X1944824Y-5367912D01*
X1944824Y-5367912D02*
X1944824Y-5196484D01*
X2078158Y-5396484D02*
X2059110Y-5386960D01*
X2059110Y-5386960D02*
X2049586Y-5367912D01*
X2049586Y-5367912D02*
X2049586Y-5196484D01*
X2306729Y-5396484D02*
X2306729Y-5196484D01*
X2306729Y-5196484D02*
X2373396Y-5339341D01*
X2373396Y-5339341D02*
X2440063Y-5196484D01*
X2440063Y-5196484D02*
X2440063Y-5396484D01*
X2621015Y-5396484D02*
X2621015Y-5291722D01*
X2621015Y-5291722D02*
X2611491Y-5272674D01*
X2611491Y-5272674D02*
X2592444Y-5263150D01*
X2592444Y-5263150D02*
X2554348Y-5263150D01*
X2554348Y-5263150D02*
X2535301Y-5272674D01*
X2621015Y-5386960D02*
X2601967Y-5396484D01*
X2601967Y-5396484D02*
X2554348Y-5396484D01*
X2554348Y-5396484D02*
X2535301Y-5386960D01*
X2535301Y-5386960D02*
X2525777Y-5367912D01*
X2525777Y-5367912D02*
X2525777Y-5348865D01*
X2525777Y-5348865D02*
X2535301Y-5329817D01*
X2535301Y-5329817D02*
X2554348Y-5320293D01*
X2554348Y-5320293D02*
X2601967Y-5320293D01*
X2601967Y-5320293D02*
X2621015Y-5310770D01*
X2716253Y-5263150D02*
X2716253Y-5463150D01*
X2716253Y-5272674D02*
X2735301Y-5263150D01*
X2735301Y-5263150D02*
X2773396Y-5263150D01*
X2773396Y-5263150D02*
X2792444Y-5272674D01*
X2792444Y-5272674D02*
X2801967Y-5282198D01*
X2801967Y-5282198D02*
X2811491Y-5301246D01*
X2811491Y-5301246D02*
X2811491Y-5358389D01*
X2811491Y-5358389D02*
X2801967Y-5377436D01*
X2801967Y-5377436D02*
X2792444Y-5386960D01*
X2792444Y-5386960D02*
X2773396Y-5396484D01*
X2773396Y-5396484D02*
X2735301Y-5396484D01*
X2735301Y-5396484D02*
X2716253Y-5386960D01*
X2897205Y-5377436D02*
X2906729Y-5386960D01*
X2906729Y-5386960D02*
X2897205Y-5396484D01*
X2897205Y-5396484D02*
X2887682Y-5386960D01*
X2887682Y-5386960D02*
X2897205Y-5377436D01*
X2897205Y-5377436D02*
X2897205Y-5396484D01*
X2897205Y-5272674D02*
X2906729Y-5282198D01*
X2906729Y-5282198D02*
X2897205Y-5291722D01*
X2897205Y-5291722D02*
X2887682Y-5282198D01*
X2887682Y-5282198D02*
X2897205Y-5272674D01*
X2897205Y-5272674D02*
X2897205Y-5291722D01*
D10*
X1225000Y-5705000D02*
X1265000Y-5745000D01*
X1265000Y-5705000D02*
X1225000Y-5745000D01*
D11*
X1563872Y-5616484D02*
X1582920Y-5616484D01*
X1582920Y-5616484D02*
X1601967Y-5626008D01*
X1601967Y-5626008D02*
X1611491Y-5635531D01*
X1611491Y-5635531D02*
X1621015Y-5654579D01*
X1621015Y-5654579D02*
X1630539Y-5692674D01*
X1630539Y-5692674D02*
X1630539Y-5740293D01*
X1630539Y-5740293D02*
X1621015Y-5778388D01*
X1621015Y-5778388D02*
X1611491Y-5797436D01*
X1611491Y-5797436D02*
X1601967Y-5806960D01*
X1601967Y-5806960D02*
X1582920Y-5816484D01*
X1582920Y-5816484D02*
X1563872Y-5816484D01*
X1563872Y-5816484D02*
X1544824Y-5806960D01*
X1544824Y-5806960D02*
X1535301Y-5797436D01*
X1535301Y-5797436D02*
X1525777Y-5778388D01*
X1525777Y-5778388D02*
X1516253Y-5740293D01*
X1516253Y-5740293D02*
X1516253Y-5692674D01*
X1516253Y-5692674D02*
X1525777Y-5654579D01*
X1525777Y-5654579D02*
X1535301Y-5635531D01*
X1535301Y-5635531D02*
X1544824Y-5626008D01*
X1544824Y-5626008D02*
X1563872Y-5616484D01*
X1716253Y-5797436D02*
X1725777Y-5806960D01*
X1725777Y-5806960D02*
X1716253Y-5816484D01*
X1716253Y-5816484D02*
X1706729Y-5806960D01*
X1706729Y-5806960D02*
X1716253Y-5797436D01*
X1716253Y-5797436D02*
X1716253Y-5816484D01*
X1897205Y-5683150D02*
X1897205Y-5816484D01*
X1849586Y-5606960D02*
X1801967Y-5749817D01*
X1801967Y-5749817D02*
X1925777Y-5749817D01*
X2040062Y-5616484D02*
X2059110Y-5616484D01*
X2059110Y-5616484D02*
X2078158Y-5626008D01*
X2078158Y-5626008D02*
X2087682Y-5635531D01*
X2087682Y-5635531D02*
X2097205Y-5654579D01*
X2097205Y-5654579D02*
X2106729Y-5692674D01*
X2106729Y-5692674D02*
X2106729Y-5740293D01*
X2106729Y-5740293D02*
X2097205Y-5778388D01*
X2097205Y-5778388D02*
X2087682Y-5797436D01*
X2087682Y-5797436D02*
X2078158Y-5806960D01*
X2078158Y-5806960D02*
X2059110Y-5816484D01*
X2059110Y-5816484D02*
X2040062Y-5816484D01*
X2040062Y-5816484D02*
X2021015Y-5806960D01*
X2021015Y-5806960D02*
X2011491Y-5797436D01*
X2011491Y-5797436D02*
X2001967Y-5778388D01*
X2001967Y-5778388D02*
X1992443Y-5740293D01*
X1992443Y-5740293D02*
X1992443Y-5692674D01*
X1992443Y-5692674D02*
X2001967Y-5654579D01*
X2001967Y-5654579D02*
X2011491Y-5635531D01*
X2011491Y-5635531D02*
X2021015Y-5626008D01*
X2021015Y-5626008D02*
X2040062Y-5616484D01*
X2230539Y-5616484D02*
X2249586Y-5616484D01*
X2249586Y-5616484D02*
X2268634Y-5626008D01*
X2268634Y-5626008D02*
X2278158Y-5635531D01*
X2278158Y-5635531D02*
X2287682Y-5654579D01*
X2287682Y-5654579D02*
X2297205Y-5692674D01*
X2297205Y-5692674D02*
X2297205Y-5740293D01*
X2297205Y-5740293D02*
X2287682Y-5778388D01*
X2287682Y-5778388D02*
X2278158Y-5797436D01*
X2278158Y-5797436D02*
X2268634Y-5806960D01*
X2268634Y-5806960D02*
X2249586Y-5816484D01*
X2249586Y-5816484D02*
X2230539Y-5816484D01*
X2230539Y-5816484D02*
X2211491Y-5806960D01*
X2211491Y-5806960D02*
X2201967Y-5797436D01*
X2201967Y-5797436D02*
X2192444Y-5778388D01*
X2192444Y-5778388D02*
X2182920Y-5740293D01*
X2182920Y-5740293D02*
X2182920Y-5692674D01*
X2182920Y-5692674D02*
X2192444Y-5654579D01*
X2192444Y-5654579D02*
X2201967Y-5635531D01*
X2201967Y-5635531D02*
X2211491Y-5626008D01*
X2211491Y-5626008D02*
X2230539Y-5616484D01*
X2382920Y-5816484D02*
X2382920Y-5683150D01*
X2382920Y-5702198D02*
X2392444Y-5692674D01*
X2392444Y-5692674D02*
X2411491Y-5683150D01*
X2411491Y-5683150D02*
X2440063Y-5683150D01*
X2440063Y-5683150D02*
X2459110Y-5692674D01*
X2459110Y-5692674D02*
X2468634Y-5711722D01*
X2468634Y-5711722D02*
X2468634Y-5816484D01*
X2468634Y-5711722D02*
X2478158Y-5692674D01*
X2478158Y-5692674D02*
X2497205Y-5683150D01*
X2497205Y-5683150D02*
X2525777Y-5683150D01*
X2525777Y-5683150D02*
X2544825Y-5692674D01*
X2544825Y-5692674D02*
X2554348Y-5711722D01*
X2554348Y-5711722D02*
X2554348Y-5816484D01*
X2649586Y-5816484D02*
X2649586Y-5683150D01*
X2649586Y-5702198D02*
X2659110Y-5692674D01*
X2659110Y-5692674D02*
X2678158Y-5683150D01*
X2678158Y-5683150D02*
X2706729Y-5683150D01*
X2706729Y-5683150D02*
X2725777Y-5692674D01*
X2725777Y-5692674D02*
X2735301Y-5711722D01*
X2735301Y-5711722D02*
X2735301Y-5816484D01*
X2735301Y-5711722D02*
X2744825Y-5692674D01*
X2744825Y-5692674D02*
X2763872Y-5683150D01*
X2763872Y-5683150D02*
X2792444Y-5683150D01*
X2792444Y-5683150D02*
X2811491Y-5692674D01*
X2811491Y-5692674D02*
X2821015Y-5711722D01*
X2821015Y-5711722D02*
X2821015Y-5816484D01*
X3211491Y-5606960D02*
X3040063Y-5864103D01*
X3468634Y-5616484D02*
X3487682Y-5616484D01*
X3487682Y-5616484D02*
X3506729Y-5626008D01*
X3506729Y-5626008D02*
X3516253Y-5635531D01*
X3516253Y-5635531D02*
X3525777Y-5654579D01*
X3525777Y-5654579D02*
X3535301Y-5692674D01*
X3535301Y-5692674D02*
X3535301Y-5740293D01*
X3535301Y-5740293D02*
X3525777Y-5778388D01*
X3525777Y-5778388D02*
X3516253Y-5797436D01*
X3516253Y-5797436D02*
X3506729Y-5806960D01*
X3506729Y-5806960D02*
X3487682Y-5816484D01*
X3487682Y-5816484D02*
X3468634Y-5816484D01*
X3468634Y-5816484D02*
X3449586Y-5806960D01*
X3449586Y-5806960D02*
X3440063Y-5797436D01*
X3440063Y-5797436D02*
X3430539Y-5778388D01*
X3430539Y-5778388D02*
X3421015Y-5740293D01*
X3421015Y-5740293D02*
X3421015Y-5692674D01*
X3421015Y-5692674D02*
X3430539Y-5654579D01*
X3430539Y-5654579D02*
X3440063Y-5635531D01*
X3440063Y-5635531D02*
X3449586Y-5626008D01*
X3449586Y-5626008D02*
X3468634Y-5616484D01*
X3621015Y-5797436D02*
X3630539Y-5806960D01*
X3630539Y-5806960D02*
X3621015Y-5816484D01*
X3621015Y-5816484D02*
X3611491Y-5806960D01*
X3611491Y-5806960D02*
X3621015Y-5797436D01*
X3621015Y-5797436D02*
X3621015Y-5816484D01*
X3754348Y-5616484D02*
X3773396Y-5616484D01*
X3773396Y-5616484D02*
X3792444Y-5626008D01*
X3792444Y-5626008D02*
X3801967Y-5635531D01*
X3801967Y-5635531D02*
X3811491Y-5654579D01*
X3811491Y-5654579D02*
X3821015Y-5692674D01*
X3821015Y-5692674D02*
X3821015Y-5740293D01*
X3821015Y-5740293D02*
X3811491Y-5778388D01*
X3811491Y-5778388D02*
X3801967Y-5797436D01*
X3801967Y-5797436D02*
X3792444Y-5806960D01*
X3792444Y-5806960D02*
X3773396Y-5816484D01*
X3773396Y-5816484D02*
X3754348Y-5816484D01*
X3754348Y-5816484D02*
X3735301Y-5806960D01*
X3735301Y-5806960D02*
X3725777Y-5797436D01*
X3725777Y-5797436D02*
X3716253Y-5778388D01*
X3716253Y-5778388D02*
X3706729Y-5740293D01*
X3706729Y-5740293D02*
X3706729Y-5692674D01*
X3706729Y-5692674D02*
X3716253Y-5654579D01*
X3716253Y-5654579D02*
X3725777Y-5635531D01*
X3725777Y-5635531D02*
X3735301Y-5626008D01*
X3735301Y-5626008D02*
X3754348Y-5616484D01*
X4011491Y-5816484D02*
X3897206Y-5816484D01*
X3954348Y-5816484D02*
X3954348Y-5616484D01*
X3954348Y-5616484D02*
X3935301Y-5645055D01*
X3935301Y-5645055D02*
X3916253Y-5664103D01*
X3916253Y-5664103D02*
X3897206Y-5673627D01*
X4192444Y-5616484D02*
X4097206Y-5616484D01*
X4097206Y-5616484D02*
X4087682Y-5711722D01*
X4087682Y-5711722D02*
X4097206Y-5702198D01*
X4097206Y-5702198D02*
X4116253Y-5692674D01*
X4116253Y-5692674D02*
X4163872Y-5692674D01*
X4163872Y-5692674D02*
X4182920Y-5702198D01*
X4182920Y-5702198D02*
X4192444Y-5711722D01*
X4192444Y-5711722D02*
X4201968Y-5730769D01*
X4201968Y-5730769D02*
X4201968Y-5778388D01*
X4201968Y-5778388D02*
X4192444Y-5797436D01*
X4192444Y-5797436D02*
X4182920Y-5806960D01*
X4182920Y-5806960D02*
X4163872Y-5816484D01*
X4163872Y-5816484D02*
X4116253Y-5816484D01*
X4116253Y-5816484D02*
X4097206Y-5806960D01*
X4097206Y-5806960D02*
X4087682Y-5797436D01*
X4268634Y-5616484D02*
X4401968Y-5616484D01*
X4401968Y-5616484D02*
X4316253Y-5816484D01*
X4468634Y-5616484D02*
X4468634Y-5654579D01*
X4544825Y-5616484D02*
X4544825Y-5654579D01*
X4840063Y-5892674D02*
X4830539Y-5883150D01*
X4830539Y-5883150D02*
X4811491Y-5854579D01*
X4811491Y-5854579D02*
X4801968Y-5835531D01*
X4801968Y-5835531D02*
X4792444Y-5806960D01*
X4792444Y-5806960D02*
X4782920Y-5759341D01*
X4782920Y-5759341D02*
X4782920Y-5721246D01*
X4782920Y-5721246D02*
X4792444Y-5673627D01*
X4792444Y-5673627D02*
X4801968Y-5645055D01*
X4801968Y-5645055D02*
X4811491Y-5626008D01*
X4811491Y-5626008D02*
X4830539Y-5597436D01*
X4830539Y-5597436D02*
X4840063Y-5587912D01*
X5021015Y-5816484D02*
X4906730Y-5816484D01*
X4963872Y-5816484D02*
X4963872Y-5616484D01*
X4963872Y-5616484D02*
X4944825Y-5645055D01*
X4944825Y-5645055D02*
X4925777Y-5664103D01*
X4925777Y-5664103D02*
X4906730Y-5673627D01*
X5259111Y-5816484D02*
X5259111Y-5616484D01*
X5344825Y-5816484D02*
X5344825Y-5711722D01*
X5344825Y-5711722D02*
X5335301Y-5692674D01*
X5335301Y-5692674D02*
X5316253Y-5683150D01*
X5316253Y-5683150D02*
X5287682Y-5683150D01*
X5287682Y-5683150D02*
X5268634Y-5692674D01*
X5268634Y-5692674D02*
X5259111Y-5702198D01*
X5468634Y-5816484D02*
X5449587Y-5806960D01*
X5449587Y-5806960D02*
X5440063Y-5797436D01*
X5440063Y-5797436D02*
X5430539Y-5778388D01*
X5430539Y-5778388D02*
X5430539Y-5721246D01*
X5430539Y-5721246D02*
X5440063Y-5702198D01*
X5440063Y-5702198D02*
X5449587Y-5692674D01*
X5449587Y-5692674D02*
X5468634Y-5683150D01*
X5468634Y-5683150D02*
X5497206Y-5683150D01*
X5497206Y-5683150D02*
X5516253Y-5692674D01*
X5516253Y-5692674D02*
X5525777Y-5702198D01*
X5525777Y-5702198D02*
X5535301Y-5721246D01*
X5535301Y-5721246D02*
X5535301Y-5778388D01*
X5535301Y-5778388D02*
X5525777Y-5797436D01*
X5525777Y-5797436D02*
X5516253Y-5806960D01*
X5516253Y-5806960D02*
X5497206Y-5816484D01*
X5497206Y-5816484D02*
X5468634Y-5816484D01*
X5649587Y-5816484D02*
X5630539Y-5806960D01*
X5630539Y-5806960D02*
X5621015Y-5787912D01*
X5621015Y-5787912D02*
X5621015Y-5616484D01*
X5801968Y-5806960D02*
X5782920Y-5816484D01*
X5782920Y-5816484D02*
X5744825Y-5816484D01*
X5744825Y-5816484D02*
X5725777Y-5806960D01*
X5725777Y-5806960D02*
X5716253Y-5787912D01*
X5716253Y-5787912D02*
X5716253Y-5711722D01*
X5716253Y-5711722D02*
X5725777Y-5692674D01*
X5725777Y-5692674D02*
X5744825Y-5683150D01*
X5744825Y-5683150D02*
X5782920Y-5683150D01*
X5782920Y-5683150D02*
X5801968Y-5692674D01*
X5801968Y-5692674D02*
X5811491Y-5711722D01*
X5811491Y-5711722D02*
X5811491Y-5730769D01*
X5811491Y-5730769D02*
X5716253Y-5749817D01*
X5878158Y-5892674D02*
X5887682Y-5883150D01*
X5887682Y-5883150D02*
X5906730Y-5854579D01*
X5906730Y-5854579D02*
X5916253Y-5835531D01*
X5916253Y-5835531D02*
X5925777Y-5806960D01*
X5925777Y-5806960D02*
X5935301Y-5759341D01*
X5935301Y-5759341D02*
X5935301Y-5721246D01*
X5935301Y-5721246D02*
X5925777Y-5673627D01*
X5925777Y-5673627D02*
X5916253Y-5645055D01*
X5916253Y-5645055D02*
X5906730Y-5626008D01*
X5906730Y-5626008D02*
X5887682Y-5597436D01*
X5887682Y-5597436D02*
X5878158Y-5587912D01*
D10*
X1265000Y-5989000D02*
G75*
G02*
X1185000Y-5989000I-40000J0D01*
G01*
X1185000Y-5989000D02*
G75*
G02*
X1265000Y-5989000I40000J0D01*
G01*
D11*
X1563872Y-5880484D02*
X1582920Y-5880484D01*
X1582920Y-5880484D02*
X1601967Y-5890008D01*
X1601967Y-5890008D02*
X1611491Y-5899531D01*
X1611491Y-5899531D02*
X1621015Y-5918579D01*
X1621015Y-5918579D02*
X1630539Y-5956674D01*
X1630539Y-5956674D02*
X1630539Y-6004293D01*
X1630539Y-6004293D02*
X1621015Y-6042388D01*
X1621015Y-6042388D02*
X1611491Y-6061436D01*
X1611491Y-6061436D02*
X1601967Y-6070960D01*
X1601967Y-6070960D02*
X1582920Y-6080484D01*
X1582920Y-6080484D02*
X1563872Y-6080484D01*
X1563872Y-6080484D02*
X1544824Y-6070960D01*
X1544824Y-6070960D02*
X1535301Y-6061436D01*
X1535301Y-6061436D02*
X1525777Y-6042388D01*
X1525777Y-6042388D02*
X1516253Y-6004293D01*
X1516253Y-6004293D02*
X1516253Y-5956674D01*
X1516253Y-5956674D02*
X1525777Y-5918579D01*
X1525777Y-5918579D02*
X1535301Y-5899531D01*
X1535301Y-5899531D02*
X1544824Y-5890008D01*
X1544824Y-5890008D02*
X1563872Y-5880484D01*
X1716253Y-6061436D02*
X1725777Y-6070960D01*
X1725777Y-6070960D02*
X1716253Y-6080484D01*
X1716253Y-6080484D02*
X1706729Y-6070960D01*
X1706729Y-6070960D02*
X1716253Y-6061436D01*
X1716253Y-6061436D02*
X1716253Y-6080484D01*
X1840062Y-5966198D02*
X1821015Y-5956674D01*
X1821015Y-5956674D02*
X1811491Y-5947150D01*
X1811491Y-5947150D02*
X1801967Y-5928103D01*
X1801967Y-5928103D02*
X1801967Y-5918579D01*
X1801967Y-5918579D02*
X1811491Y-5899531D01*
X1811491Y-5899531D02*
X1821015Y-5890008D01*
X1821015Y-5890008D02*
X1840062Y-5880484D01*
X1840062Y-5880484D02*
X1878158Y-5880484D01*
X1878158Y-5880484D02*
X1897205Y-5890008D01*
X1897205Y-5890008D02*
X1906729Y-5899531D01*
X1906729Y-5899531D02*
X1916253Y-5918579D01*
X1916253Y-5918579D02*
X1916253Y-5928103D01*
X1916253Y-5928103D02*
X1906729Y-5947150D01*
X1906729Y-5947150D02*
X1897205Y-5956674D01*
X1897205Y-5956674D02*
X1878158Y-5966198D01*
X1878158Y-5966198D02*
X1840062Y-5966198D01*
X1840062Y-5966198D02*
X1821015Y-5975722D01*
X1821015Y-5975722D02*
X1811491Y-5985246D01*
X1811491Y-5985246D02*
X1801967Y-6004293D01*
X1801967Y-6004293D02*
X1801967Y-6042388D01*
X1801967Y-6042388D02*
X1811491Y-6061436D01*
X1811491Y-6061436D02*
X1821015Y-6070960D01*
X1821015Y-6070960D02*
X1840062Y-6080484D01*
X1840062Y-6080484D02*
X1878158Y-6080484D01*
X1878158Y-6080484D02*
X1897205Y-6070960D01*
X1897205Y-6070960D02*
X1906729Y-6061436D01*
X1906729Y-6061436D02*
X1916253Y-6042388D01*
X1916253Y-6042388D02*
X1916253Y-6004293D01*
X1916253Y-6004293D02*
X1906729Y-5985246D01*
X1906729Y-5985246D02*
X1897205Y-5975722D01*
X1897205Y-5975722D02*
X1878158Y-5966198D01*
X2040062Y-5880484D02*
X2059110Y-5880484D01*
X2059110Y-5880484D02*
X2078158Y-5890008D01*
X2078158Y-5890008D02*
X2087682Y-5899531D01*
X2087682Y-5899531D02*
X2097205Y-5918579D01*
X2097205Y-5918579D02*
X2106729Y-5956674D01*
X2106729Y-5956674D02*
X2106729Y-6004293D01*
X2106729Y-6004293D02*
X2097205Y-6042388D01*
X2097205Y-6042388D02*
X2087682Y-6061436D01*
X2087682Y-6061436D02*
X2078158Y-6070960D01*
X2078158Y-6070960D02*
X2059110Y-6080484D01*
X2059110Y-6080484D02*
X2040062Y-6080484D01*
X2040062Y-6080484D02*
X2021015Y-6070960D01*
X2021015Y-6070960D02*
X2011491Y-6061436D01*
X2011491Y-6061436D02*
X2001967Y-6042388D01*
X2001967Y-6042388D02*
X1992443Y-6004293D01*
X1992443Y-6004293D02*
X1992443Y-5956674D01*
X1992443Y-5956674D02*
X2001967Y-5918579D01*
X2001967Y-5918579D02*
X2011491Y-5899531D01*
X2011491Y-5899531D02*
X2021015Y-5890008D01*
X2021015Y-5890008D02*
X2040062Y-5880484D01*
X2230539Y-5880484D02*
X2249586Y-5880484D01*
X2249586Y-5880484D02*
X2268634Y-5890008D01*
X2268634Y-5890008D02*
X2278158Y-5899531D01*
X2278158Y-5899531D02*
X2287682Y-5918579D01*
X2287682Y-5918579D02*
X2297205Y-5956674D01*
X2297205Y-5956674D02*
X2297205Y-6004293D01*
X2297205Y-6004293D02*
X2287682Y-6042388D01*
X2287682Y-6042388D02*
X2278158Y-6061436D01*
X2278158Y-6061436D02*
X2268634Y-6070960D01*
X2268634Y-6070960D02*
X2249586Y-6080484D01*
X2249586Y-6080484D02*
X2230539Y-6080484D01*
X2230539Y-6080484D02*
X2211491Y-6070960D01*
X2211491Y-6070960D02*
X2201967Y-6061436D01*
X2201967Y-6061436D02*
X2192444Y-6042388D01*
X2192444Y-6042388D02*
X2182920Y-6004293D01*
X2182920Y-6004293D02*
X2182920Y-5956674D01*
X2182920Y-5956674D02*
X2192444Y-5918579D01*
X2192444Y-5918579D02*
X2201967Y-5899531D01*
X2201967Y-5899531D02*
X2211491Y-5890008D01*
X2211491Y-5890008D02*
X2230539Y-5880484D01*
X2382920Y-6080484D02*
X2382920Y-5947150D01*
X2382920Y-5966198D02*
X2392444Y-5956674D01*
X2392444Y-5956674D02*
X2411491Y-5947150D01*
X2411491Y-5947150D02*
X2440063Y-5947150D01*
X2440063Y-5947150D02*
X2459110Y-5956674D01*
X2459110Y-5956674D02*
X2468634Y-5975722D01*
X2468634Y-5975722D02*
X2468634Y-6080484D01*
X2468634Y-5975722D02*
X2478158Y-5956674D01*
X2478158Y-5956674D02*
X2497205Y-5947150D01*
X2497205Y-5947150D02*
X2525777Y-5947150D01*
X2525777Y-5947150D02*
X2544825Y-5956674D01*
X2544825Y-5956674D02*
X2554348Y-5975722D01*
X2554348Y-5975722D02*
X2554348Y-6080484D01*
X2649586Y-6080484D02*
X2649586Y-5947150D01*
X2649586Y-5966198D02*
X2659110Y-5956674D01*
X2659110Y-5956674D02*
X2678158Y-5947150D01*
X2678158Y-5947150D02*
X2706729Y-5947150D01*
X2706729Y-5947150D02*
X2725777Y-5956674D01*
X2725777Y-5956674D02*
X2735301Y-5975722D01*
X2735301Y-5975722D02*
X2735301Y-6080484D01*
X2735301Y-5975722D02*
X2744825Y-5956674D01*
X2744825Y-5956674D02*
X2763872Y-5947150D01*
X2763872Y-5947150D02*
X2792444Y-5947150D01*
X2792444Y-5947150D02*
X2811491Y-5956674D01*
X2811491Y-5956674D02*
X2821015Y-5975722D01*
X2821015Y-5975722D02*
X2821015Y-6080484D01*
X3211491Y-5870960D02*
X3040063Y-6128103D01*
X3468634Y-5880484D02*
X3487682Y-5880484D01*
X3487682Y-5880484D02*
X3506729Y-5890008D01*
X3506729Y-5890008D02*
X3516253Y-5899531D01*
X3516253Y-5899531D02*
X3525777Y-5918579D01*
X3525777Y-5918579D02*
X3535301Y-5956674D01*
X3535301Y-5956674D02*
X3535301Y-6004293D01*
X3535301Y-6004293D02*
X3525777Y-6042388D01*
X3525777Y-6042388D02*
X3516253Y-6061436D01*
X3516253Y-6061436D02*
X3506729Y-6070960D01*
X3506729Y-6070960D02*
X3487682Y-6080484D01*
X3487682Y-6080484D02*
X3468634Y-6080484D01*
X3468634Y-6080484D02*
X3449586Y-6070960D01*
X3449586Y-6070960D02*
X3440063Y-6061436D01*
X3440063Y-6061436D02*
X3430539Y-6042388D01*
X3430539Y-6042388D02*
X3421015Y-6004293D01*
X3421015Y-6004293D02*
X3421015Y-5956674D01*
X3421015Y-5956674D02*
X3430539Y-5918579D01*
X3430539Y-5918579D02*
X3440063Y-5899531D01*
X3440063Y-5899531D02*
X3449586Y-5890008D01*
X3449586Y-5890008D02*
X3468634Y-5880484D01*
X3621015Y-6061436D02*
X3630539Y-6070960D01*
X3630539Y-6070960D02*
X3621015Y-6080484D01*
X3621015Y-6080484D02*
X3611491Y-6070960D01*
X3611491Y-6070960D02*
X3621015Y-6061436D01*
X3621015Y-6061436D02*
X3621015Y-6080484D01*
X3754348Y-5880484D02*
X3773396Y-5880484D01*
X3773396Y-5880484D02*
X3792444Y-5890008D01*
X3792444Y-5890008D02*
X3801967Y-5899531D01*
X3801967Y-5899531D02*
X3811491Y-5918579D01*
X3811491Y-5918579D02*
X3821015Y-5956674D01*
X3821015Y-5956674D02*
X3821015Y-6004293D01*
X3821015Y-6004293D02*
X3811491Y-6042388D01*
X3811491Y-6042388D02*
X3801967Y-6061436D01*
X3801967Y-6061436D02*
X3792444Y-6070960D01*
X3792444Y-6070960D02*
X3773396Y-6080484D01*
X3773396Y-6080484D02*
X3754348Y-6080484D01*
X3754348Y-6080484D02*
X3735301Y-6070960D01*
X3735301Y-6070960D02*
X3725777Y-6061436D01*
X3725777Y-6061436D02*
X3716253Y-6042388D01*
X3716253Y-6042388D02*
X3706729Y-6004293D01*
X3706729Y-6004293D02*
X3706729Y-5956674D01*
X3706729Y-5956674D02*
X3716253Y-5918579D01*
X3716253Y-5918579D02*
X3725777Y-5899531D01*
X3725777Y-5899531D02*
X3735301Y-5890008D01*
X3735301Y-5890008D02*
X3754348Y-5880484D01*
X3887682Y-5880484D02*
X4011491Y-5880484D01*
X4011491Y-5880484D02*
X3944825Y-5956674D01*
X3944825Y-5956674D02*
X3973396Y-5956674D01*
X3973396Y-5956674D02*
X3992444Y-5966198D01*
X3992444Y-5966198D02*
X4001967Y-5975722D01*
X4001967Y-5975722D02*
X4011491Y-5994769D01*
X4011491Y-5994769D02*
X4011491Y-6042388D01*
X4011491Y-6042388D02*
X4001967Y-6061436D01*
X4001967Y-6061436D02*
X3992444Y-6070960D01*
X3992444Y-6070960D02*
X3973396Y-6080484D01*
X3973396Y-6080484D02*
X3916253Y-6080484D01*
X3916253Y-6080484D02*
X3897206Y-6070960D01*
X3897206Y-6070960D02*
X3887682Y-6061436D01*
X4201968Y-6080484D02*
X4087682Y-6080484D01*
X4144825Y-6080484D02*
X4144825Y-5880484D01*
X4144825Y-5880484D02*
X4125777Y-5909055D01*
X4125777Y-5909055D02*
X4106729Y-5928103D01*
X4106729Y-5928103D02*
X4087682Y-5937627D01*
X4382920Y-5880484D02*
X4287682Y-5880484D01*
X4287682Y-5880484D02*
X4278158Y-5975722D01*
X4278158Y-5975722D02*
X4287682Y-5966198D01*
X4287682Y-5966198D02*
X4306729Y-5956674D01*
X4306729Y-5956674D02*
X4354349Y-5956674D01*
X4354349Y-5956674D02*
X4373396Y-5966198D01*
X4373396Y-5966198D02*
X4382920Y-5975722D01*
X4382920Y-5975722D02*
X4392444Y-5994769D01*
X4392444Y-5994769D02*
X4392444Y-6042388D01*
X4392444Y-6042388D02*
X4382920Y-6061436D01*
X4382920Y-6061436D02*
X4373396Y-6070960D01*
X4373396Y-6070960D02*
X4354349Y-6080484D01*
X4354349Y-6080484D02*
X4306729Y-6080484D01*
X4306729Y-6080484D02*
X4287682Y-6070960D01*
X4287682Y-6070960D02*
X4278158Y-6061436D01*
X4468634Y-5880484D02*
X4468634Y-5918579D01*
X4544825Y-5880484D02*
X4544825Y-5918579D01*
X4840063Y-6156674D02*
X4830539Y-6147150D01*
X4830539Y-6147150D02*
X4811491Y-6118579D01*
X4811491Y-6118579D02*
X4801968Y-6099531D01*
X4801968Y-6099531D02*
X4792444Y-6070960D01*
X4792444Y-6070960D02*
X4782920Y-6023341D01*
X4782920Y-6023341D02*
X4782920Y-5985246D01*
X4782920Y-5985246D02*
X4792444Y-5937627D01*
X4792444Y-5937627D02*
X4801968Y-5909055D01*
X4801968Y-5909055D02*
X4811491Y-5890008D01*
X4811491Y-5890008D02*
X4830539Y-5861436D01*
X4830539Y-5861436D02*
X4840063Y-5851912D01*
X5021015Y-6080484D02*
X4906730Y-6080484D01*
X4963872Y-6080484D02*
X4963872Y-5880484D01*
X4963872Y-5880484D02*
X4944825Y-5909055D01*
X4944825Y-5909055D02*
X4925777Y-5928103D01*
X4925777Y-5928103D02*
X4906730Y-5937627D01*
X5192444Y-5880484D02*
X5154349Y-5880484D01*
X5154349Y-5880484D02*
X5135301Y-5890008D01*
X5135301Y-5890008D02*
X5125777Y-5899531D01*
X5125777Y-5899531D02*
X5106730Y-5928103D01*
X5106730Y-5928103D02*
X5097206Y-5966198D01*
X5097206Y-5966198D02*
X5097206Y-6042388D01*
X5097206Y-6042388D02*
X5106730Y-6061436D01*
X5106730Y-6061436D02*
X5116253Y-6070960D01*
X5116253Y-6070960D02*
X5135301Y-6080484D01*
X5135301Y-6080484D02*
X5173396Y-6080484D01*
X5173396Y-6080484D02*
X5192444Y-6070960D01*
X5192444Y-6070960D02*
X5201968Y-6061436D01*
X5201968Y-6061436D02*
X5211491Y-6042388D01*
X5211491Y-6042388D02*
X5211491Y-5994769D01*
X5211491Y-5994769D02*
X5201968Y-5975722D01*
X5201968Y-5975722D02*
X5192444Y-5966198D01*
X5192444Y-5966198D02*
X5173396Y-5956674D01*
X5173396Y-5956674D02*
X5135301Y-5956674D01*
X5135301Y-5956674D02*
X5116253Y-5966198D01*
X5116253Y-5966198D02*
X5106730Y-5975722D01*
X5106730Y-5975722D02*
X5097206Y-5994769D01*
X5449587Y-6080484D02*
X5449587Y-5880484D01*
X5535301Y-6080484D02*
X5535301Y-5975722D01*
X5535301Y-5975722D02*
X5525777Y-5956674D01*
X5525777Y-5956674D02*
X5506730Y-5947150D01*
X5506730Y-5947150D02*
X5478158Y-5947150D01*
X5478158Y-5947150D02*
X5459111Y-5956674D01*
X5459111Y-5956674D02*
X5449587Y-5966198D01*
X5659110Y-6080484D02*
X5640063Y-6070960D01*
X5640063Y-6070960D02*
X5630539Y-6061436D01*
X5630539Y-6061436D02*
X5621015Y-6042388D01*
X5621015Y-6042388D02*
X5621015Y-5985246D01*
X5621015Y-5985246D02*
X5630539Y-5966198D01*
X5630539Y-5966198D02*
X5640063Y-5956674D01*
X5640063Y-5956674D02*
X5659110Y-5947150D01*
X5659110Y-5947150D02*
X5687682Y-5947150D01*
X5687682Y-5947150D02*
X5706730Y-5956674D01*
X5706730Y-5956674D02*
X5716253Y-5966198D01*
X5716253Y-5966198D02*
X5725777Y-5985246D01*
X5725777Y-5985246D02*
X5725777Y-6042388D01*
X5725777Y-6042388D02*
X5716253Y-6061436D01*
X5716253Y-6061436D02*
X5706730Y-6070960D01*
X5706730Y-6070960D02*
X5687682Y-6080484D01*
X5687682Y-6080484D02*
X5659110Y-6080484D01*
X5840063Y-6080484D02*
X5821015Y-6070960D01*
X5821015Y-6070960D02*
X5811491Y-6051912D01*
X5811491Y-6051912D02*
X5811491Y-5880484D01*
X5992444Y-6070960D02*
X5973396Y-6080484D01*
X5973396Y-6080484D02*
X5935301Y-6080484D01*
X5935301Y-6080484D02*
X5916253Y-6070960D01*
X5916253Y-6070960D02*
X5906730Y-6051912D01*
X5906730Y-6051912D02*
X5906730Y-5975722D01*
X5906730Y-5975722D02*
X5916253Y-5956674D01*
X5916253Y-5956674D02*
X5935301Y-5947150D01*
X5935301Y-5947150D02*
X5973396Y-5947150D01*
X5973396Y-5947150D02*
X5992444Y-5956674D01*
X5992444Y-5956674D02*
X6001968Y-5975722D01*
X6001968Y-5975722D02*
X6001968Y-5994769D01*
X6001968Y-5994769D02*
X5906730Y-6013817D01*
X6078158Y-6070960D02*
X6097206Y-6080484D01*
X6097206Y-6080484D02*
X6135301Y-6080484D01*
X6135301Y-6080484D02*
X6154349Y-6070960D01*
X6154349Y-6070960D02*
X6163872Y-6051912D01*
X6163872Y-6051912D02*
X6163872Y-6042388D01*
X6163872Y-6042388D02*
X6154349Y-6023341D01*
X6154349Y-6023341D02*
X6135301Y-6013817D01*
X6135301Y-6013817D02*
X6106730Y-6013817D01*
X6106730Y-6013817D02*
X6087682Y-6004293D01*
X6087682Y-6004293D02*
X6078158Y-5985246D01*
X6078158Y-5985246D02*
X6078158Y-5975722D01*
X6078158Y-5975722D02*
X6087682Y-5956674D01*
X6087682Y-5956674D02*
X6106730Y-5947150D01*
X6106730Y-5947150D02*
X6135301Y-5947150D01*
X6135301Y-5947150D02*
X6154349Y-5956674D01*
X6230539Y-6156674D02*
X6240063Y-6147150D01*
X6240063Y-6147150D02*
X6259111Y-6118579D01*
X6259111Y-6118579D02*
X6268634Y-6099531D01*
X6268634Y-6099531D02*
X6278158Y-6070960D01*
X6278158Y-6070960D02*
X6287682Y-6023341D01*
X6287682Y-6023341D02*
X6287682Y-5985246D01*
X6287682Y-5985246D02*
X6278158Y-5937627D01*
X6278158Y-5937627D02*
X6268634Y-5909055D01*
X6268634Y-5909055D02*
X6259111Y-5890008D01*
X6259111Y-5890008D02*
X6240063Y-5861436D01*
X6240063Y-5861436D02*
X6230539Y-5851912D01*
D10*
X1215000Y-6203000D02*
X1215000Y-6303000D01*
X1165000Y-6253000D02*
X1265000Y-6253000D01*
D11*
X1630539Y-6344484D02*
X1516253Y-6344484D01*
X1573396Y-6344484D02*
X1573396Y-6144484D01*
X1573396Y-6144484D02*
X1554348Y-6173055D01*
X1554348Y-6173055D02*
X1535301Y-6192103D01*
X1535301Y-6192103D02*
X1516253Y-6201627D01*
X1716253Y-6325436D02*
X1725777Y-6334960D01*
X1725777Y-6334960D02*
X1716253Y-6344484D01*
X1716253Y-6344484D02*
X1706729Y-6334960D01*
X1706729Y-6334960D02*
X1716253Y-6325436D01*
X1716253Y-6325436D02*
X1716253Y-6344484D01*
X1849586Y-6144484D02*
X1868634Y-6144484D01*
X1868634Y-6144484D02*
X1887682Y-6154008D01*
X1887682Y-6154008D02*
X1897205Y-6163531D01*
X1897205Y-6163531D02*
X1906729Y-6182579D01*
X1906729Y-6182579D02*
X1916253Y-6220674D01*
X1916253Y-6220674D02*
X1916253Y-6268293D01*
X1916253Y-6268293D02*
X1906729Y-6306388D01*
X1906729Y-6306388D02*
X1897205Y-6325436D01*
X1897205Y-6325436D02*
X1887682Y-6334960D01*
X1887682Y-6334960D02*
X1868634Y-6344484D01*
X1868634Y-6344484D02*
X1849586Y-6344484D01*
X1849586Y-6344484D02*
X1830539Y-6334960D01*
X1830539Y-6334960D02*
X1821015Y-6325436D01*
X1821015Y-6325436D02*
X1811491Y-6306388D01*
X1811491Y-6306388D02*
X1801967Y-6268293D01*
X1801967Y-6268293D02*
X1801967Y-6220674D01*
X1801967Y-6220674D02*
X1811491Y-6182579D01*
X1811491Y-6182579D02*
X1821015Y-6163531D01*
X1821015Y-6163531D02*
X1830539Y-6154008D01*
X1830539Y-6154008D02*
X1849586Y-6144484D01*
X2040062Y-6144484D02*
X2059110Y-6144484D01*
X2059110Y-6144484D02*
X2078158Y-6154008D01*
X2078158Y-6154008D02*
X2087682Y-6163531D01*
X2087682Y-6163531D02*
X2097205Y-6182579D01*
X2097205Y-6182579D02*
X2106729Y-6220674D01*
X2106729Y-6220674D02*
X2106729Y-6268293D01*
X2106729Y-6268293D02*
X2097205Y-6306388D01*
X2097205Y-6306388D02*
X2087682Y-6325436D01*
X2087682Y-6325436D02*
X2078158Y-6334960D01*
X2078158Y-6334960D02*
X2059110Y-6344484D01*
X2059110Y-6344484D02*
X2040062Y-6344484D01*
X2040062Y-6344484D02*
X2021015Y-6334960D01*
X2021015Y-6334960D02*
X2011491Y-6325436D01*
X2011491Y-6325436D02*
X2001967Y-6306388D01*
X2001967Y-6306388D02*
X1992443Y-6268293D01*
X1992443Y-6268293D02*
X1992443Y-6220674D01*
X1992443Y-6220674D02*
X2001967Y-6182579D01*
X2001967Y-6182579D02*
X2011491Y-6163531D01*
X2011491Y-6163531D02*
X2021015Y-6154008D01*
X2021015Y-6154008D02*
X2040062Y-6144484D01*
X2230539Y-6144484D02*
X2249586Y-6144484D01*
X2249586Y-6144484D02*
X2268634Y-6154008D01*
X2268634Y-6154008D02*
X2278158Y-6163531D01*
X2278158Y-6163531D02*
X2287682Y-6182579D01*
X2287682Y-6182579D02*
X2297205Y-6220674D01*
X2297205Y-6220674D02*
X2297205Y-6268293D01*
X2297205Y-6268293D02*
X2287682Y-6306388D01*
X2287682Y-6306388D02*
X2278158Y-6325436D01*
X2278158Y-6325436D02*
X2268634Y-6334960D01*
X2268634Y-6334960D02*
X2249586Y-6344484D01*
X2249586Y-6344484D02*
X2230539Y-6344484D01*
X2230539Y-6344484D02*
X2211491Y-6334960D01*
X2211491Y-6334960D02*
X2201967Y-6325436D01*
X2201967Y-6325436D02*
X2192444Y-6306388D01*
X2192444Y-6306388D02*
X2182920Y-6268293D01*
X2182920Y-6268293D02*
X2182920Y-6220674D01*
X2182920Y-6220674D02*
X2192444Y-6182579D01*
X2192444Y-6182579D02*
X2201967Y-6163531D01*
X2201967Y-6163531D02*
X2211491Y-6154008D01*
X2211491Y-6154008D02*
X2230539Y-6144484D01*
X2382920Y-6344484D02*
X2382920Y-6211150D01*
X2382920Y-6230198D02*
X2392444Y-6220674D01*
X2392444Y-6220674D02*
X2411491Y-6211150D01*
X2411491Y-6211150D02*
X2440063Y-6211150D01*
X2440063Y-6211150D02*
X2459110Y-6220674D01*
X2459110Y-6220674D02*
X2468634Y-6239722D01*
X2468634Y-6239722D02*
X2468634Y-6344484D01*
X2468634Y-6239722D02*
X2478158Y-6220674D01*
X2478158Y-6220674D02*
X2497205Y-6211150D01*
X2497205Y-6211150D02*
X2525777Y-6211150D01*
X2525777Y-6211150D02*
X2544825Y-6220674D01*
X2544825Y-6220674D02*
X2554348Y-6239722D01*
X2554348Y-6239722D02*
X2554348Y-6344484D01*
X2649586Y-6344484D02*
X2649586Y-6211150D01*
X2649586Y-6230198D02*
X2659110Y-6220674D01*
X2659110Y-6220674D02*
X2678158Y-6211150D01*
X2678158Y-6211150D02*
X2706729Y-6211150D01*
X2706729Y-6211150D02*
X2725777Y-6220674D01*
X2725777Y-6220674D02*
X2735301Y-6239722D01*
X2735301Y-6239722D02*
X2735301Y-6344484D01*
X2735301Y-6239722D02*
X2744825Y-6220674D01*
X2744825Y-6220674D02*
X2763872Y-6211150D01*
X2763872Y-6211150D02*
X2792444Y-6211150D01*
X2792444Y-6211150D02*
X2811491Y-6220674D01*
X2811491Y-6220674D02*
X2821015Y-6239722D01*
X2821015Y-6239722D02*
X2821015Y-6344484D01*
X3211491Y-6134960D02*
X3040063Y-6392103D01*
X3468634Y-6144484D02*
X3487682Y-6144484D01*
X3487682Y-6144484D02*
X3506729Y-6154008D01*
X3506729Y-6154008D02*
X3516253Y-6163531D01*
X3516253Y-6163531D02*
X3525777Y-6182579D01*
X3525777Y-6182579D02*
X3535301Y-6220674D01*
X3535301Y-6220674D02*
X3535301Y-6268293D01*
X3535301Y-6268293D02*
X3525777Y-6306388D01*
X3525777Y-6306388D02*
X3516253Y-6325436D01*
X3516253Y-6325436D02*
X3506729Y-6334960D01*
X3506729Y-6334960D02*
X3487682Y-6344484D01*
X3487682Y-6344484D02*
X3468634Y-6344484D01*
X3468634Y-6344484D02*
X3449586Y-6334960D01*
X3449586Y-6334960D02*
X3440063Y-6325436D01*
X3440063Y-6325436D02*
X3430539Y-6306388D01*
X3430539Y-6306388D02*
X3421015Y-6268293D01*
X3421015Y-6268293D02*
X3421015Y-6220674D01*
X3421015Y-6220674D02*
X3430539Y-6182579D01*
X3430539Y-6182579D02*
X3440063Y-6163531D01*
X3440063Y-6163531D02*
X3449586Y-6154008D01*
X3449586Y-6154008D02*
X3468634Y-6144484D01*
X3621015Y-6325436D02*
X3630539Y-6334960D01*
X3630539Y-6334960D02*
X3621015Y-6344484D01*
X3621015Y-6344484D02*
X3611491Y-6334960D01*
X3611491Y-6334960D02*
X3621015Y-6325436D01*
X3621015Y-6325436D02*
X3621015Y-6344484D01*
X3754348Y-6144484D02*
X3773396Y-6144484D01*
X3773396Y-6144484D02*
X3792444Y-6154008D01*
X3792444Y-6154008D02*
X3801967Y-6163531D01*
X3801967Y-6163531D02*
X3811491Y-6182579D01*
X3811491Y-6182579D02*
X3821015Y-6220674D01*
X3821015Y-6220674D02*
X3821015Y-6268293D01*
X3821015Y-6268293D02*
X3811491Y-6306388D01*
X3811491Y-6306388D02*
X3801967Y-6325436D01*
X3801967Y-6325436D02*
X3792444Y-6334960D01*
X3792444Y-6334960D02*
X3773396Y-6344484D01*
X3773396Y-6344484D02*
X3754348Y-6344484D01*
X3754348Y-6344484D02*
X3735301Y-6334960D01*
X3735301Y-6334960D02*
X3725777Y-6325436D01*
X3725777Y-6325436D02*
X3716253Y-6306388D01*
X3716253Y-6306388D02*
X3706729Y-6268293D01*
X3706729Y-6268293D02*
X3706729Y-6220674D01*
X3706729Y-6220674D02*
X3716253Y-6182579D01*
X3716253Y-6182579D02*
X3725777Y-6163531D01*
X3725777Y-6163531D02*
X3735301Y-6154008D01*
X3735301Y-6154008D02*
X3754348Y-6144484D01*
X3887682Y-6144484D02*
X4011491Y-6144484D01*
X4011491Y-6144484D02*
X3944825Y-6220674D01*
X3944825Y-6220674D02*
X3973396Y-6220674D01*
X3973396Y-6220674D02*
X3992444Y-6230198D01*
X3992444Y-6230198D02*
X4001967Y-6239722D01*
X4001967Y-6239722D02*
X4011491Y-6258769D01*
X4011491Y-6258769D02*
X4011491Y-6306388D01*
X4011491Y-6306388D02*
X4001967Y-6325436D01*
X4001967Y-6325436D02*
X3992444Y-6334960D01*
X3992444Y-6334960D02*
X3973396Y-6344484D01*
X3973396Y-6344484D02*
X3916253Y-6344484D01*
X3916253Y-6344484D02*
X3897206Y-6334960D01*
X3897206Y-6334960D02*
X3887682Y-6325436D01*
X4106729Y-6344484D02*
X4144825Y-6344484D01*
X4144825Y-6344484D02*
X4163872Y-6334960D01*
X4163872Y-6334960D02*
X4173396Y-6325436D01*
X4173396Y-6325436D02*
X4192444Y-6296865D01*
X4192444Y-6296865D02*
X4201968Y-6258769D01*
X4201968Y-6258769D02*
X4201968Y-6182579D01*
X4201968Y-6182579D02*
X4192444Y-6163531D01*
X4192444Y-6163531D02*
X4182920Y-6154008D01*
X4182920Y-6154008D02*
X4163872Y-6144484D01*
X4163872Y-6144484D02*
X4125777Y-6144484D01*
X4125777Y-6144484D02*
X4106729Y-6154008D01*
X4106729Y-6154008D02*
X4097206Y-6163531D01*
X4097206Y-6163531D02*
X4087682Y-6182579D01*
X4087682Y-6182579D02*
X4087682Y-6230198D01*
X4087682Y-6230198D02*
X4097206Y-6249246D01*
X4097206Y-6249246D02*
X4106729Y-6258769D01*
X4106729Y-6258769D02*
X4125777Y-6268293D01*
X4125777Y-6268293D02*
X4163872Y-6268293D01*
X4163872Y-6268293D02*
X4182920Y-6258769D01*
X4182920Y-6258769D02*
X4192444Y-6249246D01*
X4192444Y-6249246D02*
X4201968Y-6230198D01*
X4373396Y-6211150D02*
X4373396Y-6344484D01*
X4325777Y-6134960D02*
X4278158Y-6277817D01*
X4278158Y-6277817D02*
X4401968Y-6277817D01*
X4468634Y-6144484D02*
X4468634Y-6182579D01*
X4544825Y-6144484D02*
X4544825Y-6182579D01*
X4840063Y-6420674D02*
X4830539Y-6411150D01*
X4830539Y-6411150D02*
X4811491Y-6382579D01*
X4811491Y-6382579D02*
X4801968Y-6363531D01*
X4801968Y-6363531D02*
X4792444Y-6334960D01*
X4792444Y-6334960D02*
X4782920Y-6287341D01*
X4782920Y-6287341D02*
X4782920Y-6249246D01*
X4782920Y-6249246D02*
X4792444Y-6201627D01*
X4792444Y-6201627D02*
X4801968Y-6173055D01*
X4801968Y-6173055D02*
X4811491Y-6154008D01*
X4811491Y-6154008D02*
X4830539Y-6125436D01*
X4830539Y-6125436D02*
X4840063Y-6115912D01*
X4906730Y-6163531D02*
X4916253Y-6154008D01*
X4916253Y-6154008D02*
X4935301Y-6144484D01*
X4935301Y-6144484D02*
X4982920Y-6144484D01*
X4982920Y-6144484D02*
X5001968Y-6154008D01*
X5001968Y-6154008D02*
X5011491Y-6163531D01*
X5011491Y-6163531D02*
X5021015Y-6182579D01*
X5021015Y-6182579D02*
X5021015Y-6201627D01*
X5021015Y-6201627D02*
X5011491Y-6230198D01*
X5011491Y-6230198D02*
X4897206Y-6344484D01*
X4897206Y-6344484D02*
X5021015Y-6344484D01*
X5144825Y-6144484D02*
X5163872Y-6144484D01*
X5163872Y-6144484D02*
X5182920Y-6154008D01*
X5182920Y-6154008D02*
X5192444Y-6163531D01*
X5192444Y-6163531D02*
X5201968Y-6182579D01*
X5201968Y-6182579D02*
X5211491Y-6220674D01*
X5211491Y-6220674D02*
X5211491Y-6268293D01*
X5211491Y-6268293D02*
X5201968Y-6306388D01*
X5201968Y-6306388D02*
X5192444Y-6325436D01*
X5192444Y-6325436D02*
X5182920Y-6334960D01*
X5182920Y-6334960D02*
X5163872Y-6344484D01*
X5163872Y-6344484D02*
X5144825Y-6344484D01*
X5144825Y-6344484D02*
X5125777Y-6334960D01*
X5125777Y-6334960D02*
X5116253Y-6325436D01*
X5116253Y-6325436D02*
X5106730Y-6306388D01*
X5106730Y-6306388D02*
X5097206Y-6268293D01*
X5097206Y-6268293D02*
X5097206Y-6220674D01*
X5097206Y-6220674D02*
X5106730Y-6182579D01*
X5106730Y-6182579D02*
X5116253Y-6163531D01*
X5116253Y-6163531D02*
X5125777Y-6154008D01*
X5125777Y-6154008D02*
X5144825Y-6144484D01*
X5449587Y-6344484D02*
X5449587Y-6144484D01*
X5535301Y-6344484D02*
X5535301Y-6239722D01*
X5535301Y-6239722D02*
X5525777Y-6220674D01*
X5525777Y-6220674D02*
X5506730Y-6211150D01*
X5506730Y-6211150D02*
X5478158Y-6211150D01*
X5478158Y-6211150D02*
X5459111Y-6220674D01*
X5459111Y-6220674D02*
X5449587Y-6230198D01*
X5659110Y-6344484D02*
X5640063Y-6334960D01*
X5640063Y-6334960D02*
X5630539Y-6325436D01*
X5630539Y-6325436D02*
X5621015Y-6306388D01*
X5621015Y-6306388D02*
X5621015Y-6249246D01*
X5621015Y-6249246D02*
X5630539Y-6230198D01*
X5630539Y-6230198D02*
X5640063Y-6220674D01*
X5640063Y-6220674D02*
X5659110Y-6211150D01*
X5659110Y-6211150D02*
X5687682Y-6211150D01*
X5687682Y-6211150D02*
X5706730Y-6220674D01*
X5706730Y-6220674D02*
X5716253Y-6230198D01*
X5716253Y-6230198D02*
X5725777Y-6249246D01*
X5725777Y-6249246D02*
X5725777Y-6306388D01*
X5725777Y-6306388D02*
X5716253Y-6325436D01*
X5716253Y-6325436D02*
X5706730Y-6334960D01*
X5706730Y-6334960D02*
X5687682Y-6344484D01*
X5687682Y-6344484D02*
X5659110Y-6344484D01*
X5840063Y-6344484D02*
X5821015Y-6334960D01*
X5821015Y-6334960D02*
X5811491Y-6315912D01*
X5811491Y-6315912D02*
X5811491Y-6144484D01*
X5992444Y-6334960D02*
X5973396Y-6344484D01*
X5973396Y-6344484D02*
X5935301Y-6344484D01*
X5935301Y-6344484D02*
X5916253Y-6334960D01*
X5916253Y-6334960D02*
X5906730Y-6315912D01*
X5906730Y-6315912D02*
X5906730Y-6239722D01*
X5906730Y-6239722D02*
X5916253Y-6220674D01*
X5916253Y-6220674D02*
X5935301Y-6211150D01*
X5935301Y-6211150D02*
X5973396Y-6211150D01*
X5973396Y-6211150D02*
X5992444Y-6220674D01*
X5992444Y-6220674D02*
X6001968Y-6239722D01*
X6001968Y-6239722D02*
X6001968Y-6258769D01*
X6001968Y-6258769D02*
X5906730Y-6277817D01*
X6078158Y-6334960D02*
X6097206Y-6344484D01*
X6097206Y-6344484D02*
X6135301Y-6344484D01*
X6135301Y-6344484D02*
X6154349Y-6334960D01*
X6154349Y-6334960D02*
X6163872Y-6315912D01*
X6163872Y-6315912D02*
X6163872Y-6306388D01*
X6163872Y-6306388D02*
X6154349Y-6287341D01*
X6154349Y-6287341D02*
X6135301Y-6277817D01*
X6135301Y-6277817D02*
X6106730Y-6277817D01*
X6106730Y-6277817D02*
X6087682Y-6268293D01*
X6087682Y-6268293D02*
X6078158Y-6249246D01*
X6078158Y-6249246D02*
X6078158Y-6239722D01*
X6078158Y-6239722D02*
X6087682Y-6220674D01*
X6087682Y-6220674D02*
X6106730Y-6211150D01*
X6106730Y-6211150D02*
X6135301Y-6211150D01*
X6135301Y-6211150D02*
X6154349Y-6220674D01*
X6230539Y-6420674D02*
X6240063Y-6411150D01*
X6240063Y-6411150D02*
X6259111Y-6382579D01*
X6259111Y-6382579D02*
X6268634Y-6363531D01*
X6268634Y-6363531D02*
X6278158Y-6334960D01*
X6278158Y-6334960D02*
X6287682Y-6287341D01*
X6287682Y-6287341D02*
X6287682Y-6249246D01*
X6287682Y-6249246D02*
X6278158Y-6201627D01*
X6278158Y-6201627D02*
X6268634Y-6173055D01*
X6268634Y-6173055D02*
X6259111Y-6154008D01*
X6259111Y-6154008D02*
X6240063Y-6125436D01*
X6240063Y-6125436D02*
X6230539Y-6115912D01*
D12*
X1248891Y-6555891D02*
X1248891Y-6478109D01*
X1171109Y-6478109D01*
X1171109Y-6555891D01*
X1248891Y-6555891D01*
D11*
X1630539Y-6608484D02*
X1516253Y-6608484D01*
X1573396Y-6608484D02*
X1573396Y-6408484D01*
X1573396Y-6408484D02*
X1554348Y-6437055D01*
X1554348Y-6437055D02*
X1535301Y-6456103D01*
X1535301Y-6456103D02*
X1516253Y-6465627D01*
X1716253Y-6589436D02*
X1725777Y-6598960D01*
X1725777Y-6598960D02*
X1716253Y-6608484D01*
X1716253Y-6608484D02*
X1706729Y-6598960D01*
X1706729Y-6598960D02*
X1716253Y-6589436D01*
X1716253Y-6589436D02*
X1716253Y-6608484D01*
X1916253Y-6608484D02*
X1801967Y-6608484D01*
X1859110Y-6608484D02*
X1859110Y-6408484D01*
X1859110Y-6408484D02*
X1840062Y-6437055D01*
X1840062Y-6437055D02*
X1821015Y-6456103D01*
X1821015Y-6456103D02*
X1801967Y-6465627D01*
X2040062Y-6408484D02*
X2059110Y-6408484D01*
X2059110Y-6408484D02*
X2078158Y-6418008D01*
X2078158Y-6418008D02*
X2087682Y-6427531D01*
X2087682Y-6427531D02*
X2097205Y-6446579D01*
X2097205Y-6446579D02*
X2106729Y-6484674D01*
X2106729Y-6484674D02*
X2106729Y-6532293D01*
X2106729Y-6532293D02*
X2097205Y-6570388D01*
X2097205Y-6570388D02*
X2087682Y-6589436D01*
X2087682Y-6589436D02*
X2078158Y-6598960D01*
X2078158Y-6598960D02*
X2059110Y-6608484D01*
X2059110Y-6608484D02*
X2040062Y-6608484D01*
X2040062Y-6608484D02*
X2021015Y-6598960D01*
X2021015Y-6598960D02*
X2011491Y-6589436D01*
X2011491Y-6589436D02*
X2001967Y-6570388D01*
X2001967Y-6570388D02*
X1992443Y-6532293D01*
X1992443Y-6532293D02*
X1992443Y-6484674D01*
X1992443Y-6484674D02*
X2001967Y-6446579D01*
X2001967Y-6446579D02*
X2011491Y-6427531D01*
X2011491Y-6427531D02*
X2021015Y-6418008D01*
X2021015Y-6418008D02*
X2040062Y-6408484D01*
X2230539Y-6408484D02*
X2249586Y-6408484D01*
X2249586Y-6408484D02*
X2268634Y-6418008D01*
X2268634Y-6418008D02*
X2278158Y-6427531D01*
X2278158Y-6427531D02*
X2287682Y-6446579D01*
X2287682Y-6446579D02*
X2297205Y-6484674D01*
X2297205Y-6484674D02*
X2297205Y-6532293D01*
X2297205Y-6532293D02*
X2287682Y-6570388D01*
X2287682Y-6570388D02*
X2278158Y-6589436D01*
X2278158Y-6589436D02*
X2268634Y-6598960D01*
X2268634Y-6598960D02*
X2249586Y-6608484D01*
X2249586Y-6608484D02*
X2230539Y-6608484D01*
X2230539Y-6608484D02*
X2211491Y-6598960D01*
X2211491Y-6598960D02*
X2201967Y-6589436D01*
X2201967Y-6589436D02*
X2192444Y-6570388D01*
X2192444Y-6570388D02*
X2182920Y-6532293D01*
X2182920Y-6532293D02*
X2182920Y-6484674D01*
X2182920Y-6484674D02*
X2192444Y-6446579D01*
X2192444Y-6446579D02*
X2201967Y-6427531D01*
X2201967Y-6427531D02*
X2211491Y-6418008D01*
X2211491Y-6418008D02*
X2230539Y-6408484D01*
X2382920Y-6608484D02*
X2382920Y-6475150D01*
X2382920Y-6494198D02*
X2392444Y-6484674D01*
X2392444Y-6484674D02*
X2411491Y-6475150D01*
X2411491Y-6475150D02*
X2440063Y-6475150D01*
X2440063Y-6475150D02*
X2459110Y-6484674D01*
X2459110Y-6484674D02*
X2468634Y-6503722D01*
X2468634Y-6503722D02*
X2468634Y-6608484D01*
X2468634Y-6503722D02*
X2478158Y-6484674D01*
X2478158Y-6484674D02*
X2497205Y-6475150D01*
X2497205Y-6475150D02*
X2525777Y-6475150D01*
X2525777Y-6475150D02*
X2544825Y-6484674D01*
X2544825Y-6484674D02*
X2554348Y-6503722D01*
X2554348Y-6503722D02*
X2554348Y-6608484D01*
X2649586Y-6608484D02*
X2649586Y-6475150D01*
X2649586Y-6494198D02*
X2659110Y-6484674D01*
X2659110Y-6484674D02*
X2678158Y-6475150D01*
X2678158Y-6475150D02*
X2706729Y-6475150D01*
X2706729Y-6475150D02*
X2725777Y-6484674D01*
X2725777Y-6484674D02*
X2735301Y-6503722D01*
X2735301Y-6503722D02*
X2735301Y-6608484D01*
X2735301Y-6503722D02*
X2744825Y-6484674D01*
X2744825Y-6484674D02*
X2763872Y-6475150D01*
X2763872Y-6475150D02*
X2792444Y-6475150D01*
X2792444Y-6475150D02*
X2811491Y-6484674D01*
X2811491Y-6484674D02*
X2821015Y-6503722D01*
X2821015Y-6503722D02*
X2821015Y-6608484D01*
X3211491Y-6398960D02*
X3040063Y-6656103D01*
X3468634Y-6408484D02*
X3487682Y-6408484D01*
X3487682Y-6408484D02*
X3506729Y-6418008D01*
X3506729Y-6418008D02*
X3516253Y-6427531D01*
X3516253Y-6427531D02*
X3525777Y-6446579D01*
X3525777Y-6446579D02*
X3535301Y-6484674D01*
X3535301Y-6484674D02*
X3535301Y-6532293D01*
X3535301Y-6532293D02*
X3525777Y-6570388D01*
X3525777Y-6570388D02*
X3516253Y-6589436D01*
X3516253Y-6589436D02*
X3506729Y-6598960D01*
X3506729Y-6598960D02*
X3487682Y-6608484D01*
X3487682Y-6608484D02*
X3468634Y-6608484D01*
X3468634Y-6608484D02*
X3449586Y-6598960D01*
X3449586Y-6598960D02*
X3440063Y-6589436D01*
X3440063Y-6589436D02*
X3430539Y-6570388D01*
X3430539Y-6570388D02*
X3421015Y-6532293D01*
X3421015Y-6532293D02*
X3421015Y-6484674D01*
X3421015Y-6484674D02*
X3430539Y-6446579D01*
X3430539Y-6446579D02*
X3440063Y-6427531D01*
X3440063Y-6427531D02*
X3449586Y-6418008D01*
X3449586Y-6418008D02*
X3468634Y-6408484D01*
X3621015Y-6589436D02*
X3630539Y-6598960D01*
X3630539Y-6598960D02*
X3621015Y-6608484D01*
X3621015Y-6608484D02*
X3611491Y-6598960D01*
X3611491Y-6598960D02*
X3621015Y-6589436D01*
X3621015Y-6589436D02*
X3621015Y-6608484D01*
X3754348Y-6408484D02*
X3773396Y-6408484D01*
X3773396Y-6408484D02*
X3792444Y-6418008D01*
X3792444Y-6418008D02*
X3801967Y-6427531D01*
X3801967Y-6427531D02*
X3811491Y-6446579D01*
X3811491Y-6446579D02*
X3821015Y-6484674D01*
X3821015Y-6484674D02*
X3821015Y-6532293D01*
X3821015Y-6532293D02*
X3811491Y-6570388D01*
X3811491Y-6570388D02*
X3801967Y-6589436D01*
X3801967Y-6589436D02*
X3792444Y-6598960D01*
X3792444Y-6598960D02*
X3773396Y-6608484D01*
X3773396Y-6608484D02*
X3754348Y-6608484D01*
X3754348Y-6608484D02*
X3735301Y-6598960D01*
X3735301Y-6598960D02*
X3725777Y-6589436D01*
X3725777Y-6589436D02*
X3716253Y-6570388D01*
X3716253Y-6570388D02*
X3706729Y-6532293D01*
X3706729Y-6532293D02*
X3706729Y-6484674D01*
X3706729Y-6484674D02*
X3716253Y-6446579D01*
X3716253Y-6446579D02*
X3725777Y-6427531D01*
X3725777Y-6427531D02*
X3735301Y-6418008D01*
X3735301Y-6418008D02*
X3754348Y-6408484D01*
X3992444Y-6475150D02*
X3992444Y-6608484D01*
X3944825Y-6398960D02*
X3897206Y-6541817D01*
X3897206Y-6541817D02*
X4021015Y-6541817D01*
X4078158Y-6408484D02*
X4201968Y-6408484D01*
X4201968Y-6408484D02*
X4135301Y-6484674D01*
X4135301Y-6484674D02*
X4163872Y-6484674D01*
X4163872Y-6484674D02*
X4182920Y-6494198D01*
X4182920Y-6494198D02*
X4192444Y-6503722D01*
X4192444Y-6503722D02*
X4201968Y-6522769D01*
X4201968Y-6522769D02*
X4201968Y-6570388D01*
X4201968Y-6570388D02*
X4192444Y-6589436D01*
X4192444Y-6589436D02*
X4182920Y-6598960D01*
X4182920Y-6598960D02*
X4163872Y-6608484D01*
X4163872Y-6608484D02*
X4106729Y-6608484D01*
X4106729Y-6608484D02*
X4087682Y-6598960D01*
X4087682Y-6598960D02*
X4078158Y-6589436D01*
X4268634Y-6408484D02*
X4392444Y-6408484D01*
X4392444Y-6408484D02*
X4325777Y-6484674D01*
X4325777Y-6484674D02*
X4354349Y-6484674D01*
X4354349Y-6484674D02*
X4373396Y-6494198D01*
X4373396Y-6494198D02*
X4382920Y-6503722D01*
X4382920Y-6503722D02*
X4392444Y-6522769D01*
X4392444Y-6522769D02*
X4392444Y-6570388D01*
X4392444Y-6570388D02*
X4382920Y-6589436D01*
X4382920Y-6589436D02*
X4373396Y-6598960D01*
X4373396Y-6598960D02*
X4354349Y-6608484D01*
X4354349Y-6608484D02*
X4297206Y-6608484D01*
X4297206Y-6608484D02*
X4278158Y-6598960D01*
X4278158Y-6598960D02*
X4268634Y-6589436D01*
X4468634Y-6408484D02*
X4468634Y-6446579D01*
X4544825Y-6408484D02*
X4544825Y-6446579D01*
X4840063Y-6684674D02*
X4830539Y-6675150D01*
X4830539Y-6675150D02*
X4811491Y-6646579D01*
X4811491Y-6646579D02*
X4801968Y-6627531D01*
X4801968Y-6627531D02*
X4792444Y-6598960D01*
X4792444Y-6598960D02*
X4782920Y-6551341D01*
X4782920Y-6551341D02*
X4782920Y-6513246D01*
X4782920Y-6513246D02*
X4792444Y-6465627D01*
X4792444Y-6465627D02*
X4801968Y-6437055D01*
X4801968Y-6437055D02*
X4811491Y-6418008D01*
X4811491Y-6418008D02*
X4830539Y-6389436D01*
X4830539Y-6389436D02*
X4840063Y-6379912D01*
X5001968Y-6475150D02*
X5001968Y-6608484D01*
X4954349Y-6398960D02*
X4906730Y-6541817D01*
X4906730Y-6541817D02*
X5030539Y-6541817D01*
X5259111Y-6608484D02*
X5259111Y-6408484D01*
X5344825Y-6608484D02*
X5344825Y-6503722D01*
X5344825Y-6503722D02*
X5335301Y-6484674D01*
X5335301Y-6484674D02*
X5316253Y-6475150D01*
X5316253Y-6475150D02*
X5287682Y-6475150D01*
X5287682Y-6475150D02*
X5268634Y-6484674D01*
X5268634Y-6484674D02*
X5259111Y-6494198D01*
X5468634Y-6608484D02*
X5449587Y-6598960D01*
X5449587Y-6598960D02*
X5440063Y-6589436D01*
X5440063Y-6589436D02*
X5430539Y-6570388D01*
X5430539Y-6570388D02*
X5430539Y-6513246D01*
X5430539Y-6513246D02*
X5440063Y-6494198D01*
X5440063Y-6494198D02*
X5449587Y-6484674D01*
X5449587Y-6484674D02*
X5468634Y-6475150D01*
X5468634Y-6475150D02*
X5497206Y-6475150D01*
X5497206Y-6475150D02*
X5516253Y-6484674D01*
X5516253Y-6484674D02*
X5525777Y-6494198D01*
X5525777Y-6494198D02*
X5535301Y-6513246D01*
X5535301Y-6513246D02*
X5535301Y-6570388D01*
X5535301Y-6570388D02*
X5525777Y-6589436D01*
X5525777Y-6589436D02*
X5516253Y-6598960D01*
X5516253Y-6598960D02*
X5497206Y-6608484D01*
X5497206Y-6608484D02*
X5468634Y-6608484D01*
X5649587Y-6608484D02*
X5630539Y-6598960D01*
X5630539Y-6598960D02*
X5621015Y-6579912D01*
X5621015Y-6579912D02*
X5621015Y-6408484D01*
X5801968Y-6598960D02*
X5782920Y-6608484D01*
X5782920Y-6608484D02*
X5744825Y-6608484D01*
X5744825Y-6608484D02*
X5725777Y-6598960D01*
X5725777Y-6598960D02*
X5716253Y-6579912D01*
X5716253Y-6579912D02*
X5716253Y-6503722D01*
X5716253Y-6503722D02*
X5725777Y-6484674D01*
X5725777Y-6484674D02*
X5744825Y-6475150D01*
X5744825Y-6475150D02*
X5782920Y-6475150D01*
X5782920Y-6475150D02*
X5801968Y-6484674D01*
X5801968Y-6484674D02*
X5811491Y-6503722D01*
X5811491Y-6503722D02*
X5811491Y-6522769D01*
X5811491Y-6522769D02*
X5716253Y-6541817D01*
X5887682Y-6598960D02*
X5906730Y-6608484D01*
X5906730Y-6608484D02*
X5944825Y-6608484D01*
X5944825Y-6608484D02*
X5963872Y-6598960D01*
X5963872Y-6598960D02*
X5973396Y-6579912D01*
X5973396Y-6579912D02*
X5973396Y-6570388D01*
X5973396Y-6570388D02*
X5963872Y-6551341D01*
X5963872Y-6551341D02*
X5944825Y-6541817D01*
X5944825Y-6541817D02*
X5916253Y-6541817D01*
X5916253Y-6541817D02*
X5897206Y-6532293D01*
X5897206Y-6532293D02*
X5887682Y-6513246D01*
X5887682Y-6513246D02*
X5887682Y-6503722D01*
X5887682Y-6503722D02*
X5897206Y-6484674D01*
X5897206Y-6484674D02*
X5916253Y-6475150D01*
X5916253Y-6475150D02*
X5944825Y-6475150D01*
X5944825Y-6475150D02*
X5963872Y-6484674D01*
X6040063Y-6684674D02*
X6049587Y-6675150D01*
X6049587Y-6675150D02*
X6068634Y-6646579D01*
X6068634Y-6646579D02*
X6078158Y-6627531D01*
X6078158Y-6627531D02*
X6087682Y-6598960D01*
X6087682Y-6598960D02*
X6097206Y-6551341D01*
X6097206Y-6551341D02*
X6097206Y-6513246D01*
X6097206Y-6513246D02*
X6087682Y-6465627D01*
X6087682Y-6465627D02*
X6078158Y-6437055D01*
X6078158Y-6437055D02*
X6068634Y-6418008D01*
X6068634Y-6418008D02*
X6049587Y-6389436D01*
X6049587Y-6389436D02*
X6040063Y-6379912D01*
D13*
X1185000Y-6861000D02*
X1265000Y-6781000D01*
X1185000Y-6701000D01*
X1105000Y-6781000D01*
X1185000Y-6861000D01*
D11*
X1630539Y-6872484D02*
X1516253Y-6872484D01*
X1573396Y-6872484D02*
X1573396Y-6672484D01*
X1573396Y-6672484D02*
X1554348Y-6701055D01*
X1554348Y-6701055D02*
X1535301Y-6720103D01*
X1535301Y-6720103D02*
X1516253Y-6729627D01*
X1716253Y-6853436D02*
X1725777Y-6862960D01*
X1725777Y-6862960D02*
X1716253Y-6872484D01*
X1716253Y-6872484D02*
X1706729Y-6862960D01*
X1706729Y-6862960D02*
X1716253Y-6853436D01*
X1716253Y-6853436D02*
X1716253Y-6872484D01*
X1897205Y-6672484D02*
X1859110Y-6672484D01*
X1859110Y-6672484D02*
X1840062Y-6682008D01*
X1840062Y-6682008D02*
X1830539Y-6691531D01*
X1830539Y-6691531D02*
X1811491Y-6720103D01*
X1811491Y-6720103D02*
X1801967Y-6758198D01*
X1801967Y-6758198D02*
X1801967Y-6834388D01*
X1801967Y-6834388D02*
X1811491Y-6853436D01*
X1811491Y-6853436D02*
X1821015Y-6862960D01*
X1821015Y-6862960D02*
X1840062Y-6872484D01*
X1840062Y-6872484D02*
X1878158Y-6872484D01*
X1878158Y-6872484D02*
X1897205Y-6862960D01*
X1897205Y-6862960D02*
X1906729Y-6853436D01*
X1906729Y-6853436D02*
X1916253Y-6834388D01*
X1916253Y-6834388D02*
X1916253Y-6786769D01*
X1916253Y-6786769D02*
X1906729Y-6767722D01*
X1906729Y-6767722D02*
X1897205Y-6758198D01*
X1897205Y-6758198D02*
X1878158Y-6748674D01*
X1878158Y-6748674D02*
X1840062Y-6748674D01*
X1840062Y-6748674D02*
X1821015Y-6758198D01*
X1821015Y-6758198D02*
X1811491Y-6767722D01*
X1811491Y-6767722D02*
X1801967Y-6786769D01*
X2040062Y-6672484D02*
X2059110Y-6672484D01*
X2059110Y-6672484D02*
X2078158Y-6682008D01*
X2078158Y-6682008D02*
X2087682Y-6691531D01*
X2087682Y-6691531D02*
X2097205Y-6710579D01*
X2097205Y-6710579D02*
X2106729Y-6748674D01*
X2106729Y-6748674D02*
X2106729Y-6796293D01*
X2106729Y-6796293D02*
X2097205Y-6834388D01*
X2097205Y-6834388D02*
X2087682Y-6853436D01*
X2087682Y-6853436D02*
X2078158Y-6862960D01*
X2078158Y-6862960D02*
X2059110Y-6872484D01*
X2059110Y-6872484D02*
X2040062Y-6872484D01*
X2040062Y-6872484D02*
X2021015Y-6862960D01*
X2021015Y-6862960D02*
X2011491Y-6853436D01*
X2011491Y-6853436D02*
X2001967Y-6834388D01*
X2001967Y-6834388D02*
X1992443Y-6796293D01*
X1992443Y-6796293D02*
X1992443Y-6748674D01*
X1992443Y-6748674D02*
X2001967Y-6710579D01*
X2001967Y-6710579D02*
X2011491Y-6691531D01*
X2011491Y-6691531D02*
X2021015Y-6682008D01*
X2021015Y-6682008D02*
X2040062Y-6672484D01*
X2230539Y-6672484D02*
X2249586Y-6672484D01*
X2249586Y-6672484D02*
X2268634Y-6682008D01*
X2268634Y-6682008D02*
X2278158Y-6691531D01*
X2278158Y-6691531D02*
X2287682Y-6710579D01*
X2287682Y-6710579D02*
X2297205Y-6748674D01*
X2297205Y-6748674D02*
X2297205Y-6796293D01*
X2297205Y-6796293D02*
X2287682Y-6834388D01*
X2287682Y-6834388D02*
X2278158Y-6853436D01*
X2278158Y-6853436D02*
X2268634Y-6862960D01*
X2268634Y-6862960D02*
X2249586Y-6872484D01*
X2249586Y-6872484D02*
X2230539Y-6872484D01*
X2230539Y-6872484D02*
X2211491Y-6862960D01*
X2211491Y-6862960D02*
X2201967Y-6853436D01*
X2201967Y-6853436D02*
X2192444Y-6834388D01*
X2192444Y-6834388D02*
X2182920Y-6796293D01*
X2182920Y-6796293D02*
X2182920Y-6748674D01*
X2182920Y-6748674D02*
X2192444Y-6710579D01*
X2192444Y-6710579D02*
X2201967Y-6691531D01*
X2201967Y-6691531D02*
X2211491Y-6682008D01*
X2211491Y-6682008D02*
X2230539Y-6672484D01*
X2382920Y-6872484D02*
X2382920Y-6739150D01*
X2382920Y-6758198D02*
X2392444Y-6748674D01*
X2392444Y-6748674D02*
X2411491Y-6739150D01*
X2411491Y-6739150D02*
X2440063Y-6739150D01*
X2440063Y-6739150D02*
X2459110Y-6748674D01*
X2459110Y-6748674D02*
X2468634Y-6767722D01*
X2468634Y-6767722D02*
X2468634Y-6872484D01*
X2468634Y-6767722D02*
X2478158Y-6748674D01*
X2478158Y-6748674D02*
X2497205Y-6739150D01*
X2497205Y-6739150D02*
X2525777Y-6739150D01*
X2525777Y-6739150D02*
X2544825Y-6748674D01*
X2544825Y-6748674D02*
X2554348Y-6767722D01*
X2554348Y-6767722D02*
X2554348Y-6872484D01*
X2649586Y-6872484D02*
X2649586Y-6739150D01*
X2649586Y-6758198D02*
X2659110Y-6748674D01*
X2659110Y-6748674D02*
X2678158Y-6739150D01*
X2678158Y-6739150D02*
X2706729Y-6739150D01*
X2706729Y-6739150D02*
X2725777Y-6748674D01*
X2725777Y-6748674D02*
X2735301Y-6767722D01*
X2735301Y-6767722D02*
X2735301Y-6872484D01*
X2735301Y-6767722D02*
X2744825Y-6748674D01*
X2744825Y-6748674D02*
X2763872Y-6739150D01*
X2763872Y-6739150D02*
X2792444Y-6739150D01*
X2792444Y-6739150D02*
X2811491Y-6748674D01*
X2811491Y-6748674D02*
X2821015Y-6767722D01*
X2821015Y-6767722D02*
X2821015Y-6872484D01*
X3211491Y-6662960D02*
X3040063Y-6920103D01*
X3468634Y-6672484D02*
X3487682Y-6672484D01*
X3487682Y-6672484D02*
X3506729Y-6682008D01*
X3506729Y-6682008D02*
X3516253Y-6691531D01*
X3516253Y-6691531D02*
X3525777Y-6710579D01*
X3525777Y-6710579D02*
X3535301Y-6748674D01*
X3535301Y-6748674D02*
X3535301Y-6796293D01*
X3535301Y-6796293D02*
X3525777Y-6834388D01*
X3525777Y-6834388D02*
X3516253Y-6853436D01*
X3516253Y-6853436D02*
X3506729Y-6862960D01*
X3506729Y-6862960D02*
X3487682Y-6872484D01*
X3487682Y-6872484D02*
X3468634Y-6872484D01*
X3468634Y-6872484D02*
X3449586Y-6862960D01*
X3449586Y-6862960D02*
X3440063Y-6853436D01*
X3440063Y-6853436D02*
X3430539Y-6834388D01*
X3430539Y-6834388D02*
X3421015Y-6796293D01*
X3421015Y-6796293D02*
X3421015Y-6748674D01*
X3421015Y-6748674D02*
X3430539Y-6710579D01*
X3430539Y-6710579D02*
X3440063Y-6691531D01*
X3440063Y-6691531D02*
X3449586Y-6682008D01*
X3449586Y-6682008D02*
X3468634Y-6672484D01*
X3621015Y-6853436D02*
X3630539Y-6862960D01*
X3630539Y-6862960D02*
X3621015Y-6872484D01*
X3621015Y-6872484D02*
X3611491Y-6862960D01*
X3611491Y-6862960D02*
X3621015Y-6853436D01*
X3621015Y-6853436D02*
X3621015Y-6872484D01*
X3754348Y-6672484D02*
X3773396Y-6672484D01*
X3773396Y-6672484D02*
X3792444Y-6682008D01*
X3792444Y-6682008D02*
X3801967Y-6691531D01*
X3801967Y-6691531D02*
X3811491Y-6710579D01*
X3811491Y-6710579D02*
X3821015Y-6748674D01*
X3821015Y-6748674D02*
X3821015Y-6796293D01*
X3821015Y-6796293D02*
X3811491Y-6834388D01*
X3811491Y-6834388D02*
X3801967Y-6853436D01*
X3801967Y-6853436D02*
X3792444Y-6862960D01*
X3792444Y-6862960D02*
X3773396Y-6872484D01*
X3773396Y-6872484D02*
X3754348Y-6872484D01*
X3754348Y-6872484D02*
X3735301Y-6862960D01*
X3735301Y-6862960D02*
X3725777Y-6853436D01*
X3725777Y-6853436D02*
X3716253Y-6834388D01*
X3716253Y-6834388D02*
X3706729Y-6796293D01*
X3706729Y-6796293D02*
X3706729Y-6748674D01*
X3706729Y-6748674D02*
X3716253Y-6710579D01*
X3716253Y-6710579D02*
X3725777Y-6691531D01*
X3725777Y-6691531D02*
X3735301Y-6682008D01*
X3735301Y-6682008D02*
X3754348Y-6672484D01*
X3992444Y-6672484D02*
X3954348Y-6672484D01*
X3954348Y-6672484D02*
X3935301Y-6682008D01*
X3935301Y-6682008D02*
X3925777Y-6691531D01*
X3925777Y-6691531D02*
X3906729Y-6720103D01*
X3906729Y-6720103D02*
X3897206Y-6758198D01*
X3897206Y-6758198D02*
X3897206Y-6834388D01*
X3897206Y-6834388D02*
X3906729Y-6853436D01*
X3906729Y-6853436D02*
X3916253Y-6862960D01*
X3916253Y-6862960D02*
X3935301Y-6872484D01*
X3935301Y-6872484D02*
X3973396Y-6872484D01*
X3973396Y-6872484D02*
X3992444Y-6862960D01*
X3992444Y-6862960D02*
X4001967Y-6853436D01*
X4001967Y-6853436D02*
X4011491Y-6834388D01*
X4011491Y-6834388D02*
X4011491Y-6786769D01*
X4011491Y-6786769D02*
X4001967Y-6767722D01*
X4001967Y-6767722D02*
X3992444Y-6758198D01*
X3992444Y-6758198D02*
X3973396Y-6748674D01*
X3973396Y-6748674D02*
X3935301Y-6748674D01*
X3935301Y-6748674D02*
X3916253Y-6758198D01*
X3916253Y-6758198D02*
X3906729Y-6767722D01*
X3906729Y-6767722D02*
X3897206Y-6786769D01*
X4078158Y-6672484D02*
X4201968Y-6672484D01*
X4201968Y-6672484D02*
X4135301Y-6748674D01*
X4135301Y-6748674D02*
X4163872Y-6748674D01*
X4163872Y-6748674D02*
X4182920Y-6758198D01*
X4182920Y-6758198D02*
X4192444Y-6767722D01*
X4192444Y-6767722D02*
X4201968Y-6786769D01*
X4201968Y-6786769D02*
X4201968Y-6834388D01*
X4201968Y-6834388D02*
X4192444Y-6853436D01*
X4192444Y-6853436D02*
X4182920Y-6862960D01*
X4182920Y-6862960D02*
X4163872Y-6872484D01*
X4163872Y-6872484D02*
X4106729Y-6872484D01*
X4106729Y-6872484D02*
X4087682Y-6862960D01*
X4087682Y-6862960D02*
X4078158Y-6853436D01*
X4325777Y-6672484D02*
X4344825Y-6672484D01*
X4344825Y-6672484D02*
X4363872Y-6682008D01*
X4363872Y-6682008D02*
X4373396Y-6691531D01*
X4373396Y-6691531D02*
X4382920Y-6710579D01*
X4382920Y-6710579D02*
X4392444Y-6748674D01*
X4392444Y-6748674D02*
X4392444Y-6796293D01*
X4392444Y-6796293D02*
X4382920Y-6834388D01*
X4382920Y-6834388D02*
X4373396Y-6853436D01*
X4373396Y-6853436D02*
X4363872Y-6862960D01*
X4363872Y-6862960D02*
X4344825Y-6872484D01*
X4344825Y-6872484D02*
X4325777Y-6872484D01*
X4325777Y-6872484D02*
X4306729Y-6862960D01*
X4306729Y-6862960D02*
X4297206Y-6853436D01*
X4297206Y-6853436D02*
X4287682Y-6834388D01*
X4287682Y-6834388D02*
X4278158Y-6796293D01*
X4278158Y-6796293D02*
X4278158Y-6748674D01*
X4278158Y-6748674D02*
X4287682Y-6710579D01*
X4287682Y-6710579D02*
X4297206Y-6691531D01*
X4297206Y-6691531D02*
X4306729Y-6682008D01*
X4306729Y-6682008D02*
X4325777Y-6672484D01*
X4468634Y-6672484D02*
X4468634Y-6710579D01*
X4544825Y-6672484D02*
X4544825Y-6710579D01*
X4840063Y-6948674D02*
X4830539Y-6939150D01*
X4830539Y-6939150D02*
X4811491Y-6910579D01*
X4811491Y-6910579D02*
X4801968Y-6891531D01*
X4801968Y-6891531D02*
X4792444Y-6862960D01*
X4792444Y-6862960D02*
X4782920Y-6815341D01*
X4782920Y-6815341D02*
X4782920Y-6777246D01*
X4782920Y-6777246D02*
X4792444Y-6729627D01*
X4792444Y-6729627D02*
X4801968Y-6701055D01*
X4801968Y-6701055D02*
X4811491Y-6682008D01*
X4811491Y-6682008D02*
X4830539Y-6653436D01*
X4830539Y-6653436D02*
X4840063Y-6643912D01*
X4897206Y-6672484D02*
X5021015Y-6672484D01*
X5021015Y-6672484D02*
X4954349Y-6748674D01*
X4954349Y-6748674D02*
X4982920Y-6748674D01*
X4982920Y-6748674D02*
X5001968Y-6758198D01*
X5001968Y-6758198D02*
X5011491Y-6767722D01*
X5011491Y-6767722D02*
X5021015Y-6786769D01*
X5021015Y-6786769D02*
X5021015Y-6834388D01*
X5021015Y-6834388D02*
X5011491Y-6853436D01*
X5011491Y-6853436D02*
X5001968Y-6862960D01*
X5001968Y-6862960D02*
X4982920Y-6872484D01*
X4982920Y-6872484D02*
X4925777Y-6872484D01*
X4925777Y-6872484D02*
X4906730Y-6862960D01*
X4906730Y-6862960D02*
X4897206Y-6853436D01*
X5259111Y-6872484D02*
X5259111Y-6672484D01*
X5344825Y-6872484D02*
X5344825Y-6767722D01*
X5344825Y-6767722D02*
X5335301Y-6748674D01*
X5335301Y-6748674D02*
X5316253Y-6739150D01*
X5316253Y-6739150D02*
X5287682Y-6739150D01*
X5287682Y-6739150D02*
X5268634Y-6748674D01*
X5268634Y-6748674D02*
X5259111Y-6758198D01*
X5468634Y-6872484D02*
X5449587Y-6862960D01*
X5449587Y-6862960D02*
X5440063Y-6853436D01*
X5440063Y-6853436D02*
X5430539Y-6834388D01*
X5430539Y-6834388D02*
X5430539Y-6777246D01*
X5430539Y-6777246D02*
X5440063Y-6758198D01*
X5440063Y-6758198D02*
X5449587Y-6748674D01*
X5449587Y-6748674D02*
X5468634Y-6739150D01*
X5468634Y-6739150D02*
X5497206Y-6739150D01*
X5497206Y-6739150D02*
X5516253Y-6748674D01*
X5516253Y-6748674D02*
X5525777Y-6758198D01*
X5525777Y-6758198D02*
X5535301Y-6777246D01*
X5535301Y-6777246D02*
X5535301Y-6834388D01*
X5535301Y-6834388D02*
X5525777Y-6853436D01*
X5525777Y-6853436D02*
X5516253Y-6862960D01*
X5516253Y-6862960D02*
X5497206Y-6872484D01*
X5497206Y-6872484D02*
X5468634Y-6872484D01*
X5649587Y-6872484D02*
X5630539Y-6862960D01*
X5630539Y-6862960D02*
X5621015Y-6843912D01*
X5621015Y-6843912D02*
X5621015Y-6672484D01*
X5801968Y-6862960D02*
X5782920Y-6872484D01*
X5782920Y-6872484D02*
X5744825Y-6872484D01*
X5744825Y-6872484D02*
X5725777Y-6862960D01*
X5725777Y-6862960D02*
X5716253Y-6843912D01*
X5716253Y-6843912D02*
X5716253Y-6767722D01*
X5716253Y-6767722D02*
X5725777Y-6748674D01*
X5725777Y-6748674D02*
X5744825Y-6739150D01*
X5744825Y-6739150D02*
X5782920Y-6739150D01*
X5782920Y-6739150D02*
X5801968Y-6748674D01*
X5801968Y-6748674D02*
X5811491Y-6767722D01*
X5811491Y-6767722D02*
X5811491Y-6786769D01*
X5811491Y-6786769D02*
X5716253Y-6805817D01*
X5887682Y-6862960D02*
X5906730Y-6872484D01*
X5906730Y-6872484D02*
X5944825Y-6872484D01*
X5944825Y-6872484D02*
X5963872Y-6862960D01*
X5963872Y-6862960D02*
X5973396Y-6843912D01*
X5973396Y-6843912D02*
X5973396Y-6834388D01*
X5973396Y-6834388D02*
X5963872Y-6815341D01*
X5963872Y-6815341D02*
X5944825Y-6805817D01*
X5944825Y-6805817D02*
X5916253Y-6805817D01*
X5916253Y-6805817D02*
X5897206Y-6796293D01*
X5897206Y-6796293D02*
X5887682Y-6777246D01*
X5887682Y-6777246D02*
X5887682Y-6767722D01*
X5887682Y-6767722D02*
X5897206Y-6748674D01*
X5897206Y-6748674D02*
X5916253Y-6739150D01*
X5916253Y-6739150D02*
X5944825Y-6739150D01*
X5944825Y-6739150D02*
X5963872Y-6748674D01*
X6040063Y-6948674D02*
X6049587Y-6939150D01*
X6049587Y-6939150D02*
X6068634Y-6910579D01*
X6068634Y-6910579D02*
X6078158Y-6891531D01*
X6078158Y-6891531D02*
X6087682Y-6862960D01*
X6087682Y-6862960D02*
X6097206Y-6815341D01*
X6097206Y-6815341D02*
X6097206Y-6777246D01*
X6097206Y-6777246D02*
X6087682Y-6729627D01*
X6087682Y-6729627D02*
X6078158Y-6701055D01*
X6078158Y-6701055D02*
X6068634Y-6682008D01*
X6068634Y-6682008D02*
X6049587Y-6653436D01*
X6049587Y-6653436D02*
X6040063Y-6643912D01*
D14*
X1087000Y-6972000D02*
X1265000Y-7150000D01*
X1265000Y-6972000D02*
X1087000Y-7150000D01*
X1265000Y-7061000D02*
G75*
G02*
X1087000Y-7061000I-89000J0D01*
G01*
X1087000Y-7061000D02*
G75*
G02*
X1265000Y-7061000I89000J0D01*
G01*
D11*
X1630539Y-7152484D02*
X1516253Y-7152484D01*
X1573396Y-7152484D02*
X1573396Y-6952484D01*
X1573396Y-6952484D02*
X1554348Y-6981055D01*
X1554348Y-6981055D02*
X1535301Y-7000103D01*
X1535301Y-7000103D02*
X1516253Y-7009627D01*
X1716253Y-7133436D02*
X1725777Y-7142960D01*
X1725777Y-7142960D02*
X1716253Y-7152484D01*
X1716253Y-7152484D02*
X1706729Y-7142960D01*
X1706729Y-7142960D02*
X1716253Y-7133436D01*
X1716253Y-7133436D02*
X1716253Y-7152484D01*
X1792443Y-6952484D02*
X1925777Y-6952484D01*
X1925777Y-6952484D02*
X1840062Y-7152484D01*
X2030539Y-7038198D02*
X2011491Y-7028674D01*
X2011491Y-7028674D02*
X2001967Y-7019150D01*
X2001967Y-7019150D02*
X1992443Y-7000103D01*
X1992443Y-7000103D02*
X1992443Y-6990579D01*
X1992443Y-6990579D02*
X2001967Y-6971531D01*
X2001967Y-6971531D02*
X2011491Y-6962008D01*
X2011491Y-6962008D02*
X2030539Y-6952484D01*
X2030539Y-6952484D02*
X2068634Y-6952484D01*
X2068634Y-6952484D02*
X2087682Y-6962008D01*
X2087682Y-6962008D02*
X2097205Y-6971531D01*
X2097205Y-6971531D02*
X2106729Y-6990579D01*
X2106729Y-6990579D02*
X2106729Y-7000103D01*
X2106729Y-7000103D02*
X2097205Y-7019150D01*
X2097205Y-7019150D02*
X2087682Y-7028674D01*
X2087682Y-7028674D02*
X2068634Y-7038198D01*
X2068634Y-7038198D02*
X2030539Y-7038198D01*
X2030539Y-7038198D02*
X2011491Y-7047722D01*
X2011491Y-7047722D02*
X2001967Y-7057246D01*
X2001967Y-7057246D02*
X1992443Y-7076293D01*
X1992443Y-7076293D02*
X1992443Y-7114388D01*
X1992443Y-7114388D02*
X2001967Y-7133436D01*
X2001967Y-7133436D02*
X2011491Y-7142960D01*
X2011491Y-7142960D02*
X2030539Y-7152484D01*
X2030539Y-7152484D02*
X2068634Y-7152484D01*
X2068634Y-7152484D02*
X2087682Y-7142960D01*
X2087682Y-7142960D02*
X2097205Y-7133436D01*
X2097205Y-7133436D02*
X2106729Y-7114388D01*
X2106729Y-7114388D02*
X2106729Y-7076293D01*
X2106729Y-7076293D02*
X2097205Y-7057246D01*
X2097205Y-7057246D02*
X2087682Y-7047722D01*
X2087682Y-7047722D02*
X2068634Y-7038198D01*
X2230539Y-6952484D02*
X2249586Y-6952484D01*
X2249586Y-6952484D02*
X2268634Y-6962008D01*
X2268634Y-6962008D02*
X2278158Y-6971531D01*
X2278158Y-6971531D02*
X2287682Y-6990579D01*
X2287682Y-6990579D02*
X2297205Y-7028674D01*
X2297205Y-7028674D02*
X2297205Y-7076293D01*
X2297205Y-7076293D02*
X2287682Y-7114388D01*
X2287682Y-7114388D02*
X2278158Y-7133436D01*
X2278158Y-7133436D02*
X2268634Y-7142960D01*
X2268634Y-7142960D02*
X2249586Y-7152484D01*
X2249586Y-7152484D02*
X2230539Y-7152484D01*
X2230539Y-7152484D02*
X2211491Y-7142960D01*
X2211491Y-7142960D02*
X2201967Y-7133436D01*
X2201967Y-7133436D02*
X2192444Y-7114388D01*
X2192444Y-7114388D02*
X2182920Y-7076293D01*
X2182920Y-7076293D02*
X2182920Y-7028674D01*
X2182920Y-7028674D02*
X2192444Y-6990579D01*
X2192444Y-6990579D02*
X2201967Y-6971531D01*
X2201967Y-6971531D02*
X2211491Y-6962008D01*
X2211491Y-6962008D02*
X2230539Y-6952484D01*
X2382920Y-7152484D02*
X2382920Y-7019150D01*
X2382920Y-7038198D02*
X2392444Y-7028674D01*
X2392444Y-7028674D02*
X2411491Y-7019150D01*
X2411491Y-7019150D02*
X2440063Y-7019150D01*
X2440063Y-7019150D02*
X2459110Y-7028674D01*
X2459110Y-7028674D02*
X2468634Y-7047722D01*
X2468634Y-7047722D02*
X2468634Y-7152484D01*
X2468634Y-7047722D02*
X2478158Y-7028674D01*
X2478158Y-7028674D02*
X2497205Y-7019150D01*
X2497205Y-7019150D02*
X2525777Y-7019150D01*
X2525777Y-7019150D02*
X2544825Y-7028674D01*
X2544825Y-7028674D02*
X2554348Y-7047722D01*
X2554348Y-7047722D02*
X2554348Y-7152484D01*
X2649586Y-7152484D02*
X2649586Y-7019150D01*
X2649586Y-7038198D02*
X2659110Y-7028674D01*
X2659110Y-7028674D02*
X2678158Y-7019150D01*
X2678158Y-7019150D02*
X2706729Y-7019150D01*
X2706729Y-7019150D02*
X2725777Y-7028674D01*
X2725777Y-7028674D02*
X2735301Y-7047722D01*
X2735301Y-7047722D02*
X2735301Y-7152484D01*
X2735301Y-7047722D02*
X2744825Y-7028674D01*
X2744825Y-7028674D02*
X2763872Y-7019150D01*
X2763872Y-7019150D02*
X2792444Y-7019150D01*
X2792444Y-7019150D02*
X2811491Y-7028674D01*
X2811491Y-7028674D02*
X2821015Y-7047722D01*
X2821015Y-7047722D02*
X2821015Y-7152484D01*
X3211491Y-6942960D02*
X3040063Y-7200103D01*
X3468634Y-6952484D02*
X3487682Y-6952484D01*
X3487682Y-6952484D02*
X3506729Y-6962008D01*
X3506729Y-6962008D02*
X3516253Y-6971531D01*
X3516253Y-6971531D02*
X3525777Y-6990579D01*
X3525777Y-6990579D02*
X3535301Y-7028674D01*
X3535301Y-7028674D02*
X3535301Y-7076293D01*
X3535301Y-7076293D02*
X3525777Y-7114388D01*
X3525777Y-7114388D02*
X3516253Y-7133436D01*
X3516253Y-7133436D02*
X3506729Y-7142960D01*
X3506729Y-7142960D02*
X3487682Y-7152484D01*
X3487682Y-7152484D02*
X3468634Y-7152484D01*
X3468634Y-7152484D02*
X3449586Y-7142960D01*
X3449586Y-7142960D02*
X3440063Y-7133436D01*
X3440063Y-7133436D02*
X3430539Y-7114388D01*
X3430539Y-7114388D02*
X3421015Y-7076293D01*
X3421015Y-7076293D02*
X3421015Y-7028674D01*
X3421015Y-7028674D02*
X3430539Y-6990579D01*
X3430539Y-6990579D02*
X3440063Y-6971531D01*
X3440063Y-6971531D02*
X3449586Y-6962008D01*
X3449586Y-6962008D02*
X3468634Y-6952484D01*
X3621015Y-7133436D02*
X3630539Y-7142960D01*
X3630539Y-7142960D02*
X3621015Y-7152484D01*
X3621015Y-7152484D02*
X3611491Y-7142960D01*
X3611491Y-7142960D02*
X3621015Y-7133436D01*
X3621015Y-7133436D02*
X3621015Y-7152484D01*
X3754348Y-6952484D02*
X3773396Y-6952484D01*
X3773396Y-6952484D02*
X3792444Y-6962008D01*
X3792444Y-6962008D02*
X3801967Y-6971531D01*
X3801967Y-6971531D02*
X3811491Y-6990579D01*
X3811491Y-6990579D02*
X3821015Y-7028674D01*
X3821015Y-7028674D02*
X3821015Y-7076293D01*
X3821015Y-7076293D02*
X3811491Y-7114388D01*
X3811491Y-7114388D02*
X3801967Y-7133436D01*
X3801967Y-7133436D02*
X3792444Y-7142960D01*
X3792444Y-7142960D02*
X3773396Y-7152484D01*
X3773396Y-7152484D02*
X3754348Y-7152484D01*
X3754348Y-7152484D02*
X3735301Y-7142960D01*
X3735301Y-7142960D02*
X3725777Y-7133436D01*
X3725777Y-7133436D02*
X3716253Y-7114388D01*
X3716253Y-7114388D02*
X3706729Y-7076293D01*
X3706729Y-7076293D02*
X3706729Y-7028674D01*
X3706729Y-7028674D02*
X3716253Y-6990579D01*
X3716253Y-6990579D02*
X3725777Y-6971531D01*
X3725777Y-6971531D02*
X3735301Y-6962008D01*
X3735301Y-6962008D02*
X3754348Y-6952484D01*
X3887682Y-6952484D02*
X4021015Y-6952484D01*
X4021015Y-6952484D02*
X3935301Y-7152484D01*
X4135301Y-6952484D02*
X4154348Y-6952484D01*
X4154348Y-6952484D02*
X4173396Y-6962008D01*
X4173396Y-6962008D02*
X4182920Y-6971531D01*
X4182920Y-6971531D02*
X4192444Y-6990579D01*
X4192444Y-6990579D02*
X4201968Y-7028674D01*
X4201968Y-7028674D02*
X4201968Y-7076293D01*
X4201968Y-7076293D02*
X4192444Y-7114388D01*
X4192444Y-7114388D02*
X4182920Y-7133436D01*
X4182920Y-7133436D02*
X4173396Y-7142960D01*
X4173396Y-7142960D02*
X4154348Y-7152484D01*
X4154348Y-7152484D02*
X4135301Y-7152484D01*
X4135301Y-7152484D02*
X4116253Y-7142960D01*
X4116253Y-7142960D02*
X4106729Y-7133436D01*
X4106729Y-7133436D02*
X4097206Y-7114388D01*
X4097206Y-7114388D02*
X4087682Y-7076293D01*
X4087682Y-7076293D02*
X4087682Y-7028674D01*
X4087682Y-7028674D02*
X4097206Y-6990579D01*
X4097206Y-6990579D02*
X4106729Y-6971531D01*
X4106729Y-6971531D02*
X4116253Y-6962008D01*
X4116253Y-6962008D02*
X4135301Y-6952484D01*
X4392444Y-7152484D02*
X4278158Y-7152484D01*
X4335301Y-7152484D02*
X4335301Y-6952484D01*
X4335301Y-6952484D02*
X4316253Y-6981055D01*
X4316253Y-6981055D02*
X4297206Y-7000103D01*
X4297206Y-7000103D02*
X4278158Y-7009627D01*
X4468634Y-6952484D02*
X4468634Y-6990579D01*
X4544825Y-6952484D02*
X4544825Y-6990579D01*
X4840063Y-7228674D02*
X4830539Y-7219150D01*
X4830539Y-7219150D02*
X4811491Y-7190579D01*
X4811491Y-7190579D02*
X4801968Y-7171531D01*
X4801968Y-7171531D02*
X4792444Y-7142960D01*
X4792444Y-7142960D02*
X4782920Y-7095341D01*
X4782920Y-7095341D02*
X4782920Y-7057246D01*
X4782920Y-7057246D02*
X4792444Y-7009627D01*
X4792444Y-7009627D02*
X4801968Y-6981055D01*
X4801968Y-6981055D02*
X4811491Y-6962008D01*
X4811491Y-6962008D02*
X4830539Y-6933436D01*
X4830539Y-6933436D02*
X4840063Y-6923912D01*
X5001968Y-7019150D02*
X5001968Y-7152484D01*
X4954349Y-6942960D02*
X4906730Y-7085817D01*
X4906730Y-7085817D02*
X5030539Y-7085817D01*
X5259111Y-7152484D02*
X5259111Y-6952484D01*
X5344825Y-7152484D02*
X5344825Y-7047722D01*
X5344825Y-7047722D02*
X5335301Y-7028674D01*
X5335301Y-7028674D02*
X5316253Y-7019150D01*
X5316253Y-7019150D02*
X5287682Y-7019150D01*
X5287682Y-7019150D02*
X5268634Y-7028674D01*
X5268634Y-7028674D02*
X5259111Y-7038198D01*
X5468634Y-7152484D02*
X5449587Y-7142960D01*
X5449587Y-7142960D02*
X5440063Y-7133436D01*
X5440063Y-7133436D02*
X5430539Y-7114388D01*
X5430539Y-7114388D02*
X5430539Y-7057246D01*
X5430539Y-7057246D02*
X5440063Y-7038198D01*
X5440063Y-7038198D02*
X5449587Y-7028674D01*
X5449587Y-7028674D02*
X5468634Y-7019150D01*
X5468634Y-7019150D02*
X5497206Y-7019150D01*
X5497206Y-7019150D02*
X5516253Y-7028674D01*
X5516253Y-7028674D02*
X5525777Y-7038198D01*
X5525777Y-7038198D02*
X5535301Y-7057246D01*
X5535301Y-7057246D02*
X5535301Y-7114388D01*
X5535301Y-7114388D02*
X5525777Y-7133436D01*
X5525777Y-7133436D02*
X5516253Y-7142960D01*
X5516253Y-7142960D02*
X5497206Y-7152484D01*
X5497206Y-7152484D02*
X5468634Y-7152484D01*
X5649587Y-7152484D02*
X5630539Y-7142960D01*
X5630539Y-7142960D02*
X5621015Y-7123912D01*
X5621015Y-7123912D02*
X5621015Y-6952484D01*
X5801968Y-7142960D02*
X5782920Y-7152484D01*
X5782920Y-7152484D02*
X5744825Y-7152484D01*
X5744825Y-7152484D02*
X5725777Y-7142960D01*
X5725777Y-7142960D02*
X5716253Y-7123912D01*
X5716253Y-7123912D02*
X5716253Y-7047722D01*
X5716253Y-7047722D02*
X5725777Y-7028674D01*
X5725777Y-7028674D02*
X5744825Y-7019150D01*
X5744825Y-7019150D02*
X5782920Y-7019150D01*
X5782920Y-7019150D02*
X5801968Y-7028674D01*
X5801968Y-7028674D02*
X5811491Y-7047722D01*
X5811491Y-7047722D02*
X5811491Y-7066769D01*
X5811491Y-7066769D02*
X5716253Y-7085817D01*
X5887682Y-7142960D02*
X5906730Y-7152484D01*
X5906730Y-7152484D02*
X5944825Y-7152484D01*
X5944825Y-7152484D02*
X5963872Y-7142960D01*
X5963872Y-7142960D02*
X5973396Y-7123912D01*
X5973396Y-7123912D02*
X5973396Y-7114388D01*
X5973396Y-7114388D02*
X5963872Y-7095341D01*
X5963872Y-7095341D02*
X5944825Y-7085817D01*
X5944825Y-7085817D02*
X5916253Y-7085817D01*
X5916253Y-7085817D02*
X5897206Y-7076293D01*
X5897206Y-7076293D02*
X5887682Y-7057246D01*
X5887682Y-7057246D02*
X5887682Y-7047722D01*
X5887682Y-7047722D02*
X5897206Y-7028674D01*
X5897206Y-7028674D02*
X5916253Y-7019150D01*
X5916253Y-7019150D02*
X5944825Y-7019150D01*
X5944825Y-7019150D02*
X5963872Y-7028674D01*
X6040063Y-7228674D02*
X6049587Y-7219150D01*
X6049587Y-7219150D02*
X6068634Y-7190579D01*
X6068634Y-7190579D02*
X6078158Y-7171531D01*
X6078158Y-7171531D02*
X6087682Y-7142960D01*
X6087682Y-7142960D02*
X6097206Y-7095341D01*
X6097206Y-7095341D02*
X6097206Y-7057246D01*
X6097206Y-7057246D02*
X6087682Y-7009627D01*
X6087682Y-7009627D02*
X6078158Y-6981055D01*
X6078158Y-6981055D02*
X6068634Y-6962008D01*
X6068634Y-6962008D02*
X6049587Y-6933436D01*
X6049587Y-6933436D02*
X6040063Y-6923912D01*
M02*
