%TF.GenerationSoftware,KiCad,Pcbnew,6.0.2+dfsg-1*%
%TF.CreationDate,2023-09-22T14:52:28+02:00*%
%TF.ProjectId,MaxPilot,4d617850-696c-46f7-942e-6b696361645f,rev?*%
%TF.SameCoordinates,Original*%
%TF.FileFunction,Soldermask,Bot*%
%TF.FilePolarity,Negative*%
%FSLAX46Y46*%
G04 Gerber Fmt 4.6, Leading zero omitted, Abs format (unit mm)*
G04 Created by KiCad (PCBNEW 6.0.2+dfsg-1) date 2023-09-22 14:52:28*
%MOMM*%
%LPD*%
G01*
G04 APERTURE LIST*
%ADD10C,1.600000*%
%ADD11O,1.600000X1.600000*%
%ADD12C,2.780000*%
%ADD13R,1.600000X1.600000*%
%ADD14R,3.000000X3.000000*%
%ADD15C,3.000000*%
%ADD16R,2.300000X2.000000*%
%ADD17C,2.300000*%
%ADD18C,1.800000*%
%ADD19R,2.000000X2.000000*%
%ADD20O,2.000000X1.600000*%
%ADD21R,2.200000X2.200000*%
%ADD22O,2.200000X2.200000*%
G04 APERTURE END LIST*
D10*
%TO.C,R2*%
X78740000Y-27940000D03*
D11*
X78740000Y-38100000D03*
%TD*%
D12*
%TO.C,F1*%
X17780000Y-15240000D03*
X17780000Y-18640000D03*
X27700000Y-18640000D03*
X27700000Y-15240000D03*
%TD*%
D13*
%TO.C,U3*%
X48245000Y-36840000D03*
D11*
X45705000Y-36840000D03*
X43165000Y-36840000D03*
X43165000Y-44460000D03*
X45705000Y-44460000D03*
X48245000Y-44460000D03*
%TD*%
D14*
%TO.C,J1*%
X17780000Y-38100000D03*
D15*
X17780000Y-43180000D03*
X17780000Y-48260000D03*
%TD*%
D10*
%TO.C,R1*%
X71120000Y-27940000D03*
D11*
X71120000Y-38100000D03*
%TD*%
D16*
%TO.C,PS1*%
X36237500Y-20360000D03*
D17*
X36237500Y-25360000D03*
X65637500Y-15160000D03*
X65637500Y-30560000D03*
%TD*%
D18*
%TO.C,RV1*%
X20320000Y-27940000D03*
X27820000Y-29740000D03*
%TD*%
D13*
%TO.C,U2*%
X60945000Y-36840000D03*
D11*
X58405000Y-36840000D03*
X55865000Y-36840000D03*
X55865000Y-44460000D03*
X58405000Y-44460000D03*
X60945000Y-44460000D03*
%TD*%
D19*
%TO.C,U1*%
X85575000Y-21590000D03*
D20*
X85575000Y-24130000D03*
X85575000Y-26670000D03*
X85575000Y-29210000D03*
X85575000Y-31750000D03*
X85575000Y-34290000D03*
X85575000Y-36830000D03*
X85575000Y-39370000D03*
X108435000Y-39370000D03*
X108435000Y-36830000D03*
X108435000Y-34290000D03*
X108435000Y-31750000D03*
X108435000Y-29210000D03*
X108435000Y-26670000D03*
X108435000Y-24130000D03*
X108435000Y-21590000D03*
%TD*%
D21*
%TO.C,D1*%
X35560000Y-45720000D03*
D22*
X25400000Y-45720000D03*
%TD*%
D21*
%TO.C,D2*%
X25400000Y-38100000D03*
D22*
X35560000Y-38100000D03*
%TD*%
D10*
%TO.C,C1*%
X73660000Y-20320000D03*
X78660000Y-20320000D03*
%TD*%
M02*
