%TF.GenerationSoftware,KiCad,Pcbnew,9.0.3+dfsg-1*%
%TF.CreationDate,2026-02-21T20:04:31+01:00*%
%TF.ProjectId,MaxPilot,4d617850-696c-46f7-942e-6b696361645f,rev?*%
%TF.SameCoordinates,Original*%
%TF.FileFunction,Soldermask,Top*%
%TF.FilePolarity,Negative*%
%FSLAX46Y46*%
G04 Gerber Fmt 4.6, Leading zero omitted, Abs format (unit mm)*
G04 Created by KiCad (PCBNEW 9.0.3+dfsg-1) date 2026-02-21 20:04:31*
%MOMM*%
%LPD*%
G01*
G04 APERTURE LIST*
G04 Aperture macros list*
%AMRoundRect*
0 Rectangle with rounded corners*
0 $1 Rounding radius*
0 $2 $3 $4 $5 $6 $7 $8 $9 X,Y pos of 4 corners*
0 Add a 4 corners polygon primitive as box body*
4,1,4,$2,$3,$4,$5,$6,$7,$8,$9,$2,$3,0*
0 Add four circle primitives for the rounded corners*
1,1,$1+$1,$2,$3*
1,1,$1+$1,$4,$5*
1,1,$1+$1,$6,$7*
1,1,$1+$1,$8,$9*
0 Add four rect primitives between the rounded corners*
20,1,$1+$1,$2,$3,$4,$5,0*
20,1,$1+$1,$4,$5,$6,$7,0*
20,1,$1+$1,$6,$7,$8,$9,0*
20,1,$1+$1,$8,$9,$2,$3,0*%
G04 Aperture macros list end*
%ADD10C,1.600000*%
%ADD11O,1.600000X1.600000*%
%ADD12C,2.400000*%
%ADD13C,0.800000*%
%ADD14RoundRect,0.250000X0.550000X0.550000X-0.550000X0.550000X-0.550000X-0.550000X0.550000X-0.550000X0*%
%ADD15R,2.540000X2.540000*%
%ADD16C,2.540000*%
%ADD17C,2.200000*%
%ADD18R,2.300000X2.000000*%
%ADD19C,2.300000*%
%ADD20C,1.800000*%
%ADD21R,2.000000X2.000000*%
%ADD22O,2.000000X1.600000*%
%ADD23R,2.200000X2.200000*%
%ADD24O,2.200000X2.200000*%
G04 APERTURE END LIST*
D10*
%TO.C,R2*%
X73660000Y-25400000D03*
D11*
X63500000Y-25400000D03*
%TD*%
D12*
%TO.C,F1*%
X22860000Y-15240000D03*
X38100000Y-15240000D03*
%TD*%
D10*
%TO.C,U3*%
X45720000Y-20320000D03*
D13*
X38100000Y-22860000D03*
D14*
X45720000Y-25400000D03*
D10*
X45720000Y-22860000D03*
X38100000Y-20320000D03*
X38100000Y-25400000D03*
%TD*%
D15*
%TO.C,J1*%
X17780000Y-25400000D03*
D16*
X17780000Y-33020000D03*
X17780000Y-40640000D03*
%TD*%
D17*
%TO.C,H1*%
X15240000Y-15240000D03*
%TD*%
%TO.C,H4*%
X109220000Y-48260000D03*
%TD*%
D10*
%TO.C,R1*%
X73660000Y-15240000D03*
D11*
X63500000Y-15240000D03*
%TD*%
D18*
%TO.C,PS1*%
X45720000Y-36905000D03*
D19*
X45720000Y-41905000D03*
X75120000Y-31705000D03*
X75120000Y-47105000D03*
%TD*%
D20*
%TO.C,RV1*%
X28840000Y-21650000D03*
X27040000Y-29150000D03*
%TD*%
D10*
%TO.C,U2*%
X59685000Y-17780000D03*
D13*
X52065000Y-20320000D03*
D14*
X59685000Y-22860000D03*
D10*
X59685000Y-20320000D03*
X52065000Y-17780000D03*
X52065000Y-22860000D03*
%TD*%
D21*
%TO.C,U1*%
X81280000Y-21590000D03*
D22*
X81280000Y-24130000D03*
X81280000Y-26670000D03*
X81280000Y-29210000D03*
X81280000Y-31750000D03*
X81280000Y-34290000D03*
X81280000Y-36830000D03*
X81280000Y-39370000D03*
X104140000Y-39370000D03*
X104140000Y-36830000D03*
X104140000Y-34290000D03*
X104140000Y-31750000D03*
X104140000Y-29210000D03*
X104140000Y-26670000D03*
X104140000Y-24130000D03*
X104140000Y-21590000D03*
%TD*%
D23*
%TO.C,D1*%
X38100000Y-33020000D03*
D24*
X38100000Y-43180000D03*
%TD*%
D17*
%TO.C,H3*%
X15240000Y-48260000D03*
%TD*%
D23*
%TO.C,D2*%
X30480000Y-45720000D03*
D24*
X30480000Y-35560000D03*
%TD*%
D17*
%TO.C,H2*%
X109220000Y-15240000D03*
%TD*%
D10*
%TO.C,C1*%
X73580000Y-20320000D03*
X68580000Y-20320000D03*
%TD*%
M02*
