%TF.GenerationSoftware,KiCad,Pcbnew,9.0.3+dfsg-1*%
%TF.CreationDate,2026-02-21T20:26:47+01:00*%
%TF.ProjectId,MaxPilot,4d617850-696c-46f7-942e-6b696361645f,rev?*%
%TF.SameCoordinates,Original*%
%TF.FileFunction,Copper,L1,Top*%
%TF.FilePolarity,Positive*%
%FSLAX46Y46*%
G04 Gerber Fmt 4.6, Leading zero omitted, Abs format (unit mm)*
G04 Created by KiCad (PCBNEW 9.0.3+dfsg-1) date 2026-02-21 20:26:47*
%MOMM*%
%LPD*%
G01*
G04 APERTURE LIST*
G04 Aperture macros list*
%AMRoundRect*
0 Rectangle with rounded corners*
0 $1 Rounding radius*
0 $2 $3 $4 $5 $6 $7 $8 $9 X,Y pos of 4 corners*
0 Add a 4 corners polygon primitive as box body*
4,1,4,$2,$3,$4,$5,$6,$7,$8,$9,$2,$3,0*
0 Add four circle primitives for the rounded corners*
1,1,$1+$1,$2,$3*
1,1,$1+$1,$4,$5*
1,1,$1+$1,$6,$7*
1,1,$1+$1,$8,$9*
0 Add four rect primitives between the rounded corners*
20,1,$1+$1,$2,$3,$4,$5,0*
20,1,$1+$1,$4,$5,$6,$7,0*
20,1,$1+$1,$6,$7,$8,$9,0*
20,1,$1+$1,$8,$9,$2,$3,0*%
G04 Aperture macros list end*
%TA.AperFunction,ComponentPad*%
%ADD10C,1.600000*%
%TD*%
%TA.AperFunction,ComponentPad*%
%ADD11O,1.600000X1.600000*%
%TD*%
%TA.AperFunction,ComponentPad*%
%ADD12C,2.400000*%
%TD*%
%TA.AperFunction,WasherPad*%
%ADD13C,1.600000*%
%TD*%
%TA.AperFunction,ComponentPad*%
%ADD14RoundRect,0.250000X0.550000X0.550000X-0.550000X0.550000X-0.550000X-0.550000X0.550000X-0.550000X0*%
%TD*%
%TA.AperFunction,ComponentPad*%
%ADD15R,2.540000X2.540000*%
%TD*%
%TA.AperFunction,ComponentPad*%
%ADD16C,2.540000*%
%TD*%
%TA.AperFunction,ComponentPad*%
%ADD17R,2.300000X2.000000*%
%TD*%
%TA.AperFunction,ComponentPad*%
%ADD18C,2.300000*%
%TD*%
%TA.AperFunction,ComponentPad*%
%ADD19C,1.800000*%
%TD*%
%TA.AperFunction,ComponentPad*%
%ADD20R,2.000000X2.000000*%
%TD*%
%TA.AperFunction,ComponentPad*%
%ADD21O,2.000000X1.600000*%
%TD*%
%TA.AperFunction,ComponentPad*%
%ADD22R,2.200000X2.200000*%
%TD*%
%TA.AperFunction,ComponentPad*%
%ADD23O,2.200000X2.200000*%
%TD*%
%TA.AperFunction,Conductor*%
%ADD24C,2.000000*%
%TD*%
%TA.AperFunction,Conductor*%
%ADD25C,0.250000*%
%TD*%
G04 APERTURE END LIST*
D10*
%TO.P,R2,1*%
%TO.N,+5V*%
X73660000Y-25400000D03*
D11*
%TO.P,R2,2*%
%TO.N,Net-(R2-Pad2)*%
X63500000Y-25400000D03*
%TD*%
D12*
%TO.P,F1,1*%
%TO.N,LINE*%
X22860000Y-15240000D03*
%TO.P,F1,2*%
%TO.N,LINE_P*%
X38100000Y-15240000D03*
%TD*%
D13*
%TO.P,U3,*%
%TO.N,*%
X45720000Y-20320000D03*
D14*
%TO.P,U3,1*%
%TO.N,Net-(R2-Pad2)*%
X45720000Y-25400000D03*
D10*
%TO.P,U3,2*%
%TO.N,Net-(U1-MOSI{slash}D7)*%
X45720000Y-22860000D03*
%TO.P,U3,4*%
%TO.N,LINE_P*%
X38100000Y-20320000D03*
%TO.P,U3,6*%
%TO.N,Net-(D2-A)*%
X38100000Y-25400000D03*
%TD*%
D15*
%TO.P,J1,1,Pin_1*%
%TO.N,LINE*%
X17780000Y-25400000D03*
D16*
%TO.P,J1,2,Pin_2*%
%TO.N,NEUT*%
X17780000Y-33020000D03*
%TO.P,J1,3,Pin_3*%
%TO.N,/PILOT*%
X17780000Y-40640000D03*
%TD*%
D10*
%TO.P,R1,1*%
%TO.N,+5V*%
X73660000Y-15240000D03*
D11*
%TO.P,R1,2*%
%TO.N,Net-(R1-Pad2)*%
X63500000Y-15240000D03*
%TD*%
D17*
%TO.P,PS1,1,AC/L*%
%TO.N,LINE_P*%
X45720000Y-36905000D03*
D18*
%TO.P,PS1,2,AC/N*%
%TO.N,NEUT*%
X45720000Y-41905000D03*
%TO.P,PS1,3,-Vout*%
%TO.N,GND*%
X75120000Y-31705000D03*
%TO.P,PS1,4,+Vout*%
%TO.N,+5V*%
X75120000Y-47105000D03*
%TD*%
D19*
%TO.P,RV1,1*%
%TO.N,LINE_P*%
X28840000Y-21650000D03*
%TO.P,RV1,2*%
%TO.N,NEUT*%
X27040000Y-29150000D03*
%TD*%
D13*
%TO.P,U2,*%
%TO.N,*%
X59685000Y-17780000D03*
D14*
%TO.P,U2,1*%
%TO.N,Net-(R1-Pad2)*%
X59685000Y-22860000D03*
D10*
%TO.P,U2,2*%
%TO.N,Net-(U1-D3)*%
X59685000Y-20320000D03*
%TO.P,U2,4*%
%TO.N,LINE_P*%
X52065000Y-17780000D03*
%TO.P,U2,6*%
%TO.N,Net-(D1-K)*%
X52065000Y-22860000D03*
%TD*%
D20*
%TO.P,U1,1,~{RST}*%
%TO.N,unconnected-(U1-~{RST}-Pad1)*%
X81280000Y-21590000D03*
D21*
%TO.P,U1,2,A0*%
%TO.N,unconnected-(U1-A0-Pad2)*%
X81280000Y-24130000D03*
%TO.P,U1,3,D0*%
%TO.N,unconnected-(U1-D0-Pad3)*%
X81280000Y-26670000D03*
%TO.P,U1,4,SCK/D5*%
%TO.N,unconnected-(U1-SCK{slash}D5-Pad4)*%
X81280000Y-29210000D03*
%TO.P,U1,5,MISO/D6*%
%TO.N,unconnected-(U1-MISO{slash}D6-Pad5)*%
X81280000Y-31750000D03*
%TO.P,U1,6,MOSI/D7*%
%TO.N,Net-(U1-MOSI{slash}D7)*%
X81280000Y-34290000D03*
%TO.P,U1,7,CS/D8*%
%TO.N,unconnected-(U1-CS{slash}D8-Pad7)*%
X81280000Y-36830000D03*
%TO.P,U1,8,3V3*%
%TO.N,unconnected-(U1-3V3-Pad8)*%
X81280000Y-39370000D03*
%TO.P,U1,9,5V*%
%TO.N,+5V*%
X104140000Y-39370000D03*
%TO.P,U1,10,GND*%
%TO.N,GND*%
X104140000Y-36830000D03*
%TO.P,U1,11,D4*%
%TO.N,unconnected-(U1-D4-Pad11)*%
X104140000Y-34290000D03*
%TO.P,U1,12,D3*%
%TO.N,Net-(U1-D3)*%
X104140000Y-31750000D03*
%TO.P,U1,13,SDA/D2*%
%TO.N,unconnected-(U1-SDA{slash}D2-Pad13)*%
X104140000Y-29210000D03*
%TO.P,U1,14,SCL/D1*%
%TO.N,unconnected-(U1-SCL{slash}D1-Pad14)*%
X104140000Y-26670000D03*
%TO.P,U1,15,RX*%
%TO.N,unconnected-(U1-RX-Pad15)*%
X104140000Y-24130000D03*
%TO.P,U1,16,TX*%
%TO.N,unconnected-(U1-TX-Pad16)*%
X104140000Y-21590000D03*
%TD*%
D22*
%TO.P,D1,1,K*%
%TO.N,Net-(D1-K)*%
X38100000Y-33020000D03*
D23*
%TO.P,D1,2,A*%
%TO.N,/PILOT*%
X38100000Y-43180000D03*
%TD*%
D22*
%TO.P,D2,1,K*%
%TO.N,/PILOT*%
X30480000Y-45720000D03*
D23*
%TO.P,D2,2,A*%
%TO.N,Net-(D2-A)*%
X30480000Y-35560000D03*
%TD*%
D10*
%TO.P,C1,1*%
%TO.N,+5V*%
X73580000Y-20320000D03*
%TO.P,C1,2*%
%TO.N,GND*%
X68580000Y-20320000D03*
%TD*%
D24*
%TO.N,/PILOT*%
X22860000Y-45720000D02*
X30480000Y-45720000D01*
X30480000Y-45720000D02*
X35560000Y-45720000D01*
X35560000Y-45720000D02*
X38100000Y-43180000D01*
X17780000Y-40640000D02*
X22860000Y-45720000D01*
%TO.N,NEUT*%
X40005800Y-38579000D02*
X43331800Y-41905000D01*
X29532200Y-41119000D02*
X33020000Y-41119000D01*
X25879000Y-30311000D02*
X27040000Y-29150000D01*
X33020000Y-41119000D02*
X35560000Y-38579000D01*
X23170000Y-33020000D02*
X25879000Y-30311000D01*
X27040000Y-29150000D02*
X25879000Y-30311000D01*
X25879000Y-37465800D02*
X29532200Y-41119000D01*
X25879000Y-30311000D02*
X25879000Y-37465800D01*
X17780000Y-33020000D02*
X23170000Y-33020000D01*
X43331800Y-41905000D02*
X45720000Y-41905000D01*
X35560000Y-38579000D02*
X40005800Y-38579000D01*
D25*
%TO.N,GND*%
X104140000Y-36830000D02*
X104140000Y-35703300D01*
X79118300Y-35703300D02*
X75120000Y-31705000D01*
X104140000Y-35703300D02*
X79118300Y-35703300D01*
%TO.N,+5V*%
X104140000Y-40496700D02*
X81728300Y-40496700D01*
X104140000Y-39370000D02*
X104140000Y-40496700D01*
X81728300Y-40496700D02*
X75120000Y-47105000D01*
%TO.N,Net-(R2-Pad2)*%
X63500000Y-25400000D02*
X62373300Y-25400000D01*
X48260000Y-27940000D02*
X45720000Y-25400000D01*
X62373300Y-25400000D02*
X59833300Y-27940000D01*
X59833300Y-27940000D02*
X48260000Y-27940000D01*
%TO.N,Net-(U1-D3)*%
X59685000Y-20320000D02*
X63136000Y-23771000D01*
X103013300Y-30623300D02*
X104140000Y-30623300D01*
X78727900Y-25400000D02*
X97790000Y-25400000D01*
X104140000Y-31750000D02*
X104140000Y-30623300D01*
X77098900Y-23771000D02*
X78727900Y-25400000D01*
X63136000Y-23771000D02*
X77098900Y-23771000D01*
X97790000Y-25400000D02*
X103013300Y-30623300D01*
%TO.N,Net-(U1-MOSI{slash}D7)*%
X80153300Y-33163300D02*
X81280000Y-33163300D01*
X44575100Y-26185800D02*
X47673200Y-29283900D01*
X45720000Y-22860000D02*
X44575100Y-24004900D01*
X81280000Y-34290000D02*
X81280000Y-33163300D01*
X76273900Y-29283900D02*
X80153300Y-33163300D01*
X47673200Y-29283900D02*
X76273900Y-29283900D01*
X44575100Y-24004900D02*
X44575100Y-26185800D01*
%TD*%
M02*
