M48
; DRILL file {KiCad 6.0.2+dfsg-1} date ven. 22 sept. 2023 14:52:32
; FORMAT={-:-/ absolute / inch / decimal}
; #@! TF.CreationDate,2023-09-22T14:52:32+02:00
; #@! TF.GenerationSoftware,Kicad,Pcbnew,6.0.2+dfsg-1
; #@! TF.FileFunction,Plated,1,2,PTH
FMAT,2
INCH
; #@! TA.AperFunction,Plated,PTH,ComponentDrill
T1C0.0315
; #@! TA.AperFunction,Plated,PTH,ComponentDrill
T2C0.0394
; #@! TA.AperFunction,Plated,PTH,ComponentDrill
T3C0.0433
; #@! TA.AperFunction,Plated,PTH,ComponentDrill
T4C0.0598
; #@! TA.AperFunction,Plated,PTH,ComponentDrill
T5C0.0701
%
G90
G05
T1
X0.8Y-1.1
X1.0953Y-1.1709
X1.6994Y-1.4504
X1.6994Y-1.7504
X1.7994Y-1.4504
X1.7994Y-1.7504
X1.8994Y-1.4504
X1.8994Y-1.7504
X2.1994Y-1.4504
X2.1994Y-1.7504
X2.2994Y-1.4504
X2.2994Y-1.7504
X2.3994Y-1.4504
X2.3994Y-1.7504
X2.8Y-1.1
X2.8Y-1.5
X2.9Y-0.8
X3.0969Y-0.8
X3.1Y-1.1
X3.1Y-1.5
T2
X1.4267Y-0.8016
X1.4267Y-0.9984
X2.5842Y-0.5969
X2.5842Y-1.2031
X3.3691Y-0.85
X3.3691Y-0.95
X3.3691Y-1.05
X3.3691Y-1.15
X3.3691Y-1.25
X3.3691Y-1.35
X3.3691Y-1.45
X3.3691Y-1.55
X4.2691Y-0.85
X4.2691Y-0.95
X4.2691Y-1.05
X4.2691Y-1.15
X4.2691Y-1.25
X4.2691Y-1.35
X4.2691Y-1.45
X4.2691Y-1.55
T3
X1.0Y-1.5
X1.0Y-1.8
X1.4Y-1.5
X1.4Y-1.8
T4
X0.7Y-1.5
X0.7Y-1.7
X0.7Y-1.9
T5
X0.7Y-0.6
X0.7Y-0.7339
X1.0906Y-0.6
X1.0906Y-0.7339
T0
M30
