M48
; DRILL file {KiCad 9.0.3+dfsg-1} date 2026-02-21T17:58:44+0100
; FORMAT={-:-/ absolute / metric / decimal}
; #@! TF.CreationDate,2026-02-21T17:58:44+01:00
; #@! TF.GenerationSoftware,Kicad,Pcbnew,9.0.3+dfsg-1
; #@! TF.FileFunction,Plated,1,2,PTH
FMAT,2
METRIC
; #@! TA.AperFunction,Plated,PTH,ViaDrill
T1C0.400
; #@! TA.AperFunction,Plated,PTH,ComponentDrill
T2C0.800
; #@! TA.AperFunction,Plated,PTH,ComponentDrill
T3C1.000
; #@! TA.AperFunction,Plated,PTH,ComponentDrill
T4C1.100
; #@! TA.AperFunction,Plated,PTH,ComponentDrill
T5C1.600
; #@! TA.AperFunction,Plated,PTH,ComponentDrill
T6C1.780
%
G90
G05
T1
X50.319Y-33.665
T2
X27.04Y-31.69
X28.84Y-24.19
X35.56Y-20.32
X35.56Y-25.4
X43.18Y-22.86
X43.18Y-25.4
X48.26Y-17.78
X48.26Y-22.86
X55.88Y-20.32
X55.88Y-22.86
X66.04Y-15.24
X66.04Y-20.32
X76.2Y-15.24
X76.2Y-20.32
X81.28Y-40.72
X81.28Y-45.72
T3
X45.72Y-36.905
X45.72Y-41.905
X75.12Y-31.705
X75.12Y-47.105
X85.575Y-21.59
X85.575Y-24.13
X85.575Y-26.67
X85.575Y-29.21
X85.575Y-31.75
X85.575Y-34.29
X85.575Y-36.83
X85.575Y-39.37
X108.435Y-21.59
X108.435Y-24.13
X108.435Y-26.67
X108.435Y-29.21
X108.435Y-31.75
X108.435Y-34.29
X108.435Y-36.83
X108.435Y-39.37
T4
X30.48Y-35.56
X30.48Y-45.72
X38.1Y-33.02
X38.1Y-43.18
T5
X17.78Y-30.48
X17.78Y-38.1
X17.78Y-45.72
T6
X17.78Y-16.08
X17.78Y-19.48
X27.7Y-16.08
X27.7Y-19.48
M30
