%TF.GenerationSoftware,KiCad,Pcbnew,6.0.2+dfsg-1*%
%TF.CreationDate,2023-09-22T14:52:27+02:00*%
%TF.ProjectId,MaxPilot,4d617850-696c-46f7-942e-6b696361645f,rev?*%
%TF.SameCoordinates,Original*%
%TF.FileFunction,Copper,L1,Top*%
%TF.FilePolarity,Positive*%
%FSLAX46Y46*%
G04 Gerber Fmt 4.6, Leading zero omitted, Abs format (unit mm)*
G04 Created by KiCad (PCBNEW 6.0.2+dfsg-1) date 2023-09-22 14:52:27*
%MOMM*%
%LPD*%
G01*
G04 APERTURE LIST*
%TA.AperFunction,ComponentPad*%
%ADD10C,1.600000*%
%TD*%
%TA.AperFunction,ComponentPad*%
%ADD11O,1.600000X1.600000*%
%TD*%
%TA.AperFunction,ComponentPad*%
%ADD12C,2.780000*%
%TD*%
%TA.AperFunction,ComponentPad*%
%ADD13R,1.600000X1.600000*%
%TD*%
%TA.AperFunction,ComponentPad*%
%ADD14R,3.000000X3.000000*%
%TD*%
%TA.AperFunction,ComponentPad*%
%ADD15C,3.000000*%
%TD*%
%TA.AperFunction,ComponentPad*%
%ADD16R,2.300000X2.000000*%
%TD*%
%TA.AperFunction,ComponentPad*%
%ADD17C,2.300000*%
%TD*%
%TA.AperFunction,ComponentPad*%
%ADD18C,1.800000*%
%TD*%
%TA.AperFunction,ComponentPad*%
%ADD19R,2.000000X2.000000*%
%TD*%
%TA.AperFunction,ComponentPad*%
%ADD20O,2.000000X1.600000*%
%TD*%
%TA.AperFunction,ComponentPad*%
%ADD21R,2.200000X2.200000*%
%TD*%
%TA.AperFunction,ComponentPad*%
%ADD22O,2.200000X2.200000*%
%TD*%
%TA.AperFunction,Conductor*%
%ADD23C,2.000000*%
%TD*%
%TA.AperFunction,Conductor*%
%ADD24C,0.250000*%
%TD*%
G04 APERTURE END LIST*
D10*
%TO.P,R2,1*%
%TO.N,+5V*%
X78740000Y-27940000D03*
D11*
%TO.P,R2,2*%
%TO.N,Net-(R2-Pad2)*%
X78740000Y-38100000D03*
%TD*%
D12*
%TO.P,F1,1*%
%TO.N,LINE*%
X17780000Y-15240000D03*
X17780000Y-18640000D03*
%TO.P,F1,2*%
%TO.N,Net-(D2-Pad2)*%
X27700000Y-18640000D03*
X27700000Y-15240000D03*
%TD*%
D13*
%TO.P,U3,1*%
%TO.N,Net-(R2-Pad2)*%
X48245000Y-36840000D03*
D11*
%TO.P,U3,2*%
%TO.N,Net-(U1-Pad6)*%
X45705000Y-36840000D03*
%TO.P,U3,3,NC*%
%TO.N,unconnected-(U3-Pad3)*%
X43165000Y-36840000D03*
%TO.P,U3,4*%
%TO.N,Net-(D2-Pad2)*%
X43165000Y-44460000D03*
%TO.P,U3,5,NC*%
X45705000Y-44460000D03*
%TO.P,U3,6*%
X48245000Y-44460000D03*
%TD*%
D14*
%TO.P,J1,1,Pin_1*%
%TO.N,LINE*%
X17780000Y-38100000D03*
D15*
%TO.P,J1,2,Pin_2*%
%TO.N,NEUT*%
X17780000Y-43180000D03*
%TO.P,J1,3,Pin_3*%
%TO.N,/PILOT*%
X17780000Y-48260000D03*
%TD*%
D10*
%TO.P,R1,1*%
%TO.N,+5V*%
X71120000Y-27940000D03*
D11*
%TO.P,R1,2*%
%TO.N,Net-(R1-Pad2)*%
X71120000Y-38100000D03*
%TD*%
D16*
%TO.P,PS1,1,AC/L*%
%TO.N,Net-(D2-Pad2)*%
X36237500Y-20360000D03*
D17*
%TO.P,PS1,2,AC/N*%
%TO.N,NEUT*%
X36237500Y-25360000D03*
%TO.P,PS1,3,-Vout*%
%TO.N,GND*%
X65637500Y-15160000D03*
%TO.P,PS1,4,+Vout*%
%TO.N,+5V*%
X65637500Y-30560000D03*
%TD*%
D18*
%TO.P,RV1,1*%
%TO.N,LINE*%
X20320000Y-27940000D03*
%TO.P,RV1,2*%
%TO.N,NEUT*%
X27820000Y-29740000D03*
%TD*%
D13*
%TO.P,U2,1*%
%TO.N,Net-(R1-Pad2)*%
X60945000Y-36840000D03*
D11*
%TO.P,U2,2*%
%TO.N,Net-(U1-Pad12)*%
X58405000Y-36840000D03*
%TO.P,U2,3,NC*%
%TO.N,unconnected-(U2-Pad3)*%
X55865000Y-36840000D03*
%TO.P,U2,4*%
%TO.N,Net-(D2-Pad2)*%
X55865000Y-44460000D03*
%TO.P,U2,5,NC*%
%TO.N,unconnected-(U2-Pad5)*%
X58405000Y-44460000D03*
%TO.P,U2,6*%
%TO.N,Net-(D1-Pad1)*%
X60945000Y-44460000D03*
%TD*%
D19*
%TO.P,U1,1,~{RST}*%
%TO.N,unconnected-(U1-Pad1)*%
X85575000Y-21590000D03*
D20*
%TO.P,U1,2,A0*%
%TO.N,unconnected-(U1-Pad2)*%
X85575000Y-24130000D03*
%TO.P,U1,3,D0*%
%TO.N,unconnected-(U1-Pad3)*%
X85575000Y-26670000D03*
%TO.P,U1,4,SCK/D5*%
%TO.N,unconnected-(U1-Pad4)*%
X85575000Y-29210000D03*
%TO.P,U1,5,MISO/D6*%
%TO.N,unconnected-(U1-Pad5)*%
X85575000Y-31750000D03*
%TO.P,U1,6,MOSI/D7*%
%TO.N,Net-(U1-Pad6)*%
X85575000Y-34290000D03*
%TO.P,U1,7,CS/D8*%
%TO.N,unconnected-(U1-Pad7)*%
X85575000Y-36830000D03*
%TO.P,U1,8,3V3*%
%TO.N,unconnected-(U1-Pad8)*%
X85575000Y-39370000D03*
%TO.P,U1,9,5V*%
%TO.N,+5V*%
X108435000Y-39370000D03*
%TO.P,U1,10,GND*%
%TO.N,GND*%
X108435000Y-36830000D03*
%TO.P,U1,11,D4*%
%TO.N,unconnected-(U1-Pad11)*%
X108435000Y-34290000D03*
%TO.P,U1,12,D3*%
%TO.N,Net-(U1-Pad12)*%
X108435000Y-31750000D03*
%TO.P,U1,13,SDA/D2*%
%TO.N,unconnected-(U1-Pad13)*%
X108435000Y-29210000D03*
%TO.P,U1,14,SCL/D1*%
%TO.N,unconnected-(U1-Pad14)*%
X108435000Y-26670000D03*
%TO.P,U1,15,RX*%
%TO.N,unconnected-(U1-Pad15)*%
X108435000Y-24130000D03*
%TO.P,U1,16,TX*%
%TO.N,unconnected-(U1-Pad16)*%
X108435000Y-21590000D03*
%TD*%
D21*
%TO.P,D1,1,K*%
%TO.N,Net-(D1-Pad1)*%
X35560000Y-45720000D03*
D22*
%TO.P,D1,2,A*%
%TO.N,/PILOT*%
X25400000Y-45720000D03*
%TD*%
D21*
%TO.P,D2,1,K*%
%TO.N,/PILOT*%
X25400000Y-38100000D03*
D22*
%TO.P,D2,2,A*%
%TO.N,Net-(D2-Pad2)*%
X35560000Y-38100000D03*
%TD*%
D10*
%TO.P,C1,1*%
%TO.N,+5V*%
X73660000Y-20320000D03*
%TO.P,C1,2*%
%TO.N,GND*%
X78660000Y-20320000D03*
%TD*%
D23*
%TO.N,Net-(D1-Pad1)*%
X38100000Y-48260000D02*
X38100000Y-45720000D01*
D24*
X60945000Y-48245000D02*
X60960000Y-48260000D01*
D23*
X60945000Y-44460000D02*
X60945000Y-48245000D01*
X60960000Y-48260000D02*
X38100000Y-48260000D01*
X38100000Y-45720000D02*
X35560000Y-45720000D01*
D24*
%TO.N,Net-(U1-Pad12)*%
X58405000Y-36840000D02*
X59830480Y-35414520D01*
X59830480Y-35414520D02*
X104770480Y-35414520D01*
X104770480Y-35414520D02*
X108435000Y-31750000D01*
%TO.N,Net-(U1-Pad6)*%
X45705000Y-36840000D02*
X48255000Y-34290000D01*
X48255000Y-34290000D02*
X85575000Y-34290000D01*
%TO.N,Net-(R2-Pad2)*%
X78740000Y-38100000D02*
X77615489Y-39224511D01*
X77615489Y-39224511D02*
X50629511Y-39224511D01*
X50629511Y-39224511D02*
X48245000Y-36840000D01*
%TO.N,Net-(R1-Pad2)*%
X71120000Y-38100000D02*
X62205000Y-38100000D01*
X62205000Y-38100000D02*
X60945000Y-36840000D01*
D23*
%TO.N,/PILOT*%
X25400000Y-38100000D02*
X25400000Y-45720000D01*
D24*
%TO.N,GND*%
X65637500Y-15160000D02*
X73500000Y-15160000D01*
X110209040Y-28929040D02*
X109074520Y-27794520D01*
X83674520Y-27794520D02*
X78660000Y-22780000D01*
X110209040Y-39386271D02*
X110209040Y-28929040D01*
X109074520Y-27794520D02*
X83674520Y-27794520D01*
X107110480Y-38154520D02*
X107110480Y-39835791D01*
X108435000Y-36830000D02*
X107110480Y-38154520D01*
X78660000Y-22780000D02*
X78660000Y-20320000D01*
X73500000Y-15160000D02*
X78660000Y-20320000D01*
X107110480Y-39835791D02*
X107769209Y-40494520D01*
X109100791Y-40494520D02*
X110209040Y-39386271D01*
X107769209Y-40494520D02*
X109100791Y-40494520D01*
%TO.N,+5V*%
X78740000Y-27940000D02*
X71120000Y-27940000D01*
X108435000Y-39370000D02*
X109759520Y-38045480D01*
X109759520Y-31019520D02*
X109074520Y-30334520D01*
X65637500Y-28342500D02*
X73660000Y-20320000D01*
X71120000Y-22860000D02*
X73660000Y-20320000D01*
X109074520Y-30334520D02*
X81134520Y-30334520D01*
X109759520Y-38045480D02*
X109759520Y-31019520D01*
X81134520Y-30334520D02*
X78740000Y-27940000D01*
X65637500Y-30560000D02*
X65637500Y-28342500D01*
X71120000Y-27940000D02*
X71120000Y-22860000D01*
%TO.N,Net-(R2-Pad2)*%
X78740000Y-38100000D02*
X77615489Y-36975489D01*
%TD*%
M02*
