%TF.GenerationSoftware,KiCad,Pcbnew,9.0.3+dfsg-1*%
%TF.CreationDate,2026-02-21T18:07:30+01:00*%
%TF.ProjectId,MaxPilot,4d617850-696c-46f7-942e-6b696361645f,rev?*%
%TF.SameCoordinates,Original*%
%TF.FileFunction,Legend,Top*%
%TF.FilePolarity,Positive*%
%FSLAX46Y46*%
G04 Gerber Fmt 4.6, Leading zero omitted, Abs format (unit mm)*
G04 Created by KiCad (PCBNEW 9.0.3+dfsg-1) date 2026-02-21 18:07:30*
%MOMM*%
%LPD*%
G01*
G04 APERTURE LIST*
G04 Aperture macros list*
%AMRoundRect*
0 Rectangle with rounded corners*
0 $1 Rounding radius*
0 $2 $3 $4 $5 $6 $7 $8 $9 X,Y pos of 4 corners*
0 Add a 4 corners polygon primitive as box body*
4,1,4,$2,$3,$4,$5,$6,$7,$8,$9,$2,$3,0*
0 Add four circle primitives for the rounded corners*
1,1,$1+$1,$2,$3*
1,1,$1+$1,$4,$5*
1,1,$1+$1,$6,$7*
1,1,$1+$1,$8,$9*
0 Add four rect primitives between the rounded corners*
20,1,$1+$1,$2,$3,$4,$5,0*
20,1,$1+$1,$4,$5,$6,$7,0*
20,1,$1+$1,$6,$7,$8,$9,0*
20,1,$1+$1,$8,$9,$2,$3,0*%
G04 Aperture macros list end*
%ADD10C,0.150000*%
%ADD11C,0.120000*%
%ADD12C,1.600000*%
%ADD13O,1.600000X1.600000*%
%ADD14C,2.780000*%
%ADD15C,0.800000*%
%ADD16RoundRect,0.250000X0.550000X0.550000X-0.550000X0.550000X-0.550000X-0.550000X0.550000X-0.550000X0*%
%ADD17R,2.540000X2.540000*%
%ADD18C,2.540000*%
%ADD19R,2.300000X2.000000*%
%ADD20C,2.300000*%
%ADD21C,1.800000*%
%ADD22R,2.000000X2.000000*%
%ADD23O,2.000000X1.600000*%
%ADD24R,2.200000X2.200000*%
%ADD25O,2.200000X2.200000*%
G04 APERTURE END LIST*
D10*
X26259761Y-48714819D02*
X26384761Y-47714819D01*
X26384761Y-47714819D02*
X26628809Y-48429104D01*
X26628809Y-48429104D02*
X27051428Y-47714819D01*
X27051428Y-47714819D02*
X26926428Y-48714819D01*
X27831190Y-48714819D02*
X27896666Y-48191009D01*
X27896666Y-48191009D02*
X27860952Y-48095771D01*
X27860952Y-48095771D02*
X27771666Y-48048152D01*
X27771666Y-48048152D02*
X27581190Y-48048152D01*
X27581190Y-48048152D02*
X27479999Y-48095771D01*
X27837142Y-48667200D02*
X27735952Y-48714819D01*
X27735952Y-48714819D02*
X27497856Y-48714819D01*
X27497856Y-48714819D02*
X27408571Y-48667200D01*
X27408571Y-48667200D02*
X27372856Y-48571961D01*
X27372856Y-48571961D02*
X27384761Y-48476723D01*
X27384761Y-48476723D02*
X27444285Y-48381485D01*
X27444285Y-48381485D02*
X27545476Y-48333866D01*
X27545476Y-48333866D02*
X27783571Y-48333866D01*
X27783571Y-48333866D02*
X27884761Y-48286247D01*
X28212142Y-48714819D02*
X28819285Y-48048152D01*
X28295476Y-48048152D02*
X28735952Y-48714819D01*
X29116904Y-48714819D02*
X29241904Y-47714819D01*
X29241904Y-47714819D02*
X29622857Y-47714819D01*
X29622857Y-47714819D02*
X29712142Y-47762438D01*
X29712142Y-47762438D02*
X29753809Y-47810057D01*
X29753809Y-47810057D02*
X29789523Y-47905295D01*
X29789523Y-47905295D02*
X29771666Y-48048152D01*
X29771666Y-48048152D02*
X29712142Y-48143390D01*
X29712142Y-48143390D02*
X29658571Y-48191009D01*
X29658571Y-48191009D02*
X29557381Y-48238628D01*
X29557381Y-48238628D02*
X29176428Y-48238628D01*
X30116904Y-48714819D02*
X30200238Y-48048152D01*
X30241904Y-47714819D02*
X30188333Y-47762438D01*
X30188333Y-47762438D02*
X30230000Y-47810057D01*
X30230000Y-47810057D02*
X30283571Y-47762438D01*
X30283571Y-47762438D02*
X30241904Y-47714819D01*
X30241904Y-47714819D02*
X30230000Y-47810057D01*
X30735952Y-48714819D02*
X30646666Y-48667200D01*
X30646666Y-48667200D02*
X30610952Y-48571961D01*
X30610952Y-48571961D02*
X30718094Y-47714819D01*
X31259762Y-48714819D02*
X31170476Y-48667200D01*
X31170476Y-48667200D02*
X31128809Y-48619580D01*
X31128809Y-48619580D02*
X31093095Y-48524342D01*
X31093095Y-48524342D02*
X31128809Y-48238628D01*
X31128809Y-48238628D02*
X31188333Y-48143390D01*
X31188333Y-48143390D02*
X31241904Y-48095771D01*
X31241904Y-48095771D02*
X31343095Y-48048152D01*
X31343095Y-48048152D02*
X31485952Y-48048152D01*
X31485952Y-48048152D02*
X31575238Y-48095771D01*
X31575238Y-48095771D02*
X31616904Y-48143390D01*
X31616904Y-48143390D02*
X31652619Y-48238628D01*
X31652619Y-48238628D02*
X31616904Y-48524342D01*
X31616904Y-48524342D02*
X31557381Y-48619580D01*
X31557381Y-48619580D02*
X31503809Y-48667200D01*
X31503809Y-48667200D02*
X31402619Y-48714819D01*
X31402619Y-48714819D02*
X31259762Y-48714819D01*
X31962143Y-48048152D02*
X32343095Y-48048152D01*
X32146666Y-47714819D02*
X32039524Y-48571961D01*
X32039524Y-48571961D02*
X32075238Y-48667200D01*
X32075238Y-48667200D02*
X32164524Y-48714819D01*
X32164524Y-48714819D02*
X32259762Y-48714819D01*
X33337143Y-47714819D02*
X33545477Y-48714819D01*
X33545477Y-48714819D02*
X34003810Y-47714819D01*
X34277620Y-47810057D02*
X34331191Y-47762438D01*
X34331191Y-47762438D02*
X34432381Y-47714819D01*
X34432381Y-47714819D02*
X34670477Y-47714819D01*
X34670477Y-47714819D02*
X34759762Y-47762438D01*
X34759762Y-47762438D02*
X34801429Y-47810057D01*
X34801429Y-47810057D02*
X34837143Y-47905295D01*
X34837143Y-47905295D02*
X34825239Y-48000533D01*
X34825239Y-48000533D02*
X34759762Y-48143390D01*
X34759762Y-48143390D02*
X34116905Y-48714819D01*
X34116905Y-48714819D02*
X34735953Y-48714819D01*
D11*
X26022857Y-49787664D02*
X25984761Y-49825760D01*
X25984761Y-49825760D02*
X25870476Y-49863855D01*
X25870476Y-49863855D02*
X25794285Y-49863855D01*
X25794285Y-49863855D02*
X25679999Y-49825760D01*
X25679999Y-49825760D02*
X25603809Y-49749569D01*
X25603809Y-49749569D02*
X25565714Y-49673379D01*
X25565714Y-49673379D02*
X25527618Y-49520998D01*
X25527618Y-49520998D02*
X25527618Y-49406712D01*
X25527618Y-49406712D02*
X25565714Y-49254331D01*
X25565714Y-49254331D02*
X25603809Y-49178140D01*
X25603809Y-49178140D02*
X25679999Y-49101950D01*
X25679999Y-49101950D02*
X25794285Y-49063855D01*
X25794285Y-49063855D02*
X25870476Y-49063855D01*
X25870476Y-49063855D02*
X25984761Y-49101950D01*
X25984761Y-49101950D02*
X26022857Y-49140045D01*
X26365714Y-49444807D02*
X26632380Y-49444807D01*
X26746666Y-49863855D02*
X26365714Y-49863855D01*
X26365714Y-49863855D02*
X26365714Y-49063855D01*
X26365714Y-49063855D02*
X26746666Y-49063855D01*
X27546667Y-49863855D02*
X27280000Y-49482902D01*
X27089524Y-49863855D02*
X27089524Y-49063855D01*
X27089524Y-49063855D02*
X27394286Y-49063855D01*
X27394286Y-49063855D02*
X27470476Y-49101950D01*
X27470476Y-49101950D02*
X27508571Y-49140045D01*
X27508571Y-49140045D02*
X27546667Y-49216236D01*
X27546667Y-49216236D02*
X27546667Y-49330521D01*
X27546667Y-49330521D02*
X27508571Y-49406712D01*
X27508571Y-49406712D02*
X27470476Y-49444807D01*
X27470476Y-49444807D02*
X27394286Y-49482902D01*
X27394286Y-49482902D02*
X27089524Y-49482902D01*
X27889524Y-49863855D02*
X27889524Y-49063855D01*
X27889524Y-49063855D02*
X28346667Y-49863855D01*
X28346667Y-49863855D02*
X28346667Y-49063855D01*
X28727619Y-49559093D02*
X29337143Y-49559093D01*
X29870476Y-49063855D02*
X30022857Y-49063855D01*
X30022857Y-49063855D02*
X30099047Y-49101950D01*
X30099047Y-49101950D02*
X30175238Y-49178140D01*
X30175238Y-49178140D02*
X30213333Y-49330521D01*
X30213333Y-49330521D02*
X30213333Y-49597188D01*
X30213333Y-49597188D02*
X30175238Y-49749569D01*
X30175238Y-49749569D02*
X30099047Y-49825760D01*
X30099047Y-49825760D02*
X30022857Y-49863855D01*
X30022857Y-49863855D02*
X29870476Y-49863855D01*
X29870476Y-49863855D02*
X29794285Y-49825760D01*
X29794285Y-49825760D02*
X29718095Y-49749569D01*
X29718095Y-49749569D02*
X29679999Y-49597188D01*
X29679999Y-49597188D02*
X29679999Y-49330521D01*
X29679999Y-49330521D02*
X29718095Y-49178140D01*
X29718095Y-49178140D02*
X29794285Y-49101950D01*
X29794285Y-49101950D02*
X29870476Y-49063855D01*
X30556190Y-49863855D02*
X30556190Y-49063855D01*
X30556190Y-49444807D02*
X31013333Y-49444807D01*
X31013333Y-49863855D02*
X31013333Y-49063855D01*
X31775237Y-49863855D02*
X31394285Y-49863855D01*
X31394285Y-49863855D02*
X31394285Y-49063855D01*
X32041904Y-49559093D02*
X32651428Y-49559093D01*
X32994284Y-49825760D02*
X33108570Y-49863855D01*
X33108570Y-49863855D02*
X33299046Y-49863855D01*
X33299046Y-49863855D02*
X33375237Y-49825760D01*
X33375237Y-49825760D02*
X33413332Y-49787664D01*
X33413332Y-49787664D02*
X33451427Y-49711474D01*
X33451427Y-49711474D02*
X33451427Y-49635283D01*
X33451427Y-49635283D02*
X33413332Y-49559093D01*
X33413332Y-49559093D02*
X33375237Y-49520998D01*
X33375237Y-49520998D02*
X33299046Y-49482902D01*
X33299046Y-49482902D02*
X33146665Y-49444807D01*
X33146665Y-49444807D02*
X33070475Y-49406712D01*
X33070475Y-49406712D02*
X33032380Y-49368617D01*
X33032380Y-49368617D02*
X32994284Y-49292426D01*
X32994284Y-49292426D02*
X32994284Y-49216236D01*
X32994284Y-49216236D02*
X33032380Y-49140045D01*
X33032380Y-49140045D02*
X33070475Y-49101950D01*
X33070475Y-49101950D02*
X33146665Y-49063855D01*
X33146665Y-49063855D02*
X33337142Y-49063855D01*
X33337142Y-49063855D02*
X33451427Y-49101950D01*
X34327618Y-49330521D02*
X34518094Y-49863855D01*
X34518094Y-49863855D02*
X34708571Y-49330521D01*
X34975237Y-49140045D02*
X35013333Y-49101950D01*
X35013333Y-49101950D02*
X35089523Y-49063855D01*
X35089523Y-49063855D02*
X35279999Y-49063855D01*
X35279999Y-49063855D02*
X35356190Y-49101950D01*
X35356190Y-49101950D02*
X35394285Y-49140045D01*
X35394285Y-49140045D02*
X35432380Y-49216236D01*
X35432380Y-49216236D02*
X35432380Y-49292426D01*
X35432380Y-49292426D02*
X35394285Y-49406712D01*
X35394285Y-49406712D02*
X34937142Y-49863855D01*
X34937142Y-49863855D02*
X35432380Y-49863855D01*
D10*
X70953333Y-18064819D02*
X70620000Y-17588628D01*
X70381905Y-18064819D02*
X70381905Y-17064819D01*
X70381905Y-17064819D02*
X70762857Y-17064819D01*
X70762857Y-17064819D02*
X70858095Y-17112438D01*
X70858095Y-17112438D02*
X70905714Y-17160057D01*
X70905714Y-17160057D02*
X70953333Y-17255295D01*
X70953333Y-17255295D02*
X70953333Y-17398152D01*
X70953333Y-17398152D02*
X70905714Y-17493390D01*
X70905714Y-17493390D02*
X70858095Y-17541009D01*
X70858095Y-17541009D02*
X70762857Y-17588628D01*
X70762857Y-17588628D02*
X70381905Y-17588628D01*
X71334286Y-17160057D02*
X71381905Y-17112438D01*
X71381905Y-17112438D02*
X71477143Y-17064819D01*
X71477143Y-17064819D02*
X71715238Y-17064819D01*
X71715238Y-17064819D02*
X71810476Y-17112438D01*
X71810476Y-17112438D02*
X71858095Y-17160057D01*
X71858095Y-17160057D02*
X71905714Y-17255295D01*
X71905714Y-17255295D02*
X71905714Y-17350533D01*
X71905714Y-17350533D02*
X71858095Y-17493390D01*
X71858095Y-17493390D02*
X71286667Y-18064819D01*
X71286667Y-18064819D02*
X71905714Y-18064819D01*
X22406666Y-13341009D02*
X22073333Y-13341009D01*
X22073333Y-13864819D02*
X22073333Y-12864819D01*
X22073333Y-12864819D02*
X22549523Y-12864819D01*
X23454285Y-13864819D02*
X22882857Y-13864819D01*
X23168571Y-13864819D02*
X23168571Y-12864819D01*
X23168571Y-12864819D02*
X23073333Y-13007676D01*
X23073333Y-13007676D02*
X22978095Y-13102914D01*
X22978095Y-13102914D02*
X22882857Y-13150533D01*
X38608095Y-27184819D02*
X38608095Y-27994342D01*
X38608095Y-27994342D02*
X38655714Y-28089580D01*
X38655714Y-28089580D02*
X38703333Y-28137200D01*
X38703333Y-28137200D02*
X38798571Y-28184819D01*
X38798571Y-28184819D02*
X38989047Y-28184819D01*
X38989047Y-28184819D02*
X39084285Y-28137200D01*
X39084285Y-28137200D02*
X39131904Y-28089580D01*
X39131904Y-28089580D02*
X39179523Y-27994342D01*
X39179523Y-27994342D02*
X39179523Y-27184819D01*
X39560476Y-27184819D02*
X40179523Y-27184819D01*
X40179523Y-27184819D02*
X39846190Y-27565771D01*
X39846190Y-27565771D02*
X39989047Y-27565771D01*
X39989047Y-27565771D02*
X40084285Y-27613390D01*
X40084285Y-27613390D02*
X40131904Y-27661009D01*
X40131904Y-27661009D02*
X40179523Y-27756247D01*
X40179523Y-27756247D02*
X40179523Y-27994342D01*
X40179523Y-27994342D02*
X40131904Y-28089580D01*
X40131904Y-28089580D02*
X40084285Y-28137200D01*
X40084285Y-28137200D02*
X39989047Y-28184819D01*
X39989047Y-28184819D02*
X39703333Y-28184819D01*
X39703333Y-28184819D02*
X39608095Y-28137200D01*
X39608095Y-28137200D02*
X39560476Y-28089580D01*
X23234819Y-38433333D02*
X23949104Y-38433333D01*
X23949104Y-38433333D02*
X24091961Y-38480952D01*
X24091961Y-38480952D02*
X24187200Y-38576190D01*
X24187200Y-38576190D02*
X24234819Y-38719047D01*
X24234819Y-38719047D02*
X24234819Y-38814285D01*
X24234819Y-37433333D02*
X24234819Y-38004761D01*
X24234819Y-37719047D02*
X23234819Y-37719047D01*
X23234819Y-37719047D02*
X23377676Y-37814285D01*
X23377676Y-37814285D02*
X23472914Y-37909523D01*
X23472914Y-37909523D02*
X23520533Y-38004761D01*
X70953333Y-23144819D02*
X70620000Y-22668628D01*
X70381905Y-23144819D02*
X70381905Y-22144819D01*
X70381905Y-22144819D02*
X70762857Y-22144819D01*
X70762857Y-22144819D02*
X70858095Y-22192438D01*
X70858095Y-22192438D02*
X70905714Y-22240057D01*
X70905714Y-22240057D02*
X70953333Y-22335295D01*
X70953333Y-22335295D02*
X70953333Y-22478152D01*
X70953333Y-22478152D02*
X70905714Y-22573390D01*
X70905714Y-22573390D02*
X70858095Y-22621009D01*
X70858095Y-22621009D02*
X70762857Y-22668628D01*
X70762857Y-22668628D02*
X70381905Y-22668628D01*
X71905714Y-23144819D02*
X71334286Y-23144819D01*
X71620000Y-23144819D02*
X71620000Y-22144819D01*
X71620000Y-22144819D02*
X71524762Y-22287676D01*
X71524762Y-22287676D02*
X71429524Y-22382914D01*
X71429524Y-22382914D02*
X71334286Y-22430533D01*
X42234819Y-37569285D02*
X41234819Y-37569285D01*
X41234819Y-37569285D02*
X41234819Y-37188333D01*
X41234819Y-37188333D02*
X41282438Y-37093095D01*
X41282438Y-37093095D02*
X41330057Y-37045476D01*
X41330057Y-37045476D02*
X41425295Y-36997857D01*
X41425295Y-36997857D02*
X41568152Y-36997857D01*
X41568152Y-36997857D02*
X41663390Y-37045476D01*
X41663390Y-37045476D02*
X41711009Y-37093095D01*
X41711009Y-37093095D02*
X41758628Y-37188333D01*
X41758628Y-37188333D02*
X41758628Y-37569285D01*
X42187200Y-36616904D02*
X42234819Y-36474047D01*
X42234819Y-36474047D02*
X42234819Y-36235952D01*
X42234819Y-36235952D02*
X42187200Y-36140714D01*
X42187200Y-36140714D02*
X42139580Y-36093095D01*
X42139580Y-36093095D02*
X42044342Y-36045476D01*
X42044342Y-36045476D02*
X41949104Y-36045476D01*
X41949104Y-36045476D02*
X41853866Y-36093095D01*
X41853866Y-36093095D02*
X41806247Y-36140714D01*
X41806247Y-36140714D02*
X41758628Y-36235952D01*
X41758628Y-36235952D02*
X41711009Y-36426428D01*
X41711009Y-36426428D02*
X41663390Y-36521666D01*
X41663390Y-36521666D02*
X41615771Y-36569285D01*
X41615771Y-36569285D02*
X41520533Y-36616904D01*
X41520533Y-36616904D02*
X41425295Y-36616904D01*
X41425295Y-36616904D02*
X41330057Y-36569285D01*
X41330057Y-36569285D02*
X41282438Y-36521666D01*
X41282438Y-36521666D02*
X41234819Y-36426428D01*
X41234819Y-36426428D02*
X41234819Y-36188333D01*
X41234819Y-36188333D02*
X41282438Y-36045476D01*
X42234819Y-35093095D02*
X42234819Y-35664523D01*
X42234819Y-35378809D02*
X41234819Y-35378809D01*
X41234819Y-35378809D02*
X41377676Y-35474047D01*
X41377676Y-35474047D02*
X41472914Y-35569285D01*
X41472914Y-35569285D02*
X41520533Y-35664523D01*
X25144819Y-28535238D02*
X24668628Y-28868571D01*
X25144819Y-29106666D02*
X24144819Y-29106666D01*
X24144819Y-29106666D02*
X24144819Y-28725714D01*
X24144819Y-28725714D02*
X24192438Y-28630476D01*
X24192438Y-28630476D02*
X24240057Y-28582857D01*
X24240057Y-28582857D02*
X24335295Y-28535238D01*
X24335295Y-28535238D02*
X24478152Y-28535238D01*
X24478152Y-28535238D02*
X24573390Y-28582857D01*
X24573390Y-28582857D02*
X24621009Y-28630476D01*
X24621009Y-28630476D02*
X24668628Y-28725714D01*
X24668628Y-28725714D02*
X24668628Y-29106666D01*
X24144819Y-28249523D02*
X25144819Y-27916190D01*
X25144819Y-27916190D02*
X24144819Y-27582857D01*
X25144819Y-26725714D02*
X25144819Y-27297142D01*
X25144819Y-27011428D02*
X24144819Y-27011428D01*
X24144819Y-27011428D02*
X24287676Y-27106666D01*
X24287676Y-27106666D02*
X24382914Y-27201904D01*
X24382914Y-27201904D02*
X24430533Y-27297142D01*
X51308095Y-24644819D02*
X51308095Y-25454342D01*
X51308095Y-25454342D02*
X51355714Y-25549580D01*
X51355714Y-25549580D02*
X51403333Y-25597200D01*
X51403333Y-25597200D02*
X51498571Y-25644819D01*
X51498571Y-25644819D02*
X51689047Y-25644819D01*
X51689047Y-25644819D02*
X51784285Y-25597200D01*
X51784285Y-25597200D02*
X51831904Y-25549580D01*
X51831904Y-25549580D02*
X51879523Y-25454342D01*
X51879523Y-25454342D02*
X51879523Y-24644819D01*
X52308095Y-24740057D02*
X52355714Y-24692438D01*
X52355714Y-24692438D02*
X52450952Y-24644819D01*
X52450952Y-24644819D02*
X52689047Y-24644819D01*
X52689047Y-24644819D02*
X52784285Y-24692438D01*
X52784285Y-24692438D02*
X52831904Y-24740057D01*
X52831904Y-24740057D02*
X52879523Y-24835295D01*
X52879523Y-24835295D02*
X52879523Y-24930533D01*
X52879523Y-24930533D02*
X52831904Y-25073390D01*
X52831904Y-25073390D02*
X52260476Y-25644819D01*
X52260476Y-25644819D02*
X52879523Y-25644819D01*
X106813095Y-48044819D02*
X106813095Y-48854342D01*
X106813095Y-48854342D02*
X106860714Y-48949580D01*
X106860714Y-48949580D02*
X106908333Y-48997200D01*
X106908333Y-48997200D02*
X107003571Y-49044819D01*
X107003571Y-49044819D02*
X107194047Y-49044819D01*
X107194047Y-49044819D02*
X107289285Y-48997200D01*
X107289285Y-48997200D02*
X107336904Y-48949580D01*
X107336904Y-48949580D02*
X107384523Y-48854342D01*
X107384523Y-48854342D02*
X107384523Y-48044819D01*
X108384523Y-49044819D02*
X107813095Y-49044819D01*
X108098809Y-49044819D02*
X108098809Y-48044819D01*
X108098809Y-48044819D02*
X108003571Y-48187676D01*
X108003571Y-48187676D02*
X107908333Y-48282914D01*
X107908333Y-48282914D02*
X107813095Y-48330533D01*
X41024819Y-38838094D02*
X40024819Y-38838094D01*
X40024819Y-38838094D02*
X40024819Y-38599999D01*
X40024819Y-38599999D02*
X40072438Y-38457142D01*
X40072438Y-38457142D02*
X40167676Y-38361904D01*
X40167676Y-38361904D02*
X40262914Y-38314285D01*
X40262914Y-38314285D02*
X40453390Y-38266666D01*
X40453390Y-38266666D02*
X40596247Y-38266666D01*
X40596247Y-38266666D02*
X40786723Y-38314285D01*
X40786723Y-38314285D02*
X40881961Y-38361904D01*
X40881961Y-38361904D02*
X40977200Y-38457142D01*
X40977200Y-38457142D02*
X41024819Y-38599999D01*
X41024819Y-38599999D02*
X41024819Y-38838094D01*
X41024819Y-37314285D02*
X41024819Y-37885713D01*
X41024819Y-37599999D02*
X40024819Y-37599999D01*
X40024819Y-37599999D02*
X40167676Y-37695237D01*
X40167676Y-37695237D02*
X40262914Y-37790475D01*
X40262914Y-37790475D02*
X40310533Y-37885713D01*
X40654819Y-33281904D02*
X39654819Y-33281904D01*
X40654819Y-32710476D02*
X40083390Y-33139047D01*
X39654819Y-32710476D02*
X40226247Y-33281904D01*
X28464819Y-41378094D02*
X27464819Y-41378094D01*
X27464819Y-41378094D02*
X27464819Y-41139999D01*
X27464819Y-41139999D02*
X27512438Y-40997142D01*
X27512438Y-40997142D02*
X27607676Y-40901904D01*
X27607676Y-40901904D02*
X27702914Y-40854285D01*
X27702914Y-40854285D02*
X27893390Y-40806666D01*
X27893390Y-40806666D02*
X28036247Y-40806666D01*
X28036247Y-40806666D02*
X28226723Y-40854285D01*
X28226723Y-40854285D02*
X28321961Y-40901904D01*
X28321961Y-40901904D02*
X28417200Y-40997142D01*
X28417200Y-40997142D02*
X28464819Y-41139999D01*
X28464819Y-41139999D02*
X28464819Y-41378094D01*
X27560057Y-40425713D02*
X27512438Y-40378094D01*
X27512438Y-40378094D02*
X27464819Y-40282856D01*
X27464819Y-40282856D02*
X27464819Y-40044761D01*
X27464819Y-40044761D02*
X27512438Y-39949523D01*
X27512438Y-39949523D02*
X27560057Y-39901904D01*
X27560057Y-39901904D02*
X27655295Y-39854285D01*
X27655295Y-39854285D02*
X27750533Y-39854285D01*
X27750533Y-39854285D02*
X27893390Y-39901904D01*
X27893390Y-39901904D02*
X28464819Y-40473332D01*
X28464819Y-40473332D02*
X28464819Y-39854285D01*
X28834819Y-45981904D02*
X27834819Y-45981904D01*
X28834819Y-45410476D02*
X28263390Y-45839047D01*
X27834819Y-45410476D02*
X28406247Y-45981904D01*
X84139580Y-43386666D02*
X84187200Y-43434285D01*
X84187200Y-43434285D02*
X84234819Y-43577142D01*
X84234819Y-43577142D02*
X84234819Y-43672380D01*
X84234819Y-43672380D02*
X84187200Y-43815237D01*
X84187200Y-43815237D02*
X84091961Y-43910475D01*
X84091961Y-43910475D02*
X83996723Y-43958094D01*
X83996723Y-43958094D02*
X83806247Y-44005713D01*
X83806247Y-44005713D02*
X83663390Y-44005713D01*
X83663390Y-44005713D02*
X83472914Y-43958094D01*
X83472914Y-43958094D02*
X83377676Y-43910475D01*
X83377676Y-43910475D02*
X83282438Y-43815237D01*
X83282438Y-43815237D02*
X83234819Y-43672380D01*
X83234819Y-43672380D02*
X83234819Y-43577142D01*
X83234819Y-43577142D02*
X83282438Y-43434285D01*
X83282438Y-43434285D02*
X83330057Y-43386666D01*
X84234819Y-42434285D02*
X84234819Y-43005713D01*
X84234819Y-42719999D02*
X83234819Y-42719999D01*
X83234819Y-42719999D02*
X83377676Y-42815237D01*
X83377676Y-42815237D02*
X83472914Y-42910475D01*
X83472914Y-42910475D02*
X83520533Y-43005713D01*
D11*
%TO.C,R2*%
X67080000Y-15240000D02*
X67850000Y-15240000D01*
X67850000Y-13870000D02*
X67850000Y-16610000D01*
X67850000Y-16610000D02*
X74390000Y-16610000D01*
X74390000Y-13870000D02*
X67850000Y-13870000D01*
X74390000Y-16610000D02*
X74390000Y-13870000D01*
X75160000Y-15240000D02*
X74390000Y-15240000D01*
%TO.C,F1*%
X14640000Y-14310000D02*
X14640000Y-21250000D01*
X14640000Y-21250000D02*
X30840000Y-21250000D01*
X21140000Y-15780000D02*
X24340000Y-15780000D01*
X21990000Y-17780000D02*
X23490000Y-17780000D01*
X24340000Y-19780000D02*
X21140000Y-19780000D01*
X30840000Y-14310000D02*
X14640000Y-14310000D01*
X30840000Y-21250000D02*
X30840000Y-14310000D01*
%TO.C,U3*%
X36720000Y-18990000D02*
X36720000Y-26730000D01*
X36720000Y-26730000D02*
X38370000Y-26730000D01*
X40370000Y-26730000D02*
X42020000Y-26730000D01*
X42020000Y-18990000D02*
X36720000Y-18990000D01*
X42020000Y-26730000D02*
X42020000Y-18990000D01*
X38370000Y-26730000D02*
G75*
G02*
X40370000Y-26730000I1000000J0D01*
G01*
%TO.C,J1*%
X13910000Y-26610000D02*
X22550000Y-26610000D01*
X13910000Y-49590000D02*
X13910000Y-26610000D01*
X15680000Y-27590000D02*
X15680000Y-28340000D01*
X15680000Y-32620000D02*
X15680000Y-35960000D01*
X15680000Y-40240000D02*
X15680000Y-43580000D01*
X15680000Y-47860000D02*
X15680000Y-48630000D01*
X20980000Y-27590000D02*
X15680000Y-27590000D01*
X20980000Y-27590000D02*
X20980000Y-48630000D01*
X20980000Y-48630000D02*
X15680000Y-48630000D01*
X22550000Y-26610000D02*
X22550000Y-49590000D01*
X22550000Y-49590000D02*
X13910000Y-49590000D01*
X22850000Y-26310000D02*
X21850000Y-26310000D01*
X22850000Y-26310000D02*
X22850000Y-27310000D01*
X15680000Y-32620000D02*
G75*
G02*
X15680000Y-28340000I2094222J2140000D01*
G01*
X15680000Y-40240000D02*
G75*
G02*
X15680000Y-35960000I2094222J2140000D01*
G01*
X15680000Y-47860000D02*
G75*
G02*
X15680000Y-43580000I2094222J2140000D01*
G01*
%TO.C,R1*%
X67080000Y-20320000D02*
X67850000Y-20320000D01*
X67850000Y-18950000D02*
X67850000Y-21690000D01*
X67850000Y-21690000D02*
X74390000Y-21690000D01*
X74390000Y-18950000D02*
X67850000Y-18950000D01*
X74390000Y-21690000D02*
X74390000Y-18950000D01*
X75160000Y-20320000D02*
X74390000Y-20320000D01*
%TO.C,PS1*%
X42930000Y-35905000D02*
X42930000Y-37915000D01*
X43320000Y-29305000D02*
X43320000Y-49505000D01*
X43320000Y-49505000D02*
X77520000Y-49505000D01*
X77520000Y-29305000D02*
X43320000Y-29305000D01*
X77520000Y-49505000D02*
X77520000Y-29305000D01*
D10*
%TO.C,RV1*%
X25690000Y-21940000D02*
X25690000Y-33940000D01*
X30190000Y-21940000D02*
X25690000Y-21940000D01*
X30190000Y-21940000D02*
X30190000Y-33940000D01*
X30190000Y-33940000D02*
X25690000Y-33940000D01*
D11*
%TO.C,U2*%
X49420000Y-16450000D02*
X49420000Y-24190000D01*
X49420000Y-24190000D02*
X51070000Y-24190000D01*
X53070000Y-24190000D02*
X54720000Y-24190000D01*
X54720000Y-16450000D02*
X49420000Y-16450000D01*
X54720000Y-24190000D02*
X54720000Y-16450000D01*
X51070000Y-24190000D02*
G75*
G02*
X53070000Y-24190000I1000000J0D01*
G01*
%TO.C,U1*%
X84075000Y-40810000D02*
X84075000Y-15380000D01*
X84075000Y-40810000D02*
X86615000Y-40810000D01*
X86615000Y-40810000D02*
X86615000Y-47710000D01*
X86615000Y-47710000D02*
X109935000Y-47710000D01*
X107815000Y-13250000D02*
X86205000Y-13250000D01*
X109935000Y-47710000D02*
X109935000Y-15380000D01*
X84075000Y-15380000D02*
G75*
G02*
X86205000Y-13250000I2130002J-2D01*
G01*
X107805000Y-13250000D02*
G75*
G02*
X109935000Y-15380000I0J-2130000D01*
G01*
D10*
X83670000Y-21590000D02*
X83035000Y-22225000D01*
X83035000Y-20955000D01*
X83670000Y-21590000D01*
G36*
X83670000Y-21590000D02*
G01*
X83035000Y-22225000D01*
X83035000Y-20955000D01*
X83670000Y-21590000D01*
G37*
D11*
%TO.C,D1*%
X36630000Y-35380000D02*
X36630000Y-40820000D01*
X36630000Y-40820000D02*
X39570000Y-40820000D01*
X38100000Y-34360000D02*
X38100000Y-35380000D01*
X38100000Y-41840000D02*
X38100000Y-40820000D01*
X39570000Y-35380000D02*
X36630000Y-35380000D01*
X39570000Y-36160000D02*
X36630000Y-36160000D01*
X39570000Y-36280000D02*
X36630000Y-36280000D01*
X39570000Y-36400000D02*
X36630000Y-36400000D01*
X39570000Y-40820000D02*
X39570000Y-35380000D01*
%TO.C,D2*%
X29010000Y-37920000D02*
X29010000Y-43360000D01*
X29010000Y-42340000D02*
X31950000Y-42340000D01*
X29010000Y-42460000D02*
X31950000Y-42460000D01*
X29010000Y-42580000D02*
X31950000Y-42580000D01*
X29010000Y-43360000D02*
X31950000Y-43360000D01*
X30480000Y-36900000D02*
X30480000Y-37920000D01*
X30480000Y-44380000D02*
X30480000Y-43360000D01*
X31950000Y-37920000D02*
X29010000Y-37920000D01*
X31950000Y-43360000D02*
X31950000Y-37920000D01*
%TO.C,C1*%
X79910000Y-39100000D02*
X79910000Y-47340000D01*
X82650000Y-39100000D02*
X79910000Y-39100000D01*
X82650000Y-39100000D02*
X82650000Y-47340000D01*
X82650000Y-47340000D02*
X79910000Y-47340000D01*
%TD*%
%LPC*%
D12*
%TO.C,R2*%
X76200000Y-15240000D03*
D13*
X66040000Y-15240000D03*
%TD*%
D14*
%TO.C,F1*%
X17780000Y-16080000D03*
X17780000Y-19480000D03*
X27700000Y-16080000D03*
X27700000Y-19480000D03*
%TD*%
D12*
%TO.C,U3*%
X43180000Y-20320000D03*
D15*
X35560000Y-22860000D03*
D16*
X43180000Y-25400000D03*
D12*
X43180000Y-22860000D03*
X35560000Y-20320000D03*
X35560000Y-25400000D03*
%TD*%
D17*
%TO.C,J1*%
X17780000Y-30480000D03*
D18*
X17780000Y-38100000D03*
X17780000Y-45720000D03*
%TD*%
D12*
%TO.C,R1*%
X76200000Y-20320000D03*
D13*
X66040000Y-20320000D03*
%TD*%
D19*
%TO.C,PS1*%
X45720000Y-36905000D03*
D20*
X45720000Y-41905000D03*
X75120000Y-31705000D03*
X75120000Y-47105000D03*
%TD*%
D21*
%TO.C,RV1*%
X28840000Y-24190000D03*
X27040000Y-31690000D03*
%TD*%
D12*
%TO.C,U2*%
X55880000Y-17780000D03*
D15*
X48260000Y-20320000D03*
D16*
X55880000Y-22860000D03*
D12*
X55880000Y-20320000D03*
X48260000Y-17780000D03*
X48260000Y-22860000D03*
%TD*%
D22*
%TO.C,U1*%
X85575000Y-21590000D03*
D23*
X85575000Y-24130000D03*
X85575000Y-26670000D03*
X85575000Y-29210000D03*
X85575000Y-31750000D03*
X85575000Y-34290000D03*
X85575000Y-36830000D03*
X85575000Y-39370000D03*
X108435000Y-39370000D03*
X108435000Y-36830000D03*
X108435000Y-34290000D03*
X108435000Y-31750000D03*
X108435000Y-29210000D03*
X108435000Y-26670000D03*
X108435000Y-24130000D03*
X108435000Y-21590000D03*
%TD*%
D24*
%TO.C,D1*%
X38100000Y-33020000D03*
D25*
X38100000Y-43180000D03*
%TD*%
D24*
%TO.C,D2*%
X30480000Y-45720000D03*
D25*
X30480000Y-35560000D03*
%TD*%
D12*
%TO.C,C1*%
X81280000Y-40720000D03*
X81280000Y-45720000D03*
%TD*%
%LPD*%
M02*
