%TF.GenerationSoftware,KiCad,Pcbnew,9.0.3+dfsg-1*%
%TF.CreationDate,2026-02-21T20:04:31+01:00*%
%TF.ProjectId,MaxPilot,4d617850-696c-46f7-942e-6b696361645f,rev?*%
%TF.SameCoordinates,Original*%
%TF.FileFunction,Legend,Top*%
%TF.FilePolarity,Positive*%
%FSLAX46Y46*%
G04 Gerber Fmt 4.6, Leading zero omitted, Abs format (unit mm)*
G04 Created by KiCad (PCBNEW 9.0.3+dfsg-1) date 2026-02-21 20:04:31*
%MOMM*%
%LPD*%
G01*
G04 APERTURE LIST*
%ADD10C,0.150000*%
%ADD11C,0.120000*%
G04 APERTURE END LIST*
D10*
X18639761Y-48714819D02*
X18764761Y-47714819D01*
X18764761Y-47714819D02*
X19008809Y-48429104D01*
X19008809Y-48429104D02*
X19431428Y-47714819D01*
X19431428Y-47714819D02*
X19306428Y-48714819D01*
X20211190Y-48714819D02*
X20276666Y-48191009D01*
X20276666Y-48191009D02*
X20240952Y-48095771D01*
X20240952Y-48095771D02*
X20151666Y-48048152D01*
X20151666Y-48048152D02*
X19961190Y-48048152D01*
X19961190Y-48048152D02*
X19859999Y-48095771D01*
X20217142Y-48667200D02*
X20115952Y-48714819D01*
X20115952Y-48714819D02*
X19877856Y-48714819D01*
X19877856Y-48714819D02*
X19788571Y-48667200D01*
X19788571Y-48667200D02*
X19752856Y-48571961D01*
X19752856Y-48571961D02*
X19764761Y-48476723D01*
X19764761Y-48476723D02*
X19824285Y-48381485D01*
X19824285Y-48381485D02*
X19925476Y-48333866D01*
X19925476Y-48333866D02*
X20163571Y-48333866D01*
X20163571Y-48333866D02*
X20264761Y-48286247D01*
X20592142Y-48714819D02*
X21199285Y-48048152D01*
X20675476Y-48048152D02*
X21115952Y-48714819D01*
X21496904Y-48714819D02*
X21621904Y-47714819D01*
X21621904Y-47714819D02*
X22002857Y-47714819D01*
X22002857Y-47714819D02*
X22092142Y-47762438D01*
X22092142Y-47762438D02*
X22133809Y-47810057D01*
X22133809Y-47810057D02*
X22169523Y-47905295D01*
X22169523Y-47905295D02*
X22151666Y-48048152D01*
X22151666Y-48048152D02*
X22092142Y-48143390D01*
X22092142Y-48143390D02*
X22038571Y-48191009D01*
X22038571Y-48191009D02*
X21937381Y-48238628D01*
X21937381Y-48238628D02*
X21556428Y-48238628D01*
X22496904Y-48714819D02*
X22580238Y-48048152D01*
X22621904Y-47714819D02*
X22568333Y-47762438D01*
X22568333Y-47762438D02*
X22610000Y-47810057D01*
X22610000Y-47810057D02*
X22663571Y-47762438D01*
X22663571Y-47762438D02*
X22621904Y-47714819D01*
X22621904Y-47714819D02*
X22610000Y-47810057D01*
X23115952Y-48714819D02*
X23026666Y-48667200D01*
X23026666Y-48667200D02*
X22990952Y-48571961D01*
X22990952Y-48571961D02*
X23098094Y-47714819D01*
X23639762Y-48714819D02*
X23550476Y-48667200D01*
X23550476Y-48667200D02*
X23508809Y-48619580D01*
X23508809Y-48619580D02*
X23473095Y-48524342D01*
X23473095Y-48524342D02*
X23508809Y-48238628D01*
X23508809Y-48238628D02*
X23568333Y-48143390D01*
X23568333Y-48143390D02*
X23621904Y-48095771D01*
X23621904Y-48095771D02*
X23723095Y-48048152D01*
X23723095Y-48048152D02*
X23865952Y-48048152D01*
X23865952Y-48048152D02*
X23955238Y-48095771D01*
X23955238Y-48095771D02*
X23996904Y-48143390D01*
X23996904Y-48143390D02*
X24032619Y-48238628D01*
X24032619Y-48238628D02*
X23996904Y-48524342D01*
X23996904Y-48524342D02*
X23937381Y-48619580D01*
X23937381Y-48619580D02*
X23883809Y-48667200D01*
X23883809Y-48667200D02*
X23782619Y-48714819D01*
X23782619Y-48714819D02*
X23639762Y-48714819D01*
X24342143Y-48048152D02*
X24723095Y-48048152D01*
X24526666Y-47714819D02*
X24419524Y-48571961D01*
X24419524Y-48571961D02*
X24455238Y-48667200D01*
X24455238Y-48667200D02*
X24544524Y-48714819D01*
X24544524Y-48714819D02*
X24639762Y-48714819D01*
X25717143Y-47714819D02*
X25925477Y-48714819D01*
X25925477Y-48714819D02*
X26383810Y-47714819D01*
X26657620Y-47810057D02*
X26711191Y-47762438D01*
X26711191Y-47762438D02*
X26812381Y-47714819D01*
X26812381Y-47714819D02*
X27050477Y-47714819D01*
X27050477Y-47714819D02*
X27139762Y-47762438D01*
X27139762Y-47762438D02*
X27181429Y-47810057D01*
X27181429Y-47810057D02*
X27217143Y-47905295D01*
X27217143Y-47905295D02*
X27205239Y-48000533D01*
X27205239Y-48000533D02*
X27139762Y-48143390D01*
X27139762Y-48143390D02*
X26496905Y-48714819D01*
X26496905Y-48714819D02*
X27115953Y-48714819D01*
D11*
X31102857Y-48547664D02*
X31064761Y-48585760D01*
X31064761Y-48585760D02*
X30950476Y-48623855D01*
X30950476Y-48623855D02*
X30874285Y-48623855D01*
X30874285Y-48623855D02*
X30759999Y-48585760D01*
X30759999Y-48585760D02*
X30683809Y-48509569D01*
X30683809Y-48509569D02*
X30645714Y-48433379D01*
X30645714Y-48433379D02*
X30607618Y-48280998D01*
X30607618Y-48280998D02*
X30607618Y-48166712D01*
X30607618Y-48166712D02*
X30645714Y-48014331D01*
X30645714Y-48014331D02*
X30683809Y-47938140D01*
X30683809Y-47938140D02*
X30759999Y-47861950D01*
X30759999Y-47861950D02*
X30874285Y-47823855D01*
X30874285Y-47823855D02*
X30950476Y-47823855D01*
X30950476Y-47823855D02*
X31064761Y-47861950D01*
X31064761Y-47861950D02*
X31102857Y-47900045D01*
X31445714Y-48204807D02*
X31712380Y-48204807D01*
X31826666Y-48623855D02*
X31445714Y-48623855D01*
X31445714Y-48623855D02*
X31445714Y-47823855D01*
X31445714Y-47823855D02*
X31826666Y-47823855D01*
X32626667Y-48623855D02*
X32360000Y-48242902D01*
X32169524Y-48623855D02*
X32169524Y-47823855D01*
X32169524Y-47823855D02*
X32474286Y-47823855D01*
X32474286Y-47823855D02*
X32550476Y-47861950D01*
X32550476Y-47861950D02*
X32588571Y-47900045D01*
X32588571Y-47900045D02*
X32626667Y-47976236D01*
X32626667Y-47976236D02*
X32626667Y-48090521D01*
X32626667Y-48090521D02*
X32588571Y-48166712D01*
X32588571Y-48166712D02*
X32550476Y-48204807D01*
X32550476Y-48204807D02*
X32474286Y-48242902D01*
X32474286Y-48242902D02*
X32169524Y-48242902D01*
X32969524Y-48623855D02*
X32969524Y-47823855D01*
X32969524Y-47823855D02*
X33426667Y-48623855D01*
X33426667Y-48623855D02*
X33426667Y-47823855D01*
X33807619Y-48319093D02*
X34417143Y-48319093D01*
X34950476Y-47823855D02*
X35102857Y-47823855D01*
X35102857Y-47823855D02*
X35179047Y-47861950D01*
X35179047Y-47861950D02*
X35255238Y-47938140D01*
X35255238Y-47938140D02*
X35293333Y-48090521D01*
X35293333Y-48090521D02*
X35293333Y-48357188D01*
X35293333Y-48357188D02*
X35255238Y-48509569D01*
X35255238Y-48509569D02*
X35179047Y-48585760D01*
X35179047Y-48585760D02*
X35102857Y-48623855D01*
X35102857Y-48623855D02*
X34950476Y-48623855D01*
X34950476Y-48623855D02*
X34874285Y-48585760D01*
X34874285Y-48585760D02*
X34798095Y-48509569D01*
X34798095Y-48509569D02*
X34759999Y-48357188D01*
X34759999Y-48357188D02*
X34759999Y-48090521D01*
X34759999Y-48090521D02*
X34798095Y-47938140D01*
X34798095Y-47938140D02*
X34874285Y-47861950D01*
X34874285Y-47861950D02*
X34950476Y-47823855D01*
X35636190Y-48623855D02*
X35636190Y-47823855D01*
X35636190Y-48204807D02*
X36093333Y-48204807D01*
X36093333Y-48623855D02*
X36093333Y-47823855D01*
X36855237Y-48623855D02*
X36474285Y-48623855D01*
X36474285Y-48623855D02*
X36474285Y-47823855D01*
X37121904Y-48319093D02*
X37731428Y-48319093D01*
X38074284Y-48585760D02*
X38188570Y-48623855D01*
X38188570Y-48623855D02*
X38379046Y-48623855D01*
X38379046Y-48623855D02*
X38455237Y-48585760D01*
X38455237Y-48585760D02*
X38493332Y-48547664D01*
X38493332Y-48547664D02*
X38531427Y-48471474D01*
X38531427Y-48471474D02*
X38531427Y-48395283D01*
X38531427Y-48395283D02*
X38493332Y-48319093D01*
X38493332Y-48319093D02*
X38455237Y-48280998D01*
X38455237Y-48280998D02*
X38379046Y-48242902D01*
X38379046Y-48242902D02*
X38226665Y-48204807D01*
X38226665Y-48204807D02*
X38150475Y-48166712D01*
X38150475Y-48166712D02*
X38112380Y-48128617D01*
X38112380Y-48128617D02*
X38074284Y-48052426D01*
X38074284Y-48052426D02*
X38074284Y-47976236D01*
X38074284Y-47976236D02*
X38112380Y-47900045D01*
X38112380Y-47900045D02*
X38150475Y-47861950D01*
X38150475Y-47861950D02*
X38226665Y-47823855D01*
X38226665Y-47823855D02*
X38417142Y-47823855D01*
X38417142Y-47823855D02*
X38531427Y-47861950D01*
X39407618Y-48090521D02*
X39598094Y-48623855D01*
X39598094Y-48623855D02*
X39788571Y-48090521D01*
X40055237Y-47900045D02*
X40093333Y-47861950D01*
X40093333Y-47861950D02*
X40169523Y-47823855D01*
X40169523Y-47823855D02*
X40359999Y-47823855D01*
X40359999Y-47823855D02*
X40436190Y-47861950D01*
X40436190Y-47861950D02*
X40474285Y-47900045D01*
X40474285Y-47900045D02*
X40512380Y-47976236D01*
X40512380Y-47976236D02*
X40512380Y-48052426D01*
X40512380Y-48052426D02*
X40474285Y-48166712D01*
X40474285Y-48166712D02*
X40017142Y-48623855D01*
X40017142Y-48623855D02*
X40512380Y-48623855D01*
D10*
X68413333Y-28224819D02*
X68080000Y-27748628D01*
X67841905Y-28224819D02*
X67841905Y-27224819D01*
X67841905Y-27224819D02*
X68222857Y-27224819D01*
X68222857Y-27224819D02*
X68318095Y-27272438D01*
X68318095Y-27272438D02*
X68365714Y-27320057D01*
X68365714Y-27320057D02*
X68413333Y-27415295D01*
X68413333Y-27415295D02*
X68413333Y-27558152D01*
X68413333Y-27558152D02*
X68365714Y-27653390D01*
X68365714Y-27653390D02*
X68318095Y-27701009D01*
X68318095Y-27701009D02*
X68222857Y-27748628D01*
X68222857Y-27748628D02*
X67841905Y-27748628D01*
X68794286Y-27320057D02*
X68841905Y-27272438D01*
X68841905Y-27272438D02*
X68937143Y-27224819D01*
X68937143Y-27224819D02*
X69175238Y-27224819D01*
X69175238Y-27224819D02*
X69270476Y-27272438D01*
X69270476Y-27272438D02*
X69318095Y-27320057D01*
X69318095Y-27320057D02*
X69365714Y-27415295D01*
X69365714Y-27415295D02*
X69365714Y-27510533D01*
X69365714Y-27510533D02*
X69318095Y-27653390D01*
X69318095Y-27653390D02*
X68746667Y-28224819D01*
X68746667Y-28224819D02*
X69365714Y-28224819D01*
X30146666Y-15171009D02*
X29813333Y-15171009D01*
X29813333Y-15694819D02*
X29813333Y-14694819D01*
X29813333Y-14694819D02*
X30289523Y-14694819D01*
X31194285Y-15694819D02*
X30622857Y-15694819D01*
X30908571Y-15694819D02*
X30908571Y-14694819D01*
X30908571Y-14694819D02*
X30813333Y-14837676D01*
X30813333Y-14837676D02*
X30718095Y-14932914D01*
X30718095Y-14932914D02*
X30622857Y-14980533D01*
X41148095Y-27184819D02*
X41148095Y-27994342D01*
X41148095Y-27994342D02*
X41195714Y-28089580D01*
X41195714Y-28089580D02*
X41243333Y-28137200D01*
X41243333Y-28137200D02*
X41338571Y-28184819D01*
X41338571Y-28184819D02*
X41529047Y-28184819D01*
X41529047Y-28184819D02*
X41624285Y-28137200D01*
X41624285Y-28137200D02*
X41671904Y-28089580D01*
X41671904Y-28089580D02*
X41719523Y-27994342D01*
X41719523Y-27994342D02*
X41719523Y-27184819D01*
X42100476Y-27184819D02*
X42719523Y-27184819D01*
X42719523Y-27184819D02*
X42386190Y-27565771D01*
X42386190Y-27565771D02*
X42529047Y-27565771D01*
X42529047Y-27565771D02*
X42624285Y-27613390D01*
X42624285Y-27613390D02*
X42671904Y-27661009D01*
X42671904Y-27661009D02*
X42719523Y-27756247D01*
X42719523Y-27756247D02*
X42719523Y-27994342D01*
X42719523Y-27994342D02*
X42671904Y-28089580D01*
X42671904Y-28089580D02*
X42624285Y-28137200D01*
X42624285Y-28137200D02*
X42529047Y-28184819D01*
X42529047Y-28184819D02*
X42243333Y-28184819D01*
X42243333Y-28184819D02*
X42148095Y-28137200D01*
X42148095Y-28137200D02*
X42100476Y-28089580D01*
X23234819Y-33353333D02*
X23949104Y-33353333D01*
X23949104Y-33353333D02*
X24091961Y-33400952D01*
X24091961Y-33400952D02*
X24187200Y-33496190D01*
X24187200Y-33496190D02*
X24234819Y-33639047D01*
X24234819Y-33639047D02*
X24234819Y-33734285D01*
X24234819Y-32353333D02*
X24234819Y-32924761D01*
X24234819Y-32639047D02*
X23234819Y-32639047D01*
X23234819Y-32639047D02*
X23377676Y-32734285D01*
X23377676Y-32734285D02*
X23472914Y-32829523D01*
X23472914Y-32829523D02*
X23520533Y-32924761D01*
X68413333Y-18064819D02*
X68080000Y-17588628D01*
X67841905Y-18064819D02*
X67841905Y-17064819D01*
X67841905Y-17064819D02*
X68222857Y-17064819D01*
X68222857Y-17064819D02*
X68318095Y-17112438D01*
X68318095Y-17112438D02*
X68365714Y-17160057D01*
X68365714Y-17160057D02*
X68413333Y-17255295D01*
X68413333Y-17255295D02*
X68413333Y-17398152D01*
X68413333Y-17398152D02*
X68365714Y-17493390D01*
X68365714Y-17493390D02*
X68318095Y-17541009D01*
X68318095Y-17541009D02*
X68222857Y-17588628D01*
X68222857Y-17588628D02*
X67841905Y-17588628D01*
X69365714Y-18064819D02*
X68794286Y-18064819D01*
X69080000Y-18064819D02*
X69080000Y-17064819D01*
X69080000Y-17064819D02*
X68984762Y-17207676D01*
X68984762Y-17207676D02*
X68889524Y-17302914D01*
X68889524Y-17302914D02*
X68794286Y-17350533D01*
X42234819Y-37569285D02*
X41234819Y-37569285D01*
X41234819Y-37569285D02*
X41234819Y-37188333D01*
X41234819Y-37188333D02*
X41282438Y-37093095D01*
X41282438Y-37093095D02*
X41330057Y-37045476D01*
X41330057Y-37045476D02*
X41425295Y-36997857D01*
X41425295Y-36997857D02*
X41568152Y-36997857D01*
X41568152Y-36997857D02*
X41663390Y-37045476D01*
X41663390Y-37045476D02*
X41711009Y-37093095D01*
X41711009Y-37093095D02*
X41758628Y-37188333D01*
X41758628Y-37188333D02*
X41758628Y-37569285D01*
X42187200Y-36616904D02*
X42234819Y-36474047D01*
X42234819Y-36474047D02*
X42234819Y-36235952D01*
X42234819Y-36235952D02*
X42187200Y-36140714D01*
X42187200Y-36140714D02*
X42139580Y-36093095D01*
X42139580Y-36093095D02*
X42044342Y-36045476D01*
X42044342Y-36045476D02*
X41949104Y-36045476D01*
X41949104Y-36045476D02*
X41853866Y-36093095D01*
X41853866Y-36093095D02*
X41806247Y-36140714D01*
X41806247Y-36140714D02*
X41758628Y-36235952D01*
X41758628Y-36235952D02*
X41711009Y-36426428D01*
X41711009Y-36426428D02*
X41663390Y-36521666D01*
X41663390Y-36521666D02*
X41615771Y-36569285D01*
X41615771Y-36569285D02*
X41520533Y-36616904D01*
X41520533Y-36616904D02*
X41425295Y-36616904D01*
X41425295Y-36616904D02*
X41330057Y-36569285D01*
X41330057Y-36569285D02*
X41282438Y-36521666D01*
X41282438Y-36521666D02*
X41234819Y-36426428D01*
X41234819Y-36426428D02*
X41234819Y-36188333D01*
X41234819Y-36188333D02*
X41282438Y-36045476D01*
X42234819Y-35093095D02*
X42234819Y-35664523D01*
X42234819Y-35378809D02*
X41234819Y-35378809D01*
X41234819Y-35378809D02*
X41377676Y-35474047D01*
X41377676Y-35474047D02*
X41472914Y-35569285D01*
X41472914Y-35569285D02*
X41520533Y-35664523D01*
X25144819Y-25995238D02*
X24668628Y-26328571D01*
X25144819Y-26566666D02*
X24144819Y-26566666D01*
X24144819Y-26566666D02*
X24144819Y-26185714D01*
X24144819Y-26185714D02*
X24192438Y-26090476D01*
X24192438Y-26090476D02*
X24240057Y-26042857D01*
X24240057Y-26042857D02*
X24335295Y-25995238D01*
X24335295Y-25995238D02*
X24478152Y-25995238D01*
X24478152Y-25995238D02*
X24573390Y-26042857D01*
X24573390Y-26042857D02*
X24621009Y-26090476D01*
X24621009Y-26090476D02*
X24668628Y-26185714D01*
X24668628Y-26185714D02*
X24668628Y-26566666D01*
X24144819Y-25709523D02*
X25144819Y-25376190D01*
X25144819Y-25376190D02*
X24144819Y-25042857D01*
X25144819Y-24185714D02*
X25144819Y-24757142D01*
X25144819Y-24471428D02*
X24144819Y-24471428D01*
X24144819Y-24471428D02*
X24287676Y-24566666D01*
X24287676Y-24566666D02*
X24382914Y-24661904D01*
X24382914Y-24661904D02*
X24430533Y-24757142D01*
X55113095Y-24644819D02*
X55113095Y-25454342D01*
X55113095Y-25454342D02*
X55160714Y-25549580D01*
X55160714Y-25549580D02*
X55208333Y-25597200D01*
X55208333Y-25597200D02*
X55303571Y-25644819D01*
X55303571Y-25644819D02*
X55494047Y-25644819D01*
X55494047Y-25644819D02*
X55589285Y-25597200D01*
X55589285Y-25597200D02*
X55636904Y-25549580D01*
X55636904Y-25549580D02*
X55684523Y-25454342D01*
X55684523Y-25454342D02*
X55684523Y-24644819D01*
X56113095Y-24740057D02*
X56160714Y-24692438D01*
X56160714Y-24692438D02*
X56255952Y-24644819D01*
X56255952Y-24644819D02*
X56494047Y-24644819D01*
X56494047Y-24644819D02*
X56589285Y-24692438D01*
X56589285Y-24692438D02*
X56636904Y-24740057D01*
X56636904Y-24740057D02*
X56684523Y-24835295D01*
X56684523Y-24835295D02*
X56684523Y-24930533D01*
X56684523Y-24930533D02*
X56636904Y-25073390D01*
X56636904Y-25073390D02*
X56065476Y-25644819D01*
X56065476Y-25644819D02*
X56684523Y-25644819D01*
X102518095Y-48044819D02*
X102518095Y-48854342D01*
X102518095Y-48854342D02*
X102565714Y-48949580D01*
X102565714Y-48949580D02*
X102613333Y-48997200D01*
X102613333Y-48997200D02*
X102708571Y-49044819D01*
X102708571Y-49044819D02*
X102899047Y-49044819D01*
X102899047Y-49044819D02*
X102994285Y-48997200D01*
X102994285Y-48997200D02*
X103041904Y-48949580D01*
X103041904Y-48949580D02*
X103089523Y-48854342D01*
X103089523Y-48854342D02*
X103089523Y-48044819D01*
X104089523Y-49044819D02*
X103518095Y-49044819D01*
X103803809Y-49044819D02*
X103803809Y-48044819D01*
X103803809Y-48044819D02*
X103708571Y-48187676D01*
X103708571Y-48187676D02*
X103613333Y-48282914D01*
X103613333Y-48282914D02*
X103518095Y-48330533D01*
X41024819Y-38838094D02*
X40024819Y-38838094D01*
X40024819Y-38838094D02*
X40024819Y-38599999D01*
X40024819Y-38599999D02*
X40072438Y-38457142D01*
X40072438Y-38457142D02*
X40167676Y-38361904D01*
X40167676Y-38361904D02*
X40262914Y-38314285D01*
X40262914Y-38314285D02*
X40453390Y-38266666D01*
X40453390Y-38266666D02*
X40596247Y-38266666D01*
X40596247Y-38266666D02*
X40786723Y-38314285D01*
X40786723Y-38314285D02*
X40881961Y-38361904D01*
X40881961Y-38361904D02*
X40977200Y-38457142D01*
X40977200Y-38457142D02*
X41024819Y-38599999D01*
X41024819Y-38599999D02*
X41024819Y-38838094D01*
X41024819Y-37314285D02*
X41024819Y-37885713D01*
X41024819Y-37599999D02*
X40024819Y-37599999D01*
X40024819Y-37599999D02*
X40167676Y-37695237D01*
X40167676Y-37695237D02*
X40262914Y-37790475D01*
X40262914Y-37790475D02*
X40310533Y-37885713D01*
X40654819Y-33281904D02*
X39654819Y-33281904D01*
X40654819Y-32710476D02*
X40083390Y-33139047D01*
X39654819Y-32710476D02*
X40226247Y-33281904D01*
X28464819Y-41378094D02*
X27464819Y-41378094D01*
X27464819Y-41378094D02*
X27464819Y-41139999D01*
X27464819Y-41139999D02*
X27512438Y-40997142D01*
X27512438Y-40997142D02*
X27607676Y-40901904D01*
X27607676Y-40901904D02*
X27702914Y-40854285D01*
X27702914Y-40854285D02*
X27893390Y-40806666D01*
X27893390Y-40806666D02*
X28036247Y-40806666D01*
X28036247Y-40806666D02*
X28226723Y-40854285D01*
X28226723Y-40854285D02*
X28321961Y-40901904D01*
X28321961Y-40901904D02*
X28417200Y-40997142D01*
X28417200Y-40997142D02*
X28464819Y-41139999D01*
X28464819Y-41139999D02*
X28464819Y-41378094D01*
X27560057Y-40425713D02*
X27512438Y-40378094D01*
X27512438Y-40378094D02*
X27464819Y-40282856D01*
X27464819Y-40282856D02*
X27464819Y-40044761D01*
X27464819Y-40044761D02*
X27512438Y-39949523D01*
X27512438Y-39949523D02*
X27560057Y-39901904D01*
X27560057Y-39901904D02*
X27655295Y-39854285D01*
X27655295Y-39854285D02*
X27750533Y-39854285D01*
X27750533Y-39854285D02*
X27893390Y-39901904D01*
X27893390Y-39901904D02*
X28464819Y-40473332D01*
X28464819Y-40473332D02*
X28464819Y-39854285D01*
X28834819Y-45981904D02*
X27834819Y-45981904D01*
X28834819Y-45410476D02*
X28263390Y-45839047D01*
X27834819Y-45410476D02*
X28406247Y-45981904D01*
X70913333Y-23179580D02*
X70865714Y-23227200D01*
X70865714Y-23227200D02*
X70722857Y-23274819D01*
X70722857Y-23274819D02*
X70627619Y-23274819D01*
X70627619Y-23274819D02*
X70484762Y-23227200D01*
X70484762Y-23227200D02*
X70389524Y-23131961D01*
X70389524Y-23131961D02*
X70341905Y-23036723D01*
X70341905Y-23036723D02*
X70294286Y-22846247D01*
X70294286Y-22846247D02*
X70294286Y-22703390D01*
X70294286Y-22703390D02*
X70341905Y-22512914D01*
X70341905Y-22512914D02*
X70389524Y-22417676D01*
X70389524Y-22417676D02*
X70484762Y-22322438D01*
X70484762Y-22322438D02*
X70627619Y-22274819D01*
X70627619Y-22274819D02*
X70722857Y-22274819D01*
X70722857Y-22274819D02*
X70865714Y-22322438D01*
X70865714Y-22322438D02*
X70913333Y-22370057D01*
X71865714Y-23274819D02*
X71294286Y-23274819D01*
X71580000Y-23274819D02*
X71580000Y-22274819D01*
X71580000Y-22274819D02*
X71484762Y-22417676D01*
X71484762Y-22417676D02*
X71389524Y-22512914D01*
X71389524Y-22512914D02*
X71294286Y-22560533D01*
D11*
%TO.C,R2*%
X64540000Y-25400000D02*
X65310000Y-25400000D01*
X65310000Y-24030000D02*
X65310000Y-26770000D01*
X65310000Y-26770000D02*
X71850000Y-26770000D01*
X71850000Y-24030000D02*
X65310000Y-24030000D01*
X71850000Y-26770000D02*
X71850000Y-24030000D01*
X72620000Y-25400000D02*
X71850000Y-25400000D01*
%TO.C,F1*%
X24300000Y-15240000D02*
X25410000Y-15240000D01*
X36660000Y-15240000D02*
X35550000Y-15240000D01*
X25410000Y-13320000D02*
X35550000Y-13320000D01*
X35550000Y-17160000D01*
X25410000Y-17160000D01*
X25410000Y-13320000D01*
%TO.C,U3*%
X39260000Y-18990000D02*
X39260000Y-26730000D01*
X39260000Y-26730000D02*
X40910000Y-26730000D01*
X42910000Y-26730000D02*
X44560000Y-26730000D01*
X44560000Y-18990000D02*
X39260000Y-18990000D01*
X44560000Y-26730000D02*
X44560000Y-18990000D01*
X40910000Y-26730000D02*
G75*
G02*
X42910000Y-26730000I1000000J0D01*
G01*
%TO.C,J1*%
X13910000Y-21530000D02*
X22550000Y-21530000D01*
X13910000Y-44510000D02*
X13910000Y-21530000D01*
X15680000Y-22510000D02*
X15680000Y-23260000D01*
X15680000Y-27540000D02*
X15680000Y-30880000D01*
X15680000Y-35160000D02*
X15680000Y-38500000D01*
X15680000Y-42780000D02*
X15680000Y-43550000D01*
X20980000Y-22510000D02*
X15680000Y-22510000D01*
X20980000Y-22510000D02*
X20980000Y-43550000D01*
X20980000Y-43550000D02*
X15680000Y-43550000D01*
X22550000Y-21530000D02*
X22550000Y-44510000D01*
X22550000Y-44510000D02*
X13910000Y-44510000D01*
X22850000Y-21230000D02*
X21850000Y-21230000D01*
X22850000Y-21230000D02*
X22850000Y-22230000D01*
X15680000Y-27540000D02*
G75*
G02*
X15680000Y-23260000I2094222J2140000D01*
G01*
X15680000Y-35160000D02*
G75*
G02*
X15680000Y-30880000I2094222J2140000D01*
G01*
X15680000Y-42780000D02*
G75*
G02*
X15680000Y-38500000I2094222J2140000D01*
G01*
%TO.C,R1*%
X64540000Y-15240000D02*
X65310000Y-15240000D01*
X65310000Y-13870000D02*
X65310000Y-16610000D01*
X65310000Y-16610000D02*
X71850000Y-16610000D01*
X71850000Y-13870000D02*
X65310000Y-13870000D01*
X71850000Y-16610000D02*
X71850000Y-13870000D01*
X72620000Y-15240000D02*
X71850000Y-15240000D01*
%TO.C,PS1*%
X42930000Y-35905000D02*
X42930000Y-37915000D01*
X43320000Y-29305000D02*
X43320000Y-49505000D01*
X43320000Y-49505000D02*
X77520000Y-49505000D01*
X77520000Y-29305000D02*
X43320000Y-29305000D01*
X77520000Y-49505000D02*
X77520000Y-29305000D01*
D10*
%TO.C,RV1*%
X25690000Y-19400000D02*
X25690000Y-31400000D01*
X30190000Y-19400000D02*
X25690000Y-19400000D01*
X30190000Y-19400000D02*
X30190000Y-31400000D01*
X30190000Y-31400000D02*
X25690000Y-31400000D01*
D11*
%TO.C,U2*%
X53225000Y-16450000D02*
X53225000Y-24190000D01*
X53225000Y-24190000D02*
X54875000Y-24190000D01*
X56875000Y-24190000D02*
X58525000Y-24190000D01*
X58525000Y-16450000D02*
X53225000Y-16450000D01*
X58525000Y-24190000D02*
X58525000Y-16450000D01*
X54875000Y-24190000D02*
G75*
G02*
X56875000Y-24190000I1000000J0D01*
G01*
%TO.C,U1*%
X79780000Y-40810000D02*
X79780000Y-15380000D01*
X79780000Y-40810000D02*
X82320000Y-40810000D01*
X82320000Y-40810000D02*
X82320000Y-47710000D01*
X82320000Y-47710000D02*
X105640000Y-47710000D01*
X103520000Y-13250000D02*
X81910000Y-13250000D01*
X105640000Y-47710000D02*
X105640000Y-15380000D01*
X79780000Y-15380000D02*
G75*
G02*
X81910000Y-13250000I2130002J-2D01*
G01*
X103510000Y-13250000D02*
G75*
G02*
X105640000Y-15380000I0J-2130000D01*
G01*
D10*
X79375000Y-21590000D02*
X78740000Y-22225000D01*
X78740000Y-20955000D01*
X79375000Y-21590000D01*
G36*
X79375000Y-21590000D02*
G01*
X78740000Y-22225000D01*
X78740000Y-20955000D01*
X79375000Y-21590000D01*
G37*
D11*
%TO.C,D1*%
X36630000Y-35380000D02*
X36630000Y-40820000D01*
X36630000Y-40820000D02*
X39570000Y-40820000D01*
X38100000Y-34360000D02*
X38100000Y-35380000D01*
X38100000Y-41840000D02*
X38100000Y-40820000D01*
X39570000Y-35380000D02*
X36630000Y-35380000D01*
X39570000Y-36160000D02*
X36630000Y-36160000D01*
X39570000Y-36280000D02*
X36630000Y-36280000D01*
X39570000Y-36400000D02*
X36630000Y-36400000D01*
X39570000Y-40820000D02*
X39570000Y-35380000D01*
%TO.C,D2*%
X29010000Y-37920000D02*
X29010000Y-43360000D01*
X29010000Y-42340000D02*
X31950000Y-42340000D01*
X29010000Y-42460000D02*
X31950000Y-42460000D01*
X29010000Y-42580000D02*
X31950000Y-42580000D01*
X29010000Y-43360000D02*
X31950000Y-43360000D01*
X30480000Y-36900000D02*
X30480000Y-37920000D01*
X30480000Y-44380000D02*
X30480000Y-43360000D01*
X31950000Y-37920000D02*
X29010000Y-37920000D01*
X31950000Y-43360000D02*
X31950000Y-37920000D01*
%TO.C,C1*%
X66960000Y-21690000D02*
X66960000Y-18950000D01*
X75200000Y-18950000D02*
X66960000Y-18950000D01*
X75200000Y-21690000D02*
X66960000Y-21690000D01*
X75200000Y-21690000D02*
X75200000Y-18950000D01*
%TD*%
M02*
