<?xml version="1.0" standalone="no"?>
 <!DOCTYPE svg PUBLIC "-//W3C//DTD SVG 1.1//EN" 
 "http://www.w3.org/Graphics/SVG/1.1/DTD/svg11.dtd"> 
<svg
  xmlns:svg="http://www.w3.org/2000/svg"
  xmlns="http://www.w3.org/2000/svg"
  xmlns:xlink="http://www.w3.org/1999/xlink"
  version="1.1"
  width="99.8728mm" height="38.8112mm" viewBox="0.0000 0.0000 99.8728 38.8112">
<title>SVG Image created as MaxPilot-pcb-back.svg date 2026/02/21 18:01:54 </title>
  <desc>Image generated by PCBNEW </desc>
<g style="fill:#000000; fill-opacity:1.0000;stroke:#000000; stroke-opacity:1.0000;
stroke-linecap:round; stroke-linejoin:round;"
 transform="translate(0 0) scale(1 1)">
</g>
<g style="fill:#4D7FC4; fill-opacity:1.0000; stroke:none;">
<circle cx="35.6045" cy="3.2182" r="0.8000" /> 
</g>
<g style="fill:#4D7FC4; fill-opacity:1.0000; stroke:none;">
<circle cx="45.7645" cy="3.2182" r="0.8000" /> 
<circle cx="94.0245" cy="4.0583" r="1.3900" /> 
</g>
<g style="fill:#4D7FC4; fill-opacity:1.0000; stroke:none;">
<circle cx="94.0245" cy="7.4582" r="1.3900" /> 
</g>
<g style="fill:#4D7FC4; fill-opacity:1.0000; stroke:none;">
<circle cx="84.1046" cy="4.0583" r="1.3900" /> 
</g>
<g style="fill:#4D7FC4; fill-opacity:1.0000; stroke:none;">
<circle cx="84.1046" cy="7.4582" r="1.3900" /> 
</g>
<g style="fill:#4D7FC4; fill-opacity:1.0000; stroke:none;">
<circle cx="68.6245" cy="8.2982" r="0.8000" /> 
<path style="fill:#4D7FC4; fill-opacity:1.0000; stroke:none;fill-rule:evenodd;"
d="M 67.8246,13.9283
67.8436,14.0239
67.8978,14.1050
67.9789,14.1592
68.0746,14.1783
69.1745,14.1783
69.2702,14.1592
69.3513,14.1050
69.4055,14.0239
69.4245,13.9283
69.4245,12.8282
69.4055,12.7326
69.3513,12.6515
69.2702,12.5973
69.1745,12.5782
68.0746,12.5782
67.9789,12.5973
67.8978,12.6515
67.8436,12.7326
67.8246,12.8282
Z" /> 
</g>
<g style="fill:#4D7FC4; fill-opacity:1.0000; stroke:none;">
<circle cx="68.6245" cy="10.8383" r="0.8000" /> 
</g>
<g style="fill:#4D7FC4; fill-opacity:1.0000; stroke:none;">
<circle cx="76.2445" cy="8.2982" r="0.8000" /> 
</g>
<g style="fill:#4D7FC4; fill-opacity:1.0000; stroke:none;">
<circle cx="76.2445" cy="13.3782" r="0.8000" /> 
<path style="fill:#4D7FC4; fill-opacity:1.0000; stroke:none;fill-rule:evenodd;"
d="M 95.2946,17.1883
92.7545,17.1883
92.7545,19.7282
95.2946,19.7282
Z" /> 
</g>
<g style="fill:#4D7FC4; fill-opacity:1.0000; stroke:none;">
<circle cx="94.0245" cy="26.0782" r="1.2700" /> 
</g>
<g style="fill:#4D7FC4; fill-opacity:1.0000; stroke:none;">
<circle cx="94.0245" cy="33.6983" r="1.2700" /> 
</g>
<g style="fill:#4D7FC4; fill-opacity:1.0000; stroke:none;">
<circle cx="35.6045" cy="8.2982" r="0.8000" /> 
</g>
<g style="fill:#4D7FC4; fill-opacity:1.0000; stroke:none;">
<circle cx="45.7645" cy="8.2982" r="0.8000" /> 
<path style="fill:#4D7FC4; fill-opacity:1.0000; stroke:none;fill-rule:evenodd;"
d="M 67.2345,25.8833
67.2345,23.8833
64.9346,23.8833
64.9346,25.8833
Z" /> 
<circle cx="66.0845" cy="29.8833" r="1.1500" /> 
</g>
<g style="fill:#4D7FC4; fill-opacity:1.0000; stroke:none;">
<circle cx="36.6846" cy="19.6832" r="1.1500" /> 
</g>
<g style="fill:#4D7FC4; fill-opacity:1.0000; stroke:none;">
<circle cx="36.6846" cy="35.0832" r="1.1500" /> 
</g>
<g style="fill:#4D7FC4; fill-opacity:1.0000; stroke:none;">
<circle cx="82.9646" cy="12.1682" r="0.9000" /> 
</g>
<g style="fill:#4D7FC4; fill-opacity:1.0000; stroke:none;">
<circle cx="84.7645" cy="19.6683" r="0.9000" /> 
</g>
<g style="fill:#4D7FC4; fill-opacity:1.0000; stroke:none;">
<circle cx="55.9245" cy="5.7582" r="0.8000" /> 
<path style="fill:#4D7FC4; fill-opacity:1.0000; stroke:none;fill-rule:evenodd;"
d="M 55.1245,11.3882
55.1436,11.4839
55.1978,11.5650
55.2789,11.6192
55.3745,11.6382
56.4746,11.6382
56.5702,11.6192
56.6513,11.5650
56.7055,11.4839
56.7246,11.3882
56.7246,10.2882
56.7055,10.1926
56.6513,10.1115
56.5702,10.0573
56.4746,10.0382
55.3745,10.0382
55.2789,10.0573
55.1978,10.1115
55.1436,10.1926
55.1245,10.2882
Z" /> 
</g>
<g style="fill:#4D7FC4; fill-opacity:1.0000; stroke:none;">
<circle cx="55.9245" cy="8.2982" r="0.8000" /> 
</g>
<g style="fill:#4D7FC4; fill-opacity:1.0000; stroke:none;">
<circle cx="63.5445" cy="5.7582" r="0.8000" /> 
</g>
<g style="fill:#4D7FC4; fill-opacity:1.0000; stroke:none;">
<circle cx="63.5445" cy="10.8383" r="0.8000" /> 
<path style="fill:#4D7FC4; fill-opacity:1.0000; stroke:none;fill-rule:evenodd;"
d="M 27.2295,10.5682
27.2295,8.5682
25.2295,8.5682
25.2295,10.5682
Z" /> 
</g>
<g style="fill:none; 
stroke:#4D7FC4; stroke-width:1.6000; stroke-opacity:1; 
stroke-linecap:round; stroke-linejoin:round;">
<path d="M26.4295 12.1082
L26.0296 12.1082
" />
<path d="M26.4295 14.6482
L26.0296 14.6482
" />
<path d="M26.4295 17.1883
L26.0296 17.1883
" />
<path d="M26.4295 19.7282
L26.0296 19.7282
" />
<path d="M26.4295 22.2682
L26.0296 22.2682
" />
<path d="M26.4295 24.8082
L26.0296 24.8082
" />
<path d="M26.4295 27.3483
L26.0296 27.3483
" />
<path d="M3.5696 27.3483
L3.1695 27.3483
" />
<path d="M3.5696 24.8082
L3.1695 24.8082
" />
<path d="M3.5696 22.2682
L3.1695 22.2682
" />
<path d="M3.5696 19.7282
L3.1695 19.7282
" />
<path d="M3.5696 17.1883
L3.1695 17.1883
" />
<path d="M3.5696 14.6482
L3.1695 14.6482
" />
<path d="M3.5696 12.1082
L3.1695 12.1082
" />
<path d="M3.5696 9.5682
L3.1695 9.5682
" />
<path style="fill:#4D7FC4; fill-opacity:1.0000; stroke:none;fill-rule:evenodd;"
d="M 74.8045,19.8982
72.6046,19.8982
72.6046,22.0983
74.8045,22.0983
Z" /> 
</g>
<g style="fill:#4D7FC4; fill-opacity:1.0000; stroke:none;">
<circle cx="73.7045" cy="31.1582" r="1.1000" /> 
<path style="fill:#4D7FC4; fill-opacity:1.0000; stroke:none;fill-rule:evenodd;"
d="M 80.2245,34.7982
82.4245,34.7982
82.4245,32.5983
80.2245,32.5983
Z" /> 
<circle cx="81.3246" cy="23.5382" r="1.1000" /> 
<circle cx="30.5245" cy="28.6982" r="0.8000" /> 
</g>
<g style="fill:#4D7FC4; fill-opacity:1.0000; stroke:none;">
<circle cx="30.5245" cy="33.6983" r="0.8000" /> 
</g>
<g style="fill:#4D7FC4; fill-opacity:1.0000; stroke:none;">
<circle cx="61.4857" cy="21.6432" r="0.4000" /> 
</g>
<g style="fill:none; 
stroke:#4D7FC4; stroke-width:2.0000; stroke-opacity:1; 
stroke-linecap:round; stroke-linejoin:round;">
<path d="M81.3246 33.6983
L94.0245 33.6983
" />
<path d="M73.7045 31.1582
L76.2445 33.6983
" />
<path d="M76.2445 33.6983
L81.3246 33.6983
" />
<path d="M94.0245 7.4582
L94.0245 4.0583
" />
<path d="M77.1923 28.1392
L75.6103 26.5572
" />
<path d="M91.1745 26.0782
L85.9256 20.8292
" />
<path d="M83.2304 28.1392
L77.1923 28.1392
" />
<path d="M75.6103 26.5572
L71.7987 26.5572
" />
<path d="M68.4727 29.8833
L66.0845 29.8833
" />
<path d="M85.9256 25.4440
L83.2304 28.1392
" />
<path d="M94.0245 26.0782
L91.1745 26.0782
" />
<path d="M84.7645 19.6683
L85.9256 20.8292
" />
<path d="M71.7987 26.5572
L68.4727 29.8833
" />
<path d="M85.9256 20.8292
L85.9256 25.4440
" />
<path d="M85.9256 20.8292
L84.7645 19.6683
" />
</g>
<g style="fill:none; 
stroke:#4D7FC4; stroke-width:0.2500; stroke-opacity:1; 
stroke-linecap:round; stroke-linejoin:round;">
<path d="M30.5245 33.6983
L29.3894 32.5630
" />
<path d="M29.3894 32.5630
L29.3894 26.9784
" />
<path d="M29.3894 26.9784
L36.6846 19.6832
" />
<path d="M35.6045 8.2982
L38.2308 10.9245
" />
<path d="M38.2308 10.9245
L38.2308 20.9919
" />
<path d="M35.6045 3.2182
L35.6045 8.2982
" />
<path d="M36.6846 34.8582
L30.5245 28.6982
" />
<path d="M38.2308 20.9919
L30.5245 28.6982
" />
<path d="M36.6846 35.0832
L36.6846 34.8582
" />
<path d="M66.0845 15.9182
L68.6245 13.3782
" />
<path d="M59.0279 15.9182
L66.0845 15.9182
" />
<path d="M46.8912 3.2182
L46.8912 3.7815
" />
<path d="M45.7645 3.2182
L46.8912 3.2182
" />
<path d="M46.8912 3.7815
L59.0279 15.9182
" />
<path d="M69.7732 14.1551
L69.7732 11.9870
" />
<path d="M61.4857 21.6432
L62.2851 21.6432
" />
<path d="M62.2851 21.6432
L61.4857 21.6432
" />
<path d="M69.7732 11.9870
L68.6245 10.8383
" />
<path d="M62.2851 21.6432
L69.7732 14.1551
" />
<path d="M61.4857 21.6432
L62.2851 21.6432
" />
<path style="fill:#E8B2A7; fill-opacity:1.0000; stroke:none;fill-rule:evenodd;"
d="M 54.1831,36.9772
54.1815,36.9775
54.1814,36.9775
54.1785,36.9774
54.1694,36.9799
54.1601,36.9818
54.1576,36.9831
54.1575,36.9832
54.1559,36.9836
54.1550,36.9840
54.0788,37.0221
54.0780,37.0226
54.0705,37.0284
54.0627,37.0336
54.0619,37.0342
54.0238,37.0723
54.0232,37.0731
54.0102,37.0926
54.0094,37.0953
54.0094,37.1413
54.0108,37.1448
54.0433,37.1773
54.0468,37.1787
54.0927,37.1787
54.0955,37.1779
54.1150,37.1649
54.1157,37.1643
54.1464,37.1336
54.1994,37.1071
54.3592,37.1071
54.4122,37.1336
54.4354,37.1568
54.4619,37.2098
54.4619,37.2601
54.4320,37.3498
53.9857,37.7961
53.9851,37.7969
53.9721,37.8164
53.9713,37.8191
53.9713,37.8651
53.9727,37.8686
54.0052,37.9011
54.0078,37.9024
54.0307,37.9070
54.0317,37.9071
54.5269,37.9071
54.5279,37.9070
54.5509,37.9024
54.5534,37.9011
54.5859,37.8686
54.5874,37.8651
54.5874,37.8191
54.5859,37.8156
54.5534,37.7831
54.5509,37.7818
54.5279,37.7772
54.5269,37.7771
54.1886,37.7771
54.5348,37.4309
54.5354,37.4302
54.5364,37.4288
54.5364,37.4287
54.5385,37.4267
54.5432,37.4185
54.5484,37.4107
54.5493,37.4079
54.5493,37.4079
54.5501,37.4064
54.5505,37.4055
54.5886,37.2912
54.5888,37.2903
54.5900,37.2809
54.5918,37.2717
54.5919,37.2707
54.5919,37.1945
54.5918,37.1935
54.5915,37.1919
54.5915,37.1918
54.5916,37.1889
54.5891,37.1798
54.5873,37.1705
54.5859,37.1680
54.5859,37.1680
54.5854,37.1663
54.5851,37.1654
54.5470,37.0892
54.5465,37.0884
54.5407,37.0809
54.5354,37.0731
54.5348,37.0723
54.4967,37.0342
54.4959,37.0336
54.4881,37.0284
54.4806,37.0226
54.4798,37.0221
54.4036,36.9840
54.4027,36.9836
54.4011,36.9832
54.4010,36.9831
54.3985,36.9818
54.3892,36.9799
54.3801,36.9774
54.3772,36.9775
54.3772,36.9775
54.3755,36.9772
54.3745,36.9771
54.1841,36.9771
Z" /> 
<path style="fill:#E8B2A7; fill-opacity:1.0000; stroke:none;fill-rule:evenodd;"
d="M 52.2402,36.9772
52.2386,36.9775
52.2385,36.9775
52.2356,36.9774
52.2265,36.9799
52.2173,36.9818
52.2147,36.9831
52.2147,36.9832
52.2131,36.9836
52.2121,36.9840
52.1360,37.0221
52.1351,37.0226
52.1277,37.0284
52.1198,37.0336
52.1191,37.0342
52.0810,37.0723
52.0803,37.0731
52.0751,37.0809
52.0693,37.0884
52.0688,37.0892
52.0307,37.1654
52.0303,37.1663
52.0299,37.1679
52.0299,37.1680
52.0285,37.1705
52.0267,37.1798
52.0242,37.1889
52.0242,37.1918
52.0243,37.1919
52.0239,37.1935
52.0238,37.1945
52.0238,37.2707
52.0239,37.2717
52.0243,37.2733
52.0242,37.2733
52.0242,37.2763
52.0267,37.2853
52.0285,37.2946
52.0299,37.2972
52.0299,37.2972
52.0303,37.2988
52.0307,37.2997
52.0688,37.3759
52.0693,37.3768
52.0751,37.3842
52.0803,37.3921
52.0810,37.3928
52.1191,37.4309
52.1198,37.4315
52.1277,37.4368
52.1351,37.4426
52.1360,37.4431
52.2121,37.4812
52.2131,37.4815
52.2190,37.4832
52.2245,37.4858
52.2255,37.4861
52.3709,37.5225
52.4313,37.5527
52.4545,37.5758
52.4810,37.6289
52.4810,37.6744
52.4545,37.7274
52.4313,37.7506
52.3783,37.7771
52.2137,37.7771
52.1094,37.7423
52.1084,37.7421
52.0852,37.7392
52.0823,37.7397
52.0413,37.7602
52.0388,37.7631
52.0242,37.8067
52.0245,37.8105
52.0451,37.8516
52.0470,37.8537
52.0674,37.8653
52.0683,37.8657
52.1826,37.9038
52.1835,37.9040
52.1929,37.9052
52.2021,37.9070
52.2031,37.9071
52.3936,37.9071
52.3946,37.9070
52.3962,37.9067
52.3963,37.9067
52.3992,37.9068
52.4083,37.9043
52.4175,37.9024
52.4201,37.9011
52.4201,37.9010
52.4217,37.9006
52.4227,37.9002
52.4989,37.8621
52.4997,37.8616
52.5071,37.8558
52.5150,37.8506
52.5158,37.8500
52.5538,37.8119
52.5545,37.8111
52.5597,37.8033
52.5655,37.7958
52.5660,37.7950
52.6041,37.7188
52.6045,37.7179
52.6049,37.7163
52.6049,37.7162
52.6063,37.7137
52.6082,37.7044
52.6106,37.6953
52.6106,37.6924
52.6106,37.6923
52.6109,37.6907
52.6110,37.6897
52.6110,37.6135
52.6109,37.6126
52.6106,37.6109
52.6106,37.6109
52.6106,37.6080
52.6082,37.5989
52.6063,37.5896
52.6049,37.5870
52.6049,37.5870
52.6045,37.5854
52.6041,37.5845
52.5660,37.5083
52.5655,37.5074
52.5597,37.5000
52.5545,37.4921
52.5538,37.4914
52.5158,37.4533
52.5150,37.4527
52.5071,37.4474
52.4997,37.4416
52.4989,37.4411
52.4227,37.4030
52.4218,37.4027
52.4158,37.4010
52.4103,37.3984
52.4094,37.3981
52.2639,37.3617
52.2035,37.3315
52.1804,37.3084
52.1538,37.2553
52.1538,37.2098
52.1804,37.1568
52.2035,37.1336
52.2566,37.1071
52.4211,37.1071
52.5254,37.1419
52.5264,37.1421
52.5496,37.1450
52.5525,37.1445
52.5935,37.1240
52.5960,37.1211
52.6106,37.0775
52.6103,37.0737
52.5898,37.0326
52.5878,37.0305
52.5674,37.0189
52.5665,37.0185
52.4522,36.9804
52.4513,36.9802
52.4419,36.9790
52.4327,36.9772
52.4317,36.9771
52.2412,36.9771
Z" /> 
<path style="fill:#E8B2A7; fill-opacity:1.0000; stroke:none;fill-rule:evenodd;"
d="M 50.4623,36.9831
50.4299,37.0156
50.4285,37.0182
50.4239,37.0411
50.4238,37.0421
50.4238,37.8421
50.4239,37.8431
50.4285,37.8660
50.4299,37.8686
50.4623,37.9011
50.4649,37.9024
50.4879,37.9070
50.4888,37.9071
50.8698,37.9071
50.8708,37.9070
50.8937,37.9024
50.8963,37.9011
50.9288,37.8686
50.9302,37.8651
50.9302,37.8191
50.9288,37.8156
50.8963,37.7831
50.8937,37.7818
50.8708,37.7772
50.8698,37.7771
50.5538,37.7771
50.5538,37.0421
50.5537,37.0411
50.5492,37.0182
50.5478,37.0156
50.5153,36.9831
50.5118,36.9817
50.4659,36.9817
Z" /> 
<path style="fill:#E8B2A7; fill-opacity:1.0000; stroke:none;fill-rule:evenodd;"
d="M 48.9641,36.9772
48.9624,36.9775
48.9624,36.9775
48.9595,36.9774
48.9503,36.9799
48.9411,36.9818
48.9385,36.9831
48.9385,36.9832
48.9369,36.9836
48.9360,36.9840
48.8598,37.0221
48.8589,37.0226
48.8515,37.0284
48.8436,37.0336
48.8429,37.0342
48.7667,37.1104
48.7661,37.1112
48.7631,37.1157
48.7619,37.1164
48.7599,37.1185
48.7569,37.1248
48.7531,37.1307
48.7522,37.1334
48.7522,37.1348
48.7499,37.1397
48.7496,37.1406
48.7115,37.2930
48.7113,37.2940
48.7110,37.3009
48.7096,37.3078
48.7096,37.3088
48.7096,37.5754
48.7096,37.5764
48.7110,37.5833
48.7113,37.5902
48.7115,37.5912
48.7496,37.7436
48.7499,37.7445
48.7522,37.7494
48.7522,37.7508
48.7531,37.7536
48.7569,37.7594
48.7599,37.7657
48.7619,37.7678
48.7631,37.7686
48.7661,37.7730
48.7667,37.7738
48.8429,37.8500
48.8436,37.8506
48.8515,37.8558
48.8589,37.8616
48.8598,37.8621
48.9360,37.9002
48.9369,37.9006
48.9385,37.9010
48.9385,37.9011
48.9411,37.9024
48.9504,37.9043
48.9595,37.9068
48.9624,37.9067
48.9624,37.9067
48.9641,37.9070
48.9650,37.9071
49.1174,37.9071
49.1184,37.9070
49.1200,37.9067
49.1201,37.9067
49.1230,37.9068
49.1321,37.9043
49.1413,37.9024
49.1439,37.9011
49.1439,37.9010
49.1456,37.9006
49.1465,37.9002
49.2227,37.8621
49.2235,37.8616
49.2310,37.8558
49.2388,37.8506
49.2396,37.8500
49.3158,37.7738
49.3164,37.7730
49.3194,37.7686
49.3206,37.7678
49.3225,37.7657
49.3255,37.7594
49.3294,37.7536
49.3302,37.7508
49.3302,37.7494
49.3325,37.7445
49.3328,37.7436
49.3709,37.5912
49.3711,37.5902
49.3714,37.5833
49.3728,37.5764
49.3729,37.5754
49.3729,37.3168
49.2429,37.3168
49.2429,37.5674
49.2111,37.6946
49.1551,37.7506
49.1021,37.7771
48.9804,37.7771
48.9273,37.7506
48.8713,37.6946
48.8395,37.5674
48.8395,37.3168
48.8713,37.1896
48.9273,37.1336
48.9804,37.1071
49.1021,37.1071
49.1551,37.1336
49.2111,37.1896
49.2429,37.3168
49.3729,37.3168
49.3729,37.3088
49.3728,37.3078
49.3714,37.3009
49.3711,37.2940
49.3709,37.2930
49.3328,37.1406
49.3325,37.1397
49.3302,37.1348
49.3302,37.1334
49.3294,37.1307
49.3255,37.1248
49.3225,37.1185
49.3206,37.1164
49.3194,37.1157
49.3164,37.1112
49.3158,37.1104
49.2396,37.0342
49.2388,37.0336
49.2310,37.0284
49.2235,37.0226
49.2227,37.0221
49.1465,36.9840
49.1456,36.9836
49.1439,36.9832
49.1439,36.9831
49.1413,36.9818
49.1321,36.9799
49.1230,36.9774
49.1201,36.9775
49.1200,36.9775
49.1184,36.9772
49.1174,36.9771
48.9650,36.9771
Z" /> 
<path style="fill:#E8B2A7; fill-opacity:1.0000; stroke:none;fill-rule:evenodd;"
d="M 45.4593,36.9772
45.4363,36.9818
45.4338,36.9831
45.4013,37.0156
45.3999,37.0182
45.3954,37.0411
45.3953,37.0421
45.3953,37.8421
45.3954,37.8431
45.3999,37.8660
45.4013,37.8686
45.4338,37.9011
45.4363,37.9024
45.4593,37.9070
45.4603,37.9071
45.8412,37.9071
45.8422,37.9070
45.8652,37.9024
45.8677,37.9011
45.9002,37.8686
45.9016,37.8651
45.9016,37.8191
45.9002,37.8156
45.8677,37.7831
45.8652,37.7818
45.8422,37.7772
45.8412,37.7771
45.5253,37.7771
45.5253,37.4881
45.7269,37.4881
45.7279,37.4880
45.7509,37.4834
45.7534,37.4820
45.7859,37.4496
45.7874,37.4460
45.7874,37.4001
45.7859,37.3966
45.7534,37.3641
45.7509,37.3627
45.7279,37.3582
45.7269,37.3581
45.5253,37.3581
45.5253,37.1071
45.8412,37.1071
45.8422,37.1070
45.8652,37.1024
45.8677,37.1011
45.9002,37.0686
45.9016,37.0651
45.9016,37.0191
45.9002,37.0156
45.8677,36.9831
45.8652,36.9818
45.8422,36.9772
45.8412,36.9771
45.4603,36.9771
Z" /> 
<path style="fill:#E8B2A7; fill-opacity:1.0000; stroke:none;fill-rule:evenodd;"
d="M 44.8879,36.9772
44.8786,36.9790
44.8692,36.9802
44.8683,36.9804
44.7540,37.0185
44.7531,37.0189
44.7516,37.0198
44.7516,37.0198
44.7488,37.0206
44.7410,37.0258
44.7328,37.0305
44.7308,37.0326
44.7307,37.0327
44.7293,37.0336
44.7286,37.0342
44.6524,37.1104
44.6518,37.1112
44.6465,37.1190
44.6407,37.1265
44.6402,37.1273
44.6021,37.2035
44.6018,37.2044
44.6002,37.2103
44.5975,37.2159
44.5972,37.2168
44.5591,37.3692
44.5590,37.3702
44.5586,37.3771
44.5573,37.3840
44.5572,37.3850
44.5572,37.4992
44.5573,37.5002
44.5586,37.5071
44.5590,37.5140
44.5591,37.5150
44.5972,37.6674
44.5975,37.6683
44.6002,37.6739
44.6018,37.6798
44.6021,37.6807
44.6402,37.7569
44.6407,37.7577
44.6465,37.7652
44.6518,37.7730
44.6524,37.7738
44.7286,37.8500
44.7293,37.8506
44.7307,37.8515
44.7308,37.8516
44.7328,37.8537
44.7410,37.8584
44.7488,37.8636
44.7516,37.8644
44.7516,37.8644
44.7531,37.8653
44.7540,37.8657
44.8683,37.9038
44.8692,37.9040
44.8786,37.9052
44.8879,37.9070
44.8888,37.9071
44.9650,37.9071
44.9660,37.9070
44.9753,37.9052
44.9846,37.9040
44.9856,37.9038
45.0999,37.8657
45.1008,37.8653
45.1022,37.8644
45.1023,37.8644
45.1051,37.8636
45.1129,37.8584
45.1211,37.8537
45.1231,37.8516
45.1231,37.8515
45.1245,37.8506
45.1253,37.8500
45.1634,37.8119
45.1640,37.8111
45.1770,37.7917
45.1778,37.7889
45.1778,37.7430
45.1764,37.7394
45.1439,37.7069
45.1404,37.7055
45.0944,37.7055
45.0917,37.7063
45.0722,37.7193
45.0714,37.7200
45.0442,37.7472
44.9545,37.7771
44.8994,37.7771
44.8097,37.7472
44.7518,37.6893
44.7216,37.6289
44.6872,37.4912
44.6872,37.3930
44.7216,37.2553
44.7518,37.1949
44.8097,37.1370
44.8994,37.1071
44.9545,37.1071
45.0442,37.1370
45.0714,37.1643
45.0722,37.1649
45.0917,37.1779
45.0944,37.1787
45.1404,37.1787
45.1439,37.1773
45.1439,37.1773
45.1764,37.1448
45.1778,37.1413
45.1778,37.0953
45.1770,37.0926
45.1640,37.0731
45.1634,37.0723
45.1253,37.0342
45.1245,37.0336
45.1231,37.0327
45.1231,37.0326
45.1211,37.0305
45.1129,37.0259
45.1051,37.0206
45.1023,37.0198
45.1022,37.0198
45.1008,37.0189
45.0999,37.0185
44.9856,36.9804
44.9846,36.9802
44.9753,36.9790
44.9660,36.9772
44.9650,36.9771
44.8888,36.9771
Z" /> 
<path style="fill:#E8B2A7; fill-opacity:1.0000; stroke:none;fill-rule:evenodd;"
d="M 53.3802,37.2596
53.3774,37.2621
53.3577,37.3037
53.3573,37.3065
53.3607,37.3297
53.3610,37.3306
53.5514,37.8640
53.5518,37.8649
53.5639,37.8849
53.5660,37.8869
53.5673,37.8875
53.5679,37.8887
53.5707,37.8913
53.5707,37.8913
53.5895,37.8980
53.6075,37.9065
53.6113,37.9067
53.6113,37.9067
53.6126,37.9063
53.6139,37.9067
53.6178,37.9065
53.6178,37.9065
53.6358,37.8980
53.6546,37.8913
53.6574,37.8887
53.6580,37.8875
53.6593,37.8869
53.6614,37.8849
53.6734,37.8649
53.6739,37.8640
53.8643,37.3306
53.8646,37.3297
53.8680,37.3065
53.8676,37.3037
53.8479,37.2621
53.8451,37.2596
53.8018,37.2441
53.7980,37.2443
53.7565,37.2640
53.7544,37.2659
53.7423,37.2860
53.7419,37.2869
53.6126,37.6488
53.4834,37.2869
53.4830,37.2860
53.4709,37.2659
53.4688,37.2640
53.4273,37.2443
53.4235,37.2441
Z" /> 
<path style="fill:#E8B2A7; fill-opacity:1.0000; stroke:none;fill-rule:evenodd;"
d="M 46.9740,36.9782
46.9680,36.9817
46.9611,36.9817
46.9576,36.9831
46.9471,36.9936
46.9342,37.0010
46.9318,37.0041
46.9318,37.0041
46.9300,37.0107
46.9251,37.0156
46.9237,37.0182
46.9192,37.0411
46.9191,37.0421
46.9191,37.8421
46.9192,37.8431
46.9237,37.8660
46.9251,37.8686
46.9576,37.9011
46.9611,37.9025
47.0070,37.9025
47.0106,37.9011
47.0430,37.8686
47.0444,37.8660
47.0490,37.8431
47.0491,37.8421
47.0491,37.2869
47.3848,37.8744
47.3853,37.8752
47.4007,37.8928
47.4032,37.8944
47.4098,37.8962
47.4147,37.9011
47.4183,37.9025
47.4331,37.9025
47.4475,37.9064
47.4513,37.9060
47.4573,37.9025
47.4642,37.9025
47.4677,37.9011
47.4782,37.8906
47.4911,37.8832
47.4935,37.8802
47.4953,37.8735
47.5002,37.8686
47.5016,37.8660
47.5061,37.8431
47.5062,37.8421
47.5062,37.0421
47.5061,37.0411
47.5016,37.0182
47.5002,37.0156
47.4677,36.9831
47.4642,36.9817
47.4183,36.9817
47.4147,36.9831
47.3822,37.0156
47.3809,37.0182
47.3763,37.0411
47.3762,37.0421
47.3762,37.5973
47.0405,37.0099
47.0399,37.0091
47.0246,36.9914
47.0221,36.9898
47.0155,36.9880
47.0106,36.9831
47.0070,36.9817
46.9922,36.9817
46.9778,36.9778
Z" /> 
<path style="fill:#E8B2A7; fill-opacity:1.0000; stroke:none;fill-rule:evenodd;"
d="M 46.1831,36.9772
46.1601,36.9818
46.1576,36.9831
46.1251,37.0156
46.1237,37.0182
46.1192,37.0411
46.1191,37.0421
46.1191,37.8421
46.1192,37.8431
46.1237,37.8660
46.1251,37.8686
46.1576,37.9011
46.1611,37.9025
46.2070,37.9025
46.2106,37.9011
46.2430,37.8686
46.2444,37.8660
46.2490,37.8431
46.2491,37.8421
46.2491,37.5262
46.3407,37.5262
46.5880,37.8794
46.5886,37.8801
46.6055,37.8963
46.6081,37.8976
46.6533,37.9056
46.6571,37.9048
46.6947,37.8784
46.6967,37.8752
46.7047,37.8300
46.7044,37.8271
46.6949,37.8057
46.6945,37.8048
46.4984,37.5247
46.5035,37.5233
46.5128,37.5215
46.5153,37.5201
46.5154,37.5201
46.5170,37.5196
46.5179,37.5193
46.5941,37.4812
46.5949,37.4807
46.6024,37.4749
46.6102,37.4696
46.6110,37.4690
46.6491,37.4309
46.6497,37.4302
46.6549,37.4223
46.6607,37.4149
46.6613,37.4140
46.6994,37.3378
46.6997,37.3369
46.7001,37.3353
46.7002,37.3353
46.7016,37.3327
46.7034,37.3234
46.7059,37.3143
46.7058,37.3114
46.7058,37.3114
46.7061,37.3097
46.7062,37.3088
46.7062,37.2098
46.5762,37.2098
46.5762,37.2934
46.5497,37.3465
46.5265,37.3696
46.4735,37.3962
46.2491,37.3962
46.2491,37.1071
46.4735,37.1071
46.5265,37.1336
46.5497,37.1568
46.5762,37.2098
46.7062,37.2098
46.7062,37.1945
46.7061,37.1935
46.7058,37.1919
46.7058,37.1918
46.7059,37.1889
46.7034,37.1798
46.7016,37.1705
46.7002,37.1680
46.7002,37.1680
46.6997,37.1663
46.6994,37.1654
46.6613,37.0892
46.6607,37.0884
46.6549,37.0809
46.6497,37.0731
46.6491,37.0723
46.6110,37.0342
46.6102,37.0336
46.6024,37.0284
46.5949,37.0226
46.5941,37.0221
46.5179,36.9840
46.5170,36.9836
46.5154,36.9832
46.5153,36.9831
46.5128,36.9818
46.5035,36.9799
46.4944,36.9774
46.4915,36.9775
46.4915,36.9775
46.4898,36.9772
46.4888,36.9771
46.1841,36.9771
Z" /> 
<path style="fill:#E8B2A7; fill-opacity:1.0000; stroke:none;fill-rule:evenodd;"
d="M 50.0814,36.9831
50.0489,37.0156
50.0475,37.0182
50.0430,37.0411
50.0429,37.0421
50.0429,37.3581
49.7157,37.3581
49.7157,37.0421
49.7156,37.0411
49.7111,37.0182
49.7097,37.0156
49.6772,36.9831
49.6737,36.9817
49.6278,36.9817
49.6242,36.9831
49.5918,37.0156
49.5904,37.0182
49.5858,37.0411
49.5857,37.0421
49.5857,37.8421
49.5858,37.8431
49.5904,37.8660
49.5918,37.8686
49.6242,37.9011
49.6278,37.9025
49.6737,37.9025
49.6772,37.9011
49.7097,37.8686
49.7111,37.8660
49.7156,37.8431
49.7157,37.8421
49.7157,37.4881
50.0429,37.4881
50.0429,37.8421
50.0430,37.8431
50.0475,37.8660
50.0489,37.8686
50.0814,37.9011
50.0849,37.9025
50.1308,37.9025
50.1344,37.9011
50.1669,37.8686
50.1682,37.8660
50.1728,37.8431
50.1729,37.8421
50.1729,37.0421
50.1728,37.0411
50.1682,37.0182
50.1669,37.0156
50.1344,36.9831
50.1308,36.9817
50.0849,36.9817
Z" /> 
<path style="fill:#E8B2A7; fill-opacity:1.0000; stroke:none;fill-rule:evenodd;"
d="M 51.1355,37.4724
51.1125,37.4770
51.1100,37.4784
51.0775,37.5108
51.0760,37.5144
51.0760,37.5603
51.0775,37.5638
51.1100,37.5963
51.1125,37.5977
51.1355,37.6022
51.1365,37.6023
51.7460,37.6023
51.7470,37.6022
51.7699,37.5977
51.7725,37.5963
51.8049,37.5638
51.8064,37.5603
51.8064,37.5144
51.8049,37.5108
51.7725,37.4784
51.7699,37.4770
51.7470,37.4724
51.7460,37.4723
51.1365,37.4723
Z" /> 
<path style="fill:#E8B2A7; fill-opacity:1.0000; stroke:none;fill-rule:evenodd;"
d="M 47.8212,37.4724
47.7982,37.4770
47.7957,37.4784
47.7632,37.5108
47.7617,37.5144
47.7617,37.5603
47.7632,37.5638
47.7957,37.5963
47.7982,37.5977
47.8212,37.6022
47.8222,37.6023
48.4317,37.6023
48.4327,37.6022
48.4556,37.5977
48.4582,37.5963
48.4907,37.5638
48.4921,37.5603
48.4921,37.5144
48.4907,37.5108
48.4582,37.4784
48.4556,37.4770
48.4327,37.4724
48.4317,37.4723
47.8222,37.4723
Z" /> 
</g>
<g style="fill:#02FFEE; fill-opacity:0.4000; stroke:none;">
<circle cx="35.6045" cy="3.2182" r="0.8000" /> 
</g>
<g style="fill:#02FFEE; fill-opacity:0.4000; stroke:none;">
<circle cx="45.7645" cy="3.2182" r="0.8000" /> 
<circle cx="94.0245" cy="4.0583" r="1.3900" /> 
</g>
<g style="fill:#02FFEE; fill-opacity:0.4000; stroke:none;">
<circle cx="94.0245" cy="7.4582" r="1.3900" /> 
</g>
<g style="fill:#02FFEE; fill-opacity:0.4000; stroke:none;">
<circle cx="84.1046" cy="4.0583" r="1.3900" /> 
</g>
<g style="fill:#02FFEE; fill-opacity:0.4000; stroke:none;">
<circle cx="84.1046" cy="7.4582" r="1.3900" /> 
</g>
<g style="fill:#02FFEE; fill-opacity:0.4000; stroke:none;">
<circle cx="68.6245" cy="8.2982" r="0.8000" /> 
</g>
<g style="fill:#02FFEE; fill-opacity:0.4000; stroke:none;">
<circle cx="76.2445" cy="10.8383" r="0.4000" /> 
<path style="fill:#02FFEE; fill-opacity:0.4000; stroke:none;fill-rule:evenodd;"
d="M 67.8246,13.9283
67.8436,14.0239
67.8978,14.1050
67.9789,14.1592
68.0746,14.1783
69.1745,14.1783
69.2702,14.1592
69.3513,14.1050
69.4055,14.0239
69.4245,13.9283
69.4245,12.8282
69.4055,12.7326
69.3513,12.6515
69.2702,12.5973
69.1745,12.5782
68.0746,12.5782
67.9789,12.5973
67.8978,12.6515
67.8436,12.7326
67.8246,12.8282
Z" /> 
</g>
<g style="fill:#02FFEE; fill-opacity:0.4000; stroke:none;">
<circle cx="68.6245" cy="10.8383" r="0.8000" /> 
</g>
<g style="fill:#02FFEE; fill-opacity:0.4000; stroke:none;">
<circle cx="76.2445" cy="8.2982" r="0.8000" /> 
</g>
<g style="fill:#02FFEE; fill-opacity:0.4000; stroke:none;">
<circle cx="76.2445" cy="13.3782" r="0.8000" /> 
<path style="fill:#02FFEE; fill-opacity:0.4000; stroke:none;fill-rule:evenodd;"
d="M 95.2946,17.1883
92.7545,17.1883
92.7545,19.7282
95.2946,19.7282
Z" /> 
</g>
<g style="fill:#02FFEE; fill-opacity:0.4000; stroke:none;">
<circle cx="94.0245" cy="26.0782" r="1.2700" /> 
</g>
<g style="fill:#02FFEE; fill-opacity:0.4000; stroke:none;">
<circle cx="94.0245" cy="33.6983" r="1.2700" /> 
</g>
<g style="fill:#02FFEE; fill-opacity:0.4000; stroke:none;">
<circle cx="35.6045" cy="8.2982" r="0.8000" /> 
</g>
<g style="fill:#02FFEE; fill-opacity:0.4000; stroke:none;">
<circle cx="45.7645" cy="8.2982" r="0.8000" /> 
<path style="fill:#02FFEE; fill-opacity:0.4000; stroke:none;fill-rule:evenodd;"
d="M 67.2345,25.8833
67.2345,23.8833
64.9346,23.8833
64.9346,25.8833
Z" /> 
<circle cx="66.0845" cy="29.8833" r="1.1500" /> 
</g>
<g style="fill:#02FFEE; fill-opacity:0.4000; stroke:none;">
<circle cx="36.6846" cy="19.6832" r="1.1500" /> 
</g>
<g style="fill:#02FFEE; fill-opacity:0.4000; stroke:none;">
<circle cx="36.6846" cy="35.0832" r="1.1500" /> 
</g>
<g style="fill:#02FFEE; fill-opacity:0.4000; stroke:none;">
<circle cx="82.9646" cy="12.1682" r="0.9000" /> 
</g>
<g style="fill:#02FFEE; fill-opacity:0.4000; stroke:none;">
<circle cx="84.7645" cy="19.6683" r="0.9000" /> 
</g>
<g style="fill:#02FFEE; fill-opacity:0.4000; stroke:none;">
<circle cx="55.9245" cy="5.7582" r="0.8000" /> 
</g>
<g style="fill:#02FFEE; fill-opacity:0.4000; stroke:none;">
<circle cx="63.5445" cy="8.2982" r="0.4000" /> 
<path style="fill:#02FFEE; fill-opacity:0.4000; stroke:none;fill-rule:evenodd;"
d="M 55.1245,11.3882
55.1436,11.4839
55.1978,11.5650
55.2789,11.6192
55.3745,11.6382
56.4746,11.6382
56.5702,11.6192
56.6513,11.5650
56.7055,11.4839
56.7246,11.3882
56.7246,10.2882
56.7055,10.1926
56.6513,10.1115
56.5702,10.0573
56.4746,10.0382
55.3745,10.0382
55.2789,10.0573
55.1978,10.1115
55.1436,10.1926
55.1245,10.2882
Z" /> 
</g>
<g style="fill:#02FFEE; fill-opacity:0.4000; stroke:none;">
<circle cx="55.9245" cy="8.2982" r="0.8000" /> 
</g>
<g style="fill:#02FFEE; fill-opacity:0.4000; stroke:none;">
<circle cx="63.5445" cy="5.7582" r="0.8000" /> 
</g>
<g style="fill:#02FFEE; fill-opacity:0.4000; stroke:none;">
<circle cx="63.5445" cy="10.8383" r="0.8000" /> 
<path style="fill:#02FFEE; fill-opacity:0.4000; stroke:none;fill-rule:evenodd;"
d="M 27.2295,10.5682
27.2295,8.5682
25.2295,8.5682
25.2295,10.5682
Z" /> 
</g>
<g style="fill:none; 
stroke:#02FFEE; stroke-width:1.6000; stroke-opacity:1; 
stroke-linecap:round; stroke-linejoin:round;">
<path d="M26.4295 12.1082
L26.0296 12.1082
" />
<path d="M26.4295 14.6482
L26.0296 14.6482
" />
<path d="M26.4295 17.1883
L26.0296 17.1883
" />
<path d="M26.4295 19.7282
L26.0296 19.7282
" />
<path d="M26.4295 22.2682
L26.0296 22.2682
" />
<path d="M26.4295 24.8082
L26.0296 24.8082
" />
<path d="M26.4295 27.3483
L26.0296 27.3483
" />
<path d="M3.5696 27.3483
L3.1695 27.3483
" />
<path d="M3.5696 24.8082
L3.1695 24.8082
" />
<path d="M3.5696 22.2682
L3.1695 22.2682
" />
<path d="M3.5696 19.7282
L3.1695 19.7282
" />
<path d="M3.5696 17.1883
L3.1695 17.1883
" />
<path d="M3.5696 14.6482
L3.1695 14.6482
" />
<path d="M3.5696 12.1082
L3.1695 12.1082
" />
<path d="M3.5696 9.5682
L3.1695 9.5682
" />
<path style="fill:#02FFEE; fill-opacity:0.4000; stroke:none;fill-rule:evenodd;"
d="M 74.8045,19.8982
72.6046,19.8982
72.6046,22.0983
74.8045,22.0983
Z" /> 
</g>
<g style="fill:#02FFEE; fill-opacity:0.4000; stroke:none;">
<circle cx="73.7045" cy="31.1582" r="1.1000" /> 
<path style="fill:#02FFEE; fill-opacity:0.4000; stroke:none;fill-rule:evenodd;"
d="M 80.2245,34.7982
82.4245,34.7982
82.4245,32.5983
80.2245,32.5983
Z" /> 
<circle cx="81.3246" cy="23.5382" r="1.1000" /> 
<circle cx="30.5245" cy="28.6982" r="0.8000" /> 
</g>
<g style="fill:#02FFEE; fill-opacity:0.4000; stroke:none;">
<circle cx="30.5245" cy="33.6983" r="0.8000" /> 
</g>
<g style="fill:none; 
stroke:#D0D2CD; stroke-width:0.1000; stroke-opacity:1; 
stroke-linecap:round; stroke-linejoin:round;">
<path d="M99.1045 0.6783
L0.0445 0.6783
" />
<path d="M0.0445 38.7782
L99.1045 38.7782
" />
<path d="M0.0445 0.6783
L0.0445 38.7782
" />
<path d="M99.1045 38.7782
L99.1045 0.6783
" />
</g>
<g style="fill:#FFFFFF; fill-opacity:1.0000; stroke:none;">
<circle cx="61.4857" cy="21.6432" r="0.2000" /> 
</g>
<g style="fill:#FFFFFF; fill-opacity:1.0000; stroke:none;">
<circle cx="35.6045" cy="3.2182" r="0.4000" /> 
</g>
<g style="fill:#FFFFFF; fill-opacity:1.0000; stroke:none;">
<circle cx="45.7645" cy="3.2182" r="0.4000" /> 
</g>
<g style="fill:#FFFFFF; fill-opacity:1.0000; stroke:none;">
<circle cx="94.0245" cy="4.0583" r="0.8900" /> 
</g>
<g style="fill:#FFFFFF; fill-opacity:1.0000; stroke:none;">
<circle cx="94.0245" cy="7.4582" r="0.8900" /> 
</g>
<g style="fill:#FFFFFF; fill-opacity:1.0000; stroke:none;">
<circle cx="84.1046" cy="4.0583" r="0.8900" /> 
</g>
<g style="fill:#FFFFFF; fill-opacity:1.0000; stroke:none;">
<circle cx="84.1046" cy="7.4582" r="0.8900" /> 
</g>
<g style="fill:#FFFFFF; fill-opacity:1.0000; stroke:none;">
<circle cx="68.6245" cy="8.2982" r="0.4000" /> 
</g>
<g style="fill:#FFFFFF; fill-opacity:1.0000; stroke:none;">
<circle cx="76.2445" cy="10.8383" r="0.4000" /> 
</g>
<g style="fill:#FFFFFF; fill-opacity:1.0000; stroke:none;">
<circle cx="68.6245" cy="13.3782" r="0.4000" /> 
</g>
<g style="fill:#FFFFFF; fill-opacity:1.0000; stroke:none;">
<circle cx="68.6245" cy="10.8383" r="0.4000" /> 
</g>
<g style="fill:#FFFFFF; fill-opacity:1.0000; stroke:none;">
<circle cx="76.2445" cy="8.2982" r="0.4000" /> 
</g>
<g style="fill:#FFFFFF; fill-opacity:1.0000; stroke:none;">
<circle cx="76.2445" cy="13.3782" r="0.4000" /> 
</g>
<g style="fill:#FFFFFF; fill-opacity:1.0000; stroke:none;">
<circle cx="94.0245" cy="18.4582" r="0.8000" /> 
</g>
<g style="fill:#FFFFFF; fill-opacity:1.0000; stroke:none;">
<circle cx="94.0245" cy="26.0782" r="0.8000" /> 
</g>
<g style="fill:#FFFFFF; fill-opacity:1.0000; stroke:none;">
<circle cx="94.0245" cy="33.6983" r="0.8000" /> 
</g>
<g style="fill:#FFFFFF; fill-opacity:1.0000; stroke:none;">
<circle cx="35.6045" cy="8.2982" r="0.4000" /> 
</g>
<g style="fill:#FFFFFF; fill-opacity:1.0000; stroke:none;">
<circle cx="45.7645" cy="8.2982" r="0.4000" /> 
</g>
<g style="fill:#FFFFFF; fill-opacity:1.0000; stroke:none;">
<circle cx="66.0845" cy="24.8833" r="0.5000" /> 
</g>
<g style="fill:#FFFFFF; fill-opacity:1.0000; stroke:none;">
<circle cx="66.0845" cy="29.8833" r="0.5000" /> 
</g>
<g style="fill:#FFFFFF; fill-opacity:1.0000; stroke:none;">
<circle cx="36.6846" cy="19.6832" r="0.5000" /> 
</g>
<g style="fill:#FFFFFF; fill-opacity:1.0000; stroke:none;">
<circle cx="36.6846" cy="35.0832" r="0.5000" /> 
</g>
<g style="fill:#FFFFFF; fill-opacity:1.0000; stroke:none;">
<circle cx="82.9646" cy="12.1682" r="0.4000" /> 
</g>
<g style="fill:#FFFFFF; fill-opacity:1.0000; stroke:none;">
<circle cx="84.7645" cy="19.6683" r="0.4000" /> 
</g>
<g style="fill:#FFFFFF; fill-opacity:1.0000; stroke:none;">
<circle cx="55.9245" cy="5.7582" r="0.4000" /> 
</g>
<g style="fill:#FFFFFF; fill-opacity:1.0000; stroke:none;">
<circle cx="63.5445" cy="8.2982" r="0.4000" /> 
</g>
<g style="fill:#FFFFFF; fill-opacity:1.0000; stroke:none;">
<circle cx="55.9245" cy="10.8383" r="0.4000" /> 
</g>
<g style="fill:#FFFFFF; fill-opacity:1.0000; stroke:none;">
<circle cx="55.9245" cy="8.2982" r="0.4000" /> 
</g>
<g style="fill:#FFFFFF; fill-opacity:1.0000; stroke:none;">
<circle cx="63.5445" cy="5.7582" r="0.4000" /> 
</g>
<g style="fill:#FFFFFF; fill-opacity:1.0000; stroke:none;">
<circle cx="63.5445" cy="10.8383" r="0.4000" /> 
</g>
<g style="fill:#FFFFFF; fill-opacity:1.0000; stroke:none;">
<circle cx="26.2295" cy="9.5682" r="0.5000" /> 
</g>
<g style="fill:#FFFFFF; fill-opacity:1.0000; stroke:none;">
<circle cx="26.2295" cy="12.1082" r="0.5000" /> 
</g>
<g style="fill:#FFFFFF; fill-opacity:1.0000; stroke:none;">
<circle cx="26.2295" cy="14.6482" r="0.5000" /> 
</g>
<g style="fill:#FFFFFF; fill-opacity:1.0000; stroke:none;">
<circle cx="26.2295" cy="17.1883" r="0.5000" /> 
</g>
<g style="fill:#FFFFFF; fill-opacity:1.0000; stroke:none;">
<circle cx="26.2295" cy="19.7282" r="0.5000" /> 
</g>
<g style="fill:#FFFFFF; fill-opacity:1.0000; stroke:none;">
<circle cx="26.2295" cy="22.2682" r="0.5000" /> 
</g>
<g style="fill:#FFFFFF; fill-opacity:1.0000; stroke:none;">
<circle cx="26.2295" cy="24.8082" r="0.5000" /> 
</g>
<g style="fill:#FFFFFF; fill-opacity:1.0000; stroke:none;">
<circle cx="26.2295" cy="27.3483" r="0.5000" /> 
</g>
<g style="fill:#FFFFFF; fill-opacity:1.0000; stroke:none;">
<circle cx="3.3695" cy="27.3483" r="0.5000" /> 
</g>
<g style="fill:#FFFFFF; fill-opacity:1.0000; stroke:none;">
<circle cx="3.3695" cy="24.8082" r="0.5000" /> 
</g>
<g style="fill:#FFFFFF; fill-opacity:1.0000; stroke:none;">
<circle cx="3.3695" cy="22.2682" r="0.5000" /> 
</g>
<g style="fill:#FFFFFF; fill-opacity:1.0000; stroke:none;">
<circle cx="3.3695" cy="19.7282" r="0.5000" /> 
</g>
<g style="fill:#FFFFFF; fill-opacity:1.0000; stroke:none;">
<circle cx="3.3695" cy="17.1883" r="0.5000" /> 
</g>
<g style="fill:#FFFFFF; fill-opacity:1.0000; stroke:none;">
<circle cx="3.3695" cy="14.6482" r="0.5000" /> 
</g>
<g style="fill:#FFFFFF; fill-opacity:1.0000; stroke:none;">
<circle cx="3.3695" cy="12.1082" r="0.5000" /> 
</g>
<g style="fill:#FFFFFF; fill-opacity:1.0000; stroke:none;">
<circle cx="3.3695" cy="9.5682" r="0.5000" /> 
</g>
<g style="fill:#FFFFFF; fill-opacity:1.0000; stroke:none;">
<circle cx="73.7045" cy="20.9982" r="0.5500" /> 
</g>
<g style="fill:#FFFFFF; fill-opacity:1.0000; stroke:none;">
<circle cx="73.7045" cy="31.1582" r="0.5500" /> 
</g>
<g style="fill:#FFFFFF; fill-opacity:1.0000; stroke:none;">
<circle cx="81.3246" cy="33.6983" r="0.5500" /> 
</g>
<g style="fill:#FFFFFF; fill-opacity:1.0000; stroke:none;">
<circle cx="81.3246" cy="23.5382" r="0.5500" /> 
</g>
<g style="fill:#FFFFFF; fill-opacity:1.0000; stroke:none;">
<circle cx="30.5245" cy="28.6982" r="0.4000" /> 
</g>
<g style="fill:#FFFFFF; fill-opacity:1.0000; stroke:none;">
<circle cx="30.5245" cy="33.6983" r="0.4000" /> 
</g> 
</svg>
