<?xml version="1.0" standalone="no"?>
 <!DOCTYPE svg PUBLIC "-//W3C//DTD SVG 1.1//EN" 
 "http://www.w3.org/Graphics/SVG/1.1/DTD/svg11.dtd"> 
<svg
  xmlns:svg="http://www.w3.org/2000/svg"
  xmlns="http://www.w3.org/2000/svg"
  xmlns:xlink="http://www.w3.org/1999/xlink"
  version="1.1"
  width="99.9490mm" height="39.2684mm" viewBox="0.0000 0.0000 99.9490 39.2684">
<title>SVG Image created as MaxPilot-pcb-front.svg date 2026/02/20 18:40:42 </title>
  <desc>Image generated by PCBNEW </desc>
<g style="fill:#000000; fill-opacity:1.0000;stroke:#000000; stroke-opacity:1.0000;
stroke-linecap:round; stroke-linejoin:round;"
 transform="translate(0 0) scale(1 1)">
</g>
<g style="fill:#C83434; fill-opacity:1.0000; stroke:none;">
<circle cx="66.8882" cy="16.2182" r="0.8000" /> 
</g>
<g style="fill:#C83434; fill-opacity:1.0000; stroke:none;">
<circle cx="66.8882" cy="26.3782" r="0.8000" /> 
<circle cx="5.9282" cy="3.5182" r="1.3900" /> 
</g>
<g style="fill:#C83434; fill-opacity:1.0000; stroke:none;">
<circle cx="5.9282" cy="6.9182" r="1.3900" /> 
</g>
<g style="fill:#C83434; fill-opacity:1.0000; stroke:none;">
<circle cx="15.8483" cy="6.9182" r="1.3900" /> 
</g>
<g style="fill:#C83434; fill-opacity:1.0000; stroke:none;">
<circle cx="15.8483" cy="3.5182" r="1.3900" /> 
<path style="fill:#C83434; fill-opacity:1.0000; stroke:none;fill-rule:evenodd;"
d="M 35.5932,24.3182
37.1932,24.3182
37.1932,25.9183
35.5932,25.9183
Z" /> 
</g>
<g style="fill:#C83434; fill-opacity:1.0000; stroke:none;">
<circle cx="33.8532" cy="25.1182" r="0.8000" /> 
<circle cx="31.3133" cy="25.1182" r="0.8000" /> 
<circle cx="31.3133" cy="32.7383" r="0.8000" /> 
<circle cx="33.8532" cy="32.7383" r="0.8000" /> 
<circle cx="36.3933" cy="32.7383" r="0.8000" /> 
<path style="fill:#C83434; fill-opacity:1.0000; stroke:none;fill-rule:evenodd;"
d="M 4.4283,24.8782
7.4282,24.8782
7.4282,27.8782
4.4283,27.8782
Z" /> 
<circle cx="5.9282" cy="31.4582" r="1.5000" /> 
</g>
<g style="fill:#C83434; fill-opacity:1.0000; stroke:none;">
<circle cx="5.9282" cy="36.5382" r="1.5000" /> 
</g>
<g style="fill:#C83434; fill-opacity:1.0000; stroke:none;">
<circle cx="59.2682" cy="16.2182" r="0.8000" /> 
</g>
<g style="fill:#C83434; fill-opacity:1.0000; stroke:none;">
<circle cx="59.2682" cy="26.3782" r="0.8000" /> 
<path style="fill:#C83434; fill-opacity:1.0000; stroke:none;fill-rule:evenodd;"
d="M 23.2357,9.6382
23.2357,7.6382
25.5358,7.6382
25.5358,9.6382
Z" /> 
<circle cx="24.3857" cy="13.6382" r="1.1500" /> 
</g>
<g style="fill:#C83434; fill-opacity:1.0000; stroke:none;">
<circle cx="53.7858" cy="3.4383" r="1.1500" /> 
</g>
<g style="fill:#C83434; fill-opacity:1.0000; stroke:none;">
<circle cx="53.7858" cy="18.8382" r="1.1500" /> 
</g>
<g style="fill:#C83434; fill-opacity:1.0000; stroke:none;">
<circle cx="8.4682" cy="16.2182" r="0.9000" /> 
</g>
<g style="fill:#C83434; fill-opacity:1.0000; stroke:none;">
<circle cx="15.9682" cy="18.0182" r="0.9000" /> 
<path style="fill:#C83434; fill-opacity:1.0000; stroke:none;fill-rule:evenodd;"
d="M 48.2933,24.3182
49.8932,24.3182
49.8932,25.9183
48.2933,25.9183
Z" /> 
</g>
<g style="fill:#C83434; fill-opacity:1.0000; stroke:none;">
<circle cx="46.5532" cy="25.1182" r="0.8000" /> 
<circle cx="44.0132" cy="25.1182" r="0.8000" /> 
<circle cx="44.0132" cy="32.7383" r="0.8000" /> 
<circle cx="46.5532" cy="32.7383" r="0.8000" /> 
<circle cx="49.0932" cy="32.7383" r="0.8000" /> 
<path style="fill:#C83434; fill-opacity:1.0000; stroke:none;fill-rule:evenodd;"
d="M 72.7232,10.8682
72.7232,8.8682
74.7232,8.8682
74.7232,10.8682
Z" /> 
</g>
<g style="fill:none; 
stroke:#C83434; stroke-width:1.6000; stroke-opacity:1; 
stroke-linecap:round; stroke-linejoin:round;">
<path d="M73.5232 12.4082
L73.9232 12.4082
" />
<path d="M73.5232 14.9482
L73.9232 14.9482
" />
<path d="M73.5232 17.4883
L73.9232 17.4883
" />
<path d="M73.5232 20.0282
L73.9232 20.0282
" />
<path d="M73.5232 22.5682
L73.9232 22.5682
" />
<path d="M73.5232 25.1082
L73.9232 25.1082
" />
<path d="M73.5232 27.6482
L73.9232 27.6482
" />
<path d="M96.3832 27.6482
L96.7832 27.6482
" />
<path d="M96.3832 25.1082
L96.7832 25.1082
" />
<path d="M96.3832 22.5682
L96.7832 22.5682
" />
<path d="M96.3832 20.0282
L96.7832 20.0282
" />
<path d="M96.3832 17.4883
L96.7832 17.4883
" />
<path d="M96.3832 14.9482
L96.7832 14.9482
" />
<path d="M96.3832 12.4082
L96.7832 12.4082
" />
<path d="M96.3832 9.8682
L96.7832 9.8682
" />
<path style="fill:#C83434; fill-opacity:1.0000; stroke:none;fill-rule:evenodd;"
d="M 24.8082,32.8982
24.8082,35.0983
22.6082,35.0983
22.6082,32.8982
Z" /> 
</g>
<g style="fill:#C83434; fill-opacity:1.0000; stroke:none;">
<circle cx="13.5482" cy="33.9982" r="1.1000" /> 
<path style="fill:#C83434; fill-opacity:1.0000; stroke:none;fill-rule:evenodd;"
d="M 12.4482,27.4782
12.4482,25.2782
14.6482,25.2782
14.6482,27.4782
Z" /> 
<circle cx="23.7082" cy="26.3782" r="1.1000" /> 
<circle cx="61.8082" cy="8.5983" r="0.8000" /> 
</g>
<g style="fill:#C83434; fill-opacity:1.0000; stroke:none;">
<circle cx="66.8083" cy="8.5983" r="0.8000" /> 
</g>
<g style="fill:none; 
stroke:#C83434; stroke-width:2.0000; stroke-opacity:1; 
stroke-linecap:round; stroke-linejoin:round;">
<path d="M49.1082 36.5382
L26.2482 36.5382
" />
<path d="M49.0932 32.7383
L49.0932 36.5232
" />
<path d="M26.2482 36.5382
L26.2482 33.9982
" />
</g>
<g style="fill:none; 
stroke:#C83434; stroke-width:0.2500; stroke-opacity:1; 
stroke-linecap:round; stroke-linejoin:round;">
<path d="M49.0932 36.5232
L49.1082 36.5382
" />
</g>
<g style="fill:none; 
stroke:#C83434; stroke-width:2.0000; stroke-opacity:1; 
stroke-linecap:round; stroke-linejoin:round;">
<path d="M26.2482 33.9982
L23.7082 33.9982
" />
<path d="M13.5482 26.3782
L13.5482 33.9982
" />
</g>
<g style="fill:none; 
stroke:#C83434; stroke-width:0.2500; stroke-opacity:1; 
stroke-linecap:round; stroke-linejoin:round;">
<path d="M53.7858 3.4383
L61.6482 3.4383
" />
<path d="M61.6482 3.4383
L66.8083 8.5983
" />
<path d="M66.8882 16.2182
L59.2682 16.2182
" />
<path d="M53.7858 16.6208
L61.8082 8.5983
" />
<path d="M59.2682 11.1382
L61.8082 8.5983
" />
<path d="M53.7858 18.8382
L53.7858 16.6208
" />
<path d="M59.2682 16.2182
L59.2682 11.1382
" />
<path d="M59.2682 26.3782
L50.3532 26.3782
" />
<path d="M50.3532 26.3782
L49.0932 25.1182
" />
<path d="M38.7778 27.5028
L36.3933 25.1182
" />
<path d="M66.8882 26.3782
L65.7637 27.5028
" />
<path d="M66.8882 26.3782
L65.7637 25.2537
" />
<path d="M65.7637 27.5028
L38.7778 27.5028
" />
<path d="M36.4032 22.5682
L73.7232 22.5682
" />
<path d="M33.8532 25.1182
L36.4032 22.5682
" />
<path d="M46.5532 25.1182
L47.9787 23.6928
" />
<path d="M92.9187 23.6928
L96.5832 20.0282
" />
<path d="M47.9787 23.6928
L92.9187 23.6928
" />
</g>
<g style="fill:none; 
stroke:#F2EDA1; stroke-width:0.1500; stroke-opacity:1; 
stroke-linecap:round; stroke-linejoin:round;">
<text x="56.7282" y="37.0382"
textLength="6.5833" font-size="1.3333" lengthAdjust="spacingAndGlyphs"
text-anchor="middle" opacity="0" stroke-opacity="0">MaxPilot</text>
<g class="stroked-text"><desc>MaxPilot</desc>
<path d="M53.7937 36.9931
L53.9187 35.9931
" />
<path d="M53.9187 35.9931
L54.1628 36.7074
" />
<path d="M54.1628 36.7074
L54.5854 35.9931
" />
<path d="M54.5854 35.9931
L54.4604 36.9931
" />
<path d="M55.3652 36.9931
L55.4306 36.4693
" />
<path d="M55.4306 36.4693
L55.3949 36.3740
" />
<path d="M55.3949 36.3740
L55.3056 36.3264
" />
<path d="M55.3056 36.3264
L55.1152 36.3264
" />
<path d="M55.1152 36.3264
L55.0140 36.3740
" />
<path d="M55.3711 36.9455
L55.2699 36.9931
" />
<path d="M55.2699 36.9931
L55.0318 36.9931
" />
<path d="M55.0318 36.9931
L54.9425 36.9455
" />
<path d="M54.9425 36.9455
L54.9068 36.8502
" />
<path d="M54.9068 36.8502
L54.9187 36.7550
" />
<path d="M54.9187 36.7550
L54.9782 36.6597
" />
<path d="M54.9782 36.6597
L55.0794 36.6121
" />
<path d="M55.0794 36.6121
L55.3175 36.6121
" />
<path d="M55.3175 36.6121
L55.4187 36.5645
" />
<path d="M55.7461 36.9931
L56.3532 36.3264
" />
<path d="M55.8294 36.3264
L56.2699 36.9931
" />
<path d="M56.6509 36.9931
L56.7759 35.9931
" />
<path d="M56.7759 35.9931
L57.1568 35.9931
" />
<path d="M57.1568 35.9931
L57.2461 36.0407
" />
<path d="M57.2461 36.0407
L57.2878 36.0883
" />
<path d="M57.2878 36.0883
L57.3235 36.1835
" />
<path d="M57.3235 36.1835
L57.3056 36.3264
" />
<path d="M57.3056 36.3264
L57.2461 36.4216
" />
<path d="M57.2461 36.4216
L57.1925 36.4693
" />
<path d="M57.1925 36.4693
L57.0913 36.5169
" />
<path d="M57.0913 36.5169
L56.7104 36.5169
" />
<path d="M57.6509 36.9931
L57.7342 36.3264
" />
<path d="M57.7759 35.9931
L57.7223 36.0407
" />
<path d="M57.7223 36.0407
L57.7640 36.0883
" />
<path d="M57.7640 36.0883
L57.8175 36.0407
" />
<path d="M57.8175 36.0407
L57.7759 35.9931
" />
<path d="M57.7759 35.9931
L57.7640 36.0883
" />
<path d="M58.2699 36.9931
L58.1806 36.9455
" />
<path d="M58.1806 36.9455
L58.1449 36.8502
" />
<path d="M58.1449 36.8502
L58.2521 35.9931
" />
<path d="M58.7937 36.9931
L58.7044 36.9455
" />
<path d="M58.7044 36.9455
L58.6628 36.8978
" />
<path d="M58.6628 36.8978
L58.6271 36.8026
" />
<path d="M58.6271 36.8026
L58.6628 36.5169
" />
<path d="M58.6628 36.5169
L58.7223 36.4216
" />
<path d="M58.7223 36.4216
L58.7759 36.3740
" />
<path d="M58.7759 36.3740
L58.8771 36.3264
" />
<path d="M58.8771 36.3264
L59.0199 36.3264
" />
<path d="M59.0199 36.3264
L59.1092 36.3740
" />
<path d="M59.1092 36.3740
L59.1509 36.4216
" />
<path d="M59.1509 36.4216
L59.1866 36.5169
" />
<path d="M59.1866 36.5169
L59.1509 36.8026
" />
<path d="M59.1509 36.8026
L59.0913 36.8978
" />
<path d="M59.0913 36.8978
L59.0378 36.9455
" />
<path d="M59.0378 36.9455
L58.9366 36.9931
" />
<path d="M58.9366 36.9931
L58.7937 36.9931
" />
<path d="M59.4961 36.3264
L59.8771 36.3264
" />
<path d="M59.6806 35.9931
L59.5735 36.8502
" />
<path d="M59.5735 36.8502
L59.6092 36.9455
" />
<path d="M59.6092 36.9455
L59.6985 36.9931
" />
<path d="M59.6985 36.9931
L59.7937 36.9931
" />
</g><text x="64.3482" y="37.0382"
textLength="3.4881" font-size="1.3333" lengthAdjust="spacingAndGlyphs"
text-anchor="middle" opacity="0" stroke-opacity="0">V1.3</text>
<g class="stroked-text"><desc>V1.3</desc>
<path d="M62.8244 35.9931
L63.1578 36.9931
" />
<path d="M63.1578 36.9931
L63.4911 35.9931
" />
<path d="M64.3482 36.9931
L63.7768 36.9931
" />
<path d="M64.0625 36.9931
L64.0625 35.9931
" />
<path d="M64.0625 35.9931
L63.9673 36.1359
" />
<path d="M63.9673 36.1359
L63.8721 36.2312
" />
<path d="M63.8721 36.2312
L63.7768 36.2788
" />
<path d="M64.7768 36.8978
L64.8244 36.9455
" />
<path d="M64.8244 36.9455
L64.7768 36.9931
" />
<path d="M64.7768 36.9931
L64.7292 36.9455
" />
<path d="M64.7292 36.9455
L64.7768 36.8978
" />
<path d="M64.7768 36.8978
L64.7768 36.9931
" />
<path d="M65.1578 35.9931
L65.7768 35.9931
" />
<path d="M65.7768 35.9931
L65.4435 36.3740
" />
<path d="M65.4435 36.3740
L65.5863 36.3740
" />
<path d="M65.5863 36.3740
L65.6816 36.4216
" />
<path d="M65.6816 36.4216
L65.7292 36.4693
" />
<path d="M65.7292 36.4693
L65.7768 36.5645
" />
<path d="M65.7768 36.5645
L65.7768 36.8026
" />
<path d="M65.7768 36.8026
L65.7292 36.8978
" />
<path d="M65.7292 36.8978
L65.6816 36.9455
" />
<path d="M65.6816 36.9455
L65.5863 36.9931
" />
<path d="M65.5863 36.9931
L65.3006 36.9931
" />
<path d="M65.3006 36.9931
L65.2054 36.9455
" />
<path d="M65.2054 36.9455
L65.1578 36.8978
" />
</g><g transform="rotate(-90.000000 69.2583 21.2982)">
<text x="69.2583" y="21.7982"
textLength="2.2024" font-size="1.3333" lengthAdjust="spacingAndGlyphs"
text-anchor="middle" opacity="0" stroke-opacity="0">R2</text>
</g>
<g class="stroked-text"><desc>R2</desc>
<path d="M69.7131 21.4649
L69.2369 21.7982
" />
<path d="M69.7131 22.0363
L68.7131 22.0363
" />
<path d="M68.7131 22.0363
L68.7131 21.6554
" />
<path d="M68.7131 21.6554
L68.7607 21.5602
" />
<path d="M68.7607 21.5602
L68.8083 21.5125
" />
<path d="M68.8083 21.5125
L68.9035 21.4649
" />
<path d="M68.9035 21.4649
L69.0464 21.4649
" />
<path d="M69.0464 21.4649
L69.1416 21.5125
" />
<path d="M69.1416 21.5125
L69.1893 21.5602
" />
<path d="M69.1893 21.5602
L69.2369 21.6554
" />
<path d="M69.2369 21.6554
L69.2369 22.0363
" />
<path d="M68.8083 21.0840
L68.7607 21.0363
" />
<path d="M68.7607 21.0363
L68.7131 20.9411
" />
<path d="M68.7131 20.9411
L68.7131 20.7030
" />
<path d="M68.7131 20.7030
L68.7607 20.6078
" />
<path d="M68.7607 20.6078
L68.8083 20.5602
" />
<path d="M68.8083 20.5602
L68.9035 20.5125
" />
<path d="M68.9035 20.5125
L68.9988 20.5125
" />
<path d="M68.9988 20.5125
L69.1416 20.5602
" />
<path d="M69.1416 20.5602
L69.7131 21.1316
" />
<path d="M69.7131 21.1316
L69.7131 20.5125
" />
</g><text x="10.8882" y="1.3482"
textLength="2.0595" font-size="1.3333" lengthAdjust="spacingAndGlyphs"
text-anchor="middle" opacity="0" stroke-opacity="0">F1</text>
<g class="stroked-text"><desc>F1</desc>
<path d="M10.5549 0.7793
L10.2216 0.7793
" />
<path d="M10.2216 1.3031
L10.2216 0.3031
" />
<path d="M10.2216 0.3031
L10.6978 0.3031
" />
<path d="M11.6025 1.3031
L11.0311 1.3031
" />
<path d="M11.3168 1.3031
L11.3168 0.3031
" />
<path d="M11.3168 0.3031
L11.2216 0.4459
" />
<path d="M11.2216 0.4459
L11.1263 0.5412
" />
<path d="M11.1263 0.5412
L11.0311 0.5888
" />
</g><g transform="rotate(-90.000000 33.8682 28.9183)">
<text x="33.8682" y="29.4182"
textLength="2.2500" font-size="1.3333" lengthAdjust="spacingAndGlyphs"
text-anchor="middle" opacity="0" stroke-opacity="0">U3</text>
</g>
<g class="stroked-text"><desc>U3</desc>
<path d="M33.3231 29.6802
L34.1326 29.6802
" />
<path d="M34.1326 29.6802
L34.2278 29.6325
" />
<path d="M34.2278 29.6325
L34.2754 29.5849
" />
<path d="M34.2754 29.5849
L34.3231 29.4897
" />
<path d="M34.3231 29.4897
L34.3231 29.2992
" />
<path d="M34.3231 29.2992
L34.2754 29.2040
" />
<path d="M34.2754 29.2040
L34.2278 29.1563
" />
<path d="M34.2278 29.1563
L34.1326 29.1087
" />
<path d="M34.1326 29.1087
L33.3231 29.1087
" />
<path d="M33.3231 28.7278
L33.3231 28.1087
" />
<path d="M33.3231 28.1087
L33.7040 28.4421
" />
<path d="M33.7040 28.4421
L33.7040 28.2992
" />
<path d="M33.7040 28.2992
L33.7516 28.2040
" />
<path d="M33.7516 28.2040
L33.7993 28.1563
" />
<path d="M33.7993 28.1563
L33.8945 28.1087
" />
<path d="M33.8945 28.1087
L34.1326 28.1087
" />
<path d="M34.1326 28.1087
L34.2278 28.1563
" />
<path d="M34.2278 28.1563
L34.2754 28.2040
" />
<path d="M34.2754 28.2040
L34.3231 28.2992
" />
<path d="M34.3231 28.2992
L34.3231 28.5849
" />
<path d="M34.3231 28.5849
L34.2754 28.6802
" />
<path d="M34.2754 28.6802
L34.2278 28.7278
" />
</g><g transform="rotate(-90.000000 10.5782 31.4282)">
<text x="10.5782" y="31.9282"
textLength="1.9643" font-size="1.3333" lengthAdjust="spacingAndGlyphs"
text-anchor="middle" opacity="0" stroke-opacity="0">J1</text>
</g>
<g class="stroked-text"><desc>J1</desc>
<path d="M10.0331 31.7616
L10.7474 31.7616
" />
<path d="M10.7474 31.7616
L10.8902 31.8092
" />
<path d="M10.8902 31.8092
L10.9855 31.9044
" />
<path d="M10.9855 31.9044
L11.0331 32.0473
" />
<path d="M11.0331 32.0473
L11.0331 32.1425
" />
<path d="M11.0331 30.7616
L11.0331 31.3330
" />
<path d="M11.0331 31.0473
L10.0331 31.0473
" />
<path d="M10.0331 31.0473
L10.1759 31.1425
" />
<path d="M10.1759 31.1425
L10.2712 31.2378
" />
<path d="M10.2712 31.2378
L10.3188 31.3330
" />
</g><g transform="rotate(-90.000000 61.6382 21.2982)">
<text x="61.6382" y="21.7982"
textLength="2.2024" font-size="1.3333" lengthAdjust="spacingAndGlyphs"
text-anchor="middle" opacity="0" stroke-opacity="0">R1</text>
</g>
<g class="stroked-text"><desc>R1</desc>
<path d="M62.0931 21.4649
L61.6169 21.7982
" />
<path d="M62.0931 22.0363
L61.0931 22.0363
" />
<path d="M61.0931 22.0363
L61.0931 21.6554
" />
<path d="M61.0931 21.6554
L61.1407 21.5602
" />
<path d="M61.1407 21.5602
L61.1883 21.5125
" />
<path d="M61.1883 21.5125
L61.2835 21.4649
" />
<path d="M61.2835 21.4649
L61.4264 21.4649
" />
<path d="M61.4264 21.4649
L61.5216 21.5125
" />
<path d="M61.5216 21.5125
L61.5693 21.5602
" />
<path d="M61.5693 21.5602
L61.6169 21.6554
" />
<path d="M61.6169 21.6554
L61.6169 22.0363
" />
<path d="M62.0931 20.5125
L62.0931 21.0840
" />
<path d="M62.0931 20.7982
L61.0931 20.7982
" />
<path d="M61.0931 20.7982
L61.2359 20.8935
" />
<path d="M61.2359 20.8935
L61.3312 20.9887
" />
<path d="M61.3312 20.9887
L61.3788 21.0840
" />
</g><g transform="rotate(-90.000000 20.4458 8.0883)">
<text x="20.4458" y="8.5883"
textLength="3.1548" font-size="1.3333" lengthAdjust="spacingAndGlyphs"
text-anchor="middle" opacity="0" stroke-opacity="0">PS1</text>
</g>
<g class="stroked-text"><desc>PS1</desc>
<path d="M20.9006 9.3025
L19.9006 9.3025
" />
<path d="M19.9006 9.3025
L19.9006 8.9216
" />
<path d="M19.9006 8.9216
L19.9482 8.8263
" />
<path d="M19.9482 8.8263
L19.9958 8.7787
" />
<path d="M19.9958 8.7787
L20.0910 8.7311
" />
<path d="M20.0910 8.7311
L20.2339 8.7311
" />
<path d="M20.2339 8.7311
L20.3291 8.7787
" />
<path d="M20.3291 8.7787
L20.3768 8.8263
" />
<path d="M20.3768 8.8263
L20.4244 8.9216
" />
<path d="M20.4244 8.9216
L20.4244 9.3025
" />
<path d="M20.8529 8.3502
L20.9006 8.2073
" />
<path d="M20.9006 8.2073
L20.9006 7.9692
" />
<path d="M20.9006 7.9692
L20.8529 7.8740
" />
<path d="M20.8529 7.8740
L20.8053 7.8263
" />
<path d="M20.8053 7.8263
L20.7101 7.7787
" />
<path d="M20.7101 7.7787
L20.6149 7.7787
" />
<path d="M20.6149 7.7787
L20.5196 7.8263
" />
<path d="M20.5196 7.8263
L20.4720 7.8740
" />
<path d="M20.4720 7.8740
L20.4244 7.9692
" />
<path d="M20.4244 7.9692
L20.3768 8.1597
" />
<path d="M20.3768 8.1597
L20.3291 8.2549
" />
<path d="M20.3291 8.2549
L20.2815 8.3025
" />
<path d="M20.2815 8.3025
L20.1863 8.3502
" />
<path d="M20.1863 8.3502
L20.0910 8.3502
" />
<path d="M20.0910 8.3502
L19.9958 8.3025
" />
<path d="M19.9958 8.3025
L19.9482 8.2549
" />
<path d="M19.9482 8.2549
L19.9006 8.1597
" />
<path d="M19.9006 8.1597
L19.9006 7.9216
" />
<path d="M19.9006 7.9216
L19.9482 7.7787
" />
<path d="M20.9006 6.8263
L20.9006 7.3978
" />
<path d="M20.9006 7.1121
L19.9006 7.1121
" />
<path d="M19.9006 7.1121
L20.0434 7.2073
" />
<path d="M20.0434 7.2073
L20.1387 7.3025
" />
<path d="M20.1387 7.3025
L20.1863 7.3978
" />
</g><text x="12.2182" y="20.8682"
textLength="3.0595" font-size="1.3333" lengthAdjust="spacingAndGlyphs"
text-anchor="middle" opacity="0" stroke-opacity="0">RV1</text>
<g class="stroked-text"><desc>RV1</desc>
<path d="M11.6230 20.8231
L11.2897 20.3469
" />
<path d="M11.0516 20.8231
L11.0516 19.8231
" />
<path d="M11.0516 19.8231
L11.4325 19.8231
" />
<path d="M11.4325 19.8231
L11.5278 19.8707
" />
<path d="M11.5278 19.8707
L11.5754 19.9183
" />
<path d="M11.5754 19.9183
L11.6230 20.0135
" />
<path d="M11.6230 20.0135
L11.6230 20.1564
" />
<path d="M11.6230 20.1564
L11.5754 20.2516
" />
<path d="M11.5754 20.2516
L11.5278 20.2993
" />
<path d="M11.5278 20.2993
L11.4325 20.3469
" />
<path d="M11.4325 20.3469
L11.0516 20.3469
" />
<path d="M11.9087 19.8231
L12.2421 20.8231
" />
<path d="M12.2421 20.8231
L12.5754 19.8231
" />
<path d="M13.4325 20.8231
L12.8611 20.8231
" />
<path d="M13.1468 20.8231
L13.1468 19.8231
" />
<path d="M13.1468 19.8231
L13.0516 19.9659
" />
<path d="M13.0516 19.9659
L12.9563 20.0612
" />
<path d="M12.9563 20.0612
L12.8611 20.1088
" />
</g><g transform="rotate(-90.000000 51.4232 28.9282)">
<text x="51.4232" y="29.4282"
textLength="2.2500" font-size="1.3333" lengthAdjust="spacingAndGlyphs"
text-anchor="middle" opacity="0" stroke-opacity="0">U2</text>
</g>
<g class="stroked-text"><desc>U2</desc>
<path d="M50.8781 29.6902
L51.6876 29.6902
" />
<path d="M51.6876 29.6902
L51.7828 29.6425
" />
<path d="M51.7828 29.6425
L51.8304 29.5949
" />
<path d="M51.8304 29.5949
L51.8781 29.4997
" />
<path d="M51.8781 29.4997
L51.8781 29.3092
" />
<path d="M51.8781 29.3092
L51.8304 29.2140
" />
<path d="M51.8304 29.2140
L51.7828 29.1663
" />
<path d="M51.7828 29.1663
L51.6876 29.1187
" />
<path d="M51.6876 29.1187
L50.8781 29.1187
" />
<path d="M50.9733 28.6902
L50.9257 28.6425
" />
<path d="M50.9257 28.6425
L50.8781 28.5473
" />
<path d="M50.8781 28.5473
L50.8781 28.3092
" />
<path d="M50.8781 28.3092
L50.9257 28.2140
" />
<path d="M50.9257 28.2140
L50.9733 28.1663
" />
<path d="M50.9733 28.1663
L51.0685 28.1187
" />
<path d="M51.0685 28.1187
L51.1638 28.1187
" />
<path d="M51.1638 28.1187
L51.3066 28.1663
" />
<path d="M51.3066 28.1663
L51.8781 28.7378
" />
<path d="M51.8781 28.7378
L51.8781 28.1187
" />
</g><text x="95.7232" y="37.3682"
textLength="2.2500" font-size="1.3333" lengthAdjust="spacingAndGlyphs"
text-anchor="middle" opacity="0" stroke-opacity="0">U1</text>
<g class="stroked-text"><desc>U1</desc>
<path d="M94.9613 36.3231
L94.9613 37.1326
" />
<path d="M94.9613 37.1326
L95.0090 37.2278
" />
<path d="M95.0090 37.2278
L95.0566 37.2754
" />
<path d="M95.0566 37.2754
L95.1518 37.3231
" />
<path d="M95.1518 37.3231
L95.3423 37.3231
" />
<path d="M95.3423 37.3231
L95.4375 37.2754
" />
<path d="M95.4375 37.2754
L95.4852 37.2278
" />
<path d="M95.4852 37.2278
L95.5328 37.1326
" />
<path d="M95.5328 37.1326
L95.5328 36.3231
" />
<path d="M96.5328 37.3231
L95.9613 37.3231
" />
<path d="M96.2471 37.3231
L96.2471 36.3231
" />
<path d="M96.2471 36.3231
L96.1518 36.4659
" />
<path d="M96.1518 36.4659
L96.0566 36.5612
" />
<path d="M96.0566 36.5612
L95.9613 36.6088
" />
</g><text x="18.6282" y="36.9682"
textLength="2.2024" font-size="1.3333" lengthAdjust="spacingAndGlyphs"
text-anchor="middle" opacity="0" stroke-opacity="0">D1</text>
<g class="stroked-text"><desc>D1</desc>
<path d="M17.8902 36.9231
L17.8902 35.9231
" />
<path d="M17.8902 35.9231
L18.1282 35.9231
" />
<path d="M18.1282 35.9231
L18.2711 35.9707
" />
<path d="M18.2711 35.9707
L18.3663 36.0659
" />
<path d="M18.3663 36.0659
L18.4140 36.1612
" />
<path d="M18.4140 36.1612
L18.4616 36.3516
" />
<path d="M18.4616 36.3516
L18.4616 36.4945
" />
<path d="M18.4616 36.4945
L18.4140 36.6850
" />
<path d="M18.4140 36.6850
L18.3663 36.7802
" />
<path d="M18.3663 36.7802
L18.2711 36.8755
" />
<path d="M18.2711 36.8755
L18.1282 36.9231
" />
<path d="M18.1282 36.9231
L17.8902 36.9231
" />
<path d="M19.4140 36.9231
L18.8425 36.9231
" />
<path d="M19.1282 36.9231
L19.1282 35.9231
" />
<path d="M19.1282 35.9231
L19.0330 36.0659
" />
<path d="M19.0330 36.0659
L18.9378 36.1612
" />
<path d="M18.9378 36.1612
L18.8425 36.2088
" />
</g><text x="23.7082" y="36.5983"
textLength="1.2500" font-size="1.3333" lengthAdjust="spacingAndGlyphs"
text-anchor="middle" opacity="0" stroke-opacity="0">K</text>
<g class="stroked-text"><desc>K</desc>
<path d="M23.4463 36.5531
L23.4463 35.5531
" />
<path d="M24.0178 36.5531
L23.5892 35.9816
" />
<path d="M24.0178 35.5531
L23.4463 36.1245
" />
</g><text x="18.6282" y="24.4082"
textLength="2.2024" font-size="1.3333" lengthAdjust="spacingAndGlyphs"
text-anchor="middle" opacity="0" stroke-opacity="0">D2</text>
<g class="stroked-text"><desc>D2</desc>
<path d="M17.8902 24.3631
L17.8902 23.3631
" />
<path d="M17.8902 23.3631
L18.1282 23.3631
" />
<path d="M18.1282 23.3631
L18.2711 23.4107
" />
<path d="M18.2711 23.4107
L18.3663 23.5059
" />
<path d="M18.3663 23.5059
L18.4140 23.6012
" />
<path d="M18.4140 23.6012
L18.4616 23.7916
" />
<path d="M18.4616 23.7916
L18.4616 23.9345
" />
<path d="M18.4616 23.9345
L18.4140 24.1250
" />
<path d="M18.4140 24.1250
L18.3663 24.2202
" />
<path d="M18.3663 24.2202
L18.2711 24.3154
" />
<path d="M18.2711 24.3154
L18.1282 24.3631
" />
<path d="M18.1282 24.3631
L17.8902 24.3631
" />
<path d="M18.8425 23.4583
L18.8902 23.4107
" />
<path d="M18.8902 23.4107
L18.9854 23.3631
" />
<path d="M18.9854 23.3631
L19.2235 23.3631
" />
<path d="M19.2235 23.3631
L19.3187 23.4107
" />
<path d="M19.3187 23.4107
L19.3663 23.4583
" />
<path d="M19.3663 23.4583
L19.4140 23.5535
" />
<path d="M19.4140 23.5535
L19.4140 23.6488
" />
<path d="M19.4140 23.6488
L19.3663 23.7916
" />
<path d="M19.3663 23.7916
L18.7949 24.3631
" />
<path d="M18.7949 24.3631
L19.4140 24.3631
" />
</g><text x="13.5482" y="24.7782"
textLength="1.2500" font-size="1.3333" lengthAdjust="spacingAndGlyphs"
text-anchor="middle" opacity="0" stroke-opacity="0">K</text>
<g class="stroked-text"><desc>K</desc>
<path d="M13.2863 24.7331
L13.2863 23.7331
" />
<path d="M13.8578 24.7331
L13.4292 24.1616
" />
<path d="M13.8578 23.7331
L13.2863 24.3045
" />
</g><text x="64.3083" y="6.5982"
textLength="2.2024" font-size="1.3333" lengthAdjust="spacingAndGlyphs"
text-anchor="middle" opacity="0" stroke-opacity="0">C1</text>
<g class="stroked-text"><desc>C1</desc>
<path d="M64.1416 6.4578
L64.0940 6.5054
" />
<path d="M64.0940 6.5054
L63.9511 6.5531
" />
<path d="M63.9511 6.5531
L63.8559 6.5531
" />
<path d="M63.8559 6.5531
L63.7130 6.5054
" />
<path d="M63.7130 6.5054
L63.6178 6.4102
" />
<path d="M63.6178 6.4102
L63.5702 6.3150
" />
<path d="M63.5702 6.3150
L63.5225 6.1245
" />
<path d="M63.5225 6.1245
L63.5225 5.9816
" />
<path d="M63.5225 5.9816
L63.5702 5.7912
" />
<path d="M63.5702 5.7912
L63.6178 5.6959
" />
<path d="M63.6178 5.6959
L63.7130 5.6007
" />
<path d="M63.7130 5.6007
L63.8559 5.5531
" />
<path d="M63.8559 5.5531
L63.9511 5.5531
" />
<path d="M63.9511 5.5531
L64.0940 5.6007
" />
<path d="M64.0940 5.6007
L64.1416 5.6483
" />
<path d="M65.0940 6.5531
L64.5225 6.5531
" />
<path d="M64.8083 6.5531
L64.8083 5.5531
" />
<path d="M64.8083 5.5531
L64.7130 5.6959
" />
<path d="M64.7130 5.6959
L64.6178 5.7912
" />
<path d="M64.6178 5.7912
L64.5225 5.8388
" />
</g></g>
<g style="fill:none; 
stroke:#F2EDA1; stroke-width:0.1200; stroke-opacity:1; 
stroke-linecap:round; stroke-linejoin:round;">
<path d="M65.5182 18.0282
L65.5182 24.5682
" />
<path d="M68.2583 18.0282
L65.5182 18.0282
" />
<path d="M68.2583 24.5682
L68.2583 18.0282
" />
<path d="M66.8882 17.2583
L66.8882 18.0282
" />
<path d="M66.8882 25.3382
L66.8882 24.5682
" />
<path d="M65.5182 24.5682
L68.2583 24.5682
" />
<path d="M2.7882 1.7482
L2.7882 8.6883
" />
<path d="M18.9883 1.7482
L2.7882 1.7482
" />
<path d="M12.4882 7.2182
L9.2882 7.2182
" />
<path d="M9.2882 3.2182
L12.4882 3.2182
" />
<path d="M2.7882 8.6883
L18.9883 8.6883
" />
<path d="M18.9883 8.6883
L18.9883 1.7482
" />
<path d="M10.1382 5.2182
L11.6382 5.2182
" />
<path d="M37.7233 27.9282
L37.7233 26.2782
" />
<path d="M29.9832 31.5782
L37.7233 31.5782
" />
<path d="M37.7233 31.5782
L37.7233 29.9282
" />
<path d="M37.7233 26.2782
L29.9832 26.2782
" />
<path d="M29.9832 26.2782
L29.9832 31.5782
" />
<path d="M37.7233 27.9282 A1.0000 1.0000 0.0 0 0 37.7233 29.9282" />
<path d="M2.1182 39.0782
L9.7382 39.0782
" />
<path d="M9.7382 23.8382
L9.7382 39.0782
" />
<path d="M2.1182 23.8382
L2.1182 39.0782
" />
<path d="M3.3882 23.8382
L3.3882 39.0782
" />
<path d="M2.1182 23.8382
L9.7382 23.8382
" />
<path d="M59.2682 17.2583
L59.2682 18.0282
" />
<path d="M57.8982 18.0282
L57.8982 24.5682
" />
<path d="M60.6382 24.5682
L60.6382 18.0282
" />
<path d="M60.6382 18.0282
L57.8982 18.0282
" />
<path d="M59.2682 25.3382
L59.2682 24.5682
" />
<path d="M57.8982 24.5682
L60.6382 24.5682
" />
<path d="M56.1857 21.2383
L56.1857 1.0382
" />
<path d="M56.1857 1.0382
L21.9857 1.0382
" />
<path d="M21.5957 7.6382
L21.5957 9.6482
" />
<path d="M21.9857 1.0382
L21.9857 21.2383
" />
<path d="M21.9857 21.2383
L56.1857 21.2383
" />
</g>
<g style="fill:none; 
stroke:#F2EDA1; stroke-width:0.1500; stroke-opacity:1; 
stroke-linecap:round; stroke-linejoin:round;">
<path d="M6.2182 14.8682
L6.2182 19.3682
" />
<path d="M18.2182 14.8682
L18.2182 19.3682
" />
<path d="M6.2182 14.8682
L18.2182 14.8682
" />
<path d="M6.2182 19.3682
L18.2182 19.3682
" />
</g>
<g style="fill:none; 
stroke:#F2EDA1; stroke-width:0.1200; stroke-opacity:1; 
stroke-linecap:round; stroke-linejoin:round;">
<path d="M42.6833 26.2782
L42.6833 31.5782
" />
<path d="M50.4232 26.2782
L42.6833 26.2782
" />
<path d="M50.4232 27.9282
L50.4232 26.2782
" />
<path d="M50.4232 31.5782
L50.4232 29.9282
" />
<path d="M42.6833 31.5782
L50.4232 31.5782
" />
<path d="M50.4232 27.9282 A1.0000 1.0000 0.0 0 0 50.4232 29.9282" />
<path d="M72.2232 29.0882
L72.2232 3.6582
" />
<path d="M74.7632 29.0882
L74.7632 35.9883
" />
<path d="M74.7632 35.9883
L98.0832 35.9883
" />
<path d="M95.9633 1.5282
L74.3533 1.5282
" />
<path d="M98.0832 35.9883
L98.0832 3.6582
" />
<path d="M72.2232 29.0882
L74.7632 29.0882
" />
<path d="M74.3533 1.5283 A2.1300 2.1300 0.0 0 0 72.2232 3.6582" />
<path d="M98.0832 3.6582 A2.1300 2.1300 0.0 0 0 95.9532 1.5282" />
<path style="fill:#F2EDA1; fill-opacity:1.0000; 
stroke:#F2EDA1; stroke-width:0.1500; stroke-opacity:1; 
stroke-linecap:round; stroke-linejoin:round;fill-rule:evenodd;"
d="M 71.8182,9.8682
71.1833,10.5032
71.1833,9.2332
Z" /> 
</g>
<g style="fill:none; 
stroke:#F2EDA1; stroke-width:0.1200; stroke-opacity:1; 
stroke-linecap:round; stroke-linejoin:round;">
<path d="M14.8882 33.9982
L15.9082 33.9982
" />
<path d="M21.3483 35.4682
L21.3483 32.5282
" />
<path d="M20.3283 35.4682
L20.3283 32.5282
" />
<path d="M15.9082 35.4682
L21.3483 35.4682
" />
<path d="M20.4482 35.4682
L20.4482 32.5282
" />
<path d="M15.9082 32.5282
L15.9082 35.4682
" />
<path d="M20.5682 35.4682
L20.5682 32.5282
" />
<path d="M21.3483 32.5282
L15.9082 32.5282
" />
<path d="M22.3682 33.9982
L21.3483 33.9982
" />
<path d="M14.8882 26.3782
L15.9082 26.3782
" />
<path d="M16.8082 24.9082
L16.8082 27.8483
" />
<path d="M16.6883 24.9082
L16.6883 27.8483
" />
<path d="M21.3483 24.9082
L15.9082 24.9082
" />
<path d="M21.3483 27.8483
L21.3483 24.9082
" />
<path d="M15.9082 24.9082
L15.9082 27.8483
" />
<path d="M22.3682 26.3782
L21.3483 26.3782
" />
<path d="M16.9282 24.9082
L16.9282 27.8483
" />
<path d="M15.9082 27.8483
L21.3483 27.8483
" />
<path d="M60.1882 7.2283
L68.4282 7.2283
" />
<path d="M60.1882 9.9682
L68.4282 9.9682
" />
<path d="M60.1882 7.2283
L60.1882 9.9682
" />
<path d="M68.4282 7.2283
L68.4282 9.9682
" />
</g>
<g style="fill:#D864FF; fill-opacity:0.4000; stroke:none;">
<circle cx="66.8882" cy="16.2182" r="0.8000" /> 
</g>
<g style="fill:#D864FF; fill-opacity:0.4000; stroke:none;">
<circle cx="66.8882" cy="26.3782" r="0.8000" /> 
<circle cx="5.9282" cy="3.5182" r="1.3900" /> 
</g>
<g style="fill:#D864FF; fill-opacity:0.4000; stroke:none;">
<circle cx="5.9282" cy="6.9182" r="1.3900" /> 
</g>
<g style="fill:#D864FF; fill-opacity:0.4000; stroke:none;">
<circle cx="15.8483" cy="6.9182" r="1.3900" /> 
</g>
<g style="fill:#D864FF; fill-opacity:0.4000; stroke:none;">
<circle cx="15.8483" cy="3.5182" r="1.3900" /> 
<path style="fill:#D864FF; fill-opacity:0.4000; stroke:none;fill-rule:evenodd;"
d="M 35.5932,24.3182
37.1932,24.3182
37.1932,25.9183
35.5932,25.9183
Z" /> 
</g>
<g style="fill:#D864FF; fill-opacity:0.4000; stroke:none;">
<circle cx="33.8532" cy="25.1182" r="0.8000" /> 
<circle cx="31.3133" cy="25.1182" r="0.8000" /> 
<circle cx="31.3133" cy="32.7383" r="0.8000" /> 
<circle cx="33.8532" cy="32.7383" r="0.8000" /> 
<circle cx="36.3933" cy="32.7383" r="0.8000" /> 
<path style="fill:#D864FF; fill-opacity:0.4000; stroke:none;fill-rule:evenodd;"
d="M 4.4283,24.8782
7.4282,24.8782
7.4282,27.8782
4.4283,27.8782
Z" /> 
<circle cx="5.9282" cy="31.4582" r="1.5000" /> 
</g>
<g style="fill:#D864FF; fill-opacity:0.4000; stroke:none;">
<circle cx="5.9282" cy="36.5382" r="1.5000" /> 
</g>
<g style="fill:#D864FF; fill-opacity:0.4000; stroke:none;">
<circle cx="59.2682" cy="16.2182" r="0.8000" /> 
</g>
<g style="fill:#D864FF; fill-opacity:0.4000; stroke:none;">
<circle cx="59.2682" cy="26.3782" r="0.8000" /> 
<path style="fill:#D864FF; fill-opacity:0.4000; stroke:none;fill-rule:evenodd;"
d="M 23.2357,9.6382
23.2357,7.6382
25.5358,7.6382
25.5358,9.6382
Z" /> 
<circle cx="24.3857" cy="13.6382" r="1.1500" /> 
</g>
<g style="fill:#D864FF; fill-opacity:0.4000; stroke:none;">
<circle cx="53.7858" cy="3.4383" r="1.1500" /> 
</g>
<g style="fill:#D864FF; fill-opacity:0.4000; stroke:none;">
<circle cx="53.7858" cy="18.8382" r="1.1500" /> 
</g>
<g style="fill:#D864FF; fill-opacity:0.4000; stroke:none;">
<circle cx="8.4682" cy="16.2182" r="0.9000" /> 
</g>
<g style="fill:#D864FF; fill-opacity:0.4000; stroke:none;">
<circle cx="15.9682" cy="18.0182" r="0.9000" /> 
<path style="fill:#D864FF; fill-opacity:0.4000; stroke:none;fill-rule:evenodd;"
d="M 48.2933,24.3182
49.8932,24.3182
49.8932,25.9183
48.2933,25.9183
Z" /> 
</g>
<g style="fill:#D864FF; fill-opacity:0.4000; stroke:none;">
<circle cx="46.5532" cy="25.1182" r="0.8000" /> 
<circle cx="44.0132" cy="25.1182" r="0.8000" /> 
<circle cx="44.0132" cy="32.7383" r="0.8000" /> 
<circle cx="46.5532" cy="32.7383" r="0.8000" /> 
<circle cx="49.0932" cy="32.7383" r="0.8000" /> 
<path style="fill:#D864FF; fill-opacity:0.4000; stroke:none;fill-rule:evenodd;"
d="M 72.7232,10.8682
72.7232,8.8682
74.7232,8.8682
74.7232,10.8682
Z" /> 
</g>
<g style="fill:none; 
stroke:#D864FF; stroke-width:1.6000; stroke-opacity:1; 
stroke-linecap:round; stroke-linejoin:round;">
<path d="M73.5232 12.4082
L73.9232 12.4082
" />
<path d="M73.5232 14.9482
L73.9232 14.9482
" />
<path d="M73.5232 17.4883
L73.9232 17.4883
" />
<path d="M73.5232 20.0282
L73.9232 20.0282
" />
<path d="M73.5232 22.5682
L73.9232 22.5682
" />
<path d="M73.5232 25.1082
L73.9232 25.1082
" />
<path d="M73.5232 27.6482
L73.9232 27.6482
" />
<path d="M96.3832 27.6482
L96.7832 27.6482
" />
<path d="M96.3832 25.1082
L96.7832 25.1082
" />
<path d="M96.3832 22.5682
L96.7832 22.5682
" />
<path d="M96.3832 20.0282
L96.7832 20.0282
" />
<path d="M96.3832 17.4883
L96.7832 17.4883
" />
<path d="M96.3832 14.9482
L96.7832 14.9482
" />
<path d="M96.3832 12.4082
L96.7832 12.4082
" />
<path d="M96.3832 9.8682
L96.7832 9.8682
" />
<path style="fill:#D864FF; fill-opacity:0.4000; stroke:none;fill-rule:evenodd;"
d="M 24.8082,32.8982
24.8082,35.0983
22.6082,35.0983
22.6082,32.8982
Z" /> 
</g>
<g style="fill:#D864FF; fill-opacity:0.4000; stroke:none;">
<circle cx="13.5482" cy="33.9982" r="1.1000" /> 
<path style="fill:#D864FF; fill-opacity:0.4000; stroke:none;fill-rule:evenodd;"
d="M 12.4482,27.4782
12.4482,25.2782
14.6482,25.2782
14.6482,27.4782
Z" /> 
<circle cx="23.7082" cy="26.3782" r="1.1000" /> 
<circle cx="61.8082" cy="8.5983" r="0.8000" /> 
</g>
<g style="fill:#D864FF; fill-opacity:0.4000; stroke:none;">
<circle cx="66.8083" cy="8.5983" r="0.8000" /> 
</g>
<g style="fill:none; 
stroke:#D0D2CD; stroke-width:0.1000; stroke-opacity:1; 
stroke-linecap:round; stroke-linejoin:round;">
<path d="M0.8482 0.9782
L99.9082 0.9782
" />
<path d="M99.9082 39.0782
L0.8482 39.0782
" />
<path d="M99.9082 0.9782
L99.9082 39.0782
" />
<path d="M0.8482 39.0782
L0.8482 0.9782
" />
</g>
<g style="fill:#FFFFFF; fill-opacity:1.0000; stroke:none;">
<circle cx="66.8882" cy="16.2182" r="0.4000" /> 
</g>
<g style="fill:#FFFFFF; fill-opacity:1.0000; stroke:none;">
<circle cx="66.8882" cy="26.3782" r="0.4000" /> 
</g>
<g style="fill:#FFFFFF; fill-opacity:1.0000; stroke:none;">
<circle cx="5.9282" cy="3.5182" r="0.8900" /> 
</g>
<g style="fill:#FFFFFF; fill-opacity:1.0000; stroke:none;">
<circle cx="5.9282" cy="6.9182" r="0.8900" /> 
</g>
<g style="fill:#FFFFFF; fill-opacity:1.0000; stroke:none;">
<circle cx="15.8483" cy="6.9182" r="0.8900" /> 
</g>
<g style="fill:#FFFFFF; fill-opacity:1.0000; stroke:none;">
<circle cx="15.8483" cy="3.5182" r="0.8900" /> 
</g>
<g style="fill:#FFFFFF; fill-opacity:1.0000; stroke:none;">
<circle cx="36.3933" cy="25.1182" r="0.4000" /> 
</g>
<g style="fill:#FFFFFF; fill-opacity:1.0000; stroke:none;">
<circle cx="33.8532" cy="25.1182" r="0.4000" /> 
</g>
<g style="fill:#FFFFFF; fill-opacity:1.0000; stroke:none;">
<circle cx="31.3133" cy="25.1182" r="0.4000" /> 
</g>
<g style="fill:#FFFFFF; fill-opacity:1.0000; stroke:none;">
<circle cx="31.3133" cy="32.7383" r="0.4000" /> 
</g>
<g style="fill:#FFFFFF; fill-opacity:1.0000; stroke:none;">
<circle cx="33.8532" cy="32.7383" r="0.4000" /> 
</g>
<g style="fill:#FFFFFF; fill-opacity:1.0000; stroke:none;">
<circle cx="36.3933" cy="32.7383" r="0.4000" /> 
</g>
<g style="fill:#FFFFFF; fill-opacity:1.0000; stroke:none;">
<circle cx="5.9282" cy="26.3782" r="0.7600" /> 
</g>
<g style="fill:#FFFFFF; fill-opacity:1.0000; stroke:none;">
<circle cx="5.9282" cy="31.4582" r="0.7600" /> 
</g>
<g style="fill:#FFFFFF; fill-opacity:1.0000; stroke:none;">
<circle cx="5.9282" cy="36.5382" r="0.7600" /> 
</g>
<g style="fill:#FFFFFF; fill-opacity:1.0000; stroke:none;">
<circle cx="59.2682" cy="16.2182" r="0.4000" /> 
</g>
<g style="fill:#FFFFFF; fill-opacity:1.0000; stroke:none;">
<circle cx="59.2682" cy="26.3782" r="0.4000" /> 
</g>
<g style="fill:#FFFFFF; fill-opacity:1.0000; stroke:none;">
<circle cx="24.3857" cy="8.6382" r="0.5000" /> 
</g>
<g style="fill:#FFFFFF; fill-opacity:1.0000; stroke:none;">
<circle cx="24.3857" cy="13.6382" r="0.5000" /> 
</g>
<g style="fill:#FFFFFF; fill-opacity:1.0000; stroke:none;">
<circle cx="53.7858" cy="3.4383" r="0.5000" /> 
</g>
<g style="fill:#FFFFFF; fill-opacity:1.0000; stroke:none;">
<circle cx="53.7858" cy="18.8382" r="0.5000" /> 
</g>
<g style="fill:#FFFFFF; fill-opacity:1.0000; stroke:none;">
<circle cx="8.4682" cy="16.2182" r="0.4000" /> 
</g>
<g style="fill:#FFFFFF; fill-opacity:1.0000; stroke:none;">
<circle cx="15.9682" cy="18.0182" r="0.4000" /> 
</g>
<g style="fill:#FFFFFF; fill-opacity:1.0000; stroke:none;">
<circle cx="49.0932" cy="25.1182" r="0.4000" /> 
</g>
<g style="fill:#FFFFFF; fill-opacity:1.0000; stroke:none;">
<circle cx="46.5532" cy="25.1182" r="0.4000" /> 
</g>
<g style="fill:#FFFFFF; fill-opacity:1.0000; stroke:none;">
<circle cx="44.0132" cy="25.1182" r="0.4000" /> 
</g>
<g style="fill:#FFFFFF; fill-opacity:1.0000; stroke:none;">
<circle cx="44.0132" cy="32.7383" r="0.4000" /> 
</g>
<g style="fill:#FFFFFF; fill-opacity:1.0000; stroke:none;">
<circle cx="46.5532" cy="32.7383" r="0.4000" /> 
</g>
<g style="fill:#FFFFFF; fill-opacity:1.0000; stroke:none;">
<circle cx="49.0932" cy="32.7383" r="0.4000" /> 
</g>
<g style="fill:#FFFFFF; fill-opacity:1.0000; stroke:none;">
<circle cx="73.7232" cy="9.8682" r="0.5000" /> 
</g>
<g style="fill:#FFFFFF; fill-opacity:1.0000; stroke:none;">
<circle cx="73.7232" cy="12.4082" r="0.5000" /> 
</g>
<g style="fill:#FFFFFF; fill-opacity:1.0000; stroke:none;">
<circle cx="73.7232" cy="14.9482" r="0.5000" /> 
</g>
<g style="fill:#FFFFFF; fill-opacity:1.0000; stroke:none;">
<circle cx="73.7232" cy="17.4883" r="0.5000" /> 
</g>
<g style="fill:#FFFFFF; fill-opacity:1.0000; stroke:none;">
<circle cx="73.7232" cy="20.0282" r="0.5000" /> 
</g>
<g style="fill:#FFFFFF; fill-opacity:1.0000; stroke:none;">
<circle cx="73.7232" cy="22.5682" r="0.5000" /> 
</g>
<g style="fill:#FFFFFF; fill-opacity:1.0000; stroke:none;">
<circle cx="73.7232" cy="25.1082" r="0.5000" /> 
</g>
<g style="fill:#FFFFFF; fill-opacity:1.0000; stroke:none;">
<circle cx="73.7232" cy="27.6482" r="0.5000" /> 
</g>
<g style="fill:#FFFFFF; fill-opacity:1.0000; stroke:none;">
<circle cx="96.5832" cy="27.6482" r="0.5000" /> 
</g>
<g style="fill:#FFFFFF; fill-opacity:1.0000; stroke:none;">
<circle cx="96.5832" cy="25.1082" r="0.5000" /> 
</g>
<g style="fill:#FFFFFF; fill-opacity:1.0000; stroke:none;">
<circle cx="96.5832" cy="22.5682" r="0.5000" /> 
</g>
<g style="fill:#FFFFFF; fill-opacity:1.0000; stroke:none;">
<circle cx="96.5832" cy="20.0282" r="0.5000" /> 
</g>
<g style="fill:#FFFFFF; fill-opacity:1.0000; stroke:none;">
<circle cx="96.5832" cy="17.4883" r="0.5000" /> 
</g>
<g style="fill:#FFFFFF; fill-opacity:1.0000; stroke:none;">
<circle cx="96.5832" cy="14.9482" r="0.5000" /> 
</g>
<g style="fill:#FFFFFF; fill-opacity:1.0000; stroke:none;">
<circle cx="96.5832" cy="12.4082" r="0.5000" /> 
</g>
<g style="fill:#FFFFFF; fill-opacity:1.0000; stroke:none;">
<circle cx="96.5832" cy="9.8682" r="0.5000" /> 
</g>
<g style="fill:#FFFFFF; fill-opacity:1.0000; stroke:none;">
<circle cx="23.7082" cy="33.9982" r="0.5500" /> 
</g>
<g style="fill:#FFFFFF; fill-opacity:1.0000; stroke:none;">
<circle cx="13.5482" cy="33.9982" r="0.5500" /> 
</g>
<g style="fill:#FFFFFF; fill-opacity:1.0000; stroke:none;">
<circle cx="13.5482" cy="26.3782" r="0.5500" /> 
</g>
<g style="fill:#FFFFFF; fill-opacity:1.0000; stroke:none;">
<circle cx="23.7082" cy="26.3782" r="0.5500" /> 
</g>
<g style="fill:#FFFFFF; fill-opacity:1.0000; stroke:none;">
<circle cx="61.8082" cy="8.5983" r="0.4000" /> 
</g>
<g style="fill:#FFFFFF; fill-opacity:1.0000; stroke:none;">
<circle cx="66.8083" cy="8.5983" r="0.4000" /> 
</g> 
</svg>
