<?xml version="1.0" standalone="no"?>
 <!DOCTYPE svg PUBLIC "-//W3C//DTD SVG 1.1//EN" 
 "http://www.w3.org/Graphics/SVG/1.1/DTD/svg11.dtd"> 
<svg
  xmlns:svg="http://www.w3.org/2000/svg"
  xmlns="http://www.w3.org/2000/svg"
  xmlns:xlink="http://www.w3.org/1999/xlink"
  version="1.1"
  width="99.9490mm" height="39.2684mm" viewBox="0.0000 0.0000 99.9490 39.2684">
<title>SVG Image created as MaxPilot-pcb-back.svg date 2026/02/20 18:40:43 </title>
  <desc>Image generated by PCBNEW </desc>
<g style="fill:#000000; fill-opacity:1.0000;stroke:#000000; stroke-opacity:1.0000;
stroke-linecap:round; stroke-linejoin:round;"
 transform="translate(0 0) scale(1 1)">
</g>
<g style="fill:#4D7FC4; fill-opacity:1.0000; stroke:none;">
<circle cx="33.0607" cy="16.2182" r="0.8000" /> 
</g>
<g style="fill:#4D7FC4; fill-opacity:1.0000; stroke:none;">
<circle cx="33.0607" cy="26.3782" r="0.8000" /> 
<circle cx="94.0207" cy="3.5182" r="1.3900" /> 
</g>
<g style="fill:#4D7FC4; fill-opacity:1.0000; stroke:none;">
<circle cx="94.0207" cy="6.9182" r="1.3900" /> 
</g>
<g style="fill:#4D7FC4; fill-opacity:1.0000; stroke:none;">
<circle cx="84.1007" cy="6.9182" r="1.3900" /> 
</g>
<g style="fill:#4D7FC4; fill-opacity:1.0000; stroke:none;">
<circle cx="84.1007" cy="3.5182" r="1.3900" /> 
<path style="fill:#4D7FC4; fill-opacity:1.0000; stroke:none;fill-rule:evenodd;"
d="M 64.3558,24.3182
62.7557,24.3182
62.7557,25.9183
64.3558,25.9183
Z" /> 
</g>
<g style="fill:#4D7FC4; fill-opacity:1.0000; stroke:none;">
<circle cx="66.0957" cy="25.1182" r="0.8000" /> 
<circle cx="68.6358" cy="25.1182" r="0.8000" /> 
<circle cx="68.6358" cy="32.7383" r="0.8000" /> 
<circle cx="66.0957" cy="32.7383" r="0.8000" /> 
<circle cx="63.5557" cy="32.7383" r="0.8000" /> 
<path style="fill:#4D7FC4; fill-opacity:1.0000; stroke:none;fill-rule:evenodd;"
d="M 95.5207,24.8782
92.5207,24.8782
92.5207,27.8782
95.5207,27.8782
Z" /> 
<circle cx="94.0207" cy="31.4582" r="1.5000" /> 
</g>
<g style="fill:#4D7FC4; fill-opacity:1.0000; stroke:none;">
<circle cx="94.0207" cy="36.5382" r="1.5000" /> 
</g>
<g style="fill:#4D7FC4; fill-opacity:1.0000; stroke:none;">
<circle cx="40.6807" cy="16.2182" r="0.8000" /> 
</g>
<g style="fill:#4D7FC4; fill-opacity:1.0000; stroke:none;">
<circle cx="40.6807" cy="26.3782" r="0.8000" /> 
<path style="fill:#4D7FC4; fill-opacity:1.0000; stroke:none;fill-rule:evenodd;"
d="M 76.7133,9.6382
76.7133,7.6382
74.4132,7.6382
74.4132,9.6382
Z" /> 
<circle cx="75.5632" cy="13.6382" r="1.1500" /> 
</g>
<g style="fill:#4D7FC4; fill-opacity:1.0000; stroke:none;">
<circle cx="46.1632" cy="3.4383" r="1.1500" /> 
</g>
<g style="fill:#4D7FC4; fill-opacity:1.0000; stroke:none;">
<circle cx="46.1632" cy="18.8382" r="1.1500" /> 
</g>
<g style="fill:#4D7FC4; fill-opacity:1.0000; stroke:none;">
<circle cx="91.4808" cy="16.2182" r="0.9000" /> 
</g>
<g style="fill:#4D7FC4; fill-opacity:1.0000; stroke:none;">
<circle cx="83.9808" cy="18.0182" r="0.9000" /> 
<path style="fill:#4D7FC4; fill-opacity:1.0000; stroke:none;fill-rule:evenodd;"
d="M 51.6557,24.3182
50.0557,24.3182
50.0557,25.9183
51.6557,25.9183
Z" /> 
</g>
<g style="fill:#4D7FC4; fill-opacity:1.0000; stroke:none;">
<circle cx="53.3957" cy="25.1182" r="0.8000" /> 
<circle cx="55.9357" cy="25.1182" r="0.8000" /> 
<circle cx="55.9357" cy="32.7383" r="0.8000" /> 
<circle cx="53.3957" cy="32.7383" r="0.8000" /> 
<circle cx="50.8558" cy="32.7383" r="0.8000" /> 
<path style="fill:#4D7FC4; fill-opacity:1.0000; stroke:none;fill-rule:evenodd;"
d="M 27.2257,10.8682
27.2257,8.8682
25.2257,8.8682
25.2257,10.8682
Z" /> 
</g>
<g style="fill:none; 
stroke:#4D7FC4; stroke-width:1.6000; stroke-opacity:1; 
stroke-linecap:round; stroke-linejoin:round;">
<path d="M26.4257 12.4082
L26.0257 12.4082
" />
<path d="M26.4257 14.9482
L26.0257 14.9482
" />
<path d="M26.4257 17.4883
L26.0257 17.4883
" />
<path d="M26.4257 20.0282
L26.0257 20.0282
" />
<path d="M26.4257 22.5682
L26.0257 22.5682
" />
<path d="M26.4257 25.1082
L26.0257 25.1082
" />
<path d="M26.4257 27.6482
L26.0257 27.6482
" />
<path d="M3.5657 27.6482
L3.1658 27.6482
" />
<path d="M3.5657 25.1082
L3.1658 25.1082
" />
<path d="M3.5657 22.5682
L3.1658 22.5682
" />
<path d="M3.5657 20.0282
L3.1658 20.0282
" />
<path d="M3.5657 17.4883
L3.1658 17.4883
" />
<path d="M3.5657 14.9482
L3.1658 14.9482
" />
<path d="M3.5657 12.4082
L3.1658 12.4082
" />
<path d="M3.5657 9.8682
L3.1658 9.8682
" />
<path style="fill:#4D7FC4; fill-opacity:1.0000; stroke:none;fill-rule:evenodd;"
d="M 75.1407,32.8982
75.1407,35.0983
77.3407,35.0983
77.3407,32.8982
Z" /> 
</g>
<g style="fill:#4D7FC4; fill-opacity:1.0000; stroke:none;">
<circle cx="86.4008" cy="33.9982" r="1.1000" /> 
<path style="fill:#4D7FC4; fill-opacity:1.0000; stroke:none;fill-rule:evenodd;"
d="M 87.5007,27.4782
87.5007,25.2782
85.3007,25.2782
85.3007,27.4782
Z" /> 
<circle cx="76.2407" cy="26.3782" r="1.1000" /> 
<circle cx="38.1407" cy="8.5983" r="0.8000" /> 
</g>
<g style="fill:#4D7FC4; fill-opacity:1.0000; stroke:none;">
<circle cx="33.1407" cy="8.5983" r="0.8000" /> 
</g>
<g style="fill:none; 
stroke:#4D7FC4; stroke-width:2.0000; stroke-opacity:1; 
stroke-linecap:round; stroke-linejoin:round;">
<path d="M94.0207 36.5382
L86.4008 36.5382
" />
<path d="M86.4008 36.5382
L86.4008 33.9982
" />
<path d="M63.5557 32.7383
L63.5557 36.5382
" />
<path d="M68.6358 31.4733
L68.6358 32.7383
" />
<path d="M75.5632 8.7428
L55.9357 28.3703
" />
<path d="M67.6012 30.4387
L68.6358 31.4733
" />
<path d="M55.9357 32.7383
L58.2353 30.4387
" />
<path d="M55.9357 28.3703
L55.9357 32.7383
" />
<path d="M73.7007 31.4582
L73.7007 26.3782
" />
<path d="M84.1007 3.5182
L84.1007 6.9182
" />
<path d="M73.7007 26.3782
L76.2407 26.3782
" />
<path d="M63.5557 36.5382
L68.6208 36.5382
" />
<path d="M84.1007 6.9182
L77.2832 6.9182
" />
<path d="M58.2353 30.4387
L67.6012 30.4387
" />
<path d="M75.5632 8.6382
L75.5632 8.7428
" />
<path d="M77.2832 6.9182
L75.5632 8.6382
" />
<path d="M68.6208 36.5382
L73.7007 31.4582
" />
<path d="M91.4808 16.2182
L94.0207 16.2182
" />
<path d="M94.0207 16.2182
L94.0207 3.5182
" />
<path d="M94.0207 26.3782
L94.0207 16.2182
" />
<path d="M82.3012 20.3762
L82.3012 28.0763
" />
<path d="M83.9808 18.0182
L82.3012 19.6978
" />
<path d="M82.3012 19.6978
L82.3012 20.3762
" />
<path d="M85.6832 31.4582
L94.0207 31.4582
" />
<path d="M82.3012 28.0763
L85.6832 31.4582
" />
<path d="M75.5632 13.6382
L82.3012 20.3762
" />
</g>
<g style="fill:none; 
stroke:#4D7FC4; stroke-width:0.2500; stroke-opacity:1; 
stroke-linecap:round; stroke-linejoin:round;">
<path d="M28.2062 13.5328
L14.9412 13.5328
" />
<path d="M14.9412 13.5328
L3.3657 25.1082
" />
<path d="M33.1407 8.5983
L28.2062 13.5328
" />
<path d="M6.3907 27.6482
L3.3657 27.6482
" />
<path d="M17.8208 16.2182
L6.3907 27.6482
" />
<path d="M33.0607 16.2182
L17.8208 16.2182
" />
</g>
<g style="fill:#02FFEE; fill-opacity:0.4000; stroke:none;">
<circle cx="33.0607" cy="16.2182" r="0.8000" /> 
</g>
<g style="fill:#02FFEE; fill-opacity:0.4000; stroke:none;">
<circle cx="33.0607" cy="26.3782" r="0.8000" /> 
<circle cx="94.0207" cy="3.5182" r="1.3900" /> 
</g>
<g style="fill:#02FFEE; fill-opacity:0.4000; stroke:none;">
<circle cx="94.0207" cy="6.9182" r="1.3900" /> 
</g>
<g style="fill:#02FFEE; fill-opacity:0.4000; stroke:none;">
<circle cx="84.1007" cy="6.9182" r="1.3900" /> 
</g>
<g style="fill:#02FFEE; fill-opacity:0.4000; stroke:none;">
<circle cx="84.1007" cy="3.5182" r="1.3900" /> 
<path style="fill:#02FFEE; fill-opacity:0.4000; stroke:none;fill-rule:evenodd;"
d="M 64.3558,24.3182
62.7557,24.3182
62.7557,25.9183
64.3558,25.9183
Z" /> 
</g>
<g style="fill:#02FFEE; fill-opacity:0.4000; stroke:none;">
<circle cx="66.0957" cy="25.1182" r="0.8000" /> 
<circle cx="68.6358" cy="25.1182" r="0.8000" /> 
<circle cx="68.6358" cy="32.7383" r="0.8000" /> 
<circle cx="66.0957" cy="32.7383" r="0.8000" /> 
<circle cx="63.5557" cy="32.7383" r="0.8000" /> 
<path style="fill:#02FFEE; fill-opacity:0.4000; stroke:none;fill-rule:evenodd;"
d="M 95.5207,24.8782
92.5207,24.8782
92.5207,27.8782
95.5207,27.8782
Z" /> 
<circle cx="94.0207" cy="31.4582" r="1.5000" /> 
</g>
<g style="fill:#02FFEE; fill-opacity:0.4000; stroke:none;">
<circle cx="94.0207" cy="36.5382" r="1.5000" /> 
</g>
<g style="fill:#02FFEE; fill-opacity:0.4000; stroke:none;">
<circle cx="40.6807" cy="16.2182" r="0.8000" /> 
</g>
<g style="fill:#02FFEE; fill-opacity:0.4000; stroke:none;">
<circle cx="40.6807" cy="26.3782" r="0.8000" /> 
<path style="fill:#02FFEE; fill-opacity:0.4000; stroke:none;fill-rule:evenodd;"
d="M 76.7133,9.6382
76.7133,7.6382
74.4132,7.6382
74.4132,9.6382
Z" /> 
<circle cx="75.5632" cy="13.6382" r="1.1500" /> 
</g>
<g style="fill:#02FFEE; fill-opacity:0.4000; stroke:none;">
<circle cx="46.1632" cy="3.4383" r="1.1500" /> 
</g>
<g style="fill:#02FFEE; fill-opacity:0.4000; stroke:none;">
<circle cx="46.1632" cy="18.8382" r="1.1500" /> 
</g>
<g style="fill:#02FFEE; fill-opacity:0.4000; stroke:none;">
<circle cx="91.4808" cy="16.2182" r="0.9000" /> 
</g>
<g style="fill:#02FFEE; fill-opacity:0.4000; stroke:none;">
<circle cx="83.9808" cy="18.0182" r="0.9000" /> 
<path style="fill:#02FFEE; fill-opacity:0.4000; stroke:none;fill-rule:evenodd;"
d="M 51.6557,24.3182
50.0557,24.3182
50.0557,25.9183
51.6557,25.9183
Z" /> 
</g>
<g style="fill:#02FFEE; fill-opacity:0.4000; stroke:none;">
<circle cx="53.3957" cy="25.1182" r="0.8000" /> 
<circle cx="55.9357" cy="25.1182" r="0.8000" /> 
<circle cx="55.9357" cy="32.7383" r="0.8000" /> 
<circle cx="53.3957" cy="32.7383" r="0.8000" /> 
<circle cx="50.8558" cy="32.7383" r="0.8000" /> 
<path style="fill:#02FFEE; fill-opacity:0.4000; stroke:none;fill-rule:evenodd;"
d="M 27.2257,10.8682
27.2257,8.8682
25.2257,8.8682
25.2257,10.8682
Z" /> 
</g>
<g style="fill:none; 
stroke:#02FFEE; stroke-width:1.6000; stroke-opacity:1; 
stroke-linecap:round; stroke-linejoin:round;">
<path d="M26.4257 12.4082
L26.0257 12.4082
" />
<path d="M26.4257 14.9482
L26.0257 14.9482
" />
<path d="M26.4257 17.4883
L26.0257 17.4883
" />
<path d="M26.4257 20.0282
L26.0257 20.0282
" />
<path d="M26.4257 22.5682
L26.0257 22.5682
" />
<path d="M26.4257 25.1082
L26.0257 25.1082
" />
<path d="M26.4257 27.6482
L26.0257 27.6482
" />
<path d="M3.5657 27.6482
L3.1658 27.6482
" />
<path d="M3.5657 25.1082
L3.1658 25.1082
" />
<path d="M3.5657 22.5682
L3.1658 22.5682
" />
<path d="M3.5657 20.0282
L3.1658 20.0282
" />
<path d="M3.5657 17.4883
L3.1658 17.4883
" />
<path d="M3.5657 14.9482
L3.1658 14.9482
" />
<path d="M3.5657 12.4082
L3.1658 12.4082
" />
<path d="M3.5657 9.8682
L3.1658 9.8682
" />
<path style="fill:#02FFEE; fill-opacity:0.4000; stroke:none;fill-rule:evenodd;"
d="M 75.1407,32.8982
75.1407,35.0983
77.3407,35.0983
77.3407,32.8982
Z" /> 
</g>
<g style="fill:#02FFEE; fill-opacity:0.4000; stroke:none;">
<circle cx="86.4008" cy="33.9982" r="1.1000" /> 
<path style="fill:#02FFEE; fill-opacity:0.4000; stroke:none;fill-rule:evenodd;"
d="M 87.5007,27.4782
87.5007,25.2782
85.3007,25.2782
85.3007,27.4782
Z" /> 
<circle cx="76.2407" cy="26.3782" r="1.1000" /> 
<circle cx="38.1407" cy="8.5983" r="0.8000" /> 
</g>
<g style="fill:#02FFEE; fill-opacity:0.4000; stroke:none;">
<circle cx="33.1407" cy="8.5983" r="0.8000" /> 
</g>
<g style="fill:none; 
stroke:#D0D2CD; stroke-width:0.1000; stroke-opacity:1; 
stroke-linecap:round; stroke-linejoin:round;">
<path d="M99.1007 0.9782
L0.0408 0.9782
" />
<path d="M0.0408 39.0782
L99.1007 39.0782
" />
<path d="M0.0408 0.9782
L0.0408 39.0782
" />
<path d="M99.1007 39.0782
L99.1007 0.9782
" />
</g>
<g style="fill:#FFFFFF; fill-opacity:1.0000; stroke:none;">
<circle cx="33.0607" cy="16.2182" r="0.4000" /> 
</g>
<g style="fill:#FFFFFF; fill-opacity:1.0000; stroke:none;">
<circle cx="33.0607" cy="26.3782" r="0.4000" /> 
</g>
<g style="fill:#FFFFFF; fill-opacity:1.0000; stroke:none;">
<circle cx="94.0207" cy="3.5182" r="0.8900" /> 
</g>
<g style="fill:#FFFFFF; fill-opacity:1.0000; stroke:none;">
<circle cx="94.0207" cy="6.9182" r="0.8900" /> 
</g>
<g style="fill:#FFFFFF; fill-opacity:1.0000; stroke:none;">
<circle cx="84.1007" cy="6.9182" r="0.8900" /> 
</g>
<g style="fill:#FFFFFF; fill-opacity:1.0000; stroke:none;">
<circle cx="84.1007" cy="3.5182" r="0.8900" /> 
</g>
<g style="fill:#FFFFFF; fill-opacity:1.0000; stroke:none;">
<circle cx="63.5557" cy="25.1182" r="0.4000" /> 
</g>
<g style="fill:#FFFFFF; fill-opacity:1.0000; stroke:none;">
<circle cx="66.0957" cy="25.1182" r="0.4000" /> 
</g>
<g style="fill:#FFFFFF; fill-opacity:1.0000; stroke:none;">
<circle cx="68.6358" cy="25.1182" r="0.4000" /> 
</g>
<g style="fill:#FFFFFF; fill-opacity:1.0000; stroke:none;">
<circle cx="68.6358" cy="32.7383" r="0.4000" /> 
</g>
<g style="fill:#FFFFFF; fill-opacity:1.0000; stroke:none;">
<circle cx="66.0957" cy="32.7383" r="0.4000" /> 
</g>
<g style="fill:#FFFFFF; fill-opacity:1.0000; stroke:none;">
<circle cx="63.5557" cy="32.7383" r="0.4000" /> 
</g>
<g style="fill:#FFFFFF; fill-opacity:1.0000; stroke:none;">
<circle cx="94.0207" cy="26.3782" r="0.7600" /> 
</g>
<g style="fill:#FFFFFF; fill-opacity:1.0000; stroke:none;">
<circle cx="94.0207" cy="31.4582" r="0.7600" /> 
</g>
<g style="fill:#FFFFFF; fill-opacity:1.0000; stroke:none;">
<circle cx="94.0207" cy="36.5382" r="0.7600" /> 
</g>
<g style="fill:#FFFFFF; fill-opacity:1.0000; stroke:none;">
<circle cx="40.6807" cy="16.2182" r="0.4000" /> 
</g>
<g style="fill:#FFFFFF; fill-opacity:1.0000; stroke:none;">
<circle cx="40.6807" cy="26.3782" r="0.4000" /> 
</g>
<g style="fill:#FFFFFF; fill-opacity:1.0000; stroke:none;">
<circle cx="75.5632" cy="8.6382" r="0.5000" /> 
</g>
<g style="fill:#FFFFFF; fill-opacity:1.0000; stroke:none;">
<circle cx="75.5632" cy="13.6382" r="0.5000" /> 
</g>
<g style="fill:#FFFFFF; fill-opacity:1.0000; stroke:none;">
<circle cx="46.1632" cy="3.4383" r="0.5000" /> 
</g>
<g style="fill:#FFFFFF; fill-opacity:1.0000; stroke:none;">
<circle cx="46.1632" cy="18.8382" r="0.5000" /> 
</g>
<g style="fill:#FFFFFF; fill-opacity:1.0000; stroke:none;">
<circle cx="91.4808" cy="16.2182" r="0.4000" /> 
</g>
<g style="fill:#FFFFFF; fill-opacity:1.0000; stroke:none;">
<circle cx="83.9808" cy="18.0182" r="0.4000" /> 
</g>
<g style="fill:#FFFFFF; fill-opacity:1.0000; stroke:none;">
<circle cx="50.8558" cy="25.1182" r="0.4000" /> 
</g>
<g style="fill:#FFFFFF; fill-opacity:1.0000; stroke:none;">
<circle cx="53.3957" cy="25.1182" r="0.4000" /> 
</g>
<g style="fill:#FFFFFF; fill-opacity:1.0000; stroke:none;">
<circle cx="55.9357" cy="25.1182" r="0.4000" /> 
</g>
<g style="fill:#FFFFFF; fill-opacity:1.0000; stroke:none;">
<circle cx="55.9357" cy="32.7383" r="0.4000" /> 
</g>
<g style="fill:#FFFFFF; fill-opacity:1.0000; stroke:none;">
<circle cx="53.3957" cy="32.7383" r="0.4000" /> 
</g>
<g style="fill:#FFFFFF; fill-opacity:1.0000; stroke:none;">
<circle cx="50.8558" cy="32.7383" r="0.4000" /> 
</g>
<g style="fill:#FFFFFF; fill-opacity:1.0000; stroke:none;">
<circle cx="26.2257" cy="9.8682" r="0.5000" /> 
</g>
<g style="fill:#FFFFFF; fill-opacity:1.0000; stroke:none;">
<circle cx="26.2257" cy="12.4082" r="0.5000" /> 
</g>
<g style="fill:#FFFFFF; fill-opacity:1.0000; stroke:none;">
<circle cx="26.2257" cy="14.9482" r="0.5000" /> 
</g>
<g style="fill:#FFFFFF; fill-opacity:1.0000; stroke:none;">
<circle cx="26.2257" cy="17.4883" r="0.5000" /> 
</g>
<g style="fill:#FFFFFF; fill-opacity:1.0000; stroke:none;">
<circle cx="26.2257" cy="20.0282" r="0.5000" /> 
</g>
<g style="fill:#FFFFFF; fill-opacity:1.0000; stroke:none;">
<circle cx="26.2257" cy="22.5682" r="0.5000" /> 
</g>
<g style="fill:#FFFFFF; fill-opacity:1.0000; stroke:none;">
<circle cx="26.2257" cy="25.1082" r="0.5000" /> 
</g>
<g style="fill:#FFFFFF; fill-opacity:1.0000; stroke:none;">
<circle cx="26.2257" cy="27.6482" r="0.5000" /> 
</g>
<g style="fill:#FFFFFF; fill-opacity:1.0000; stroke:none;">
<circle cx="3.3657" cy="27.6482" r="0.5000" /> 
</g>
<g style="fill:#FFFFFF; fill-opacity:1.0000; stroke:none;">
<circle cx="3.3657" cy="25.1082" r="0.5000" /> 
</g>
<g style="fill:#FFFFFF; fill-opacity:1.0000; stroke:none;">
<circle cx="3.3657" cy="22.5682" r="0.5000" /> 
</g>
<g style="fill:#FFFFFF; fill-opacity:1.0000; stroke:none;">
<circle cx="3.3657" cy="20.0282" r="0.5000" /> 
</g>
<g style="fill:#FFFFFF; fill-opacity:1.0000; stroke:none;">
<circle cx="3.3657" cy="17.4883" r="0.5000" /> 
</g>
<g style="fill:#FFFFFF; fill-opacity:1.0000; stroke:none;">
<circle cx="3.3657" cy="14.9482" r="0.5000" /> 
</g>
<g style="fill:#FFFFFF; fill-opacity:1.0000; stroke:none;">
<circle cx="3.3657" cy="12.4082" r="0.5000" /> 
</g>
<g style="fill:#FFFFFF; fill-opacity:1.0000; stroke:none;">
<circle cx="3.3657" cy="9.8682" r="0.5000" /> 
</g>
<g style="fill:#FFFFFF; fill-opacity:1.0000; stroke:none;">
<circle cx="76.2407" cy="33.9982" r="0.5500" /> 
</g>
<g style="fill:#FFFFFF; fill-opacity:1.0000; stroke:none;">
<circle cx="86.4008" cy="33.9982" r="0.5500" /> 
</g>
<g style="fill:#FFFFFF; fill-opacity:1.0000; stroke:none;">
<circle cx="86.4008" cy="26.3782" r="0.5500" /> 
</g>
<g style="fill:#FFFFFF; fill-opacity:1.0000; stroke:none;">
<circle cx="76.2407" cy="26.3782" r="0.5500" /> 
</g>
<g style="fill:#FFFFFF; fill-opacity:1.0000; stroke:none;">
<circle cx="38.1407" cy="8.5983" r="0.4000" /> 
</g>
<g style="fill:#FFFFFF; fill-opacity:1.0000; stroke:none;">
<circle cx="33.1407" cy="8.5983" r="0.4000" /> 
</g> 
</svg>
