<?xml version="1.0" standalone="no"?>
 <!DOCTYPE svg PUBLIC "-//W3C//DTD SVG 1.1//EN" 
 "http://www.w3.org/Graphics/SVG/1.1/DTD/svg11.dtd"> 
<svg
  xmlns:svg="http://www.w3.org/2000/svg"
  xmlns="http://www.w3.org/2000/svg"
  xmlns:xlink="http://www.w3.org/1999/xlink"
  version="1.1"
  width="99.8728mm" height="38.8112mm" viewBox="0.0000 0.0000 99.8728 38.8112">
<title>SVG Image created as MaxPilot-pcb-back.svg date 2026/02/21 19:01:43 </title>
  <desc>Image generated by PCBNEW </desc>
<g style="fill:#000000; fill-opacity:1.0000;stroke:#000000; stroke-opacity:1.0000;
stroke-linecap:round; stroke-linejoin:round;"
 transform="translate(0 0) scale(1 1)">
</g>
<g style="fill:#4D7FC4; fill-opacity:1.0000; stroke:none;">
<circle cx="35.6045" cy="3.2182" r="0.8000" /> 
</g>
<g style="fill:#4D7FC4; fill-opacity:1.0000; stroke:none;">
<circle cx="45.7645" cy="3.2182" r="0.8000" /> 
<circle cx="88.9445" cy="3.2182" r="1.2000" /> 
</g>
<g style="fill:#4D7FC4; fill-opacity:1.0000; stroke:none;">
<circle cx="73.7045" cy="3.2182" r="1.2000" /> 
</g>
<g style="fill:#4D7FC4; fill-opacity:1.0000; stroke:none;">
<circle cx="66.0845" cy="8.2982" r="0.8000" /> 
<path style="fill:#4D7FC4; fill-opacity:1.0000; stroke:none;fill-rule:evenodd;"
d="M 65.2845,13.9283
65.3036,14.0239
65.3578,14.1050
65.4389,14.1592
65.5345,14.1783
66.6345,14.1783
66.7302,14.1592
66.8113,14.1050
66.8655,14.0239
66.8845,13.9283
66.8845,12.8282
66.8655,12.7326
66.8113,12.6515
66.7302,12.5973
66.6345,12.5782
65.5345,12.5782
65.4389,12.5973
65.3578,12.6515
65.3036,12.7326
65.2845,12.8282
Z" /> 
</g>
<g style="fill:#4D7FC4; fill-opacity:1.0000; stroke:none;">
<circle cx="66.0845" cy="10.8383" r="0.8000" /> 
</g>
<g style="fill:#4D7FC4; fill-opacity:1.0000; stroke:none;">
<circle cx="73.7045" cy="8.2982" r="0.8000" /> 
</g>
<g style="fill:#4D7FC4; fill-opacity:1.0000; stroke:none;">
<circle cx="73.7045" cy="13.3782" r="0.8000" /> 
<path style="fill:#4D7FC4; fill-opacity:1.0000; stroke:none;fill-rule:evenodd;"
d="M 95.2946,12.1082
92.7545,12.1082
92.7545,14.6482
95.2946,14.6482
Z" /> 
</g>
<g style="fill:#4D7FC4; fill-opacity:1.0000; stroke:none;">
<circle cx="94.0245" cy="20.9982" r="1.2700" /> 
</g>
<g style="fill:#4D7FC4; fill-opacity:1.0000; stroke:none;">
<circle cx="94.0245" cy="28.6182" r="1.2700" /> 
</g>
<g style="fill:#4D7FC4; fill-opacity:1.0000; stroke:none;">
<circle cx="35.6045" cy="8.2982" r="0.8000" /> 
</g>
<g style="fill:#4D7FC4; fill-opacity:1.0000; stroke:none;">
<circle cx="45.7645" cy="8.2982" r="0.8000" /> 
<path style="fill:#4D7FC4; fill-opacity:1.0000; stroke:none;fill-rule:evenodd;"
d="M 67.2345,25.8833
67.2345,23.8833
64.9346,23.8833
64.9346,25.8833
Z" /> 
<circle cx="66.0845" cy="29.8833" r="1.1500" /> 
</g>
<g style="fill:#4D7FC4; fill-opacity:1.0000; stroke:none;">
<circle cx="36.6846" cy="19.6832" r="1.1500" /> 
</g>
<g style="fill:#4D7FC4; fill-opacity:1.0000; stroke:none;">
<circle cx="36.6846" cy="35.0832" r="1.1500" /> 
</g>
<g style="fill:#4D7FC4; fill-opacity:1.0000; stroke:none;">
<circle cx="82.9646" cy="9.6282" r="0.9000" /> 
</g>
<g style="fill:#4D7FC4; fill-opacity:1.0000; stroke:none;">
<circle cx="84.7645" cy="17.1282" r="0.9000" /> 
</g>
<g style="fill:#4D7FC4; fill-opacity:1.0000; stroke:none;">
<circle cx="52.1195" cy="5.7582" r="0.8000" /> 
<path style="fill:#4D7FC4; fill-opacity:1.0000; stroke:none;fill-rule:evenodd;"
d="M 51.3195,11.3882
51.3386,11.4839
51.3928,11.5650
51.4739,11.6192
51.5695,11.6382
52.6696,11.6382
52.7652,11.6192
52.8463,11.5650
52.9005,11.4839
52.9196,11.3882
52.9196,10.2882
52.9005,10.1926
52.8463,10.1115
52.7652,10.0573
52.6696,10.0382
51.5695,10.0382
51.4739,10.0573
51.3928,10.1115
51.3386,10.1926
51.3195,10.2882
Z" /> 
</g>
<g style="fill:#4D7FC4; fill-opacity:1.0000; stroke:none;">
<circle cx="52.1195" cy="8.2982" r="0.8000" /> 
</g>
<g style="fill:#4D7FC4; fill-opacity:1.0000; stroke:none;">
<circle cx="59.7395" cy="5.7582" r="0.8000" /> 
</g>
<g style="fill:#4D7FC4; fill-opacity:1.0000; stroke:none;">
<circle cx="59.7395" cy="10.8383" r="0.8000" /> 
<path style="fill:#4D7FC4; fill-opacity:1.0000; stroke:none;fill-rule:evenodd;"
d="M 31.5245,10.5682
31.5245,8.5682
29.5245,8.5682
29.5245,10.5682
Z" /> 
</g>
<g style="fill:none; 
stroke:#4D7FC4; stroke-width:1.6000; stroke-opacity:1; 
stroke-linecap:round; stroke-linejoin:round;">
<path d="M30.7245 12.1082
L30.3245 12.1082
" />
<path d="M30.7245 14.6482
L30.3245 14.6482
" />
<path d="M30.7245 17.1883
L30.3245 17.1883
" />
<path d="M30.7245 19.7282
L30.3245 19.7282
" />
<path d="M30.7245 22.2682
L30.3245 22.2682
" />
<path d="M30.7245 24.8082
L30.3245 24.8082
" />
<path d="M30.7245 27.3483
L30.3245 27.3483
" />
<path d="M7.8645 27.3483
L7.4646 27.3483
" />
<path d="M7.8645 24.8082
L7.4646 24.8082
" />
<path d="M7.8645 22.2682
L7.4646 22.2682
" />
<path d="M7.8645 19.7282
L7.4646 19.7282
" />
<path d="M7.8645 17.1883
L7.4646 17.1883
" />
<path d="M7.8645 14.6482
L7.4646 14.6482
" />
<path d="M7.8645 12.1082
L7.4646 12.1082
" />
<path d="M7.8645 9.5682
L7.4646 9.5682
" />
<path style="fill:#4D7FC4; fill-opacity:1.0000; stroke:none;fill-rule:evenodd;"
d="M 74.8045,19.8982
72.6046,19.8982
72.6046,22.0983
74.8045,22.0983
Z" /> 
</g>
<g style="fill:#4D7FC4; fill-opacity:1.0000; stroke:none;">
<circle cx="73.7045" cy="31.1582" r="1.1000" /> 
<path style="fill:#4D7FC4; fill-opacity:1.0000; stroke:none;fill-rule:evenodd;"
d="M 80.2245,34.7982
82.4245,34.7982
82.4245,32.5983
80.2245,32.5983
Z" /> 
<circle cx="81.3246" cy="23.5382" r="1.1000" /> 
<circle cx="40.6045" cy="13.3782" r="0.8000" /> 
</g>
<g style="fill:#4D7FC4; fill-opacity:1.0000; stroke:none;">
<circle cx="35.6045" cy="13.3782" r="0.8000" /> 
</g>
<g style="fill:#4D7FC4; fill-opacity:1.0000; stroke:none;">
<circle cx="61.4857" cy="21.6432" r="0.4000" /> 
</g>
<g style="fill:none; 
stroke:#4D7FC4; stroke-width:2.0000; stroke-opacity:1; 
stroke-linecap:round; stroke-linejoin:round;">
<path d="M94.0245 28.6182
L88.9445 33.6983
" />
<path d="M76.2445 33.6983
L73.7045 31.1582
" />
<path d="M88.9445 33.6983
L81.3246 33.6983
" />
<path d="M81.3246 33.6983
L76.2445 33.6983
" />
<path d="M85.9256 25.4440
L83.2304 28.1392
" />
<path d="M85.9256 18.2892
L84.7645 17.1282
" />
<path d="M79.4188 28.1392
L77.3577 26.0782
" />
<path d="M68.4727 29.8833
L66.0845 29.8833
" />
<path d="M84.7645 17.1282
L85.9256 18.2892
" />
<path d="M85.9256 18.2892
L85.9256 25.4440
" />
<path d="M88.6345 20.9982
L85.9256 18.2892
" />
<path d="M83.2304 28.1392
L79.4188 28.1392
" />
<path d="M77.3577 26.0782
L72.2777 26.0782
" />
<path d="M94.0245 20.9982
L88.6345 20.9982
" />
<path d="M72.2777 26.0782
L68.4727 29.8833
" />
</g>
<g style="fill:none; 
stroke:#4D7FC4; stroke-width:0.2500; stroke-opacity:1; 
stroke-linecap:round; stroke-linejoin:round;">
<path d="M35.6045 18.6032
L35.6045 13.3782
" />
<path d="M36.6846 19.6832
L35.6045 18.6032
" />
<path d="M36.6846 35.0832
L40.6045 31.1632
" />
<path d="M35.6045 3.2182
L35.6045 8.2982
" />
<path d="M40.6045 31.1632
L40.6045 13.3782
" />
<path d="M40.6045 13.2982
L35.6045 8.2982
" />
<path d="M40.6045 13.3782
L40.6045 13.2982
" />
<path d="M49.4312 10.8383
L46.8912 8.2982
" />
<path d="M45.7645 8.2982
L46.8912 8.2982
" />
<path d="M52.1195 10.8383
L49.4312 10.8383
" />
<path d="M46.8912 3.2182
L50.7012 7.0282
" />
<path d="M53.3845 15.4440
L60.6875 22.7470
" />
<path d="M52.4446 7.0282
L53.3845 7.9681
" />
<path d="M60.6875 22.7470
L61.4397 22.7470
" />
<path d="M45.7645 3.2182
L46.8912 3.2182
" />
<path d="M50.7012 7.0282
L52.4446 7.0282
" />
<path d="M53.3845 7.9681
L53.3845 15.4440
" />
<path d="M61.4397 22.7470
L66.0845 18.1021
" />
<path d="M66.0845 18.1021
L66.0845 13.3782
" />
<path d="M61.4857 21.6432
L61.4857 15.4370
" />
<path d="M61.4857 15.4370
L66.0845 10.8383
" />
</g>
<g style="fill:#02FFEE; fill-opacity:0.4000; stroke:none;">
<circle cx="35.6045" cy="3.2182" r="0.8000" /> 
</g>
<g style="fill:#02FFEE; fill-opacity:0.4000; stroke:none;">
<circle cx="45.7645" cy="3.2182" r="0.8000" /> 
<circle cx="88.9445" cy="3.2182" r="1.2000" /> 
</g>
<g style="fill:#02FFEE; fill-opacity:0.4000; stroke:none;">
<circle cx="73.7045" cy="3.2182" r="1.2000" /> 
</g>
<g style="fill:#02FFEE; fill-opacity:0.4000; stroke:none;">
<circle cx="66.0845" cy="8.2982" r="0.8000" /> 
</g>
<g style="fill:#02FFEE; fill-opacity:0.4000; stroke:none;">
<circle cx="73.7045" cy="10.8383" r="0.4000" /> 
<path style="fill:#02FFEE; fill-opacity:0.4000; stroke:none;fill-rule:evenodd;"
d="M 65.2845,13.9283
65.3036,14.0239
65.3578,14.1050
65.4389,14.1592
65.5345,14.1783
66.6345,14.1783
66.7302,14.1592
66.8113,14.1050
66.8655,14.0239
66.8845,13.9283
66.8845,12.8282
66.8655,12.7326
66.8113,12.6515
66.7302,12.5973
66.6345,12.5782
65.5345,12.5782
65.4389,12.5973
65.3578,12.6515
65.3036,12.7326
65.2845,12.8282
Z" /> 
</g>
<g style="fill:#02FFEE; fill-opacity:0.4000; stroke:none;">
<circle cx="66.0845" cy="10.8383" r="0.8000" /> 
</g>
<g style="fill:#02FFEE; fill-opacity:0.4000; stroke:none;">
<circle cx="73.7045" cy="8.2982" r="0.8000" /> 
</g>
<g style="fill:#02FFEE; fill-opacity:0.4000; stroke:none;">
<circle cx="73.7045" cy="13.3782" r="0.8000" /> 
<path style="fill:#02FFEE; fill-opacity:0.4000; stroke:none;fill-rule:evenodd;"
d="M 95.2946,12.1082
92.7545,12.1082
92.7545,14.6482
95.2946,14.6482
Z" /> 
</g>
<g style="fill:#02FFEE; fill-opacity:0.4000; stroke:none;">
<circle cx="94.0245" cy="20.9982" r="1.2700" /> 
</g>
<g style="fill:#02FFEE; fill-opacity:0.4000; stroke:none;">
<circle cx="94.0245" cy="28.6182" r="1.2700" /> 
</g>
<g style="fill:#02FFEE; fill-opacity:0.4000; stroke:none;">
<circle cx="96.5645" cy="3.2182" r="1.1000" /> 
</g>
<g style="fill:#02FFEE; fill-opacity:0.4000; stroke:none;">
<circle cx="2.5845" cy="36.2383" r="1.1000" /> 
</g>
<g style="fill:#02FFEE; fill-opacity:0.4000; stroke:none;">
<circle cx="35.6045" cy="8.2982" r="0.8000" /> 
</g>
<g style="fill:#02FFEE; fill-opacity:0.4000; stroke:none;">
<circle cx="45.7645" cy="8.2982" r="0.8000" /> 
<path style="fill:#02FFEE; fill-opacity:0.4000; stroke:none;fill-rule:evenodd;"
d="M 67.2345,25.8833
67.2345,23.8833
64.9346,23.8833
64.9346,25.8833
Z" /> 
<circle cx="66.0845" cy="29.8833" r="1.1500" /> 
</g>
<g style="fill:#02FFEE; fill-opacity:0.4000; stroke:none;">
<circle cx="36.6846" cy="19.6832" r="1.1500" /> 
</g>
<g style="fill:#02FFEE; fill-opacity:0.4000; stroke:none;">
<circle cx="36.6846" cy="35.0832" r="1.1500" /> 
</g>
<g style="fill:#02FFEE; fill-opacity:0.4000; stroke:none;">
<circle cx="82.9646" cy="9.6282" r="0.9000" /> 
</g>
<g style="fill:#02FFEE; fill-opacity:0.4000; stroke:none;">
<circle cx="84.7645" cy="17.1282" r="0.9000" /> 
</g>
<g style="fill:#02FFEE; fill-opacity:0.4000; stroke:none;">
<circle cx="52.1195" cy="5.7582" r="0.8000" /> 
</g>
<g style="fill:#02FFEE; fill-opacity:0.4000; stroke:none;">
<circle cx="59.7395" cy="8.2982" r="0.4000" /> 
<path style="fill:#02FFEE; fill-opacity:0.4000; stroke:none;fill-rule:evenodd;"
d="M 51.3195,11.3882
51.3386,11.4839
51.3928,11.5650
51.4739,11.6192
51.5695,11.6382
52.6696,11.6382
52.7652,11.6192
52.8463,11.5650
52.9005,11.4839
52.9196,11.3882
52.9196,10.2882
52.9005,10.1926
52.8463,10.1115
52.7652,10.0573
52.6696,10.0382
51.5695,10.0382
51.4739,10.0573
51.3928,10.1115
51.3386,10.1926
51.3195,10.2882
Z" /> 
</g>
<g style="fill:#02FFEE; fill-opacity:0.4000; stroke:none;">
<circle cx="52.1195" cy="8.2982" r="0.8000" /> 
</g>
<g style="fill:#02FFEE; fill-opacity:0.4000; stroke:none;">
<circle cx="59.7395" cy="5.7582" r="0.8000" /> 
</g>
<g style="fill:#02FFEE; fill-opacity:0.4000; stroke:none;">
<circle cx="59.7395" cy="10.8383" r="0.8000" /> 
<path style="fill:#02FFEE; fill-opacity:0.4000; stroke:none;fill-rule:evenodd;"
d="M 31.5245,10.5682
31.5245,8.5682
29.5245,8.5682
29.5245,10.5682
Z" /> 
</g>
<g style="fill:none; 
stroke:#02FFEE; stroke-width:1.6000; stroke-opacity:1; 
stroke-linecap:round; stroke-linejoin:round;">
<path d="M30.7245 12.1082
L30.3245 12.1082
" />
<path d="M30.7245 14.6482
L30.3245 14.6482
" />
<path d="M30.7245 17.1883
L30.3245 17.1883
" />
<path d="M30.7245 19.7282
L30.3245 19.7282
" />
<path d="M30.7245 22.2682
L30.3245 22.2682
" />
<path d="M30.7245 24.8082
L30.3245 24.8082
" />
<path d="M30.7245 27.3483
L30.3245 27.3483
" />
<path d="M7.8645 27.3483
L7.4646 27.3483
" />
<path d="M7.8645 24.8082
L7.4646 24.8082
" />
<path d="M7.8645 22.2682
L7.4646 22.2682
" />
<path d="M7.8645 19.7282
L7.4646 19.7282
" />
<path d="M7.8645 17.1883
L7.4646 17.1883
" />
<path d="M7.8645 14.6482
L7.4646 14.6482
" />
<path d="M7.8645 12.1082
L7.4646 12.1082
" />
<path d="M7.8645 9.5682
L7.4646 9.5682
" />
<path style="fill:#02FFEE; fill-opacity:0.4000; stroke:none;fill-rule:evenodd;"
d="M 74.8045,19.8982
72.6046,19.8982
72.6046,22.0983
74.8045,22.0983
Z" /> 
</g>
<g style="fill:#02FFEE; fill-opacity:0.4000; stroke:none;">
<circle cx="73.7045" cy="31.1582" r="1.1000" /> 
<circle cx="96.5645" cy="36.2383" r="1.1000" /> 
<path style="fill:#02FFEE; fill-opacity:0.4000; stroke:none;fill-rule:evenodd;"
d="M 80.2245,34.7982
82.4245,34.7982
82.4245,32.5983
80.2245,32.5983
Z" /> 
</g>
<g style="fill:#02FFEE; fill-opacity:0.4000; stroke:none;">
<circle cx="81.3246" cy="23.5382" r="1.1000" /> 
<circle cx="2.5845" cy="3.2182" r="1.1000" /> 
</g>
<g style="fill:#02FFEE; fill-opacity:0.4000; stroke:none;">
<circle cx="40.6045" cy="13.3782" r="0.8000" /> 
</g>
<g style="fill:#02FFEE; fill-opacity:0.4000; stroke:none;">
<circle cx="35.6045" cy="13.3782" r="0.8000" /> 
</g>
<g style="fill:none; 
stroke:#D0D2CD; stroke-width:0.1000; stroke-opacity:1; 
stroke-linecap:round; stroke-linejoin:round;">
<path d="M99.1045 0.6783
L0.0445 0.6783
" />
<path d="M0.0445 38.7782
L99.1045 38.7782
" />
<path d="M0.0445 0.6783
L0.0445 38.7782
" />
<path d="M99.1045 38.7782
L99.1045 0.6783
" />
</g>
<g style="fill:#FFFFFF; fill-opacity:1.0000; stroke:none;">
<circle cx="61.4857" cy="21.6432" r="0.2000" /> 
</g>
<g style="fill:#FFFFFF; fill-opacity:1.0000; stroke:none;">
<circle cx="35.6045" cy="3.2182" r="0.4000" /> 
</g>
<g style="fill:#FFFFFF; fill-opacity:1.0000; stroke:none;">
<circle cx="45.7645" cy="3.2182" r="0.4000" /> 
</g>
<g style="fill:#FFFFFF; fill-opacity:1.0000; stroke:none;">
<circle cx="88.9445" cy="3.2182" r="0.6000" /> 
</g>
<g style="fill:#FFFFFF; fill-opacity:1.0000; stroke:none;">
<circle cx="73.7045" cy="3.2182" r="0.6000" /> 
</g>
<g style="fill:#FFFFFF; fill-opacity:1.0000; stroke:none;">
<circle cx="66.0845" cy="8.2982" r="0.4000" /> 
</g>
<g style="fill:#FFFFFF; fill-opacity:1.0000; stroke:none;">
<circle cx="73.7045" cy="10.8383" r="0.4000" /> 
</g>
<g style="fill:#FFFFFF; fill-opacity:1.0000; stroke:none;">
<circle cx="66.0845" cy="13.3782" r="0.4000" /> 
</g>
<g style="fill:#FFFFFF; fill-opacity:1.0000; stroke:none;">
<circle cx="66.0845" cy="10.8383" r="0.4000" /> 
</g>
<g style="fill:#FFFFFF; fill-opacity:1.0000; stroke:none;">
<circle cx="73.7045" cy="8.2982" r="0.4000" /> 
</g>
<g style="fill:#FFFFFF; fill-opacity:1.0000; stroke:none;">
<circle cx="73.7045" cy="13.3782" r="0.4000" /> 
</g>
<g style="fill:#FFFFFF; fill-opacity:1.0000; stroke:none;">
<circle cx="94.0245" cy="13.3782" r="0.8000" /> 
</g>
<g style="fill:#FFFFFF; fill-opacity:1.0000; stroke:none;">
<circle cx="94.0245" cy="20.9982" r="0.8000" /> 
</g>
<g style="fill:#FFFFFF; fill-opacity:1.0000; stroke:none;">
<circle cx="94.0245" cy="28.6182" r="0.8000" /> 
</g>
<g style="fill:#FFFFFF; fill-opacity:1.0000; stroke:none;">
<circle cx="96.5645" cy="3.2182" r="1.1000" /> 
</g>
<g style="fill:#FFFFFF; fill-opacity:1.0000; stroke:none;">
<circle cx="2.5845" cy="36.2383" r="1.1000" /> 
</g>
<g style="fill:#FFFFFF; fill-opacity:1.0000; stroke:none;">
<circle cx="35.6045" cy="8.2982" r="0.4000" /> 
</g>
<g style="fill:#FFFFFF; fill-opacity:1.0000; stroke:none;">
<circle cx="45.7645" cy="8.2982" r="0.4000" /> 
</g>
<g style="fill:#FFFFFF; fill-opacity:1.0000; stroke:none;">
<circle cx="66.0845" cy="24.8833" r="0.5000" /> 
</g>
<g style="fill:#FFFFFF; fill-opacity:1.0000; stroke:none;">
<circle cx="66.0845" cy="29.8833" r="0.5000" /> 
</g>
<g style="fill:#FFFFFF; fill-opacity:1.0000; stroke:none;">
<circle cx="36.6846" cy="19.6832" r="0.5000" /> 
</g>
<g style="fill:#FFFFFF; fill-opacity:1.0000; stroke:none;">
<circle cx="36.6846" cy="35.0832" r="0.5000" /> 
</g>
<g style="fill:#FFFFFF; fill-opacity:1.0000; stroke:none;">
<circle cx="82.9646" cy="9.6282" r="0.4000" /> 
</g>
<g style="fill:#FFFFFF; fill-opacity:1.0000; stroke:none;">
<circle cx="84.7645" cy="17.1282" r="0.4000" /> 
</g>
<g style="fill:#FFFFFF; fill-opacity:1.0000; stroke:none;">
<circle cx="52.1195" cy="5.7582" r="0.4000" /> 
</g>
<g style="fill:#FFFFFF; fill-opacity:1.0000; stroke:none;">
<circle cx="59.7395" cy="8.2982" r="0.4000" /> 
</g>
<g style="fill:#FFFFFF; fill-opacity:1.0000; stroke:none;">
<circle cx="52.1195" cy="10.8383" r="0.4000" /> 
</g>
<g style="fill:#FFFFFF; fill-opacity:1.0000; stroke:none;">
<circle cx="52.1195" cy="8.2982" r="0.4000" /> 
</g>
<g style="fill:#FFFFFF; fill-opacity:1.0000; stroke:none;">
<circle cx="59.7395" cy="5.7582" r="0.4000" /> 
</g>
<g style="fill:#FFFFFF; fill-opacity:1.0000; stroke:none;">
<circle cx="59.7395" cy="10.8383" r="0.4000" /> 
</g>
<g style="fill:#FFFFFF; fill-opacity:1.0000; stroke:none;">
<circle cx="30.5245" cy="9.5682" r="0.5000" /> 
</g>
<g style="fill:#FFFFFF; fill-opacity:1.0000; stroke:none;">
<circle cx="30.5245" cy="12.1082" r="0.5000" /> 
</g>
<g style="fill:#FFFFFF; fill-opacity:1.0000; stroke:none;">
<circle cx="30.5245" cy="14.6482" r="0.5000" /> 
</g>
<g style="fill:#FFFFFF; fill-opacity:1.0000; stroke:none;">
<circle cx="30.5245" cy="17.1883" r="0.5000" /> 
</g>
<g style="fill:#FFFFFF; fill-opacity:1.0000; stroke:none;">
<circle cx="30.5245" cy="19.7282" r="0.5000" /> 
</g>
<g style="fill:#FFFFFF; fill-opacity:1.0000; stroke:none;">
<circle cx="30.5245" cy="22.2682" r="0.5000" /> 
</g>
<g style="fill:#FFFFFF; fill-opacity:1.0000; stroke:none;">
<circle cx="30.5245" cy="24.8082" r="0.5000" /> 
</g>
<g style="fill:#FFFFFF; fill-opacity:1.0000; stroke:none;">
<circle cx="30.5245" cy="27.3483" r="0.5000" /> 
</g>
<g style="fill:#FFFFFF; fill-opacity:1.0000; stroke:none;">
<circle cx="7.6645" cy="27.3483" r="0.5000" /> 
</g>
<g style="fill:#FFFFFF; fill-opacity:1.0000; stroke:none;">
<circle cx="7.6645" cy="24.8082" r="0.5000" /> 
</g>
<g style="fill:#FFFFFF; fill-opacity:1.0000; stroke:none;">
<circle cx="7.6645" cy="22.2682" r="0.5000" /> 
</g>
<g style="fill:#FFFFFF; fill-opacity:1.0000; stroke:none;">
<circle cx="7.6645" cy="19.7282" r="0.5000" /> 
</g>
<g style="fill:#FFFFFF; fill-opacity:1.0000; stroke:none;">
<circle cx="7.6645" cy="17.1883" r="0.5000" /> 
</g>
<g style="fill:#FFFFFF; fill-opacity:1.0000; stroke:none;">
<circle cx="7.6645" cy="14.6482" r="0.5000" /> 
</g>
<g style="fill:#FFFFFF; fill-opacity:1.0000; stroke:none;">
<circle cx="7.6645" cy="12.1082" r="0.5000" /> 
</g>
<g style="fill:#FFFFFF; fill-opacity:1.0000; stroke:none;">
<circle cx="7.6645" cy="9.5682" r="0.5000" /> 
</g>
<g style="fill:#FFFFFF; fill-opacity:1.0000; stroke:none;">
<circle cx="73.7045" cy="20.9982" r="0.5500" /> 
</g>
<g style="fill:#FFFFFF; fill-opacity:1.0000; stroke:none;">
<circle cx="73.7045" cy="31.1582" r="0.5500" /> 
</g>
<g style="fill:#FFFFFF; fill-opacity:1.0000; stroke:none;">
<circle cx="96.5645" cy="36.2383" r="1.1000" /> 
</g>
<g style="fill:#FFFFFF; fill-opacity:1.0000; stroke:none;">
<circle cx="81.3246" cy="33.6983" r="0.5500" /> 
</g>
<g style="fill:#FFFFFF; fill-opacity:1.0000; stroke:none;">
<circle cx="81.3246" cy="23.5382" r="0.5500" /> 
</g>
<g style="fill:#FFFFFF; fill-opacity:1.0000; stroke:none;">
<circle cx="2.5845" cy="3.2182" r="1.1000" /> 
</g>
<g style="fill:#FFFFFF; fill-opacity:1.0000; stroke:none;">
<circle cx="40.6045" cy="13.3782" r="0.4000" /> 
</g>
<g style="fill:#FFFFFF; fill-opacity:1.0000; stroke:none;">
<circle cx="35.6045" cy="13.3782" r="0.4000" /> 
</g> 
</svg>
