<?xml version="1.0" standalone="no"?>
 <!DOCTYPE svg PUBLIC "-//W3C//DTD SVG 1.1//EN" 
 "http://www.w3.org/Graphics/SVG/1.1/DTD/svg11.dtd"> 
<svg
  xmlns:svg="http://www.w3.org/2000/svg"
  xmlns="http://www.w3.org/2000/svg"
  xmlns:xlink="http://www.w3.org/1999/xlink"
  version="1.1"
  width="99.8728mm" height="38.8112mm" viewBox="0.0000 0.0000 99.8728 38.8112">
<title>SVG Image created as MaxPilot-pcb-front.svg date 2026/02/21 20:04:05 </title>
  <desc>Image generated by PCBNEW </desc>
<g style="fill:#000000; fill-opacity:1.0000;stroke:#000000; stroke-opacity:1.0000;
stroke-linecap:round; stroke-linejoin:round;"
 transform="translate(0 0) scale(1 1)">
</g>
<g style="fill:#C83434; fill-opacity:1.0000; stroke:none;">
<circle cx="61.7282" cy="13.3782" r="0.8000" /> 
</g>
<g style="fill:#C83434; fill-opacity:1.0000; stroke:none;">
<circle cx="51.5682" cy="13.3782" r="0.8000" /> 
<circle cx="10.9283" cy="3.2182" r="1.2000" /> 
</g>
<g style="fill:#C83434; fill-opacity:1.0000; stroke:none;">
<circle cx="26.1683" cy="3.2182" r="1.2000" /> 
</g>
<g style="fill:#C83434; fill-opacity:1.0000; stroke:none;">
<circle cx="33.7882" cy="8.2982" r="0.8000" /> 
<path style="fill:#C83434; fill-opacity:1.0000; stroke:none;fill-rule:evenodd;"
d="M 34.5882,13.9283
34.5692,14.0239
34.5150,14.1050
34.4339,14.1592
34.3382,14.1783
33.2383,14.1783
33.1426,14.1592
33.0615,14.1050
33.0073,14.0239
32.9883,13.9283
32.9883,12.8282
33.0073,12.7326
33.0615,12.6515
33.1426,12.5973
33.2383,12.5782
34.3382,12.5782
34.4339,12.5973
34.5150,12.6515
34.5692,12.7326
34.5882,12.8282
Z" /> 
</g>
<g style="fill:#C83434; fill-opacity:1.0000; stroke:none;">
<circle cx="33.7882" cy="10.8383" r="0.8000" /> 
</g>
<g style="fill:#C83434; fill-opacity:1.0000; stroke:none;">
<circle cx="26.1683" cy="8.2982" r="0.8000" /> 
</g>
<g style="fill:#C83434; fill-opacity:1.0000; stroke:none;">
<circle cx="26.1683" cy="13.3782" r="0.8000" /> 
<path style="fill:#C83434; fill-opacity:1.0000; stroke:none;fill-rule:evenodd;"
d="M 4.5782,12.1082
7.1182,12.1082
7.1182,14.6482
4.5782,14.6482
Z" /> 
</g>
<g style="fill:#C83434; fill-opacity:1.0000; stroke:none;">
<circle cx="5.8483" cy="20.9982" r="1.2700" /> 
</g>
<g style="fill:#C83434; fill-opacity:1.0000; stroke:none;">
<circle cx="5.8483" cy="28.6182" r="1.2700" /> 
</g>
<g style="fill:#C83434; fill-opacity:1.0000; stroke:none;">
<circle cx="61.7282" cy="3.2182" r="0.8000" /> 
</g>
<g style="fill:#C83434; fill-opacity:1.0000; stroke:none;">
<circle cx="51.5682" cy="3.2182" r="0.8000" /> 
<path style="fill:#C83434; fill-opacity:1.0000; stroke:none;fill-rule:evenodd;"
d="M 32.6382,25.8833
32.6382,23.8833
34.9382,23.8833
34.9382,25.8833
Z" /> 
<circle cx="33.7882" cy="29.8833" r="1.1500" /> 
</g>
<g style="fill:#C83434; fill-opacity:1.0000; stroke:none;">
<circle cx="63.1882" cy="19.6832" r="1.1500" /> 
</g>
<g style="fill:#C83434; fill-opacity:1.0000; stroke:none;">
<circle cx="63.1882" cy="35.0832" r="1.1500" /> 
</g>
<g style="fill:#C83434; fill-opacity:1.0000; stroke:none;">
<circle cx="16.9082" cy="9.6282" r="0.9000" /> 
</g>
<g style="fill:#C83434; fill-opacity:1.0000; stroke:none;">
<circle cx="15.1082" cy="17.1282" r="0.9000" /> 
</g>
<g style="fill:#C83434; fill-opacity:1.0000; stroke:none;">
<circle cx="47.7533" cy="5.7582" r="0.8000" /> 
<path style="fill:#C83434; fill-opacity:1.0000; stroke:none;fill-rule:evenodd;"
d="M 48.5532,11.3882
48.5342,11.4839
48.4800,11.5650
48.3989,11.6192
48.3032,11.6382
47.2032,11.6382
47.1076,11.6192
47.0265,11.5650
46.9723,11.4839
46.9532,11.3882
46.9532,10.2882
46.9723,10.1926
47.0265,10.1115
47.1076,10.0573
47.2032,10.0382
48.3032,10.0382
48.3989,10.0573
48.4800,10.1115
48.5342,10.1926
48.5532,10.2882
Z" /> 
</g>
<g style="fill:#C83434; fill-opacity:1.0000; stroke:none;">
<circle cx="47.7533" cy="8.2982" r="0.8000" /> 
</g>
<g style="fill:#C83434; fill-opacity:1.0000; stroke:none;">
<circle cx="40.1332" cy="5.7582" r="0.8000" /> 
</g>
<g style="fill:#C83434; fill-opacity:1.0000; stroke:none;">
<circle cx="40.1332" cy="10.8383" r="0.8000" /> 
<path style="fill:#C83434; fill-opacity:1.0000; stroke:none;fill-rule:evenodd;"
d="M 68.3482,10.5682
68.3482,8.5682
70.3482,8.5682
70.3482,10.5682
Z" /> 
</g>
<g style="fill:none; 
stroke:#C83434; stroke-width:1.6000; stroke-opacity:1; 
stroke-linecap:round; stroke-linejoin:round;">
<path d="M69.1482 12.1082
L69.5482 12.1082
" />
<path d="M69.1482 14.6482
L69.5482 14.6482
" />
<path d="M69.1482 17.1883
L69.5482 17.1883
" />
<path d="M69.1482 19.7282
L69.5482 19.7282
" />
<path d="M69.1482 22.2682
L69.5482 22.2682
" />
<path d="M69.1482 24.8082
L69.5482 24.8082
" />
<path d="M69.1482 27.3483
L69.5482 27.3483
" />
<path d="M92.0082 27.3483
L92.4082 27.3483
" />
<path d="M92.0082 24.8082
L92.4082 24.8082
" />
<path d="M92.0082 22.2682
L92.4082 22.2682
" />
<path d="M92.0082 19.7282
L92.4082 19.7282
" />
<path d="M92.0082 17.1883
L92.4082 17.1883
" />
<path d="M92.0082 14.6482
L92.4082 14.6482
" />
<path d="M92.0082 12.1082
L92.4082 12.1082
" />
<path d="M92.0082 9.5682
L92.4082 9.5682
" />
<path style="fill:#C83434; fill-opacity:1.0000; stroke:none;fill-rule:evenodd;"
d="M 25.0682,19.8982
27.2682,19.8982
27.2682,22.0983
25.0682,22.0983
Z" /> 
</g>
<g style="fill:#C83434; fill-opacity:1.0000; stroke:none;">
<circle cx="26.1683" cy="31.1582" r="1.1000" /> 
<path style="fill:#C83434; fill-opacity:1.0000; stroke:none;fill-rule:evenodd;"
d="M 19.6483,34.7982
17.4482,34.7982
17.4482,32.5983
19.6483,32.5983
Z" /> 
<circle cx="18.5482" cy="23.5382" r="1.1000" /> 
<circle cx="61.6482" cy="8.2982" r="0.8000" /> 
</g>
<g style="fill:#C83434; fill-opacity:1.0000; stroke:none;">
<circle cx="56.6482" cy="8.2982" r="0.8000" /> 
</g>
<g style="fill:none; 
stroke:#C83434; stroke-width:2.0000; stroke-opacity:1; 
stroke-linecap:round; stroke-linejoin:round;">
<path d="M10.9283 33.6983
L18.5482 33.6983
" />
<path d="M18.5482 33.6983
L23.6282 33.6983
" />
<path d="M23.6282 33.6983
L26.1683 31.1582
" />
<path d="M5.8483 28.6182
L10.9283 33.6983
" />
<path d="M28.0740 26.5572
L31.4001 29.8833
" />
<path d="M17.6004 29.0972
L21.0882 29.0972
" />
<path d="M13.9472 18.2892
L15.1082 17.1282
" />
<path d="M21.0882 29.0972
L23.6282 26.5572
" />
<path d="M11.2382 20.9982
L13.9472 18.2892
" />
<path d="M15.1082 17.1282
L13.9472 18.2892
" />
<path d="M13.9472 25.4440
L17.6004 29.0972
" />
<path d="M13.9472 18.2892
L13.9472 25.4440
" />
<path d="M5.8483 20.9982
L11.2382 20.9982
" />
<path d="M31.4001 29.8833
L33.7882 29.8833
" />
<path d="M23.6282 26.5572
L28.0740 26.5572
" />
</g>
<g style="fill:none; 
stroke:#C83434; stroke-width:0.2500; stroke-opacity:1; 
stroke-linecap:round; stroke-linejoin:round;">
<path d="M92.2082 24.8082
L92.2082 23.6815
" />
<path d="M67.1865 23.6815
L63.1882 19.6832
" />
<path d="M92.2082 23.6815
L67.1865 23.6815
" />
<path d="M92.2082 28.4749
L69.7965 28.4749
" />
<path d="M92.2082 27.3483
L92.2082 28.4749
" />
<path d="M69.7965 28.4749
L63.1882 35.0832
" />
<path d="M51.5682 13.3782
L50.4415 13.3782
" />
<path d="M36.3282 15.9182
L33.7882 13.3782
" />
<path d="M50.4415 13.3782
L47.9016 15.9182
" />
<path d="M47.9016 15.9182
L36.3282 15.9182
" />
<path d="M47.7533 8.2982
L51.2042 11.7492
" />
<path d="M91.0815 18.6015
L92.2082 18.6015
" />
<path d="M66.7961 13.3782
L85.8582 13.3782
" />
<path d="M92.2082 19.7282
L92.2082 18.6015
" />
<path d="M65.1671 11.7492
L66.7961 13.3782
" />
<path d="M51.2042 11.7492
L65.1671 11.7492
" />
<path d="M85.8582 13.3782
L91.0815 18.6015
" />
<path d="M68.2215 21.1415
L69.3482 21.1415
" />
<path d="M32.6433 14.1640
L35.7415 17.2621
" />
<path d="M33.7882 10.8383
L32.6433 11.9832
" />
<path d="M69.3482 22.2682
L69.3482 21.1415
" />
<path d="M64.3422 17.2621
L68.2215 21.1415
" />
<path d="M35.7415 17.2621
L64.3422 17.2621
" />
<path d="M32.6433 11.9832
L32.6433 14.1640
" />
</g>
<g style="fill:none; 
stroke:#F2EDA1; stroke-width:0.1500; stroke-opacity:1; 
stroke-linecap:round; stroke-linejoin:round;">
<text x="10.9283" y="36.7383"
textLength="9.1548" font-size="1.3333" lengthAdjust="spacingAndGlyphs"
text-anchor="middle" opacity="0" stroke-opacity="0">MaxPilot V2</text>
<g class="stroked-text"><desc>MaxPilot V2</desc>
<path d="M6.7080 36.6931
L6.8330 35.6931
" />
<path d="M6.8330 35.6931
L7.0771 36.4074
" />
<path d="M7.0771 36.4074
L7.4997 35.6931
" />
<path d="M7.4997 35.6931
L7.3747 36.6931
" />
<path d="M8.2794 36.6931
L8.3449 36.1693
" />
<path d="M8.3449 36.1693
L8.3092 36.0740
" />
<path d="M8.3092 36.0740
L8.2199 36.0264
" />
<path d="M8.2199 36.0264
L8.0294 36.0264
" />
<path d="M8.0294 36.0264
L7.9282 36.0740
" />
<path d="M8.2854 36.6454
L8.1842 36.6931
" />
<path d="M8.1842 36.6931
L7.9461 36.6931
" />
<path d="M7.9461 36.6931
L7.8568 36.6454
" />
<path d="M7.8568 36.6454
L7.8211 36.5502
" />
<path d="M7.8211 36.5502
L7.8330 36.4550
" />
<path d="M7.8330 36.4550
L7.8925 36.3597
" />
<path d="M7.8925 36.3597
L7.9937 36.3121
" />
<path d="M7.9937 36.3121
L8.2318 36.3121
" />
<path d="M8.2318 36.3121
L8.3330 36.2645
" />
<path d="M8.6604 36.6931
L9.2675 36.0264
" />
<path d="M8.7437 36.0264
L9.1842 36.6931
" />
<path d="M9.5652 36.6931
L9.6902 35.6931
" />
<path d="M9.6902 35.6931
L10.0711 35.6931
" />
<path d="M10.0711 35.6931
L10.1604 35.7407
" />
<path d="M10.1604 35.7407
L10.2021 35.7883
" />
<path d="M10.2021 35.7883
L10.2378 35.8835
" />
<path d="M10.2378 35.8835
L10.2199 36.0264
" />
<path d="M10.2199 36.0264
L10.1604 36.1216
" />
<path d="M10.1604 36.1216
L10.1068 36.1693
" />
<path d="M10.1068 36.1693
L10.0056 36.2169
" />
<path d="M10.0056 36.2169
L9.6247 36.2169
" />
<path d="M10.5652 36.6931
L10.6485 36.0264
" />
<path d="M10.6902 35.6931
L10.6366 35.7407
" />
<path d="M10.6366 35.7407
L10.6783 35.7883
" />
<path d="M10.6783 35.7883
L10.7318 35.7407
" />
<path d="M10.7318 35.7407
L10.6902 35.6931
" />
<path d="M10.6902 35.6931
L10.6783 35.7883
" />
<path d="M11.1842 36.6931
L11.0949 36.6454
" />
<path d="M11.0949 36.6454
L11.0592 36.5502
" />
<path d="M11.0592 36.5502
L11.1663 35.6931
" />
<path d="M11.7080 36.6931
L11.6187 36.6454
" />
<path d="M11.6187 36.6454
L11.5771 36.5978
" />
<path d="M11.5771 36.5978
L11.5413 36.5026
" />
<path d="M11.5413 36.5026
L11.5771 36.2169
" />
<path d="M11.5771 36.2169
L11.6366 36.1216
" />
<path d="M11.6366 36.1216
L11.6902 36.0740
" />
<path d="M11.6902 36.0740
L11.7913 36.0264
" />
<path d="M11.7913 36.0264
L11.9342 36.0264
" />
<path d="M11.9342 36.0264
L12.0235 36.0740
" />
<path d="M12.0235 36.0740
L12.0652 36.1216
" />
<path d="M12.0652 36.1216
L12.1009 36.2169
" />
<path d="M12.1009 36.2169
L12.0652 36.5026
" />
<path d="M12.0652 36.5026
L12.0056 36.5978
" />
<path d="M12.0056 36.5978
L11.9521 36.6454
" />
<path d="M11.9521 36.6454
L11.8509 36.6931
" />
<path d="M11.8509 36.6931
L11.7080 36.6931
" />
<path d="M12.4104 36.0264
L12.7913 36.0264
" />
<path d="M12.5949 35.6931
L12.4878 36.5502
" />
<path d="M12.4878 36.5502
L12.5235 36.6454
" />
<path d="M12.5235 36.6454
L12.6128 36.6931
" />
<path d="M12.6128 36.6931
L12.7080 36.6931
" />
<path d="M13.7854 35.6931
L13.9937 36.6931
" />
<path d="M13.9937 36.6931
L14.4521 35.6931
" />
<path d="M14.7259 35.7883
L14.7794 35.7407
" />
<path d="M14.7794 35.7407
L14.8806 35.6931
" />
<path d="M14.8806 35.6931
L15.1187 35.6931
" />
<path d="M15.1187 35.6931
L15.2080 35.7407
" />
<path d="M15.2080 35.7407
L15.2497 35.7883
" />
<path d="M15.2497 35.7883
L15.2854 35.8835
" />
<path d="M15.2854 35.8835
L15.2735 35.9788
" />
<path d="M15.2735 35.9788
L15.2080 36.1216
" />
<path d="M15.2080 36.1216
L14.5652 36.6931
" />
<path d="M14.5652 36.6931
L15.1842 36.6931
" />
</g></g>
<g style="fill:none; 
stroke:#F2EDA1; stroke-width:0.1200; stroke-opacity:1; 
stroke-linecap:round; stroke-linejoin:round;">
<text x="23.6282" y="36.6382"
textLength="10.4095" font-size="1.0667" lengthAdjust="spacingAndGlyphs"
text-anchor="middle" opacity="0" stroke-opacity="0">CERN-OHL-S v2</text>
<g class="stroked-text"><desc>CERN-OHL-S v2</desc>
<path d="M19.1711 36.5259
L19.1330 36.5640
" />
<path d="M19.1330 36.5640
L19.0187 36.6021
" />
<path d="M19.0187 36.6021
L18.9425 36.6021
" />
<path d="M18.9425 36.6021
L18.8282 36.5640
" />
<path d="M18.8282 36.5640
L18.7521 36.4878
" />
<path d="M18.7521 36.4878
L18.7140 36.4116
" />
<path d="M18.7140 36.4116
L18.6759 36.2592
" />
<path d="M18.6759 36.2592
L18.6759 36.1450
" />
<path d="M18.6759 36.1450
L18.7140 35.9926
" />
<path d="M18.7140 35.9926
L18.7521 35.9164
" />
<path d="M18.7521 35.9164
L18.8282 35.8402
" />
<path d="M18.8282 35.8402
L18.9425 35.8021
" />
<path d="M18.9425 35.8021
L19.0187 35.8021
" />
<path d="M19.0187 35.8021
L19.1330 35.8402
" />
<path d="M19.1330 35.8402
L19.1711 35.8783
" />
<path d="M19.5140 36.1831
L19.7806 36.1831
" />
<path d="M19.8949 36.6021
L19.5140 36.6021
" />
<path d="M19.5140 36.6021
L19.5140 35.8021
" />
<path d="M19.5140 35.8021
L19.8949 35.8021
" />
<path d="M20.6949 36.6021
L20.4282 36.2212
" />
<path d="M20.2378 36.6021
L20.2378 35.8021
" />
<path d="M20.2378 35.8021
L20.5425 35.8021
" />
<path d="M20.5425 35.8021
L20.6187 35.8402
" />
<path d="M20.6187 35.8402
L20.6568 35.8783
" />
<path d="M20.6568 35.8783
L20.6949 35.9545
" />
<path d="M20.6949 35.9545
L20.6949 36.0688
" />
<path d="M20.6949 36.0688
L20.6568 36.1450
" />
<path d="M20.6568 36.1450
L20.6187 36.1831
" />
<path d="M20.6187 36.1831
L20.5425 36.2212
" />
<path d="M20.5425 36.2212
L20.2378 36.2212
" />
<path d="M21.0378 36.6021
L21.0378 35.8021
" />
<path d="M21.0378 35.8021
L21.4949 36.6021
" />
<path d="M21.4949 36.6021
L21.4949 35.8021
" />
<path d="M21.8759 36.2973
L22.4854 36.2973
" />
<path d="M23.0187 35.8021
L23.1711 35.8021
" />
<path d="M23.1711 35.8021
L23.2473 35.8402
" />
<path d="M23.2473 35.8402
L23.3235 35.9164
" />
<path d="M23.3235 35.9164
L23.3616 36.0688
" />
<path d="M23.3616 36.0688
L23.3616 36.3354
" />
<path d="M23.3616 36.3354
L23.3235 36.4878
" />
<path d="M23.3235 36.4878
L23.2473 36.5640
" />
<path d="M23.2473 36.5640
L23.1711 36.6021
" />
<path d="M23.1711 36.6021
L23.0187 36.6021
" />
<path d="M23.0187 36.6021
L22.9425 36.5640
" />
<path d="M22.9425 36.5640
L22.8663 36.4878
" />
<path d="M22.8663 36.4878
L22.8282 36.3354
" />
<path d="M22.8282 36.3354
L22.8282 36.0688
" />
<path d="M22.8282 36.0688
L22.8663 35.9164
" />
<path d="M22.8663 35.9164
L22.9425 35.8402
" />
<path d="M22.9425 35.8402
L23.0187 35.8021
" />
<path d="M23.7044 36.6021
L23.7044 35.8021
" />
<path d="M23.7044 36.1831
L24.1616 36.1831
" />
<path d="M24.1616 36.6021
L24.1616 35.8021
" />
<path d="M24.9235 36.6021
L24.5425 36.6021
" />
<path d="M24.5425 36.6021
L24.5425 35.8021
" />
<path d="M25.1902 36.2973
L25.7997 36.2973
" />
<path d="M26.1425 36.5640
L26.2568 36.6021
" />
<path d="M26.2568 36.6021
L26.4473 36.6021
" />
<path d="M26.4473 36.6021
L26.5235 36.5640
" />
<path d="M26.5235 36.5640
L26.5616 36.5259
" />
<path d="M26.5616 36.5259
L26.5997 36.4497
" />
<path d="M26.5997 36.4497
L26.5997 36.3735
" />
<path d="M26.5997 36.3735
L26.5616 36.2973
" />
<path d="M26.5616 36.2973
L26.5235 36.2592
" />
<path d="M26.5235 36.2592
L26.4473 36.2212
" />
<path d="M26.4473 36.2212
L26.2949 36.1831
" />
<path d="M26.2949 36.1831
L26.2187 36.1450
" />
<path d="M26.2187 36.1450
L26.1806 36.1069
" />
<path d="M26.1806 36.1069
L26.1425 36.0307
" />
<path d="M26.1425 36.0307
L26.1425 35.9545
" />
<path d="M26.1425 35.9545
L26.1806 35.8783
" />
<path d="M26.1806 35.8783
L26.2187 35.8402
" />
<path d="M26.2187 35.8402
L26.2949 35.8021
" />
<path d="M26.2949 35.8021
L26.4854 35.8021
" />
<path d="M26.4854 35.8021
L26.5997 35.8402
" />
<path d="M27.4759 36.0688
L27.6663 36.6021
" />
<path d="M27.6663 36.6021
L27.8568 36.0688
" />
<path d="M28.1235 35.8783
L28.1616 35.8402
" />
<path d="M28.1616 35.8402
L28.2378 35.8021
" />
<path d="M28.2378 35.8021
L28.4282 35.8021
" />
<path d="M28.4282 35.8021
L28.5044 35.8402
" />
<path d="M28.5044 35.8402
L28.5425 35.8783
" />
<path d="M28.5425 35.8783
L28.5806 35.9545
" />
<path d="M28.5806 35.9545
L28.5806 36.0307
" />
<path d="M28.5806 36.0307
L28.5425 36.1450
" />
<path d="M28.5425 36.1450
L28.0854 36.6021
" />
<path d="M28.0854 36.6021
L28.5806 36.6021
" />
</g></g>
<g style="fill:none; 
stroke:#F2EDA1; stroke-width:0.1500; stroke-opacity:1; 
stroke-linecap:round; stroke-linejoin:round;">
<text x="56.6482" y="16.2482"
textLength="2.2024" font-size="1.3333" lengthAdjust="spacingAndGlyphs"
text-anchor="middle" opacity="0" stroke-opacity="0">R2</text>
<g class="stroked-text"><desc>R2</desc>
<path d="M56.4816 16.2031
L56.1482 15.7269
" />
<path d="M55.9102 16.2031
L55.9102 15.2031
" />
<path d="M55.9102 15.2031
L56.2911 15.2031
" />
<path d="M56.2911 15.2031
L56.3863 15.2507
" />
<path d="M56.3863 15.2507
L56.4340 15.2983
" />
<path d="M56.4340 15.2983
L56.4816 15.3935
" />
<path d="M56.4816 15.3935
L56.4816 15.5364
" />
<path d="M56.4816 15.5364
L56.4340 15.6316
" />
<path d="M56.4340 15.6316
L56.3863 15.6793
" />
<path d="M56.3863 15.6793
L56.2911 15.7269
" />
<path d="M56.2911 15.7269
L55.9102 15.7269
" />
<path d="M56.8625 15.2983
L56.9102 15.2507
" />
<path d="M56.9102 15.2507
L57.0054 15.2031
" />
<path d="M57.0054 15.2031
L57.2435 15.2031
" />
<path d="M57.2435 15.2031
L57.3387 15.2507
" />
<path d="M57.3387 15.2507
L57.3863 15.2983
" />
<path d="M57.3863 15.2983
L57.4340 15.3935
" />
<path d="M57.4340 15.3935
L57.4340 15.4888
" />
<path d="M57.4340 15.4888
L57.3863 15.6316
" />
<path d="M57.3863 15.6316
L56.8149 16.2031
" />
<path d="M56.8149 16.2031
L57.4340 16.2031
" />
</g><text x="18.5482" y="3.7182"
textLength="2.0595" font-size="1.3333" lengthAdjust="spacingAndGlyphs"
text-anchor="middle" opacity="0" stroke-opacity="0">F1</text>
<g class="stroked-text"><desc>F1</desc>
<path d="M18.2149 3.1493
L17.8816 3.1493
" />
<path d="M17.8816 3.6731
L17.8816 2.6731
" />
<path d="M17.8816 2.6731
L18.3578 2.6731
" />
<path d="M19.2625 3.6731
L18.6911 3.6731
" />
<path d="M18.9768 3.6731
L18.9768 2.6731
" />
<path d="M18.9768 2.6731
L18.8816 2.8159
" />
<path d="M18.8816 2.8159
L18.7863 2.9112
" />
<path d="M18.7863 2.9112
L18.6911 2.9588
" />
</g><text x="29.9782" y="16.2082"
textLength="2.2500" font-size="1.3333" lengthAdjust="spacingAndGlyphs"
text-anchor="middle" opacity="0" stroke-opacity="0">U3</text>
<g class="stroked-text"><desc>U3</desc>
<path d="M29.2163 15.1631
L29.2163 15.9726
" />
<path d="M29.2163 15.9726
L29.2640 16.0678
" />
<path d="M29.2640 16.0678
L29.3116 16.1154
" />
<path d="M29.3116 16.1154
L29.4068 16.1631
" />
<path d="M29.4068 16.1631
L29.5973 16.1631
" />
<path d="M29.5973 16.1631
L29.6925 16.1154
" />
<path d="M29.6925 16.1154
L29.7402 16.0678
" />
<path d="M29.7402 16.0678
L29.7878 15.9726
" />
<path d="M29.7878 15.9726
L29.7878 15.1631
" />
<path d="M30.1687 15.1631
L30.7878 15.1631
" />
<path d="M30.7878 15.1631
L30.4544 15.5440
" />
<path d="M30.4544 15.5440
L30.5973 15.5440
" />
<path d="M30.5973 15.5440
L30.6925 15.5916
" />
<path d="M30.6925 15.5916
L30.7402 15.6393
" />
<path d="M30.7402 15.6393
L30.7878 15.7345
" />
<path d="M30.7878 15.7345
L30.7878 15.9726
" />
<path d="M30.7878 15.9726
L30.7402 16.0678
" />
<path d="M30.7402 16.0678
L30.6925 16.1154
" />
<path d="M30.6925 16.1154
L30.5973 16.1631
" />
<path d="M30.5973 16.1631
L30.3116 16.1631
" />
<path d="M30.3116 16.1631
L30.2163 16.1154
" />
<path d="M30.2163 16.1154
L30.1687 16.0678
" />
</g><g transform="rotate(-90.000000 11.8483 20.9982)">
<text x="11.8483" y="21.4982"
textLength="1.9643" font-size="1.3333" lengthAdjust="spacingAndGlyphs"
text-anchor="middle" opacity="0" stroke-opacity="0">J1</text>
</g>
<g class="stroked-text"><desc>J1</desc>
<path d="M11.3031 21.3316
L12.0174 21.3316
" />
<path d="M12.0174 21.3316
L12.1602 21.3792
" />
<path d="M12.1602 21.3792
L12.2554 21.4744
" />
<path d="M12.2554 21.4744
L12.3031 21.6173
" />
<path d="M12.3031 21.6173
L12.3031 21.7125
" />
<path d="M12.3031 20.3316
L12.3031 20.9030
" />
<path d="M12.3031 20.6173
L11.3031 20.6173
" />
<path d="M11.3031 20.6173
L11.4459 20.7125
" />
<path d="M11.4459 20.7125
L11.5412 20.8078
" />
<path d="M11.5412 20.8078
L11.5888 20.9030
" />
</g><text x="56.6482" y="6.0882"
textLength="2.2024" font-size="1.3333" lengthAdjust="spacingAndGlyphs"
text-anchor="middle" opacity="0" stroke-opacity="0">R1</text>
<g class="stroked-text"><desc>R1</desc>
<path d="M56.4816 6.0431
L56.1482 5.5669
" />
<path d="M55.9102 6.0431
L55.9102 5.0431
" />
<path d="M55.9102 5.0431
L56.2911 5.0431
" />
<path d="M56.2911 5.0431
L56.3863 5.0907
" />
<path d="M56.3863 5.0907
L56.4340 5.1383
" />
<path d="M56.4340 5.1383
L56.4816 5.2335
" />
<path d="M56.4816 5.2335
L56.4816 5.3764
" />
<path d="M56.4816 5.3764
L56.4340 5.4716
" />
<path d="M56.4340 5.4716
L56.3863 5.5193
" />
<path d="M56.3863 5.5193
L56.2911 5.5669
" />
<path d="M56.2911 5.5669
L55.9102 5.5669
" />
<path d="M57.4340 6.0431
L56.8625 6.0431
" />
<path d="M57.1482 6.0431
L57.1482 5.0431
" />
<path d="M57.1482 5.0431
L57.0530 5.1859
" />
<path d="M57.0530 5.1859
L56.9578 5.2812
" />
<path d="M56.9578 5.2812
L56.8625 5.3288
" />
</g><g transform="rotate(-90.000000 29.8483 24.3332)">
<text x="29.8483" y="24.8332"
textLength="3.1548" font-size="1.3333" lengthAdjust="spacingAndGlyphs"
text-anchor="middle" opacity="0" stroke-opacity="0">PS1</text>
</g>
<g class="stroked-text"><desc>PS1</desc>
<path d="M30.3031 25.5475
L29.3031 25.5475
" />
<path d="M29.3031 25.5475
L29.3031 25.1666
" />
<path d="M29.3031 25.1666
L29.3507 25.0713
" />
<path d="M29.3507 25.0713
L29.3983 25.0237
" />
<path d="M29.3983 25.0237
L29.4935 24.9761
" />
<path d="M29.4935 24.9761
L29.6364 24.9761
" />
<path d="M29.6364 24.9761
L29.7316 25.0237
" />
<path d="M29.7316 25.0237
L29.7793 25.0713
" />
<path d="M29.7793 25.0713
L29.8269 25.1666
" />
<path d="M29.8269 25.1666
L29.8269 25.5475
" />
<path d="M30.2554 24.5952
L30.3031 24.4523
" />
<path d="M30.3031 24.4523
L30.3031 24.2142
" />
<path d="M30.3031 24.2142
L30.2554 24.1190
" />
<path d="M30.2554 24.1190
L30.2078 24.0713
" />
<path d="M30.2078 24.0713
L30.1126 24.0237
" />
<path d="M30.1126 24.0237
L30.0174 24.0237
" />
<path d="M30.0174 24.0237
L29.9221 24.0713
" />
<path d="M29.9221 24.0713
L29.8745 24.1190
" />
<path d="M29.8745 24.1190
L29.8269 24.2142
" />
<path d="M29.8269 24.2142
L29.7793 24.4047
" />
<path d="M29.7793 24.4047
L29.7316 24.4999
" />
<path d="M29.7316 24.4999
L29.6840 24.5475
" />
<path d="M29.6840 24.5475
L29.5888 24.5952
" />
<path d="M29.5888 24.5952
L29.4935 24.5952
" />
<path d="M29.4935 24.5952
L29.3983 24.5475
" />
<path d="M29.3983 24.5475
L29.3507 24.4999
" />
<path d="M29.3507 24.4999
L29.3031 24.4047
" />
<path d="M29.3031 24.4047
L29.3031 24.1666
" />
<path d="M29.3031 24.1666
L29.3507 24.0237
" />
<path d="M30.3031 23.0713
L30.3031 23.6428
" />
<path d="M30.3031 23.3571
L29.3031 23.3571
" />
<path d="M29.3031 23.3571
L29.4459 23.4523
" />
<path d="M29.4459 23.4523
L29.5412 23.5475
" />
<path d="M29.5412 23.5475
L29.5888 23.6428
" />
</g><g transform="rotate(-90.000000 12.7582 13.3782)">
<text x="12.7582" y="13.8782"
textLength="3.0595" font-size="1.3333" lengthAdjust="spacingAndGlyphs"
text-anchor="middle" opacity="0" stroke-opacity="0">RV1</text>
</g>
<g class="stroked-text"><desc>RV1</desc>
<path d="M13.2131 13.9735
L12.7369 14.3068
" />
<path d="M13.2131 14.5449
L12.2131 14.5449
" />
<path d="M12.2131 14.5449
L12.2131 14.1640
" />
<path d="M12.2131 14.1640
L12.2607 14.0687
" />
<path d="M12.2607 14.0687
L12.3083 14.0211
" />
<path d="M12.3083 14.0211
L12.4035 13.9735
" />
<path d="M12.4035 13.9735
L12.5464 13.9735
" />
<path d="M12.5464 13.9735
L12.6416 14.0211
" />
<path d="M12.6416 14.0211
L12.6893 14.0687
" />
<path d="M12.6893 14.0687
L12.7369 14.1640
" />
<path d="M12.7369 14.1640
L12.7369 14.5449
" />
<path d="M12.2131 13.6878
L13.2131 13.3544
" />
<path d="M13.2131 13.3544
L12.2131 13.0211
" />
<path d="M13.2131 12.1640
L13.2131 12.7354
" />
<path d="M13.2131 12.4497
L12.2131 12.4497
" />
<path d="M12.2131 12.4497
L12.3559 12.5449
" />
<path d="M12.3559 12.5449
L12.4512 12.6402
" />
<path d="M12.4512 12.6402
L12.4988 12.7354
" />
</g><text x="43.9432" y="13.6682"
textLength="2.2500" font-size="1.3333" lengthAdjust="spacingAndGlyphs"
text-anchor="middle" opacity="0" stroke-opacity="0">U2</text>
<g class="stroked-text"><desc>U2</desc>
<path d="M43.1813 12.6231
L43.1813 13.4326
" />
<path d="M43.1813 13.4326
L43.2290 13.5278
" />
<path d="M43.2290 13.5278
L43.2766 13.5755
" />
<path d="M43.2766 13.5755
L43.3718 13.6231
" />
<path d="M43.3718 13.6231
L43.5623 13.6231
" />
<path d="M43.5623 13.6231
L43.6575 13.5755
" />
<path d="M43.6575 13.5755
L43.7052 13.5278
" />
<path d="M43.7052 13.5278
L43.7528 13.4326
" />
<path d="M43.7528 13.4326
L43.7528 12.6231
" />
<path d="M44.1813 12.7183
L44.2290 12.6707
" />
<path d="M44.2290 12.6707
L44.3242 12.6231
" />
<path d="M44.3242 12.6231
L44.5623 12.6231
" />
<path d="M44.5623 12.6231
L44.6575 12.6707
" />
<path d="M44.6575 12.6707
L44.7052 12.7183
" />
<path d="M44.7052 12.7183
L44.7528 12.8135
" />
<path d="M44.7528 12.8135
L44.7528 12.9088
" />
<path d="M44.7528 12.9088
L44.7052 13.0516
" />
<path d="M44.7052 13.0516
L44.1337 13.6231
" />
<path d="M44.1337 13.6231
L44.7528 13.6231
" />
</g><text x="91.3482" y="37.0682"
textLength="2.2500" font-size="1.3333" lengthAdjust="spacingAndGlyphs"
text-anchor="middle" opacity="0" stroke-opacity="0">U1</text>
<g class="stroked-text"><desc>U1</desc>
<path d="M90.5863 36.0231
L90.5863 36.8326
" />
<path d="M90.5863 36.8326
L90.6340 36.9278
" />
<path d="M90.6340 36.9278
L90.6816 36.9754
" />
<path d="M90.6816 36.9754
L90.7768 37.0231
" />
<path d="M90.7768 37.0231
L90.9673 37.0231
" />
<path d="M90.9673 37.0231
L91.0625 36.9754
" />
<path d="M91.0625 36.9754
L91.1102 36.9278
" />
<path d="M91.1102 36.9278
L91.1578 36.8326
" />
<path d="M91.1578 36.8326
L91.1578 36.0231
" />
<path d="M92.1578 37.0231
L91.5863 37.0231
" />
<path d="M91.8721 37.0231
L91.8721 36.0231
" />
<path d="M91.8721 36.0231
L91.7768 36.1659
" />
<path d="M91.7768 36.1659
L91.6816 36.2612
" />
<path d="M91.6816 36.2612
L91.5863 36.3088
" />
</g><g transform="rotate(-90.000000 28.6382 26.0782)">
<text x="28.6382" y="26.5782"
textLength="2.2024" font-size="1.3333" lengthAdjust="spacingAndGlyphs"
text-anchor="middle" opacity="0" stroke-opacity="0">D1</text>
</g>
<g class="stroked-text"><desc>D1</desc>
<path d="M29.0931 26.8163
L28.0931 26.8163
" />
<path d="M28.0931 26.8163
L28.0931 26.5782
" />
<path d="M28.0931 26.5782
L28.1407 26.4354
" />
<path d="M28.1407 26.4354
L28.2359 26.3402
" />
<path d="M28.2359 26.3402
L28.3312 26.2925
" />
<path d="M28.3312 26.2925
L28.5216 26.2449
" />
<path d="M28.5216 26.2449
L28.6645 26.2449
" />
<path d="M28.6645 26.2449
L28.8550 26.2925
" />
<path d="M28.8550 26.2925
L28.9502 26.3402
" />
<path d="M28.9502 26.3402
L29.0454 26.4354
" />
<path d="M29.0454 26.4354
L29.0931 26.5782
" />
<path d="M29.0931 26.5782
L29.0931 26.8163
" />
<path d="M29.0931 25.2925
L29.0931 25.8640
" />
<path d="M29.0931 25.5782
L28.0931 25.5782
" />
<path d="M28.0931 25.5782
L28.2359 25.6735
" />
<path d="M28.2359 25.6735
L28.3312 25.7687
" />
<path d="M28.3312 25.7687
L28.3788 25.8640
" />
</g><g transform="rotate(-90.000000 28.2682 20.9982)">
<text x="28.2682" y="21.4982"
textLength="1.2500" font-size="1.3333" lengthAdjust="spacingAndGlyphs"
text-anchor="middle" opacity="0" stroke-opacity="0">K</text>
</g>
<g class="stroked-text"><desc>K</desc>
<path d="M28.7231 21.2602
L27.7231 21.2602
" />
<path d="M28.7231 20.6887
L28.1516 21.1173
" />
<path d="M27.7231 20.6887
L28.2945 21.2602
" />
</g><g transform="rotate(-90.000000 16.0783 28.6182)">
<text x="16.0783" y="29.1182"
textLength="2.2024" font-size="1.3333" lengthAdjust="spacingAndGlyphs"
text-anchor="middle" opacity="0" stroke-opacity="0">D2</text>
</g>
<g class="stroked-text"><desc>D2</desc>
<path d="M16.5331 29.3563
L15.5331 29.3563
" />
<path d="M15.5331 29.3563
L15.5331 29.1182
" />
<path d="M15.5331 29.1182
L15.5807 28.9754
" />
<path d="M15.5807 28.9754
L15.6759 28.8802
" />
<path d="M15.6759 28.8802
L15.7712 28.8325
" />
<path d="M15.7712 28.8325
L15.9616 28.7849
" />
<path d="M15.9616 28.7849
L16.1045 28.7849
" />
<path d="M16.1045 28.7849
L16.2950 28.8325
" />
<path d="M16.2950 28.8325
L16.3902 28.8802
" />
<path d="M16.3902 28.8802
L16.4855 28.9754
" />
<path d="M16.4855 28.9754
L16.5331 29.1182
" />
<path d="M16.5331 29.1182
L16.5331 29.3563
" />
<path d="M15.6283 28.4040
L15.5807 28.3563
" />
<path d="M15.5807 28.3563
L15.5331 28.2611
" />
<path d="M15.5331 28.2611
L15.5331 28.0230
" />
<path d="M15.5331 28.0230
L15.5807 27.9278
" />
<path d="M15.5807 27.9278
L15.6283 27.8802
" />
<path d="M15.6283 27.8802
L15.7235 27.8325
" />
<path d="M15.7235 27.8325
L15.8188 27.8325
" />
<path d="M15.8188 27.8325
L15.9616 27.8802
" />
<path d="M15.9616 27.8802
L16.5331 28.4516
" />
<path d="M16.5331 28.4516
L16.5331 27.8325
" />
</g><g transform="rotate(-90.000000 16.4482 33.6983)">
<text x="16.4482" y="34.1983"
textLength="1.2500" font-size="1.3333" lengthAdjust="spacingAndGlyphs"
text-anchor="middle" opacity="0" stroke-opacity="0">K</text>
</g>
<g class="stroked-text"><desc>K</desc>
<path d="M16.9031 33.9602
L15.9031 33.9602
" />
<path d="M16.9031 33.3887
L16.3316 33.8173
" />
<path d="M15.9031 33.3887
L16.4745 33.9602
" />
</g><text x="59.1482" y="11.2982"
textLength="2.2024" font-size="1.3333" lengthAdjust="spacingAndGlyphs"
text-anchor="middle" opacity="0" stroke-opacity="0">C1</text>
<g class="stroked-text"><desc>C1</desc>
<path d="M58.9816 11.1578
L58.9340 11.2054
" />
<path d="M58.9340 11.2054
L58.7911 11.2531
" />
<path d="M58.7911 11.2531
L58.6959 11.2531
" />
<path d="M58.6959 11.2531
L58.5530 11.2054
" />
<path d="M58.5530 11.2054
L58.4578 11.1102
" />
<path d="M58.4578 11.1102
L58.4102 11.0150
" />
<path d="M58.4102 11.0150
L58.3625 10.8245
" />
<path d="M58.3625 10.8245
L58.3625 10.6816
" />
<path d="M58.3625 10.6816
L58.4102 10.4912
" />
<path d="M58.4102 10.4912
L58.4578 10.3959
" />
<path d="M58.4578 10.3959
L58.5530 10.3007
" />
<path d="M58.5530 10.3007
L58.6959 10.2531
" />
<path d="M58.6959 10.2531
L58.7911 10.2531
" />
<path d="M58.7911 10.2531
L58.9340 10.3007
" />
<path d="M58.9340 10.3007
L58.9816 10.3483
" />
<path d="M59.9340 11.2531
L59.3625 11.2531
" />
<path d="M59.6482 11.2531
L59.6482 10.2531
" />
<path d="M59.6482 10.2531
L59.5530 10.3959
" />
<path d="M59.5530 10.3959
L59.4578 10.4912
" />
<path d="M59.4578 10.4912
L59.3625 10.5388
" />
</g></g>
<g style="fill:none; 
stroke:#F2EDA1; stroke-width:0.1200; stroke-opacity:1; 
stroke-linecap:round; stroke-linejoin:round;">
<path d="M52.6082 13.3782
L53.3782 13.3782
" />
<path d="M53.3782 12.0083
L53.3782 14.7482
" />
<path d="M53.3782 14.7482
L59.9183 14.7482
" />
<path d="M59.9183 12.0083
L53.3782 12.0083
" />
<path d="M59.9183 14.7482
L59.9183 12.0083
" />
<path d="M60.6882 13.3782
L59.9183 13.3782
" />
<path d="M12.3682 3.2182
L13.4782 3.2182
" />
<path d="M24.7282 3.2182
L23.6182 3.2182
" />
<path style="fill:none; 
stroke:#F2EDA1; stroke-width:0.1200; stroke-opacity:1; 
stroke-linecap:round; stroke-linejoin:round;fill:none"
d="M 13.4782,1.2982
23.6182,1.2982
23.6182,5.1383
13.4782,5.1383
Z" /> 
<path d="M27.3282 6.9682
L27.3282 14.7082
" />
<path d="M27.3282 14.7082
L28.9782 14.7082
" />
<path d="M30.9782 14.7082
L32.6283 14.7082
" />
<path d="M32.6283 6.9682
L27.3282 6.9682
" />
<path d="M32.6283 14.7082
L32.6283 6.9682
" />
<path d="M30.9782 14.7082 A1.0000 1.0000 0.0 0 0 28.9782 14.7082" />
<path d="M1.9782 9.5083
L10.6182 9.5083
" />
<path d="M1.9782 32.4883
L1.9782 9.5083
" />
<path d="M3.7482 10.4882
L3.7482 11.2382
" />
<path d="M3.7482 15.5183
L3.7482 18.8582
" />
<path d="M3.7482 23.1382
L3.7482 26.4782
" />
<path d="M3.7482 30.7583
L3.7482 31.5282
" />
<path d="M9.0482 10.4882
L3.7482 10.4882
" />
<path d="M9.0482 10.4882
L9.0482 31.5282
" />
<path d="M9.0482 31.5282
L3.7482 31.5282
" />
<path d="M10.6182 9.5083
L10.6182 32.4883
" />
<path d="M10.6182 32.4883
L1.9782 32.4883
" />
<path d="M10.9182 9.2082
L9.9182 9.2082
" />
<path d="M10.9182 9.2082
L10.9182 10.2082
" />
<path d="M3.7483 11.2383 A2.9942 2.9942 0.0 0 0 3.7482 15.5182" />
<path d="M3.7483 18.8582 A2.9942 2.9942 0.0 0 0 3.7482 23.1382" />
<path d="M3.7483 26.4782 A2.9942 2.9942 0.0 0 0 3.7482 30.7583" />
<path d="M52.6082 3.2182
L53.3782 3.2182
" />
<path d="M53.3782 1.8482
L53.3782 4.5882
" />
<path d="M53.3782 4.5882
L59.9183 4.5882
" />
<path d="M59.9183 1.8482
L53.3782 1.8482
" />
<path d="M59.9183 4.5882
L59.9183 1.8482
" />
<path d="M60.6882 3.2182
L59.9183 3.2182
" />
<path d="M30.9982 23.8833
L30.9982 25.8932
" />
<path d="M31.3882 17.2832
L31.3882 37.4832
" />
<path d="M31.3882 37.4832
L65.5883 37.4832
" />
<path d="M65.5883 17.2832
L31.3882 17.2832
" />
<path d="M65.5883 37.4832
L65.5883 17.2832
" />
</g>
<g style="fill:none; 
stroke:#F2EDA1; stroke-width:0.1500; stroke-opacity:1; 
stroke-linecap:round; stroke-linejoin:round;">
<path d="M13.7582 7.3782
L13.7582 19.3782
" />
<path d="M18.2583 7.3782
L13.7582 7.3782
" />
<path d="M18.2583 7.3782
L18.2583 19.3782
" />
<path d="M18.2583 19.3782
L13.7582 19.3782
" />
</g>
<g style="fill:none; 
stroke:#F2EDA1; stroke-width:0.1200; stroke-opacity:1; 
stroke-linecap:round; stroke-linejoin:round;">
<path d="M41.2933 4.4283
L41.2933 12.1682
" />
<path d="M41.2933 12.1682
L42.9432 12.1682
" />
<path d="M44.9432 12.1682
L46.5932 12.1682
" />
<path d="M46.5932 4.4283
L41.2933 4.4283
" />
<path d="M46.5932 12.1682
L46.5932 4.4283
" />
<path d="M44.9432 12.1682 A1.0000 1.0000 0.0 0 0 42.9432 12.1682" />
<path d="M67.8482 28.7882
L67.8482 3.3582
" />
<path d="M67.8482 28.7882
L70.3882 28.7882
" />
<path d="M70.3882 28.7882
L70.3882 35.6882
" />
<path d="M70.3882 35.6882
L93.7082 35.6882
" />
<path d="M91.5883 1.2282
L69.9783 1.2282
" />
<path d="M93.7082 35.6882
L93.7082 3.3582
" />
<path d="M69.9783 1.2283 A2.1300 2.1300 0.0 0 0 67.8482 3.3582" />
<path d="M93.7082 3.3582 A2.1300 2.1300 0.0 0 0 91.5782 1.2283" />
<path style="fill:#F2EDA1; fill-opacity:1.0000; 
stroke:#F2EDA1; stroke-width:0.1500; stroke-opacity:1; 
stroke-linecap:round; stroke-linejoin:round;fill-rule:evenodd;"
d="M 67.4432,9.5682
66.8083,10.2032
66.8083,8.9332
Z" /> 
</g>
<g style="fill:none; 
stroke:#F2EDA1; stroke-width:0.1200; stroke-opacity:1; 
stroke-linecap:round; stroke-linejoin:round;">
<path d="M24.6982 23.3582
L24.6982 28.7982
" />
<path d="M24.6982 28.7982
L27.6382 28.7982
" />
<path d="M26.1683 22.3382
L26.1683 23.3582
" />
<path d="M26.1683 29.8182
L26.1683 28.7982
" />
<path d="M27.6382 23.3582
L24.6982 23.3582
" />
<path d="M27.6382 24.1382
L24.6982 24.1382
" />
<path d="M27.6382 24.2583
L24.6982 24.2583
" />
<path d="M27.6382 24.3782
L24.6982 24.3782
" />
<path d="M27.6382 28.7982
L27.6382 23.3582
" />
<path d="M17.0783 25.8982
L17.0783 31.3382
" />
<path d="M17.0783 30.3182
L20.0182 30.3182
" />
<path d="M17.0783 30.4383
L20.0182 30.4383
" />
<path d="M17.0783 30.5582
L20.0182 30.5582
" />
<path d="M17.0783 31.3382
L20.0182 31.3382
" />
<path d="M18.5482 24.8782
L18.5482 25.8982
" />
<path d="M18.5482 32.3582
L18.5482 31.3382
" />
<path d="M20.0182 25.8982
L17.0783 25.8982
" />
<path d="M20.0182 31.3382
L20.0182 25.8982
" />
<path d="M55.0282 9.6682
L55.0282 6.9282
" />
<path d="M63.2682 6.9282
L55.0282 6.9282
" />
<path d="M63.2682 9.6682
L55.0282 9.6682
" />
<path d="M63.2682 9.6682
L63.2682 6.9282
" />
</g>
<g style="fill:#D864FF; fill-opacity:0.4000; stroke:none;">
<circle cx="61.7282" cy="13.3782" r="0.8000" /> 
</g>
<g style="fill:#D864FF; fill-opacity:0.4000; stroke:none;">
<circle cx="51.5682" cy="13.3782" r="0.8000" /> 
<circle cx="10.9283" cy="3.2182" r="1.2000" /> 
</g>
<g style="fill:#D864FF; fill-opacity:0.4000; stroke:none;">
<circle cx="26.1683" cy="3.2182" r="1.2000" /> 
</g>
<g style="fill:#D864FF; fill-opacity:0.4000; stroke:none;">
<circle cx="33.7882" cy="8.2982" r="0.8000" /> 
</g>
<g style="fill:#D864FF; fill-opacity:0.4000; stroke:none;">
<circle cx="26.1683" cy="10.8383" r="0.4000" /> 
<path style="fill:#D864FF; fill-opacity:0.4000; stroke:none;fill-rule:evenodd;"
d="M 34.5882,13.9283
34.5692,14.0239
34.5150,14.1050
34.4339,14.1592
34.3382,14.1783
33.2383,14.1783
33.1426,14.1592
33.0615,14.1050
33.0073,14.0239
32.9883,13.9283
32.9883,12.8282
33.0073,12.7326
33.0615,12.6515
33.1426,12.5973
33.2383,12.5782
34.3382,12.5782
34.4339,12.5973
34.5150,12.6515
34.5692,12.7326
34.5882,12.8282
Z" /> 
</g>
<g style="fill:#D864FF; fill-opacity:0.4000; stroke:none;">
<circle cx="33.7882" cy="10.8383" r="0.8000" /> 
</g>
<g style="fill:#D864FF; fill-opacity:0.4000; stroke:none;">
<circle cx="26.1683" cy="8.2982" r="0.8000" /> 
</g>
<g style="fill:#D864FF; fill-opacity:0.4000; stroke:none;">
<circle cx="26.1683" cy="13.3782" r="0.8000" /> 
<path style="fill:#D864FF; fill-opacity:0.4000; stroke:none;fill-rule:evenodd;"
d="M 4.5782,12.1082
7.1182,12.1082
7.1182,14.6482
4.5782,14.6482
Z" /> 
</g>
<g style="fill:#D864FF; fill-opacity:0.4000; stroke:none;">
<circle cx="5.8483" cy="20.9982" r="1.2700" /> 
</g>
<g style="fill:#D864FF; fill-opacity:0.4000; stroke:none;">
<circle cx="5.8483" cy="28.6182" r="1.2700" /> 
</g>
<g style="fill:#D864FF; fill-opacity:0.4000; stroke:none;">
<circle cx="3.3082" cy="3.2182" r="1.1000" /> 
</g>
<g style="fill:#D864FF; fill-opacity:0.4000; stroke:none;">
<circle cx="97.2882" cy="36.2383" r="1.1000" /> 
</g>
<g style="fill:#D864FF; fill-opacity:0.4000; stroke:none;">
<circle cx="61.7282" cy="3.2182" r="0.8000" /> 
</g>
<g style="fill:#D864FF; fill-opacity:0.4000; stroke:none;">
<circle cx="51.5682" cy="3.2182" r="0.8000" /> 
<path style="fill:#D864FF; fill-opacity:0.4000; stroke:none;fill-rule:evenodd;"
d="M 32.6382,25.8833
32.6382,23.8833
34.9382,23.8833
34.9382,25.8833
Z" /> 
<circle cx="33.7882" cy="29.8833" r="1.1500" /> 
</g>
<g style="fill:#D864FF; fill-opacity:0.4000; stroke:none;">
<circle cx="63.1882" cy="19.6832" r="1.1500" /> 
</g>
<g style="fill:#D864FF; fill-opacity:0.4000; stroke:none;">
<circle cx="63.1882" cy="35.0832" r="1.1500" /> 
</g>
<g style="fill:#D864FF; fill-opacity:0.4000; stroke:none;">
<circle cx="16.9082" cy="9.6282" r="0.9000" /> 
</g>
<g style="fill:#D864FF; fill-opacity:0.4000; stroke:none;">
<circle cx="15.1082" cy="17.1282" r="0.9000" /> 
</g>
<g style="fill:#D864FF; fill-opacity:0.4000; stroke:none;">
<circle cx="47.7533" cy="5.7582" r="0.8000" /> 
</g>
<g style="fill:#D864FF; fill-opacity:0.4000; stroke:none;">
<circle cx="40.1332" cy="8.2982" r="0.4000" /> 
<path style="fill:#D864FF; fill-opacity:0.4000; stroke:none;fill-rule:evenodd;"
d="M 48.5532,11.3882
48.5342,11.4839
48.4800,11.5650
48.3989,11.6192
48.3032,11.6382
47.2032,11.6382
47.1076,11.6192
47.0265,11.5650
46.9723,11.4839
46.9532,11.3882
46.9532,10.2882
46.9723,10.1926
47.0265,10.1115
47.1076,10.0573
47.2032,10.0382
48.3032,10.0382
48.3989,10.0573
48.4800,10.1115
48.5342,10.1926
48.5532,10.2882
Z" /> 
</g>
<g style="fill:#D864FF; fill-opacity:0.4000; stroke:none;">
<circle cx="47.7533" cy="8.2982" r="0.8000" /> 
</g>
<g style="fill:#D864FF; fill-opacity:0.4000; stroke:none;">
<circle cx="40.1332" cy="5.7582" r="0.8000" /> 
</g>
<g style="fill:#D864FF; fill-opacity:0.4000; stroke:none;">
<circle cx="40.1332" cy="10.8383" r="0.8000" /> 
<path style="fill:#D864FF; fill-opacity:0.4000; stroke:none;fill-rule:evenodd;"
d="M 68.3482,10.5682
68.3482,8.5682
70.3482,8.5682
70.3482,10.5682
Z" /> 
</g>
<g style="fill:none; 
stroke:#D864FF; stroke-width:1.6000; stroke-opacity:1; 
stroke-linecap:round; stroke-linejoin:round;">
<path d="M69.1482 12.1082
L69.5482 12.1082
" />
<path d="M69.1482 14.6482
L69.5482 14.6482
" />
<path d="M69.1482 17.1883
L69.5482 17.1883
" />
<path d="M69.1482 19.7282
L69.5482 19.7282
" />
<path d="M69.1482 22.2682
L69.5482 22.2682
" />
<path d="M69.1482 24.8082
L69.5482 24.8082
" />
<path d="M69.1482 27.3483
L69.5482 27.3483
" />
<path d="M92.0082 27.3483
L92.4082 27.3483
" />
<path d="M92.0082 24.8082
L92.4082 24.8082
" />
<path d="M92.0082 22.2682
L92.4082 22.2682
" />
<path d="M92.0082 19.7282
L92.4082 19.7282
" />
<path d="M92.0082 17.1883
L92.4082 17.1883
" />
<path d="M92.0082 14.6482
L92.4082 14.6482
" />
<path d="M92.0082 12.1082
L92.4082 12.1082
" />
<path d="M92.0082 9.5682
L92.4082 9.5682
" />
<path style="fill:#D864FF; fill-opacity:0.4000; stroke:none;fill-rule:evenodd;"
d="M 25.0682,19.8982
27.2682,19.8982
27.2682,22.0983
25.0682,22.0983
Z" /> 
</g>
<g style="fill:#D864FF; fill-opacity:0.4000; stroke:none;">
<circle cx="26.1683" cy="31.1582" r="1.1000" /> 
<circle cx="3.3082" cy="36.2383" r="1.1000" /> 
<path style="fill:#D864FF; fill-opacity:0.4000; stroke:none;fill-rule:evenodd;"
d="M 19.6483,34.7982
17.4482,34.7982
17.4482,32.5983
19.6483,32.5983
Z" /> 
</g>
<g style="fill:#D864FF; fill-opacity:0.4000; stroke:none;">
<circle cx="18.5482" cy="23.5382" r="1.1000" /> 
<circle cx="97.2882" cy="3.2182" r="1.1000" /> 
</g>
<g style="fill:#D864FF; fill-opacity:0.4000; stroke:none;">
<circle cx="61.6482" cy="8.2982" r="0.8000" /> 
</g>
<g style="fill:#D864FF; fill-opacity:0.4000; stroke:none;">
<circle cx="56.6482" cy="8.2982" r="0.8000" /> 
</g>
<g style="fill:none; 
stroke:#D0D2CD; stroke-width:0.1000; stroke-opacity:1; 
stroke-linecap:round; stroke-linejoin:round;">
<path d="M0.7682 0.6783
L99.8282 0.6783
" />
<path d="M99.8282 38.7782
L0.7682 38.7782
" />
<path d="M99.8282 0.6783
L99.8282 38.7782
" />
<path d="M0.7682 38.7782
L0.7682 0.6783
" />
</g>
<g style="fill:#FFFFFF; fill-opacity:1.0000; stroke:none;">
<circle cx="61.7282" cy="13.3782" r="0.4000" /> 
</g>
<g style="fill:#FFFFFF; fill-opacity:1.0000; stroke:none;">
<circle cx="51.5682" cy="13.3782" r="0.4000" /> 
</g>
<g style="fill:#FFFFFF; fill-opacity:1.0000; stroke:none;">
<circle cx="10.9283" cy="3.2182" r="0.6000" /> 
</g>
<g style="fill:#FFFFFF; fill-opacity:1.0000; stroke:none;">
<circle cx="26.1683" cy="3.2182" r="0.6000" /> 
</g>
<g style="fill:#FFFFFF; fill-opacity:1.0000; stroke:none;">
<circle cx="33.7882" cy="8.2982" r="0.4000" /> 
</g>
<g style="fill:#FFFFFF; fill-opacity:1.0000; stroke:none;">
<circle cx="26.1683" cy="10.8383" r="0.4000" /> 
</g>
<g style="fill:#FFFFFF; fill-opacity:1.0000; stroke:none;">
<circle cx="33.7882" cy="13.3782" r="0.4000" /> 
</g>
<g style="fill:#FFFFFF; fill-opacity:1.0000; stroke:none;">
<circle cx="33.7882" cy="10.8383" r="0.4000" /> 
</g>
<g style="fill:#FFFFFF; fill-opacity:1.0000; stroke:none;">
<circle cx="26.1683" cy="8.2982" r="0.4000" /> 
</g>
<g style="fill:#FFFFFF; fill-opacity:1.0000; stroke:none;">
<circle cx="26.1683" cy="13.3782" r="0.4000" /> 
</g>
<g style="fill:#FFFFFF; fill-opacity:1.0000; stroke:none;">
<circle cx="5.8483" cy="13.3782" r="0.8000" /> 
</g>
<g style="fill:#FFFFFF; fill-opacity:1.0000; stroke:none;">
<circle cx="5.8483" cy="20.9982" r="0.8000" /> 
</g>
<g style="fill:#FFFFFF; fill-opacity:1.0000; stroke:none;">
<circle cx="5.8483" cy="28.6182" r="0.8000" /> 
</g>
<g style="fill:#FFFFFF; fill-opacity:1.0000; stroke:none;">
<circle cx="3.3082" cy="3.2182" r="1.1000" /> 
</g>
<g style="fill:#FFFFFF; fill-opacity:1.0000; stroke:none;">
<circle cx="97.2882" cy="36.2383" r="1.1000" /> 
</g>
<g style="fill:#FFFFFF; fill-opacity:1.0000; stroke:none;">
<circle cx="61.7282" cy="3.2182" r="0.4000" /> 
</g>
<g style="fill:#FFFFFF; fill-opacity:1.0000; stroke:none;">
<circle cx="51.5682" cy="3.2182" r="0.4000" /> 
</g>
<g style="fill:#FFFFFF; fill-opacity:1.0000; stroke:none;">
<circle cx="33.7882" cy="24.8833" r="0.5000" /> 
</g>
<g style="fill:#FFFFFF; fill-opacity:1.0000; stroke:none;">
<circle cx="33.7882" cy="29.8833" r="0.5000" /> 
</g>
<g style="fill:#FFFFFF; fill-opacity:1.0000; stroke:none;">
<circle cx="63.1882" cy="19.6832" r="0.5000" /> 
</g>
<g style="fill:#FFFFFF; fill-opacity:1.0000; stroke:none;">
<circle cx="63.1882" cy="35.0832" r="0.5000" /> 
</g>
<g style="fill:#FFFFFF; fill-opacity:1.0000; stroke:none;">
<circle cx="16.9082" cy="9.6282" r="0.4000" /> 
</g>
<g style="fill:#FFFFFF; fill-opacity:1.0000; stroke:none;">
<circle cx="15.1082" cy="17.1282" r="0.4000" /> 
</g>
<g style="fill:#FFFFFF; fill-opacity:1.0000; stroke:none;">
<circle cx="47.7533" cy="5.7582" r="0.4000" /> 
</g>
<g style="fill:#FFFFFF; fill-opacity:1.0000; stroke:none;">
<circle cx="40.1332" cy="8.2982" r="0.4000" /> 
</g>
<g style="fill:#FFFFFF; fill-opacity:1.0000; stroke:none;">
<circle cx="47.7533" cy="10.8383" r="0.4000" /> 
</g>
<g style="fill:#FFFFFF; fill-opacity:1.0000; stroke:none;">
<circle cx="47.7533" cy="8.2982" r="0.4000" /> 
</g>
<g style="fill:#FFFFFF; fill-opacity:1.0000; stroke:none;">
<circle cx="40.1332" cy="5.7582" r="0.4000" /> 
</g>
<g style="fill:#FFFFFF; fill-opacity:1.0000; stroke:none;">
<circle cx="40.1332" cy="10.8383" r="0.4000" /> 
</g>
<g style="fill:#FFFFFF; fill-opacity:1.0000; stroke:none;">
<circle cx="69.3482" cy="9.5682" r="0.5000" /> 
</g>
<g style="fill:#FFFFFF; fill-opacity:1.0000; stroke:none;">
<circle cx="69.3482" cy="12.1082" r="0.5000" /> 
</g>
<g style="fill:#FFFFFF; fill-opacity:1.0000; stroke:none;">
<circle cx="69.3482" cy="14.6482" r="0.5000" /> 
</g>
<g style="fill:#FFFFFF; fill-opacity:1.0000; stroke:none;">
<circle cx="69.3482" cy="17.1883" r="0.5000" /> 
</g>
<g style="fill:#FFFFFF; fill-opacity:1.0000; stroke:none;">
<circle cx="69.3482" cy="19.7282" r="0.5000" /> 
</g>
<g style="fill:#FFFFFF; fill-opacity:1.0000; stroke:none;">
<circle cx="69.3482" cy="22.2682" r="0.5000" /> 
</g>
<g style="fill:#FFFFFF; fill-opacity:1.0000; stroke:none;">
<circle cx="69.3482" cy="24.8082" r="0.5000" /> 
</g>
<g style="fill:#FFFFFF; fill-opacity:1.0000; stroke:none;">
<circle cx="69.3482" cy="27.3483" r="0.5000" /> 
</g>
<g style="fill:#FFFFFF; fill-opacity:1.0000; stroke:none;">
<circle cx="92.2082" cy="27.3483" r="0.5000" /> 
</g>
<g style="fill:#FFFFFF; fill-opacity:1.0000; stroke:none;">
<circle cx="92.2082" cy="24.8082" r="0.5000" /> 
</g>
<g style="fill:#FFFFFF; fill-opacity:1.0000; stroke:none;">
<circle cx="92.2082" cy="22.2682" r="0.5000" /> 
</g>
<g style="fill:#FFFFFF; fill-opacity:1.0000; stroke:none;">
<circle cx="92.2082" cy="19.7282" r="0.5000" /> 
</g>
<g style="fill:#FFFFFF; fill-opacity:1.0000; stroke:none;">
<circle cx="92.2082" cy="17.1883" r="0.5000" /> 
</g>
<g style="fill:#FFFFFF; fill-opacity:1.0000; stroke:none;">
<circle cx="92.2082" cy="14.6482" r="0.5000" /> 
</g>
<g style="fill:#FFFFFF; fill-opacity:1.0000; stroke:none;">
<circle cx="92.2082" cy="12.1082" r="0.5000" /> 
</g>
<g style="fill:#FFFFFF; fill-opacity:1.0000; stroke:none;">
<circle cx="92.2082" cy="9.5682" r="0.5000" /> 
</g>
<g style="fill:#FFFFFF; fill-opacity:1.0000; stroke:none;">
<circle cx="26.1683" cy="20.9982" r="0.5500" /> 
</g>
<g style="fill:#FFFFFF; fill-opacity:1.0000; stroke:none;">
<circle cx="26.1683" cy="31.1582" r="0.5500" /> 
</g>
<g style="fill:#FFFFFF; fill-opacity:1.0000; stroke:none;">
<circle cx="3.3082" cy="36.2383" r="1.1000" /> 
</g>
<g style="fill:#FFFFFF; fill-opacity:1.0000; stroke:none;">
<circle cx="18.5482" cy="33.6983" r="0.5500" /> 
</g>
<g style="fill:#FFFFFF; fill-opacity:1.0000; stroke:none;">
<circle cx="18.5482" cy="23.5382" r="0.5500" /> 
</g>
<g style="fill:#FFFFFF; fill-opacity:1.0000; stroke:none;">
<circle cx="97.2882" cy="3.2182" r="1.1000" /> 
</g>
<g style="fill:#FFFFFF; fill-opacity:1.0000; stroke:none;">
<circle cx="61.6482" cy="8.2982" r="0.4000" /> 
</g>
<g style="fill:#FFFFFF; fill-opacity:1.0000; stroke:none;">
<circle cx="56.6482" cy="8.2982" r="0.4000" /> 
</g> 
</svg>
