<?xml version="1.0" standalone="no"?>
 <!DOCTYPE svg PUBLIC "-//W3C//DTD SVG 1.1//EN" 
 "http://www.w3.org/Graphics/SVG/1.1/DTD/svg11.dtd"> 
<svg
  xmlns:svg="http://www.w3.org/2000/svg"
  xmlns="http://www.w3.org/2000/svg"
  xmlns:xlink="http://www.w3.org/1999/xlink"
  version="1.1"
  width="99.8728mm" height="38.8112mm" viewBox="0.0000 0.0000 99.8728 38.8112">
<title>SVG Image created as MaxPilot-pcb-back.svg date 2026/02/21 18:50:24 </title>
  <desc>Image generated by PCBNEW </desc>
<g style="fill:#000000; fill-opacity:1.0000;stroke:#000000; stroke-opacity:1.0000;
stroke-linecap:round; stroke-linejoin:round;"
 transform="translate(0 0) scale(1 1)">
</g>
<g style="fill:none; 
stroke:#C872AB; stroke-width:0.1500; stroke-opacity:1; 
stroke-linecap:round; stroke-linejoin:round;">
<path d="M-32.0535 -17.1935
L75.9465 -17.1935
L75.9465 14.8065
L-32.0535 14.8065
L-32.0535 -17.1935
" />
</g>
<g style="fill:none; 
stroke:#C872AB; stroke-width:0.1500; stroke-opacity:1; 
stroke-linecap:round; stroke-linejoin:round;">
<path d="M-1.9317 -2.0217
L77.9465 -2.0217
L77.9465 16.8065
L-1.9317 16.8065
L-1.9317 -2.0217
" />
</g>
<g style="fill:none; 
stroke:#C872AB; stroke-width:0.1500; stroke-opacity:1; 
stroke-linecap:round; stroke-linejoin:round;">
<path d="M0.0682 -0.0217
L75.9465 -0.0217
L75.9465 14.8065
L0.0682 14.8065
L0.0682 -0.0217
" />
</g>
<g style="fill:none; 
stroke:#C872AB; stroke-width:0.1500; stroke-opacity:1; 
stroke-linecap:round; stroke-linejoin:round;">
<path d="M48.0682 -0.0217
L48.0682 -2.0217
" />
</g>
<g style="fill:none; 
stroke:#C872AB; stroke-width:0.1500; stroke-opacity:1; 
stroke-linecap:round; stroke-linejoin:round;">
<text x="23.0682" y="-0.3717"
textLength="1.4281" font-size="1.7333" lengthAdjust="spacingAndGlyphs"
text-anchor="start" opacity="0" stroke-opacity="0">1</text>
<g class="stroked-text"><desc>1</desc>
<path d="M24.1574 -0.4281
L23.4146 -0.4281
" />
<path d="M23.7860 -0.4281
L23.7860 -1.7281
" />
<path d="M23.7860 -1.7281
L23.6622 -1.5424
" />
<path d="M23.6622 -1.5424
L23.5384 -1.4186
" />
<path d="M23.5384 -1.4186
L23.4146 -1.3567
" />
</g></g>
<g style="fill:none; 
stroke:#C872AB; stroke-width:0.1500; stroke-opacity:1; 
stroke-linecap:round; stroke-linejoin:round;">
<text x="73.0682" y="-0.3717"
textLength="1.4281" font-size="1.7333" lengthAdjust="spacingAndGlyphs"
text-anchor="start" opacity="0" stroke-opacity="0">2</text>
<g class="stroked-text"><desc>2</desc>
<path d="M73.4146 -1.6043
L73.4765 -1.6662
" />
<path d="M73.4765 -1.6662
L73.6003 -1.7281
" />
<path d="M73.6003 -1.7281
L73.9098 -1.7281
" />
<path d="M73.9098 -1.7281
L74.0336 -1.6662
" />
<path d="M74.0336 -1.6662
L74.0955 -1.6043
" />
<path d="M74.0955 -1.6043
L74.1574 -1.4805
" />
<path d="M74.1574 -1.4805
L74.1574 -1.3567
" />
<path d="M74.1574 -1.3567
L74.0955 -1.1710
" />
<path d="M74.0955 -1.1710
L73.3526 -0.4281
" />
<path d="M73.3526 -0.4281
L74.1574 -0.4281
" />
</g></g>
<g style="fill:none; 
stroke:#C872AB; stroke-width:0.1500; stroke-opacity:1; 
stroke-linecap:round; stroke-linejoin:round;">
<path d="M48.0682 14.8065
L48.0682 16.8065
" />
</g>
<g style="fill:none; 
stroke:#C872AB; stroke-width:0.1500; stroke-opacity:1; 
stroke-linecap:round; stroke-linejoin:round;">
<text x="23.0682" y="16.4565"
textLength="1.4281" font-size="1.7333" lengthAdjust="spacingAndGlyphs"
text-anchor="start" opacity="0" stroke-opacity="0">1</text>
<g class="stroked-text"><desc>1</desc>
<path d="M24.1574 16.4001
L23.4146 16.4001
" />
<path d="M23.7860 16.4001
L23.7860 15.1001
" />
<path d="M23.7860 15.1001
L23.6622 15.2858
" />
<path d="M23.6622 15.2858
L23.5384 15.4096
" />
<path d="M23.5384 15.4096
L23.4146 15.4715
" />
</g></g>
<g style="fill:none; 
stroke:#C872AB; stroke-width:0.1500; stroke-opacity:1; 
stroke-linecap:round; stroke-linejoin:round;">
<text x="73.0682" y="16.4565"
textLength="1.4281" font-size="1.7333" lengthAdjust="spacingAndGlyphs"
text-anchor="start" opacity="0" stroke-opacity="0">2</text>
<g class="stroked-text"><desc>2</desc>
<path d="M73.4146 15.2239
L73.4765 15.1620
" />
<path d="M73.4765 15.1620
L73.6003 15.1001
" />
<path d="M73.6003 15.1001
L73.9098 15.1001
" />
<path d="M73.9098 15.1001
L74.0336 15.1620
" />
<path d="M74.0336 15.1620
L74.0955 15.2239
" />
<path d="M74.0955 15.2239
L74.1574 15.3477
" />
<path d="M74.1574 15.3477
L74.1574 15.4715
" />
<path d="M74.1574 15.4715
L74.0955 15.6572
" />
<path d="M74.0955 15.6572
L73.3526 16.4001
" />
<path d="M73.3526 16.4001
L74.1574 16.4001
" />
</g></g>
<g style="fill:none; 
stroke:#C872AB; stroke-width:0.1500; stroke-opacity:1; 
stroke-linecap:round; stroke-linejoin:round;">
<path d="M-1.9317 47.9782
L0.0682 47.9782
" />
</g>
<g style="fill:none; 
stroke:#C872AB; stroke-width:0.1500; stroke-opacity:1; 
stroke-linecap:round; stroke-linejoin:round;">
<text x="-0.9317" y="23.6282"
textLength="1.3043" font-size="1.7333" lengthAdjust="spacingAndGlyphs"
text-anchor="middle" opacity="0" stroke-opacity="0">A</text>
<g class="stroked-text"><desc>A</desc>
<path d="M-1.2413 23.2004
L-0.6222 23.2004
" />
<path d="M-1.3651 23.5719
L-0.9318 22.2719
" />
<path d="M-0.9318 22.2719
L-0.4984 23.5719
" />
</g></g>
<g style="fill:none; 
stroke:#C872AB; stroke-width:0.1500; stroke-opacity:1; 
stroke-linecap:round; stroke-linejoin:round;">
<path d="M77.9465 47.9782
L75.9465 47.9782
" />
</g>
<g style="fill:none; 
stroke:#C872AB; stroke-width:0.1500; stroke-opacity:1; 
stroke-linecap:round; stroke-linejoin:round;">
<text x="76.9465" y="23.6282"
textLength="1.3043" font-size="1.7333" lengthAdjust="spacingAndGlyphs"
text-anchor="middle" opacity="0" stroke-opacity="0">A</text>
<g class="stroked-text"><desc>A</desc>
<path d="M76.6370 23.2004
L77.2560 23.2004
" />
<path d="M76.5132 23.5719
L76.9465 22.2719
" />
<path d="M76.9465 22.2719
L77.3798 23.5719
" />
</g></g>
<g style="fill:none; 
stroke:#C872AB; stroke-width:0.1500; stroke-opacity:1; 
stroke-linecap:round; stroke-linejoin:round;">
<text x="-9.0535" y="10.6565"
textLength="7.0071" font-size="2.0000" lengthAdjust="spacingAndGlyphs"
text-anchor="start" opacity="0" stroke-opacity="0">Date: </text>
<g class="stroked-text"><desc>Date: </desc>
<path d="M-8.5977 10.5926
L-8.5977 9.0926
" />
<path d="M-8.5977 9.0926
L-8.2405 9.0926
" />
<path d="M-8.2405 9.0926
L-8.0262 9.1641
" />
<path d="M-8.0262 9.1641
L-7.8834 9.3069
" />
<path d="M-7.8834 9.3069
L-7.8120 9.4498
" />
<path d="M-7.8120 9.4498
L-7.7405 9.7355
" />
<path d="M-7.7405 9.7355
L-7.7405 9.9498
" />
<path d="M-7.7405 9.9498
L-7.8120 10.2355
" />
<path d="M-7.8120 10.2355
L-7.8834 10.3783
" />
<path d="M-7.8834 10.3783
L-8.0262 10.5212
" />
<path d="M-8.0262 10.5212
L-8.2405 10.5926
" />
<path d="M-8.2405 10.5926
L-8.5977 10.5926
" />
<path d="M-6.4548 10.5926
L-6.4548 9.8069
" />
<path d="M-6.4548 9.8069
L-6.5262 9.6641
" />
<path d="M-6.5262 9.6641
L-6.6691 9.5926
" />
<path d="M-6.6691 9.5926
L-6.9548 9.5926
" />
<path d="M-6.9548 9.5926
L-7.0977 9.6641
" />
<path d="M-6.4548 10.5212
L-6.5977 10.5926
" />
<path d="M-6.5977 10.5926
L-6.9548 10.5926
" />
<path d="M-6.9548 10.5926
L-7.0977 10.5212
" />
<path d="M-7.0977 10.5212
L-7.1691 10.3783
" />
<path d="M-7.1691 10.3783
L-7.1691 10.2355
" />
<path d="M-7.1691 10.2355
L-7.0977 10.0926
" />
<path d="M-7.0977 10.0926
L-6.9548 10.0212
" />
<path d="M-6.9548 10.0212
L-6.5977 10.0212
" />
<path d="M-6.5977 10.0212
L-6.4548 9.9498
" />
<path d="M-5.9548 9.5926
L-5.3834 9.5926
" />
<path d="M-5.7405 9.0926
L-5.7405 10.3783
" />
<path d="M-5.7405 10.3783
L-5.6691 10.5212
" />
<path d="M-5.6691 10.5212
L-5.5262 10.5926
" />
<path d="M-5.5262 10.5926
L-5.3834 10.5926
" />
<path d="M-4.3120 10.5212
L-4.4548 10.5926
" />
<path d="M-4.4548 10.5926
L-4.7405 10.5926
" />
<path d="M-4.7405 10.5926
L-4.8834 10.5212
" />
<path d="M-4.8834 10.5212
L-4.9548 10.3783
" />
<path d="M-4.9548 10.3783
L-4.9548 9.8069
" />
<path d="M-4.9548 9.8069
L-4.8834 9.6641
" />
<path d="M-4.8834 9.6641
L-4.7405 9.5926
" />
<path d="M-4.7405 9.5926
L-4.4548 9.5926
" />
<path d="M-4.4548 9.5926
L-4.3120 9.6641
" />
<path d="M-4.3120 9.6641
L-4.2405 9.8069
" />
<path d="M-4.2405 9.8069
L-4.2405 9.9498
" />
<path d="M-4.2405 9.9498
L-4.9548 10.0926
" />
<path d="M-3.5977 10.4498
L-3.5262 10.5212
" />
<path d="M-3.5262 10.5212
L-3.5977 10.5926
" />
<path d="M-3.5977 10.5926
L-3.6691 10.5212
" />
<path d="M-3.6691 10.5212
L-3.5977 10.4498
" />
<path d="M-3.5977 10.4498
L-3.5977 10.5926
" />
<path d="M-3.5977 9.6641
L-3.5262 9.7355
" />
<path d="M-3.5262 9.7355
L-3.5977 9.8069
" />
<path d="M-3.5977 9.8069
L-3.6691 9.7355
" />
<path d="M-3.6691 9.7355
L-3.5977 9.6641
" />
<path d="M-3.5977 9.6641
L-3.5977 9.8069
" />
</g></g>
<g style="fill:none; 
stroke:#C872AB; stroke-width:0.1500; stroke-opacity:1; 
stroke-linecap:round; stroke-linejoin:round;">
<path d="M-32.0535 11.3065
L75.9465 11.3065
" />
</g>
<g style="fill:none; 
stroke:#C872AB; stroke-width:0.1500; stroke-opacity:1; 
stroke-linecap:round; stroke-linejoin:round;">
<text x="-31.0535" y="13.4565"
textLength="20.8643" font-size="2.0000" lengthAdjust="spacingAndGlyphs"
text-anchor="start" opacity="0" stroke-opacity="0">KiCad E.D.A. 9.0.3</text>
<g class="stroked-text"><desc>KiCad E.D.A. 9.0.3</desc>
<path d="M-30.5977 13.3926
L-30.5977 11.8926
" />
<path d="M-29.7405 13.3926
L-30.3834 12.5355
" />
<path d="M-29.7405 11.8926
L-30.5977 12.7498
" />
<path d="M-29.0977 13.3926
L-29.0977 12.3926
" />
<path d="M-29.0977 11.8926
L-29.1691 11.9641
" />
<path d="M-29.1691 11.9641
L-29.0977 12.0355
" />
<path d="M-29.0977 12.0355
L-29.0262 11.9641
" />
<path d="M-29.0262 11.9641
L-29.0977 11.8926
" />
<path d="M-29.0977 11.8926
L-29.0977 12.0355
" />
<path d="M-27.5262 13.2498
L-27.5977 13.3212
" />
<path d="M-27.5977 13.3212
L-27.8120 13.3926
" />
<path d="M-27.8120 13.3926
L-27.9548 13.3926
" />
<path d="M-27.9548 13.3926
L-28.1691 13.3212
" />
<path d="M-28.1691 13.3212
L-28.3120 13.1783
" />
<path d="M-28.3120 13.1783
L-28.3834 13.0355
" />
<path d="M-28.3834 13.0355
L-28.4548 12.7498
" />
<path d="M-28.4548 12.7498
L-28.4548 12.5355
" />
<path d="M-28.4548 12.5355
L-28.3834 12.2498
" />
<path d="M-28.3834 12.2498
L-28.3120 12.1069
" />
<path d="M-28.3120 12.1069
L-28.1691 11.9641
" />
<path d="M-28.1691 11.9641
L-27.9548 11.8926
" />
<path d="M-27.9548 11.8926
L-27.8120 11.8926
" />
<path d="M-27.8120 11.8926
L-27.5977 11.9641
" />
<path d="M-27.5977 11.9641
L-27.5262 12.0355
" />
<path d="M-26.2405 13.3926
L-26.2405 12.6069
" />
<path d="M-26.2405 12.6069
L-26.3120 12.4641
" />
<path d="M-26.3120 12.4641
L-26.4548 12.3926
" />
<path d="M-26.4548 12.3926
L-26.7405 12.3926
" />
<path d="M-26.7405 12.3926
L-26.8834 12.4641
" />
<path d="M-26.2405 13.3212
L-26.3834 13.3926
" />
<path d="M-26.3834 13.3926
L-26.7405 13.3926
" />
<path d="M-26.7405 13.3926
L-26.8834 13.3212
" />
<path d="M-26.8834 13.3212
L-26.9548 13.1783
" />
<path d="M-26.9548 13.1783
L-26.9548 13.0355
" />
<path d="M-26.9548 13.0355
L-26.8834 12.8926
" />
<path d="M-26.8834 12.8926
L-26.7405 12.8212
" />
<path d="M-26.7405 12.8212
L-26.3834 12.8212
" />
<path d="M-26.3834 12.8212
L-26.2405 12.7498
" />
<path d="M-24.8834 13.3926
L-24.8834 11.8926
" />
<path d="M-24.8834 13.3212
L-25.0262 13.3926
" />
<path d="M-25.0262 13.3926
L-25.3120 13.3926
" />
<path d="M-25.3120 13.3926
L-25.4548 13.3212
" />
<path d="M-25.4548 13.3212
L-25.5262 13.2498
" />
<path d="M-25.5262 13.2498
L-25.5977 13.1069
" />
<path d="M-25.5977 13.1069
L-25.5977 12.6783
" />
<path d="M-25.5977 12.6783
L-25.5262 12.5355
" />
<path d="M-25.5262 12.5355
L-25.4548 12.4641
" />
<path d="M-25.4548 12.4641
L-25.3120 12.3926
" />
<path d="M-25.3120 12.3926
L-25.0262 12.3926
" />
<path d="M-25.0262 12.3926
L-24.8834 12.4641
" />
<path d="M-23.0262 12.6069
L-22.5262 12.6069
" />
<path d="M-22.3120 13.3926
L-23.0262 13.3926
" />
<path d="M-23.0262 13.3926
L-23.0262 11.8926
" />
<path d="M-23.0262 11.8926
L-22.3120 11.8926
" />
<path d="M-21.6691 13.2498
L-21.5977 13.3212
" />
<path d="M-21.5977 13.3212
L-21.6691 13.3926
" />
<path d="M-21.6691 13.3926
L-21.7405 13.3212
" />
<path d="M-21.7405 13.3212
L-21.6691 13.2498
" />
<path d="M-21.6691 13.2498
L-21.6691 13.3926
" />
<path d="M-20.9548 13.3926
L-20.9548 11.8926
" />
<path d="M-20.9548 11.8926
L-20.5977 11.8926
" />
<path d="M-20.5977 11.8926
L-20.3834 11.9641
" />
<path d="M-20.3834 11.9641
L-20.2405 12.1069
" />
<path d="M-20.2405 12.1069
L-20.1691 12.2498
" />
<path d="M-20.1691 12.2498
L-20.0977 12.5355
" />
<path d="M-20.0977 12.5355
L-20.0977 12.7498
" />
<path d="M-20.0977 12.7498
L-20.1691 13.0355
" />
<path d="M-20.1691 13.0355
L-20.2405 13.1783
" />
<path d="M-20.2405 13.1783
L-20.3834 13.3212
" />
<path d="M-20.3834 13.3212
L-20.5977 13.3926
" />
<path d="M-20.5977 13.3926
L-20.9548 13.3926
" />
<path d="M-19.4548 13.2498
L-19.3834 13.3212
" />
<path d="M-19.3834 13.3212
L-19.4548 13.3926
" />
<path d="M-19.4548 13.3926
L-19.5262 13.3212
" />
<path d="M-19.5262 13.3212
L-19.4548 13.2498
" />
<path d="M-19.4548 13.2498
L-19.4548 13.3926
" />
<path d="M-18.8120 12.9641
L-18.0977 12.9641
" />
<path d="M-18.9548 13.3926
L-18.4548 11.8926
" />
<path d="M-18.4548 11.8926
L-17.9548 13.3926
" />
<path d="M-17.4548 13.2498
L-17.3834 13.3212
" />
<path d="M-17.3834 13.3212
L-17.4548 13.3926
" />
<path d="M-17.4548 13.3926
L-17.5262 13.3212
" />
<path d="M-17.5262 13.3212
L-17.4548 13.2498
" />
<path d="M-17.4548 13.2498
L-17.4548 13.3926
" />
<path d="M-15.5262 13.3926
L-15.2405 13.3926
" />
<path d="M-15.2405 13.3926
L-15.0977 13.3212
" />
<path d="M-15.0977 13.3212
L-15.0262 13.2498
" />
<path d="M-15.0262 13.2498
L-14.8834 13.0355
" />
<path d="M-14.8834 13.0355
L-14.8120 12.7498
" />
<path d="M-14.8120 12.7498
L-14.8120 12.1783
" />
<path d="M-14.8120 12.1783
L-14.8834 12.0355
" />
<path d="M-14.8834 12.0355
L-14.9548 11.9641
" />
<path d="M-14.9548 11.9641
L-15.0977 11.8926
" />
<path d="M-15.0977 11.8926
L-15.3834 11.8926
" />
<path d="M-15.3834 11.8926
L-15.5262 11.9641
" />
<path d="M-15.5262 11.9641
L-15.5977 12.0355
" />
<path d="M-15.5977 12.0355
L-15.6691 12.1783
" />
<path d="M-15.6691 12.1783
L-15.6691 12.5355
" />
<path d="M-15.6691 12.5355
L-15.5977 12.6783
" />
<path d="M-15.5977 12.6783
L-15.5262 12.7498
" />
<path d="M-15.5262 12.7498
L-15.3834 12.8212
" />
<path d="M-15.3834 12.8212
L-15.0977 12.8212
" />
<path d="M-15.0977 12.8212
L-14.9548 12.7498
" />
<path d="M-14.9548 12.7498
L-14.8834 12.6783
" />
<path d="M-14.8834 12.6783
L-14.8120 12.5355
" />
<path d="M-14.1691 13.2498
L-14.0977 13.3212
" />
<path d="M-14.0977 13.3212
L-14.1691 13.3926
" />
<path d="M-14.1691 13.3926
L-14.2405 13.3212
" />
<path d="M-14.2405 13.3212
L-14.1691 13.2498
" />
<path d="M-14.1691 13.2498
L-14.1691 13.3926
" />
<path d="M-13.1691 11.8926
L-13.0262 11.8926
" />
<path d="M-13.0262 11.8926
L-12.8834 11.9641
" />
<path d="M-12.8834 11.9641
L-12.8120 12.0355
" />
<path d="M-12.8120 12.0355
L-12.7405 12.1783
" />
<path d="M-12.7405 12.1783
L-12.6691 12.4641
" />
<path d="M-12.6691 12.4641
L-12.6691 12.8212
" />
<path d="M-12.6691 12.8212
L-12.7405 13.1069
" />
<path d="M-12.7405 13.1069
L-12.8120 13.2498
" />
<path d="M-12.8120 13.2498
L-12.8834 13.3212
" />
<path d="M-12.8834 13.3212
L-13.0262 13.3926
" />
<path d="M-13.0262 13.3926
L-13.1691 13.3926
" />
<path d="M-13.1691 13.3926
L-13.3120 13.3212
" />
<path d="M-13.3120 13.3212
L-13.3834 13.2498
" />
<path d="M-13.3834 13.2498
L-13.4548 13.1069
" />
<path d="M-13.4548 13.1069
L-13.5262 12.8212
" />
<path d="M-13.5262 12.8212
L-13.5262 12.4641
" />
<path d="M-13.5262 12.4641
L-13.4548 12.1783
" />
<path d="M-13.4548 12.1783
L-13.3834 12.0355
" />
<path d="M-13.3834 12.0355
L-13.3120 11.9641
" />
<path d="M-13.3120 11.9641
L-13.1691 11.8926
" />
<path d="M-12.0262 13.2498
L-11.9548 13.3212
" />
<path d="M-11.9548 13.3212
L-12.0262 13.3926
" />
<path d="M-12.0262 13.3926
L-12.0977 13.3212
" />
<path d="M-12.0977 13.3212
L-12.0262 13.2498
" />
<path d="M-12.0262 13.2498
L-12.0262 13.3926
" />
<path d="M-11.4548 11.8926
L-10.5262 11.8926
" />
<path d="M-10.5262 11.8926
L-11.0262 12.4641
" />
<path d="M-11.0262 12.4641
L-10.8120 12.4641
" />
<path d="M-10.8120 12.4641
L-10.6691 12.5355
" />
<path d="M-10.6691 12.5355
L-10.5977 12.6069
" />
<path d="M-10.5977 12.6069
L-10.5262 12.7498
" />
<path d="M-10.5262 12.7498
L-10.5262 13.1069
" />
<path d="M-10.5262 13.1069
L-10.5977 13.2498
" />
<path d="M-10.5977 13.2498
L-10.6691 13.3212
" />
<path d="M-10.6691 13.3212
L-10.8120 13.3926
" />
<path d="M-10.8120 13.3926
L-11.2405 13.3926
" />
<path d="M-11.2405 13.3926
L-11.3834 13.3212
" />
<path d="M-11.3834 13.3212
L-11.4548 13.2498
" />
</g></g>
<g style="fill:none; 
stroke:#C872AB; stroke-width:0.1500; stroke-opacity:1; 
stroke-linecap:round; stroke-linejoin:round;">
<path d="M-32.0535 8.3065
L75.9465 8.3065
" />
</g>
<g style="fill:none; 
stroke:#C872AB; stroke-width:0.3000; stroke-opacity:1; 
stroke-linecap:round; stroke-linejoin:round;">
<text x="53.9465" y="10.6565"
textLength="6.3857" font-size="2.0000" lengthAdjust="spacingAndGlyphs"
text-anchor="start" opacity="0" stroke-opacity="0">Rev: </text>
<g class="stroked-text"><desc>Rev: </desc>
<path d="M55.3582 10.5848
L54.8582 9.8705
" />
<path d="M54.5010 10.5848
L54.5010 9.0848
" />
<path d="M54.5010 9.0848
L55.0724 9.0848
" />
<path d="M55.0724 9.0848
L55.2153 9.1563
" />
<path d="M55.2153 9.1563
L55.2867 9.2277
" />
<path d="M55.2867 9.2277
L55.3582 9.3705
" />
<path d="M55.3582 9.3705
L55.3582 9.5848
" />
<path d="M55.3582 9.5848
L55.2867 9.7277
" />
<path d="M55.2867 9.7277
L55.2153 9.7991
" />
<path d="M55.2153 9.7991
L55.0724 9.8705
" />
<path d="M55.0724 9.8705
L54.5010 9.8705
" />
<path d="M56.5724 10.5134
L56.4296 10.5848
" />
<path d="M56.4296 10.5848
L56.1439 10.5848
" />
<path d="M56.1439 10.5848
L56.0010 10.5134
" />
<path d="M56.0010 10.5134
L55.9296 10.3705
" />
<path d="M55.9296 10.3705
L55.9296 9.7991
" />
<path d="M55.9296 9.7991
L56.0010 9.6563
" />
<path d="M56.0010 9.6563
L56.1439 9.5848
" />
<path d="M56.1439 9.5848
L56.4296 9.5848
" />
<path d="M56.4296 9.5848
L56.5724 9.6563
" />
<path d="M56.5724 9.6563
L56.6439 9.7991
" />
<path d="M56.6439 9.7991
L56.6439 9.9420
" />
<path d="M56.6439 9.9420
L55.9296 10.0848
" />
<path d="M57.1439 9.5848
L57.5010 10.5848
" />
<path d="M57.5010 10.5848
L57.8582 9.5848
" />
<path d="M58.4296 10.4420
L58.5010 10.5134
" />
<path d="M58.5010 10.5134
L58.4296 10.5848
" />
<path d="M58.4296 10.5848
L58.3582 10.5134
" />
<path d="M58.3582 10.5134
L58.4296 10.4420
" />
<path d="M58.4296 10.4420
L58.4296 10.5848
" />
<path d="M58.4296 9.6563
L58.5010 9.7277
" />
<path d="M58.5010 9.7277
L58.4296 9.7991
" />
<path d="M58.4296 9.7991
L58.3582 9.7277
" />
<path d="M58.3582 9.7277
L58.4296 9.6563
" />
<path d="M58.4296 9.6563
L58.4296 9.7991
" />
</g></g>
<g style="fill:none; 
stroke:#C872AB; stroke-width:0.1500; stroke-opacity:1; 
stroke-linecap:round; stroke-linejoin:round;">
<text x="-31.0535" y="10.6565"
textLength="11.6500" font-size="2.0000" lengthAdjust="spacingAndGlyphs"
text-anchor="start" opacity="0" stroke-opacity="0">Size: User</text>
<g class="stroked-text"><desc>Size: User</desc>
<path d="M-30.6691 10.5212
L-30.4548 10.5926
" />
<path d="M-30.4548 10.5926
L-30.0977 10.5926
" />
<path d="M-30.0977 10.5926
L-29.9548 10.5212
" />
<path d="M-29.9548 10.5212
L-29.8834 10.4498
" />
<path d="M-29.8834 10.4498
L-29.8120 10.3069
" />
<path d="M-29.8120 10.3069
L-29.8120 10.1641
" />
<path d="M-29.8120 10.1641
L-29.8834 10.0212
" />
<path d="M-29.8834 10.0212
L-29.9548 9.9498
" />
<path d="M-29.9548 9.9498
L-30.0977 9.8783
" />
<path d="M-30.0977 9.8783
L-30.3834 9.8069
" />
<path d="M-30.3834 9.8069
L-30.5262 9.7355
" />
<path d="M-30.5262 9.7355
L-30.5977 9.6641
" />
<path d="M-30.5977 9.6641
L-30.6691 9.5212
" />
<path d="M-30.6691 9.5212
L-30.6691 9.3783
" />
<path d="M-30.6691 9.3783
L-30.5977 9.2355
" />
<path d="M-30.5977 9.2355
L-30.5262 9.1641
" />
<path d="M-30.5262 9.1641
L-30.3834 9.0926
" />
<path d="M-30.3834 9.0926
L-30.0262 9.0926
" />
<path d="M-30.0262 9.0926
L-29.8120 9.1641
" />
<path d="M-29.1691 10.5926
L-29.1691 9.5926
" />
<path d="M-29.1691 9.0926
L-29.2405 9.1641
" />
<path d="M-29.2405 9.1641
L-29.1691 9.2355
" />
<path d="M-29.1691 9.2355
L-29.0977 9.1641
" />
<path d="M-29.0977 9.1641
L-29.1691 9.0926
" />
<path d="M-29.1691 9.0926
L-29.1691 9.2355
" />
<path d="M-28.5977 9.5926
L-27.8120 9.5926
" />
<path d="M-27.8120 9.5926
L-28.5977 10.5926
" />
<path d="M-28.5977 10.5926
L-27.8120 10.5926
" />
<path d="M-26.6691 10.5212
L-26.8120 10.5926
" />
<path d="M-26.8120 10.5926
L-27.0977 10.5926
" />
<path d="M-27.0977 10.5926
L-27.2405 10.5212
" />
<path d="M-27.2405 10.5212
L-27.3120 10.3783
" />
<path d="M-27.3120 10.3783
L-27.3120 9.8069
" />
<path d="M-27.3120 9.8069
L-27.2405 9.6641
" />
<path d="M-27.2405 9.6641
L-27.0977 9.5926
" />
<path d="M-27.0977 9.5926
L-26.8120 9.5926
" />
<path d="M-26.8120 9.5926
L-26.6691 9.6641
" />
<path d="M-26.6691 9.6641
L-26.5977 9.8069
" />
<path d="M-26.5977 9.8069
L-26.5977 9.9498
" />
<path d="M-26.5977 9.9498
L-27.3120 10.0926
" />
<path d="M-25.9548 10.4498
L-25.8834 10.5212
" />
<path d="M-25.8834 10.5212
L-25.9548 10.5926
" />
<path d="M-25.9548 10.5926
L-26.0262 10.5212
" />
<path d="M-26.0262 10.5212
L-25.9548 10.4498
" />
<path d="M-25.9548 10.4498
L-25.9548 10.5926
" />
<path d="M-25.9548 9.6641
L-25.8834 9.7355
" />
<path d="M-25.8834 9.7355
L-25.9548 9.8069
" />
<path d="M-25.9548 9.8069
L-26.0262 9.7355
" />
<path d="M-26.0262 9.7355
L-25.9548 9.6641
" />
<path d="M-25.9548 9.6641
L-25.9548 9.8069
" />
<path d="M-24.0977 9.0926
L-24.0977 10.3069
" />
<path d="M-24.0977 10.3069
L-24.0262 10.4498
" />
<path d="M-24.0262 10.4498
L-23.9548 10.5212
" />
<path d="M-23.9548 10.5212
L-23.8120 10.5926
" />
<path d="M-23.8120 10.5926
L-23.5262 10.5926
" />
<path d="M-23.5262 10.5926
L-23.3834 10.5212
" />
<path d="M-23.3834 10.5212
L-23.3120 10.4498
" />
<path d="M-23.3120 10.4498
L-23.2405 10.3069
" />
<path d="M-23.2405 10.3069
L-23.2405 9.0926
" />
<path d="M-22.5977 10.5212
L-22.4548 10.5926
" />
<path d="M-22.4548 10.5926
L-22.1691 10.5926
" />
<path d="M-22.1691 10.5926
L-22.0262 10.5212
" />
<path d="M-22.0262 10.5212
L-21.9548 10.3783
" />
<path d="M-21.9548 10.3783
L-21.9548 10.3069
" />
<path d="M-21.9548 10.3069
L-22.0262 10.1641
" />
<path d="M-22.0262 10.1641
L-22.1691 10.0926
" />
<path d="M-22.1691 10.0926
L-22.3834 10.0926
" />
<path d="M-22.3834 10.0926
L-22.5262 10.0212
" />
<path d="M-22.5262 10.0212
L-22.5977 9.8783
" />
<path d="M-22.5977 9.8783
L-22.5977 9.8069
" />
<path d="M-22.5977 9.8069
L-22.5262 9.6641
" />
<path d="M-22.5262 9.6641
L-22.3834 9.5926
" />
<path d="M-22.3834 9.5926
L-22.1691 9.5926
" />
<path d="M-22.1691 9.5926
L-22.0262 9.6641
" />
<path d="M-20.7405 10.5212
L-20.8834 10.5926
" />
<path d="M-20.8834 10.5926
L-21.1691 10.5926
" />
<path d="M-21.1691 10.5926
L-21.3120 10.5212
" />
<path d="M-21.3120 10.5212
L-21.3834 10.3783
" />
<path d="M-21.3834 10.3783
L-21.3834 9.8069
" />
<path d="M-21.3834 9.8069
L-21.3120 9.6641
" />
<path d="M-21.3120 9.6641
L-21.1691 9.5926
" />
<path d="M-21.1691 9.5926
L-20.8834 9.5926
" />
<path d="M-20.8834 9.5926
L-20.7405 9.6641
" />
<path d="M-20.7405 9.6641
L-20.6691 9.8069
" />
<path d="M-20.6691 9.8069
L-20.6691 9.9498
" />
<path d="M-20.6691 9.9498
L-21.3834 10.0926
" />
<path d="M-20.0262 10.5926
L-20.0262 9.5926
" />
<path d="M-20.0262 9.8783
L-19.9548 9.7355
" />
<path d="M-19.9548 9.7355
L-19.8834 9.6641
" />
<path d="M-19.8834 9.6641
L-19.7405 9.5926
" />
<path d="M-19.7405 9.5926
L-19.5977 9.5926
" />
</g></g>
<g style="fill:none; 
stroke:#C872AB; stroke-width:0.1500; stroke-opacity:1; 
stroke-linecap:round; stroke-linejoin:round;">
<text x="53.9465" y="13.4565"
textLength="8.5071" font-size="2.0000" lengthAdjust="spacingAndGlyphs"
text-anchor="start" opacity="0" stroke-opacity="0">Id: 1/1</text>
<g class="stroked-text"><desc>Id: 1/1</desc>
<path d="M54.4023 13.3926
L54.4023 11.8926
" />
<path d="M55.7595 13.3926
L55.7595 11.8926
" />
<path d="M55.7595 13.3212
L55.6166 13.3926
" />
<path d="M55.6166 13.3926
L55.3309 13.3926
" />
<path d="M55.3309 13.3926
L55.1880 13.3212
" />
<path d="M55.1880 13.3212
L55.1166 13.2498
" />
<path d="M55.1166 13.2498
L55.0452 13.1069
" />
<path d="M55.0452 13.1069
L55.0452 12.6783
" />
<path d="M55.0452 12.6783
L55.1166 12.5355
" />
<path d="M55.1166 12.5355
L55.1880 12.4641
" />
<path d="M55.1880 12.4641
L55.3309 12.3926
" />
<path d="M55.3309 12.3926
L55.6166 12.3926
" />
<path d="M55.6166 12.3926
L55.7595 12.4641
" />
<path d="M56.4738 13.2498
L56.5452 13.3212
" />
<path d="M56.5452 13.3212
L56.4738 13.3926
" />
<path d="M56.4738 13.3926
L56.4023 13.3212
" />
<path d="M56.4023 13.3212
L56.4738 13.2498
" />
<path d="M56.4738 13.2498
L56.4738 13.3926
" />
<path d="M56.4738 12.4641
L56.5452 12.5355
" />
<path d="M56.5452 12.5355
L56.4738 12.6069
" />
<path d="M56.4738 12.6069
L56.4023 12.5355
" />
<path d="M56.4023 12.5355
L56.4738 12.4641
" />
<path d="M56.4738 12.4641
L56.4738 12.6069
" />
<path d="M59.1166 13.3926
L58.2595 13.3926
" />
<path d="M58.6880 13.3926
L58.6880 11.8926
" />
<path d="M58.6880 11.8926
L58.5452 12.1069
" />
<path d="M58.5452 12.1069
L58.4023 12.2498
" />
<path d="M58.4023 12.2498
L58.2595 12.3212
" />
<path d="M60.8309 11.8212
L59.5452 13.7498
" />
<path d="M62.1166 13.3926
L61.2595 13.3926
" />
<path d="M61.6880 13.3926
L61.6880 11.8926
" />
<path d="M61.6880 11.8926
L61.5452 12.1069
" />
<path d="M61.5452 12.1069
L61.4023 12.2498
" />
<path d="M61.4023 12.2498
L61.2595 12.3212
" />
</g></g>
<g style="fill:none; 
stroke:#C872AB; stroke-width:0.1500; stroke-opacity:1; 
stroke-linecap:round; stroke-linejoin:round;">
<path d="M-32.0535 4.3065
L75.9465 4.3065
" />
</g>
<g style="fill:none; 
stroke:#C872AB; stroke-width:0.4000; stroke-opacity:1; 
stroke-linecap:round; stroke-linejoin:round;">
<text x="-31.0535" y="7.1065"
textLength="9.6571" font-size="2.6667" lengthAdjust="spacingAndGlyphs"
text-anchor="start" opacity="0" stroke-opacity="0">Title: </text>
<g class="stroked-text"><desc>Title: </desc>
<path d="M-30.3618 5.0109
L-29.2189 5.0109
" />
<path d="M-30.0403 7.0109
L-29.7903 5.0109
" />
<path d="M-28.8022 7.0109
L-28.6356 5.6776
" />
<path d="M-28.5522 5.0109
L-28.6594 5.1062
" />
<path d="M-28.6594 5.1062
L-28.5761 5.2014
" />
<path d="M-28.5761 5.2014
L-28.4689 5.1062
" />
<path d="M-28.4689 5.1062
L-28.5522 5.0109
" />
<path d="M-28.5522 5.0109
L-28.5761 5.2014
" />
<path d="M-27.9689 5.6776
L-27.2070 5.6776
" />
<path d="M-27.5999 5.0109
L-27.8142 6.7252
" />
<path d="M-27.8142 6.7252
L-27.7427 6.9157
" />
<path d="M-27.7427 6.9157
L-27.5642 7.0109
" />
<path d="M-27.5642 7.0109
L-27.3737 7.0109
" />
<path d="M-26.4213 7.0109
L-26.5999 6.9157
" />
<path d="M-26.5999 6.9157
L-26.6713 6.7252
" />
<path d="M-26.6713 6.7252
L-26.4570 5.0109
" />
<path d="M-24.8856 6.9157
L-25.0880 7.0109
" />
<path d="M-25.0880 7.0109
L-25.4689 7.0109
" />
<path d="M-25.4689 7.0109
L-25.6475 6.9157
" />
<path d="M-25.6475 6.9157
L-25.7189 6.7252
" />
<path d="M-25.7189 6.7252
L-25.6237 5.9633
" />
<path d="M-25.6237 5.9633
L-25.5046 5.7728
" />
<path d="M-25.5046 5.7728
L-25.3022 5.6776
" />
<path d="M-25.3022 5.6776
L-24.9213 5.6776
" />
<path d="M-24.9213 5.6776
L-24.7427 5.7728
" />
<path d="M-24.7427 5.7728
L-24.6713 5.9633
" />
<path d="M-24.6713 5.9633
L-24.6951 6.1538
" />
<path d="M-24.6951 6.1538
L-25.6713 6.3443
" />
<path d="M-23.9213 6.8205
L-23.8380 6.9157
" />
<path d="M-23.8380 6.9157
L-23.9451 7.0109
" />
<path d="M-23.9451 7.0109
L-24.0284 6.9157
" />
<path d="M-24.0284 6.9157
L-23.9213 6.8205
" />
<path d="M-23.9213 6.8205
L-23.9451 7.0109
" />
<path d="M-23.7903 5.7728
L-23.7070 5.8681
" />
<path d="M-23.7070 5.8681
L-23.8142 5.9633
" />
<path d="M-23.8142 5.9633
L-23.8975 5.8681
" />
<path d="M-23.8975 5.8681
L-23.7903 5.7728
" />
<path d="M-23.7903 5.7728
L-23.8142 5.9633
" />
</g></g>
<g style="fill:none; 
stroke:#C872AB; stroke-width:0.1500; stroke-opacity:1; 
stroke-linecap:round; stroke-linejoin:round;">
<text x="-31.0535" y="3.2565"
textLength="27.3643" font-size="2.0000" lengthAdjust="spacingAndGlyphs"
text-anchor="start" opacity="0" stroke-opacity="0">File: MaxPilot.kicad_pcb</text>
<g class="stroked-text"><desc>File: MaxPilot.kicad_pcb</desc>
<path d="M-30.0977 2.4069
L-30.5977 2.4069
" />
<path d="M-30.5977 3.1926
L-30.5977 1.6926
" />
<path d="M-30.5977 1.6926
L-29.8834 1.6926
" />
<path d="M-29.3120 3.1926
L-29.3120 2.1926
" />
<path d="M-29.3120 1.6926
L-29.3834 1.7641
" />
<path d="M-29.3834 1.7641
L-29.3120 1.8355
" />
<path d="M-29.3120 1.8355
L-29.2405 1.7641
" />
<path d="M-29.2405 1.7641
L-29.3120 1.6926
" />
<path d="M-29.3120 1.6926
L-29.3120 1.8355
" />
<path d="M-28.3834 3.1926
L-28.5262 3.1212
" />
<path d="M-28.5262 3.1212
L-28.5977 2.9783
" />
<path d="M-28.5977 2.9783
L-28.5977 1.6926
" />
<path d="M-27.2405 3.1212
L-27.3834 3.1926
" />
<path d="M-27.3834 3.1926
L-27.6691 3.1926
" />
<path d="M-27.6691 3.1926
L-27.8120 3.1212
" />
<path d="M-27.8120 3.1212
L-27.8834 2.9783
" />
<path d="M-27.8834 2.9783
L-27.8834 2.4069
" />
<path d="M-27.8834 2.4069
L-27.8120 2.2641
" />
<path d="M-27.8120 2.2641
L-27.6691 2.1926
" />
<path d="M-27.6691 2.1926
L-27.3834 2.1926
" />
<path d="M-27.3834 2.1926
L-27.2405 2.2641
" />
<path d="M-27.2405 2.2641
L-27.1691 2.4069
" />
<path d="M-27.1691 2.4069
L-27.1691 2.5498
" />
<path d="M-27.1691 2.5498
L-27.8834 2.6926
" />
<path d="M-26.5262 3.0498
L-26.4548 3.1212
" />
<path d="M-26.4548 3.1212
L-26.5262 3.1926
" />
<path d="M-26.5262 3.1926
L-26.5977 3.1212
" />
<path d="M-26.5977 3.1212
L-26.5262 3.0498
" />
<path d="M-26.5262 3.0498
L-26.5262 3.1926
" />
<path d="M-26.5262 2.2641
L-26.4548 2.3355
" />
<path d="M-26.4548 2.3355
L-26.5262 2.4069
" />
<path d="M-26.5262 2.4069
L-26.5977 2.3355
" />
<path d="M-26.5977 2.3355
L-26.5262 2.2641
" />
<path d="M-26.5262 2.2641
L-26.5262 2.4069
" />
<path d="M-24.6691 3.1926
L-24.6691 1.6926
" />
<path d="M-24.6691 1.6926
L-24.1691 2.7641
" />
<path d="M-24.1691 2.7641
L-23.6691 1.6926
" />
<path d="M-23.6691 1.6926
L-23.6691 3.1926
" />
<path d="M-22.3120 3.1926
L-22.3120 2.4069
" />
<path d="M-22.3120 2.4069
L-22.3834 2.2641
" />
<path d="M-22.3834 2.2641
L-22.5262 2.1926
" />
<path d="M-22.5262 2.1926
L-22.8120 2.1926
" />
<path d="M-22.8120 2.1926
L-22.9548 2.2641
" />
<path d="M-22.3120 3.1212
L-22.4548 3.1926
" />
<path d="M-22.4548 3.1926
L-22.8120 3.1926
" />
<path d="M-22.8120 3.1926
L-22.9548 3.1212
" />
<path d="M-22.9548 3.1212
L-23.0262 2.9783
" />
<path d="M-23.0262 2.9783
L-23.0262 2.8355
" />
<path d="M-23.0262 2.8355
L-22.9548 2.6926
" />
<path d="M-22.9548 2.6926
L-22.8120 2.6212
" />
<path d="M-22.8120 2.6212
L-22.4548 2.6212
" />
<path d="M-22.4548 2.6212
L-22.3120 2.5498
" />
<path d="M-21.7405 3.1926
L-20.9548 2.1926
" />
<path d="M-21.7405 2.1926
L-20.9548 3.1926
" />
<path d="M-20.3834 3.1926
L-20.3834 1.6926
" />
<path d="M-20.3834 1.6926
L-19.8120 1.6926
" />
<path d="M-19.8120 1.6926
L-19.6691 1.7641
" />
<path d="M-19.6691 1.7641
L-19.5977 1.8355
" />
<path d="M-19.5977 1.8355
L-19.5262 1.9783
" />
<path d="M-19.5262 1.9783
L-19.5262 2.1926
" />
<path d="M-19.5262 2.1926
L-19.5977 2.3355
" />
<path d="M-19.5977 2.3355
L-19.6691 2.4069
" />
<path d="M-19.6691 2.4069
L-19.8120 2.4783
" />
<path d="M-19.8120 2.4783
L-20.3834 2.4783
" />
<path d="M-18.8834 3.1926
L-18.8834 2.1926
" />
<path d="M-18.8834 1.6926
L-18.9548 1.7641
" />
<path d="M-18.9548 1.7641
L-18.8834 1.8355
" />
<path d="M-18.8834 1.8355
L-18.8120 1.7641
" />
<path d="M-18.8120 1.7641
L-18.8834 1.6926
" />
<path d="M-18.8834 1.6926
L-18.8834 1.8355
" />
<path d="M-17.9548 3.1926
L-18.0977 3.1212
" />
<path d="M-18.0977 3.1212
L-18.1691 2.9783
" />
<path d="M-18.1691 2.9783
L-18.1691 1.6926
" />
<path d="M-17.1691 3.1926
L-17.3120 3.1212
" />
<path d="M-17.3120 3.1212
L-17.3834 3.0498
" />
<path d="M-17.3834 3.0498
L-17.4548 2.9069
" />
<path d="M-17.4548 2.9069
L-17.4548 2.4783
" />
<path d="M-17.4548 2.4783
L-17.3834 2.3355
" />
<path d="M-17.3834 2.3355
L-17.3120 2.2641
" />
<path d="M-17.3120 2.2641
L-17.1691 2.1926
" />
<path d="M-17.1691 2.1926
L-16.9548 2.1926
" />
<path d="M-16.9548 2.1926
L-16.8120 2.2641
" />
<path d="M-16.8120 2.2641
L-16.7405 2.3355
" />
<path d="M-16.7405 2.3355
L-16.6691 2.4783
" />
<path d="M-16.6691 2.4783
L-16.6691 2.9069
" />
<path d="M-16.6691 2.9069
L-16.7405 3.0498
" />
<path d="M-16.7405 3.0498
L-16.8120 3.1212
" />
<path d="M-16.8120 3.1212
L-16.9548 3.1926
" />
<path d="M-16.9548 3.1926
L-17.1691 3.1926
" />
<path d="M-16.2405 2.1926
L-15.6691 2.1926
" />
<path d="M-16.0262 1.6926
L-16.0262 2.9783
" />
<path d="M-16.0262 2.9783
L-15.9548 3.1212
" />
<path d="M-15.9548 3.1212
L-15.8120 3.1926
" />
<path d="M-15.8120 3.1926
L-15.6691 3.1926
" />
<path d="M-15.1691 3.0498
L-15.0977 3.1212
" />
<path d="M-15.0977 3.1212
L-15.1691 3.1926
" />
<path d="M-15.1691 3.1926
L-15.2405 3.1212
" />
<path d="M-15.2405 3.1212
L-15.1691 3.0498
" />
<path d="M-15.1691 3.0498
L-15.1691 3.1926
" />
<path d="M-14.4548 3.1926
L-14.4548 1.6926
" />
<path d="M-14.3120 2.6212
L-13.8834 3.1926
" />
<path d="M-13.8834 2.1926
L-14.4548 2.7641
" />
<path d="M-13.2405 3.1926
L-13.2405 2.1926
" />
<path d="M-13.2405 1.6926
L-13.3120 1.7641
" />
<path d="M-13.3120 1.7641
L-13.2405 1.8355
" />
<path d="M-13.2405 1.8355
L-13.1691 1.7641
" />
<path d="M-13.1691 1.7641
L-13.2405 1.6926
" />
<path d="M-13.2405 1.6926
L-13.2405 1.8355
" />
<path d="M-11.8834 3.1212
L-12.0262 3.1926
" />
<path d="M-12.0262 3.1926
L-12.3120 3.1926
" />
<path d="M-12.3120 3.1926
L-12.4548 3.1212
" />
<path d="M-12.4548 3.1212
L-12.5262 3.0498
" />
<path d="M-12.5262 3.0498
L-12.5977 2.9069
" />
<path d="M-12.5977 2.9069
L-12.5977 2.4783
" />
<path d="M-12.5977 2.4783
L-12.5262 2.3355
" />
<path d="M-12.5262 2.3355
L-12.4548 2.2641
" />
<path d="M-12.4548 2.2641
L-12.3120 2.1926
" />
<path d="M-12.3120 2.1926
L-12.0262 2.1926
" />
<path d="M-12.0262 2.1926
L-11.8834 2.2641
" />
<path d="M-10.5977 3.1926
L-10.5977 2.4069
" />
<path d="M-10.5977 2.4069
L-10.6691 2.2641
" />
<path d="M-10.6691 2.2641
L-10.8120 2.1926
" />
<path d="M-10.8120 2.1926
L-11.0977 2.1926
" />
<path d="M-11.0977 2.1926
L-11.2405 2.2641
" />
<path d="M-10.5977 3.1212
L-10.7405 3.1926
" />
<path d="M-10.7405 3.1926
L-11.0977 3.1926
" />
<path d="M-11.0977 3.1926
L-11.2405 3.1212
" />
<path d="M-11.2405 3.1212
L-11.3120 2.9783
" />
<path d="M-11.3120 2.9783
L-11.3120 2.8355
" />
<path d="M-11.3120 2.8355
L-11.2405 2.6926
" />
<path d="M-11.2405 2.6926
L-11.0977 2.6212
" />
<path d="M-11.0977 2.6212
L-10.7405 2.6212
" />
<path d="M-10.7405 2.6212
L-10.5977 2.5498
" />
<path d="M-9.2405 3.1926
L-9.2405 1.6926
" />
<path d="M-9.2405 3.1212
L-9.3834 3.1926
" />
<path d="M-9.3834 3.1926
L-9.6691 3.1926
" />
<path d="M-9.6691 3.1926
L-9.8120 3.1212
" />
<path d="M-9.8120 3.1212
L-9.8834 3.0498
" />
<path d="M-9.8834 3.0498
L-9.9548 2.9069
" />
<path d="M-9.9548 2.9069
L-9.9548 2.4783
" />
<path d="M-9.9548 2.4783
L-9.8834 2.3355
" />
<path d="M-9.8834 2.3355
L-9.8120 2.2641
" />
<path d="M-9.8120 2.2641
L-9.6691 2.1926
" />
<path d="M-9.6691 2.1926
L-9.3834 2.1926
" />
<path d="M-9.3834 2.1926
L-9.2405 2.2641
" />
<path d="M-8.8834 3.3355
L-7.7405 3.3355
" />
<path d="M-7.3834 2.1926
L-7.3834 3.6926
" />
<path d="M-7.3834 2.2641
L-7.2405 2.1926
" />
<path d="M-7.2405 2.1926
L-6.9548 2.1926
" />
<path d="M-6.9548 2.1926
L-6.8120 2.2641
" />
<path d="M-6.8120 2.2641
L-6.7405 2.3355
" />
<path d="M-6.7405 2.3355
L-6.6691 2.4783
" />
<path d="M-6.6691 2.4783
L-6.6691 2.9069
" />
<path d="M-6.6691 2.9069
L-6.7405 3.0498
" />
<path d="M-6.7405 3.0498
L-6.8120 3.1212
" />
<path d="M-6.8120 3.1212
L-6.9548 3.1926
" />
<path d="M-6.9548 3.1926
L-7.2405 3.1926
" />
<path d="M-7.2405 3.1926
L-7.3834 3.1212
" />
<path d="M-5.3834 3.1212
L-5.5262 3.1926
" />
<path d="M-5.5262 3.1926
L-5.8120 3.1926
" />
<path d="M-5.8120 3.1926
L-5.9548 3.1212
" />
<path d="M-5.9548 3.1212
L-6.0262 3.0498
" />
<path d="M-6.0262 3.0498
L-6.0977 2.9069
" />
<path d="M-6.0977 2.9069
L-6.0977 2.4783
" />
<path d="M-6.0977 2.4783
L-6.0262 2.3355
" />
<path d="M-6.0262 2.3355
L-5.9548 2.2641
" />
<path d="M-5.9548 2.2641
L-5.8120 2.1926
" />
<path d="M-5.8120 2.1926
L-5.5262 2.1926
" />
<path d="M-5.5262 2.1926
L-5.3834 2.2641
" />
<path d="M-4.7405 3.1926
L-4.7405 1.6926
" />
<path d="M-4.7405 2.2641
L-4.5977 2.1926
" />
<path d="M-4.5977 2.1926
L-4.3120 2.1926
" />
<path d="M-4.3120 2.1926
L-4.1691 2.2641
" />
<path d="M-4.1691 2.2641
L-4.0977 2.3355
" />
<path d="M-4.0977 2.3355
L-4.0262 2.4783
" />
<path d="M-4.0262 2.4783
L-4.0262 2.9069
" />
<path d="M-4.0262 2.9069
L-4.0977 3.0498
" />
<path d="M-4.0977 3.0498
L-4.1691 3.1212
" />
<path d="M-4.1691 3.1212
L-4.3120 3.1926
" />
<path d="M-4.3120 3.1926
L-4.5977 3.1926
" />
<path d="M-4.5977 3.1926
L-4.7405 3.1212
" />
</g></g>
<g style="fill:none; 
stroke:#C872AB; stroke-width:0.1500; stroke-opacity:1; 
stroke-linecap:round; stroke-linejoin:round;">
<path d="M-32.0535 -1.6935
L75.9465 -1.6935
" />
</g>
<g style="fill:none; 
stroke:#C872AB; stroke-width:0.1500; stroke-opacity:1; 
stroke-linecap:round; stroke-linejoin:round;">
<text x="-31.0535" y="0.5565"
textLength="8.2214" font-size="2.0000" lengthAdjust="spacingAndGlyphs"
text-anchor="start" opacity="0" stroke-opacity="0">Sheet: </text>
<g class="stroked-text"><desc>Sheet: </desc>
<path d="M-30.6691 0.4212
L-30.4548 0.4926
" />
<path d="M-30.4548 0.4926
L-30.0977 0.4926
" />
<path d="M-30.0977 0.4926
L-29.9548 0.4212
" />
<path d="M-29.9548 0.4212
L-29.8834 0.3498
" />
<path d="M-29.8834 0.3498
L-29.8120 0.2069
" />
<path d="M-29.8120 0.2069
L-29.8120 0.0641
" />
<path d="M-29.8120 0.0641
L-29.8834 -0.0788
" />
<path d="M-29.8834 -0.0788
L-29.9548 -0.1502
" />
<path d="M-29.9548 -0.1502
L-30.0977 -0.2217
" />
<path d="M-30.0977 -0.2217
L-30.3834 -0.2931
" />
<path d="M-30.3834 -0.2931
L-30.5262 -0.3645
" />
<path d="M-30.5262 -0.3645
L-30.5977 -0.4359
" />
<path d="M-30.5977 -0.4359
L-30.6691 -0.5788
" />
<path d="M-30.6691 -0.5788
L-30.6691 -0.7217
" />
<path d="M-30.6691 -0.7217
L-30.5977 -0.8645
" />
<path d="M-30.5977 -0.8645
L-30.5262 -0.9359
" />
<path d="M-30.5262 -0.9359
L-30.3834 -1.0074
" />
<path d="M-30.3834 -1.0074
L-30.0262 -1.0074
" />
<path d="M-30.0262 -1.0074
L-29.8120 -0.9359
" />
<path d="M-29.1691 0.4926
L-29.1691 -1.0074
" />
<path d="M-28.5262 0.4926
L-28.5262 -0.2931
" />
<path d="M-28.5262 -0.2931
L-28.5977 -0.4359
" />
<path d="M-28.5977 -0.4359
L-28.7405 -0.5074
" />
<path d="M-28.7405 -0.5074
L-28.9548 -0.5074
" />
<path d="M-28.9548 -0.5074
L-29.0977 -0.4359
" />
<path d="M-29.0977 -0.4359
L-29.1691 -0.3645
" />
<path d="M-27.2405 0.4212
L-27.3834 0.4926
" />
<path d="M-27.3834 0.4926
L-27.6691 0.4926
" />
<path d="M-27.6691 0.4926
L-27.8120 0.4212
" />
<path d="M-27.8120 0.4212
L-27.8834 0.2783
" />
<path d="M-27.8834 0.2783
L-27.8834 -0.2931
" />
<path d="M-27.8834 -0.2931
L-27.8120 -0.4359
" />
<path d="M-27.8120 -0.4359
L-27.6691 -0.5074
" />
<path d="M-27.6691 -0.5074
L-27.3834 -0.5074
" />
<path d="M-27.3834 -0.5074
L-27.2405 -0.4359
" />
<path d="M-27.2405 -0.4359
L-27.1691 -0.2931
" />
<path d="M-27.1691 -0.2931
L-27.1691 -0.1502
" />
<path d="M-27.1691 -0.1502
L-27.8834 -0.0074
" />
<path d="M-25.9548 0.4212
L-26.0977 0.4926
" />
<path d="M-26.0977 0.4926
L-26.3834 0.4926
" />
<path d="M-26.3834 0.4926
L-26.5262 0.4212
" />
<path d="M-26.5262 0.4212
L-26.5977 0.2783
" />
<path d="M-26.5977 0.2783
L-26.5977 -0.2931
" />
<path d="M-26.5977 -0.2931
L-26.5262 -0.4359
" />
<path d="M-26.5262 -0.4359
L-26.3834 -0.5074
" />
<path d="M-26.3834 -0.5074
L-26.0977 -0.5074
" />
<path d="M-26.0977 -0.5074
L-25.9548 -0.4359
" />
<path d="M-25.9548 -0.4359
L-25.8834 -0.2931
" />
<path d="M-25.8834 -0.2931
L-25.8834 -0.1502
" />
<path d="M-25.8834 -0.1502
L-26.5977 -0.0074
" />
<path d="M-25.4548 -0.5074
L-24.8834 -0.5074
" />
<path d="M-25.2405 -1.0074
L-25.2405 0.2783
" />
<path d="M-25.2405 0.2783
L-25.1691 0.4212
" />
<path d="M-25.1691 0.4212
L-25.0262 0.4926
" />
<path d="M-25.0262 0.4926
L-24.8834 0.4926
" />
<path d="M-24.3834 0.3498
L-24.3120 0.4212
" />
<path d="M-24.3120 0.4212
L-24.3834 0.4926
" />
<path d="M-24.3834 0.4926
L-24.4548 0.4212
" />
<path d="M-24.4548 0.4212
L-24.3834 0.3498
" />
<path d="M-24.3834 0.3498
L-24.3834 0.4926
" />
<path d="M-24.3834 -0.4359
L-24.3120 -0.3645
" />
<path d="M-24.3120 -0.3645
L-24.3834 -0.2931
" />
<path d="M-24.3834 -0.2931
L-24.4548 -0.3645
" />
<path d="M-24.4548 -0.3645
L-24.3834 -0.4359
" />
<path d="M-24.3834 -0.4359
L-24.3834 -0.2931
" />
</g></g>
<g style="fill:none; 
stroke:#C872AB; stroke-width:0.3000; stroke-opacity:1; 
stroke-linecap:round; stroke-linejoin:round;">
<text x="-31.0535" y="-2.4435"
textLength="0.9000" font-size="2.0000" lengthAdjust="spacingAndGlyphs"
text-anchor="start" opacity="0" stroke-opacity="0"></text>
<g class="stroked-text"><desc></desc>
</g></g>
<g style="fill:none; 
stroke:#C872AB; stroke-width:0.1500; stroke-opacity:1; 
stroke-linecap:round; stroke-linejoin:round;">
<text x="-31.0535" y="-5.4435"
textLength="0.4500" font-size="2.0000" lengthAdjust="spacingAndGlyphs"
text-anchor="start" opacity="0" stroke-opacity="0"></text>
<g class="stroked-text"><desc></desc>
</g></g>
<g style="fill:none; 
stroke:#C872AB; stroke-width:0.1500; stroke-opacity:1; 
stroke-linecap:round; stroke-linejoin:round;">
<text x="-31.0535" y="-8.4435"
textLength="0.4500" font-size="2.0000" lengthAdjust="spacingAndGlyphs"
text-anchor="start" opacity="0" stroke-opacity="0"></text>
<g class="stroked-text"><desc></desc>
</g></g>
<g style="fill:none; 
stroke:#C872AB; stroke-width:0.1500; stroke-opacity:1; 
stroke-linecap:round; stroke-linejoin:round;">
<text x="-31.0535" y="-11.4435"
textLength="0.4500" font-size="2.0000" lengthAdjust="spacingAndGlyphs"
text-anchor="start" opacity="0" stroke-opacity="0"></text>
<g class="stroked-text"><desc></desc>
</g></g>
<g style="fill:none; 
stroke:#C872AB; stroke-width:0.1500; stroke-opacity:1; 
stroke-linecap:round; stroke-linejoin:round;">
<text x="-31.0535" y="-14.4435"
textLength="0.4500" font-size="2.0000" lengthAdjust="spacingAndGlyphs"
text-anchor="start" opacity="0" stroke-opacity="0"></text>
<g class="stroked-text"><desc></desc>
</g></g>
<g style="fill:none; 
stroke:#C872AB; stroke-width:0.1500; stroke-opacity:1; 
stroke-linecap:round; stroke-linejoin:round;">
<path d="M-12.0535 8.3065
L-12.0535 11.3065
" />
</g>
<g style="fill:none; 
stroke:#C872AB; stroke-width:0.1500; stroke-opacity:1; 
stroke-linecap:round; stroke-linejoin:round;">
<path d="M51.9465 8.3065
L51.9465 14.8065
" />
</g>
<g style="fill:#4D7FC4; fill-opacity:1.0000; stroke:none;">
<circle cx="35.6045" cy="3.2182" r="0.8000" /> 
</g>
<g style="fill:#4D7FC4; fill-opacity:1.0000; stroke:none;">
<circle cx="45.7645" cy="3.2182" r="0.8000" /> 
<circle cx="88.9445" cy="3.2182" r="1.2000" /> 
</g>
<g style="fill:#4D7FC4; fill-opacity:1.0000; stroke:none;">
<circle cx="73.7045" cy="3.2182" r="1.2000" /> 
</g>
<g style="fill:#4D7FC4; fill-opacity:1.0000; stroke:none;">
<circle cx="66.0845" cy="8.2982" r="0.8000" /> 
<path style="fill:#4D7FC4; fill-opacity:1.0000; stroke:none;fill-rule:evenodd;"
d="M 65.2845,13.9283
65.3036,14.0239
65.3578,14.1050
65.4389,14.1592
65.5345,14.1783
66.6345,14.1783
66.7302,14.1592
66.8113,14.1050
66.8655,14.0239
66.8845,13.9283
66.8845,12.8282
66.8655,12.7326
66.8113,12.6515
66.7302,12.5973
66.6345,12.5782
65.5345,12.5782
65.4389,12.5973
65.3578,12.6515
65.3036,12.7326
65.2845,12.8282
Z" /> 
</g>
<g style="fill:#4D7FC4; fill-opacity:1.0000; stroke:none;">
<circle cx="66.0845" cy="10.8383" r="0.8000" /> 
</g>
<g style="fill:#4D7FC4; fill-opacity:1.0000; stroke:none;">
<circle cx="73.7045" cy="8.2982" r="0.8000" /> 
</g>
<g style="fill:#4D7FC4; fill-opacity:1.0000; stroke:none;">
<circle cx="73.7045" cy="13.3782" r="0.8000" /> 
<path style="fill:#4D7FC4; fill-opacity:1.0000; stroke:none;fill-rule:evenodd;"
d="M 95.2946,12.1082
92.7545,12.1082
92.7545,14.6482
95.2946,14.6482
Z" /> 
</g>
<g style="fill:#4D7FC4; fill-opacity:1.0000; stroke:none;">
<circle cx="94.0245" cy="20.9982" r="1.2700" /> 
</g>
<g style="fill:#4D7FC4; fill-opacity:1.0000; stroke:none;">
<circle cx="94.0245" cy="28.6182" r="1.2700" /> 
</g>
<g style="fill:#4D7FC4; fill-opacity:1.0000; stroke:none;">
<circle cx="35.6045" cy="8.2982" r="0.8000" /> 
</g>
<g style="fill:#4D7FC4; fill-opacity:1.0000; stroke:none;">
<circle cx="45.7645" cy="8.2982" r="0.8000" /> 
<path style="fill:#4D7FC4; fill-opacity:1.0000; stroke:none;fill-rule:evenodd;"
d="M 67.2345,25.8833
67.2345,23.8833
64.9346,23.8833
64.9346,25.8833
Z" /> 
<circle cx="66.0845" cy="29.8833" r="1.1500" /> 
</g>
<g style="fill:#4D7FC4; fill-opacity:1.0000; stroke:none;">
<circle cx="36.6846" cy="19.6832" r="1.1500" /> 
</g>
<g style="fill:#4D7FC4; fill-opacity:1.0000; stroke:none;">
<circle cx="36.6846" cy="35.0832" r="1.1500" /> 
</g>
<g style="fill:#4D7FC4; fill-opacity:1.0000; stroke:none;">
<circle cx="82.9646" cy="9.6282" r="0.9000" /> 
</g>
<g style="fill:#4D7FC4; fill-opacity:1.0000; stroke:none;">
<circle cx="84.7645" cy="17.1282" r="0.9000" /> 
</g>
<g style="fill:#4D7FC4; fill-opacity:1.0000; stroke:none;">
<circle cx="52.1195" cy="5.7582" r="0.8000" /> 
<path style="fill:#4D7FC4; fill-opacity:1.0000; stroke:none;fill-rule:evenodd;"
d="M 51.3195,11.3882
51.3386,11.4839
51.3928,11.5650
51.4739,11.6192
51.5695,11.6382
52.6696,11.6382
52.7652,11.6192
52.8463,11.5650
52.9005,11.4839
52.9196,11.3882
52.9196,10.2882
52.9005,10.1926
52.8463,10.1115
52.7652,10.0573
52.6696,10.0382
51.5695,10.0382
51.4739,10.0573
51.3928,10.1115
51.3386,10.1926
51.3195,10.2882
Z" /> 
</g>
<g style="fill:#4D7FC4; fill-opacity:1.0000; stroke:none;">
<circle cx="52.1195" cy="8.2982" r="0.8000" /> 
</g>
<g style="fill:#4D7FC4; fill-opacity:1.0000; stroke:none;">
<circle cx="59.7395" cy="5.7582" r="0.8000" /> 
</g>
<g style="fill:#4D7FC4; fill-opacity:1.0000; stroke:none;">
<circle cx="59.7395" cy="10.8383" r="0.8000" /> 
<path style="fill:#4D7FC4; fill-opacity:1.0000; stroke:none;fill-rule:evenodd;"
d="M 31.5245,10.5682
31.5245,8.5682
29.5245,8.5682
29.5245,10.5682
Z" /> 
</g>
<g style="fill:none; 
stroke:#4D7FC4; stroke-width:1.6000; stroke-opacity:1; 
stroke-linecap:round; stroke-linejoin:round;">
<path d="M30.7245 12.1082
L30.3245 12.1082
" />
<path d="M30.7245 14.6482
L30.3245 14.6482
" />
<path d="M30.7245 17.1883
L30.3245 17.1883
" />
<path d="M30.7245 19.7282
L30.3245 19.7282
" />
<path d="M30.7245 22.2682
L30.3245 22.2682
" />
<path d="M30.7245 24.8082
L30.3245 24.8082
" />
<path d="M30.7245 27.3483
L30.3245 27.3483
" />
<path d="M7.8645 27.3483
L7.4646 27.3483
" />
<path d="M7.8645 24.8082
L7.4646 24.8082
" />
<path d="M7.8645 22.2682
L7.4646 22.2682
" />
<path d="M7.8645 19.7282
L7.4646 19.7282
" />
<path d="M7.8645 17.1883
L7.4646 17.1883
" />
<path d="M7.8645 14.6482
L7.4646 14.6482
" />
<path d="M7.8645 12.1082
L7.4646 12.1082
" />
<path d="M7.8645 9.5682
L7.4646 9.5682
" />
<path style="fill:#4D7FC4; fill-opacity:1.0000; stroke:none;fill-rule:evenodd;"
d="M 74.8045,19.8982
72.6046,19.8982
72.6046,22.0983
74.8045,22.0983
Z" /> 
</g>
<g style="fill:#4D7FC4; fill-opacity:1.0000; stroke:none;">
<circle cx="73.7045" cy="31.1582" r="1.1000" /> 
<path style="fill:#4D7FC4; fill-opacity:1.0000; stroke:none;fill-rule:evenodd;"
d="M 80.2245,34.7982
82.4245,34.7982
82.4245,32.5983
80.2245,32.5983
Z" /> 
<circle cx="81.3246" cy="23.5382" r="1.1000" /> 
<circle cx="40.6045" cy="13.3782" r="0.8000" /> 
</g>
<g style="fill:#4D7FC4; fill-opacity:1.0000; stroke:none;">
<circle cx="35.6045" cy="13.3782" r="0.8000" /> 
</g>
<g style="fill:#4D7FC4; fill-opacity:1.0000; stroke:none;">
<circle cx="61.4857" cy="21.6432" r="0.4000" /> 
</g>
<g style="fill:none; 
stroke:#4D7FC4; stroke-width:2.0000; stroke-opacity:1; 
stroke-linecap:round; stroke-linejoin:round;">
<path d="M94.0245 28.6182
L88.9445 33.6983
" />
<path d="M76.2445 33.6983
L73.7045 31.1582
" />
<path d="M88.9445 33.6983
L81.3246 33.6983
" />
<path d="M81.3246 33.6983
L76.2445 33.6983
" />
<path d="M85.9256 25.4440
L83.2304 28.1392
" />
<path d="M85.9256 18.2892
L84.7645 17.1282
" />
<path d="M79.4188 28.1392
L77.3577 26.0782
" />
<path d="M68.4727 29.8833
L66.0845 29.8833
" />
<path d="M84.7645 17.1282
L85.9256 18.2892
" />
<path d="M85.9256 18.2892
L85.9256 25.4440
" />
<path d="M88.6345 20.9982
L85.9256 18.2892
" />
<path d="M83.2304 28.1392
L79.4188 28.1392
" />
<path d="M77.3577 26.0782
L72.2777 26.0782
" />
<path d="M94.0245 20.9982
L88.6345 20.9982
" />
<path d="M72.2777 26.0782
L68.4727 29.8833
" />
</g>
<g style="fill:none; 
stroke:#4D7FC4; stroke-width:0.2500; stroke-opacity:1; 
stroke-linecap:round; stroke-linejoin:round;">
<path d="M35.6045 18.6032
L35.6045 13.3782
" />
<path d="M36.6846 19.6832
L35.6045 18.6032
" />
<path d="M36.6846 35.0832
L40.6045 31.1632
" />
<path d="M35.6045 3.2182
L35.6045 8.2982
" />
<path d="M40.6045 31.1632
L40.6045 13.3782
" />
<path d="M40.6045 13.2982
L35.6045 8.2982
" />
<path d="M40.6045 13.3782
L40.6045 13.2982
" />
<path d="M49.4312 10.8383
L46.8912 8.2982
" />
<path d="M45.7645 8.2982
L46.8912 8.2982
" />
<path d="M52.1195 10.8383
L49.4312 10.8383
" />
<path d="M46.8912 3.2182
L50.7012 7.0282
" />
<path d="M53.3845 15.4440
L60.6875 22.7470
" />
<path d="M52.4446 7.0282
L53.3845 7.9681
" />
<path d="M60.6875 22.7470
L61.4397 22.7470
" />
<path d="M45.7645 3.2182
L46.8912 3.2182
" />
<path d="M50.7012 7.0282
L52.4446 7.0282
" />
<path d="M53.3845 7.9681
L53.3845 15.4440
" />
<path d="M61.4397 22.7470
L66.0845 18.1021
" />
<path d="M66.0845 18.1021
L66.0845 13.3782
" />
<path d="M61.4857 21.6432
L61.4857 15.4370
" />
<path d="M61.4857 15.4370
L66.0845 10.8383
" />
</g>
<g style="fill:#02FFEE; fill-opacity:0.4000; stroke:none;">
<circle cx="35.6045" cy="3.2182" r="0.8000" /> 
</g>
<g style="fill:#02FFEE; fill-opacity:0.4000; stroke:none;">
<circle cx="45.7645" cy="3.2182" r="0.8000" /> 
<circle cx="88.9445" cy="3.2182" r="1.2000" /> 
</g>
<g style="fill:#02FFEE; fill-opacity:0.4000; stroke:none;">
<circle cx="73.7045" cy="3.2182" r="1.2000" /> 
</g>
<g style="fill:#02FFEE; fill-opacity:0.4000; stroke:none;">
<circle cx="66.0845" cy="8.2982" r="0.8000" /> 
</g>
<g style="fill:#02FFEE; fill-opacity:0.4000; stroke:none;">
<circle cx="73.7045" cy="10.8383" r="0.4000" /> 
<path style="fill:#02FFEE; fill-opacity:0.4000; stroke:none;fill-rule:evenodd;"
d="M 65.2845,13.9283
65.3036,14.0239
65.3578,14.1050
65.4389,14.1592
65.5345,14.1783
66.6345,14.1783
66.7302,14.1592
66.8113,14.1050
66.8655,14.0239
66.8845,13.9283
66.8845,12.8282
66.8655,12.7326
66.8113,12.6515
66.7302,12.5973
66.6345,12.5782
65.5345,12.5782
65.4389,12.5973
65.3578,12.6515
65.3036,12.7326
65.2845,12.8282
Z" /> 
</g>
<g style="fill:#02FFEE; fill-opacity:0.4000; stroke:none;">
<circle cx="66.0845" cy="10.8383" r="0.8000" /> 
</g>
<g style="fill:#02FFEE; fill-opacity:0.4000; stroke:none;">
<circle cx="73.7045" cy="8.2982" r="0.8000" /> 
</g>
<g style="fill:#02FFEE; fill-opacity:0.4000; stroke:none;">
<circle cx="73.7045" cy="13.3782" r="0.8000" /> 
<path style="fill:#02FFEE; fill-opacity:0.4000; stroke:none;fill-rule:evenodd;"
d="M 95.2946,12.1082
92.7545,12.1082
92.7545,14.6482
95.2946,14.6482
Z" /> 
</g>
<g style="fill:#02FFEE; fill-opacity:0.4000; stroke:none;">
<circle cx="94.0245" cy="20.9982" r="1.2700" /> 
</g>
<g style="fill:#02FFEE; fill-opacity:0.4000; stroke:none;">
<circle cx="94.0245" cy="28.6182" r="1.2700" /> 
</g>
<g style="fill:#02FFEE; fill-opacity:0.4000; stroke:none;">
<circle cx="96.5645" cy="3.2182" r="1.1000" /> 
</g>
<g style="fill:#02FFEE; fill-opacity:0.4000; stroke:none;">
<circle cx="2.5845" cy="36.2383" r="1.1000" /> 
</g>
<g style="fill:#02FFEE; fill-opacity:0.4000; stroke:none;">
<circle cx="35.6045" cy="8.2982" r="0.8000" /> 
</g>
<g style="fill:#02FFEE; fill-opacity:0.4000; stroke:none;">
<circle cx="45.7645" cy="8.2982" r="0.8000" /> 
<path style="fill:#02FFEE; fill-opacity:0.4000; stroke:none;fill-rule:evenodd;"
d="M 67.2345,25.8833
67.2345,23.8833
64.9346,23.8833
64.9346,25.8833
Z" /> 
<circle cx="66.0845" cy="29.8833" r="1.1500" /> 
</g>
<g style="fill:#02FFEE; fill-opacity:0.4000; stroke:none;">
<circle cx="36.6846" cy="19.6832" r="1.1500" /> 
</g>
<g style="fill:#02FFEE; fill-opacity:0.4000; stroke:none;">
<circle cx="36.6846" cy="35.0832" r="1.1500" /> 
</g>
<g style="fill:#02FFEE; fill-opacity:0.4000; stroke:none;">
<circle cx="82.9646" cy="9.6282" r="0.9000" /> 
</g>
<g style="fill:#02FFEE; fill-opacity:0.4000; stroke:none;">
<circle cx="84.7645" cy="17.1282" r="0.9000" /> 
</g>
<g style="fill:#02FFEE; fill-opacity:0.4000; stroke:none;">
<circle cx="52.1195" cy="5.7582" r="0.8000" /> 
</g>
<g style="fill:#02FFEE; fill-opacity:0.4000; stroke:none;">
<circle cx="59.7395" cy="8.2982" r="0.4000" /> 
<path style="fill:#02FFEE; fill-opacity:0.4000; stroke:none;fill-rule:evenodd;"
d="M 51.3195,11.3882
51.3386,11.4839
51.3928,11.5650
51.4739,11.6192
51.5695,11.6382
52.6696,11.6382
52.7652,11.6192
52.8463,11.5650
52.9005,11.4839
52.9196,11.3882
52.9196,10.2882
52.9005,10.1926
52.8463,10.1115
52.7652,10.0573
52.6696,10.0382
51.5695,10.0382
51.4739,10.0573
51.3928,10.1115
51.3386,10.1926
51.3195,10.2882
Z" /> 
</g>
<g style="fill:#02FFEE; fill-opacity:0.4000; stroke:none;">
<circle cx="52.1195" cy="8.2982" r="0.8000" /> 
</g>
<g style="fill:#02FFEE; fill-opacity:0.4000; stroke:none;">
<circle cx="59.7395" cy="5.7582" r="0.8000" /> 
</g>
<g style="fill:#02FFEE; fill-opacity:0.4000; stroke:none;">
<circle cx="59.7395" cy="10.8383" r="0.8000" /> 
<path style="fill:#02FFEE; fill-opacity:0.4000; stroke:none;fill-rule:evenodd;"
d="M 31.5245,10.5682
31.5245,8.5682
29.5245,8.5682
29.5245,10.5682
Z" /> 
</g>
<g style="fill:none; 
stroke:#02FFEE; stroke-width:1.6000; stroke-opacity:1; 
stroke-linecap:round; stroke-linejoin:round;">
<path d="M30.7245 12.1082
L30.3245 12.1082
" />
<path d="M30.7245 14.6482
L30.3245 14.6482
" />
<path d="M30.7245 17.1883
L30.3245 17.1883
" />
<path d="M30.7245 19.7282
L30.3245 19.7282
" />
<path d="M30.7245 22.2682
L30.3245 22.2682
" />
<path d="M30.7245 24.8082
L30.3245 24.8082
" />
<path d="M30.7245 27.3483
L30.3245 27.3483
" />
<path d="M7.8645 27.3483
L7.4646 27.3483
" />
<path d="M7.8645 24.8082
L7.4646 24.8082
" />
<path d="M7.8645 22.2682
L7.4646 22.2682
" />
<path d="M7.8645 19.7282
L7.4646 19.7282
" />
<path d="M7.8645 17.1883
L7.4646 17.1883
" />
<path d="M7.8645 14.6482
L7.4646 14.6482
" />
<path d="M7.8645 12.1082
L7.4646 12.1082
" />
<path d="M7.8645 9.5682
L7.4646 9.5682
" />
<path style="fill:#02FFEE; fill-opacity:0.4000; stroke:none;fill-rule:evenodd;"
d="M 74.8045,19.8982
72.6046,19.8982
72.6046,22.0983
74.8045,22.0983
Z" /> 
</g>
<g style="fill:#02FFEE; fill-opacity:0.4000; stroke:none;">
<circle cx="73.7045" cy="31.1582" r="1.1000" /> 
<circle cx="96.5645" cy="36.2383" r="1.1000" /> 
<path style="fill:#02FFEE; fill-opacity:0.4000; stroke:none;fill-rule:evenodd;"
d="M 80.2245,34.7982
82.4245,34.7982
82.4245,32.5983
80.2245,32.5983
Z" /> 
</g>
<g style="fill:#02FFEE; fill-opacity:0.4000; stroke:none;">
<circle cx="81.3246" cy="23.5382" r="1.1000" /> 
<circle cx="2.5845" cy="3.2182" r="1.1000" /> 
</g>
<g style="fill:#02FFEE; fill-opacity:0.4000; stroke:none;">
<circle cx="40.6045" cy="13.3782" r="0.8000" /> 
</g>
<g style="fill:#02FFEE; fill-opacity:0.4000; stroke:none;">
<circle cx="35.6045" cy="13.3782" r="0.8000" /> 
</g>
<g style="fill:none; 
stroke:#D0D2CD; stroke-width:0.1000; stroke-opacity:1; 
stroke-linecap:round; stroke-linejoin:round;">
<path d="M99.1045 0.6783
L0.0445 0.6783
" />
<path d="M0.0445 38.7782
L99.1045 38.7782
" />
<path d="M0.0445 0.6783
L0.0445 38.7782
" />
<path d="M99.1045 38.7782
L99.1045 0.6783
" />
</g>
<g style="fill:#FFFFFF; fill-opacity:1.0000; stroke:none;">
<circle cx="61.4857" cy="21.6432" r="0.2000" /> 
</g>
<g style="fill:#FFFFFF; fill-opacity:1.0000; stroke:none;">
<circle cx="35.6045" cy="3.2182" r="0.4000" /> 
</g>
<g style="fill:#FFFFFF; fill-opacity:1.0000; stroke:none;">
<circle cx="45.7645" cy="3.2182" r="0.4000" /> 
</g>
<g style="fill:#FFFFFF; fill-opacity:1.0000; stroke:none;">
<circle cx="88.9445" cy="3.2182" r="0.6000" /> 
</g>
<g style="fill:#FFFFFF; fill-opacity:1.0000; stroke:none;">
<circle cx="73.7045" cy="3.2182" r="0.6000" /> 
</g>
<g style="fill:#FFFFFF; fill-opacity:1.0000; stroke:none;">
<circle cx="66.0845" cy="8.2982" r="0.4000" /> 
</g>
<g style="fill:#FFFFFF; fill-opacity:1.0000; stroke:none;">
<circle cx="73.7045" cy="10.8383" r="0.4000" /> 
</g>
<g style="fill:#FFFFFF; fill-opacity:1.0000; stroke:none;">
<circle cx="66.0845" cy="13.3782" r="0.4000" /> 
</g>
<g style="fill:#FFFFFF; fill-opacity:1.0000; stroke:none;">
<circle cx="66.0845" cy="10.8383" r="0.4000" /> 
</g>
<g style="fill:#FFFFFF; fill-opacity:1.0000; stroke:none;">
<circle cx="73.7045" cy="8.2982" r="0.4000" /> 
</g>
<g style="fill:#FFFFFF; fill-opacity:1.0000; stroke:none;">
<circle cx="73.7045" cy="13.3782" r="0.4000" /> 
</g>
<g style="fill:#FFFFFF; fill-opacity:1.0000; stroke:none;">
<circle cx="94.0245" cy="13.3782" r="0.8000" /> 
</g>
<g style="fill:#FFFFFF; fill-opacity:1.0000; stroke:none;">
<circle cx="94.0245" cy="20.9982" r="0.8000" /> 
</g>
<g style="fill:#FFFFFF; fill-opacity:1.0000; stroke:none;">
<circle cx="94.0245" cy="28.6182" r="0.8000" /> 
</g>
<g style="fill:#FFFFFF; fill-opacity:1.0000; stroke:none;">
<circle cx="96.5645" cy="3.2182" r="1.1000" /> 
</g>
<g style="fill:#FFFFFF; fill-opacity:1.0000; stroke:none;">
<circle cx="2.5845" cy="36.2383" r="1.1000" /> 
</g>
<g style="fill:#FFFFFF; fill-opacity:1.0000; stroke:none;">
<circle cx="35.6045" cy="8.2982" r="0.4000" /> 
</g>
<g style="fill:#FFFFFF; fill-opacity:1.0000; stroke:none;">
<circle cx="45.7645" cy="8.2982" r="0.4000" /> 
</g>
<g style="fill:#FFFFFF; fill-opacity:1.0000; stroke:none;">
<circle cx="66.0845" cy="24.8833" r="0.5000" /> 
</g>
<g style="fill:#FFFFFF; fill-opacity:1.0000; stroke:none;">
<circle cx="66.0845" cy="29.8833" r="0.5000" /> 
</g>
<g style="fill:#FFFFFF; fill-opacity:1.0000; stroke:none;">
<circle cx="36.6846" cy="19.6832" r="0.5000" /> 
</g>
<g style="fill:#FFFFFF; fill-opacity:1.0000; stroke:none;">
<circle cx="36.6846" cy="35.0832" r="0.5000" /> 
</g>
<g style="fill:#FFFFFF; fill-opacity:1.0000; stroke:none;">
<circle cx="82.9646" cy="9.6282" r="0.4000" /> 
</g>
<g style="fill:#FFFFFF; fill-opacity:1.0000; stroke:none;">
<circle cx="84.7645" cy="17.1282" r="0.4000" /> 
</g>
<g style="fill:#FFFFFF; fill-opacity:1.0000; stroke:none;">
<circle cx="52.1195" cy="5.7582" r="0.4000" /> 
</g>
<g style="fill:#FFFFFF; fill-opacity:1.0000; stroke:none;">
<circle cx="59.7395" cy="8.2982" r="0.4000" /> 
</g>
<g style="fill:#FFFFFF; fill-opacity:1.0000; stroke:none;">
<circle cx="52.1195" cy="10.8383" r="0.4000" /> 
</g>
<g style="fill:#FFFFFF; fill-opacity:1.0000; stroke:none;">
<circle cx="52.1195" cy="8.2982" r="0.4000" /> 
</g>
<g style="fill:#FFFFFF; fill-opacity:1.0000; stroke:none;">
<circle cx="59.7395" cy="5.7582" r="0.4000" /> 
</g>
<g style="fill:#FFFFFF; fill-opacity:1.0000; stroke:none;">
<circle cx="59.7395" cy="10.8383" r="0.4000" /> 
</g>
<g style="fill:#FFFFFF; fill-opacity:1.0000; stroke:none;">
<circle cx="30.5245" cy="9.5682" r="0.5000" /> 
</g>
<g style="fill:#FFFFFF; fill-opacity:1.0000; stroke:none;">
<circle cx="30.5245" cy="12.1082" r="0.5000" /> 
</g>
<g style="fill:#FFFFFF; fill-opacity:1.0000; stroke:none;">
<circle cx="30.5245" cy="14.6482" r="0.5000" /> 
</g>
<g style="fill:#FFFFFF; fill-opacity:1.0000; stroke:none;">
<circle cx="30.5245" cy="17.1883" r="0.5000" /> 
</g>
<g style="fill:#FFFFFF; fill-opacity:1.0000; stroke:none;">
<circle cx="30.5245" cy="19.7282" r="0.5000" /> 
</g>
<g style="fill:#FFFFFF; fill-opacity:1.0000; stroke:none;">
<circle cx="30.5245" cy="22.2682" r="0.5000" /> 
</g>
<g style="fill:#FFFFFF; fill-opacity:1.0000; stroke:none;">
<circle cx="30.5245" cy="24.8082" r="0.5000" /> 
</g>
<g style="fill:#FFFFFF; fill-opacity:1.0000; stroke:none;">
<circle cx="30.5245" cy="27.3483" r="0.5000" /> 
</g>
<g style="fill:#FFFFFF; fill-opacity:1.0000; stroke:none;">
<circle cx="7.6645" cy="27.3483" r="0.5000" /> 
</g>
<g style="fill:#FFFFFF; fill-opacity:1.0000; stroke:none;">
<circle cx="7.6645" cy="24.8082" r="0.5000" /> 
</g>
<g style="fill:#FFFFFF; fill-opacity:1.0000; stroke:none;">
<circle cx="7.6645" cy="22.2682" r="0.5000" /> 
</g>
<g style="fill:#FFFFFF; fill-opacity:1.0000; stroke:none;">
<circle cx="7.6645" cy="19.7282" r="0.5000" /> 
</g>
<g style="fill:#FFFFFF; fill-opacity:1.0000; stroke:none;">
<circle cx="7.6645" cy="17.1883" r="0.5000" /> 
</g>
<g style="fill:#FFFFFF; fill-opacity:1.0000; stroke:none;">
<circle cx="7.6645" cy="14.6482" r="0.5000" /> 
</g>
<g style="fill:#FFFFFF; fill-opacity:1.0000; stroke:none;">
<circle cx="7.6645" cy="12.1082" r="0.5000" /> 
</g>
<g style="fill:#FFFFFF; fill-opacity:1.0000; stroke:none;">
<circle cx="7.6645" cy="9.5682" r="0.5000" /> 
</g>
<g style="fill:#FFFFFF; fill-opacity:1.0000; stroke:none;">
<circle cx="73.7045" cy="20.9982" r="0.5500" /> 
</g>
<g style="fill:#FFFFFF; fill-opacity:1.0000; stroke:none;">
<circle cx="73.7045" cy="31.1582" r="0.5500" /> 
</g>
<g style="fill:#FFFFFF; fill-opacity:1.0000; stroke:none;">
<circle cx="96.5645" cy="36.2383" r="1.1000" /> 
</g>
<g style="fill:#FFFFFF; fill-opacity:1.0000; stroke:none;">
<circle cx="81.3246" cy="33.6983" r="0.5500" /> 
</g>
<g style="fill:#FFFFFF; fill-opacity:1.0000; stroke:none;">
<circle cx="81.3246" cy="23.5382" r="0.5500" /> 
</g>
<g style="fill:#FFFFFF; fill-opacity:1.0000; stroke:none;">
<circle cx="2.5845" cy="3.2182" r="1.1000" /> 
</g>
<g style="fill:#FFFFFF; fill-opacity:1.0000; stroke:none;">
<circle cx="40.6045" cy="13.3782" r="0.4000" /> 
</g>
<g style="fill:#FFFFFF; fill-opacity:1.0000; stroke:none;">
<circle cx="35.6045" cy="13.3782" r="0.4000" /> 
</g> 
</svg>
