<?xml version="1.0" standalone="no"?>
 <!DOCTYPE svg PUBLIC "-//W3C//DTD SVG 1.1//EN" 
 "http://www.w3.org/Graphics/SVG/1.1/DTD/svg11.dtd"> 
<svg
  xmlns:svg="http://www.w3.org/2000/svg"
  xmlns="http://www.w3.org/2000/svg"
  xmlns:xlink="http://www.w3.org/1999/xlink"
  version="1.1"
  width="99.8728mm" height="38.8112mm" viewBox="0.0000 0.0000 99.8728 38.8112">
<title>SVG Image created as MaxPilot-pcb-front.svg date 2026/02/21 19:01:43 </title>
  <desc>Image generated by PCBNEW </desc>
<g style="fill:#000000; fill-opacity:1.0000;stroke:#000000; stroke-opacity:1.0000;
stroke-linecap:round; stroke-linejoin:round;"
 transform="translate(0 0) scale(1 1)">
</g>
<g style="fill:#C83434; fill-opacity:1.0000; stroke:none;">
<circle cx="64.2682" cy="3.2182" r="0.8000" /> 
</g>
<g style="fill:#C83434; fill-opacity:1.0000; stroke:none;">
<circle cx="54.1082" cy="3.2182" r="0.8000" /> 
<circle cx="10.9283" cy="3.2182" r="1.2000" /> 
</g>
<g style="fill:#C83434; fill-opacity:1.0000; stroke:none;">
<circle cx="26.1683" cy="3.2182" r="1.2000" /> 
</g>
<g style="fill:#C83434; fill-opacity:1.0000; stroke:none;">
<circle cx="33.7882" cy="8.2982" r="0.8000" /> 
<path style="fill:#C83434; fill-opacity:1.0000; stroke:none;fill-rule:evenodd;"
d="M 34.5882,13.9283
34.5692,14.0239
34.5150,14.1050
34.4339,14.1592
34.3382,14.1783
33.2383,14.1783
33.1426,14.1592
33.0615,14.1050
33.0073,14.0239
32.9883,13.9283
32.9883,12.8282
33.0073,12.7326
33.0615,12.6515
33.1426,12.5973
33.2383,12.5782
34.3382,12.5782
34.4339,12.5973
34.5150,12.6515
34.5692,12.7326
34.5882,12.8282
Z" /> 
</g>
<g style="fill:#C83434; fill-opacity:1.0000; stroke:none;">
<circle cx="33.7882" cy="10.8383" r="0.8000" /> 
</g>
<g style="fill:#C83434; fill-opacity:1.0000; stroke:none;">
<circle cx="26.1683" cy="8.2982" r="0.8000" /> 
</g>
<g style="fill:#C83434; fill-opacity:1.0000; stroke:none;">
<circle cx="26.1683" cy="13.3782" r="0.8000" /> 
<path style="fill:#C83434; fill-opacity:1.0000; stroke:none;fill-rule:evenodd;"
d="M 4.5782,12.1082
7.1182,12.1082
7.1182,14.6482
4.5782,14.6482
Z" /> 
</g>
<g style="fill:#C83434; fill-opacity:1.0000; stroke:none;">
<circle cx="5.8483" cy="20.9982" r="1.2700" /> 
</g>
<g style="fill:#C83434; fill-opacity:1.0000; stroke:none;">
<circle cx="5.8483" cy="28.6182" r="1.2700" /> 
</g>
<g style="fill:#C83434; fill-opacity:1.0000; stroke:none;">
<circle cx="64.2682" cy="8.2982" r="0.8000" /> 
</g>
<g style="fill:#C83434; fill-opacity:1.0000; stroke:none;">
<circle cx="54.1082" cy="8.2982" r="0.8000" /> 
<path style="fill:#C83434; fill-opacity:1.0000; stroke:none;fill-rule:evenodd;"
d="M 32.6382,25.8833
32.6382,23.8833
34.9382,23.8833
34.9382,25.8833
Z" /> 
<circle cx="33.7882" cy="29.8833" r="1.1500" /> 
</g>
<g style="fill:#C83434; fill-opacity:1.0000; stroke:none;">
<circle cx="63.1882" cy="19.6832" r="1.1500" /> 
</g>
<g style="fill:#C83434; fill-opacity:1.0000; stroke:none;">
<circle cx="63.1882" cy="35.0832" r="1.1500" /> 
</g>
<g style="fill:#C83434; fill-opacity:1.0000; stroke:none;">
<circle cx="16.9082" cy="9.6282" r="0.9000" /> 
</g>
<g style="fill:#C83434; fill-opacity:1.0000; stroke:none;">
<circle cx="15.1082" cy="17.1282" r="0.9000" /> 
</g>
<g style="fill:#C83434; fill-opacity:1.0000; stroke:none;">
<circle cx="47.7533" cy="5.7582" r="0.8000" /> 
<path style="fill:#C83434; fill-opacity:1.0000; stroke:none;fill-rule:evenodd;"
d="M 48.5532,11.3882
48.5342,11.4839
48.4800,11.5650
48.3989,11.6192
48.3032,11.6382
47.2032,11.6382
47.1076,11.6192
47.0265,11.5650
46.9723,11.4839
46.9532,11.3882
46.9532,10.2882
46.9723,10.1926
47.0265,10.1115
47.1076,10.0573
47.2032,10.0382
48.3032,10.0382
48.3989,10.0573
48.4800,10.1115
48.5342,10.1926
48.5532,10.2882
Z" /> 
</g>
<g style="fill:#C83434; fill-opacity:1.0000; stroke:none;">
<circle cx="47.7533" cy="8.2982" r="0.8000" /> 
</g>
<g style="fill:#C83434; fill-opacity:1.0000; stroke:none;">
<circle cx="40.1332" cy="5.7582" r="0.8000" /> 
</g>
<g style="fill:#C83434; fill-opacity:1.0000; stroke:none;">
<circle cx="40.1332" cy="10.8383" r="0.8000" /> 
<path style="fill:#C83434; fill-opacity:1.0000; stroke:none;fill-rule:evenodd;"
d="M 68.3482,10.5682
68.3482,8.5682
70.3482,8.5682
70.3482,10.5682
Z" /> 
</g>
<g style="fill:none; 
stroke:#C83434; stroke-width:1.6000; stroke-opacity:1; 
stroke-linecap:round; stroke-linejoin:round;">
<path d="M69.1482 12.1082
L69.5482 12.1082
" />
<path d="M69.1482 14.6482
L69.5482 14.6482
" />
<path d="M69.1482 17.1883
L69.5482 17.1883
" />
<path d="M69.1482 19.7282
L69.5482 19.7282
" />
<path d="M69.1482 22.2682
L69.5482 22.2682
" />
<path d="M69.1482 24.8082
L69.5482 24.8082
" />
<path d="M69.1482 27.3483
L69.5482 27.3483
" />
<path d="M92.0082 27.3483
L92.4082 27.3483
" />
<path d="M92.0082 24.8082
L92.4082 24.8082
" />
<path d="M92.0082 22.2682
L92.4082 22.2682
" />
<path d="M92.0082 19.7282
L92.4082 19.7282
" />
<path d="M92.0082 17.1883
L92.4082 17.1883
" />
<path d="M92.0082 14.6482
L92.4082 14.6482
" />
<path d="M92.0082 12.1082
L92.4082 12.1082
" />
<path d="M92.0082 9.5682
L92.4082 9.5682
" />
<path style="fill:#C83434; fill-opacity:1.0000; stroke:none;fill-rule:evenodd;"
d="M 25.0682,19.8982
27.2682,19.8982
27.2682,22.0983
25.0682,22.0983
Z" /> 
</g>
<g style="fill:#C83434; fill-opacity:1.0000; stroke:none;">
<circle cx="26.1683" cy="31.1582" r="1.1000" /> 
<path style="fill:#C83434; fill-opacity:1.0000; stroke:none;fill-rule:evenodd;"
d="M 19.6483,34.7982
17.4482,34.7982
17.4482,32.5983
19.6483,32.5983
Z" /> 
<circle cx="18.5482" cy="23.5382" r="1.1000" /> 
<circle cx="59.2682" cy="13.3782" r="0.8000" /> 
</g>
<g style="fill:#C83434; fill-opacity:1.0000; stroke:none;">
<circle cx="64.2682" cy="13.3782" r="0.8000" /> 
</g>
<g style="fill:#C83434; fill-opacity:1.0000; stroke:none;">
<circle cx="38.3870" cy="21.6432" r="0.4000" /> 
</g>
<g style="fill:none; 
stroke:#C83434; stroke-width:2.0000; stroke-opacity:1; 
stroke-linecap:round; stroke-linejoin:round;">
<path d="M5.8483 8.2982
L10.9283 3.2182
" />
<path d="M5.8483 13.3782
L5.8483 8.2982
" />
</g>
<g style="fill:none; 
stroke:#C83434; stroke-width:0.2500; stroke-opacity:1; 
stroke-linecap:round; stroke-linejoin:round;">
<path d="M92.2082 24.8082
L92.2082 23.6815
" />
<path d="M88.3982 20.9982
L64.5032 20.9982
" />
<path d="M91.0815 23.6815
L88.3982 20.9982
" />
<path d="M64.5032 20.9982
L63.1882 19.6832
" />
<path d="M92.2082 23.6815
L91.0815 23.6815
" />
<path d="M92.2082 27.3483
L92.2082 28.4749
" />
<path d="M69.7965 28.4749
L63.1882 35.0832
" />
<path d="M92.2082 28.4749
L69.7965 28.4749
" />
</g>
<g style="fill:none; 
stroke:#C83434; stroke-width:2.0000; stroke-opacity:1; 
stroke-linecap:round; stroke-linejoin:round;">
<path d="M35.8269 18.4582
L28.7082 18.4582
" />
<path d="M28.7082 18.4582
L26.1683 20.9982
" />
<path d="M40.1332 14.1519
L35.8269 18.4582
" />
<path d="M40.1332 10.8383
L40.1332 14.1519
" />
<path d="M18.5482 20.9982
L26.1683 13.3782
" />
<path d="M18.5482 23.5382
L18.5482 20.9982
" />
<path d="M20.4540 28.1392
L16.6425 28.1392
" />
<path d="M16.6425 28.1392
L10.7073 22.2040
" />
<path d="M10.7073 15.3052
L14.3742 11.6382
" />
<path d="M14.8982 11.6382
L16.9082 9.6282
" />
<path d="M14.3742 11.6382
L14.8982 11.6382
" />
<path d="M31.4852 24.8833
L30.7692 25.5992
" />
<path d="M23.3182 3.2182
L16.9082 9.6282
" />
<path d="M14.3742 11.6382
L17.7142 8.2982
" />
<path d="M26.1683 3.2182
L26.1683 8.2982
" />
<path d="M26.1683 3.2182
L37.5932 3.2182
" />
<path d="M10.7073 22.2040
L10.7073 15.3052
" />
<path d="M33.7882 24.8833
L31.4852 24.8833
" />
<path d="M26.1683 3.2182
L23.3182 3.2182
" />
<path d="M37.5932 3.2182
L40.1332 5.7582
" />
<path d="M30.7692 25.5992
L22.9940 25.5992
" />
<path d="M22.9940 25.5992
L20.4540 28.1392
" />
</g>
<g style="fill:none; 
stroke:#C83434; stroke-width:0.2500; stroke-opacity:1; 
stroke-linecap:round; stroke-linejoin:round;">
<path d="M67.1166 13.3782
L85.8582 13.3782
" />
<path d="M64.5767 10.8383
L67.1166 13.3782
" />
<path d="M50.2933 10.8383
L64.5767 10.8383
" />
<path d="M47.7533 8.2982
L50.2933 10.8383
" />
<path d="M92.2082 19.7282
L92.2082 18.6015
" />
<path d="M91.0815 18.6015
L92.2082 18.6015
" />
<path d="M85.8582 13.3782
L91.0815 18.6015
" />
<path d="M38.3870 21.6432
L39.0120 22.2682
" />
<path d="M69.3482 22.2682
L39.0120 22.2682
" />
<path d="M39.0120 22.2682
L38.3870 21.6432
" />
<path d="M39.0120 22.2682
L38.3870 21.6432
" />
</g>
<g style="fill:none; 
stroke:#F2EDA1; stroke-width:0.1500; stroke-opacity:1; 
stroke-linecap:round; stroke-linejoin:round;">
<text x="18.5482" y="36.7383"
textLength="9.1548" font-size="1.3333" lengthAdjust="spacingAndGlyphs"
text-anchor="middle" opacity="0" stroke-opacity="0">MaxPilot V2</text>
<g class="stroked-text"><desc>MaxPilot V2</desc>
<path d="M14.3280 36.6931
L14.4530 35.6931
" />
<path d="M14.4530 35.6931
L14.6971 36.4074
" />
<path d="M14.6971 36.4074
L15.1197 35.6931
" />
<path d="M15.1197 35.6931
L14.9947 36.6931
" />
<path d="M15.8994 36.6931
L15.9649 36.1693
" />
<path d="M15.9649 36.1693
L15.9292 36.0740
" />
<path d="M15.9292 36.0740
L15.8399 36.0264
" />
<path d="M15.8399 36.0264
L15.6494 36.0264
" />
<path d="M15.6494 36.0264
L15.5482 36.0740
" />
<path d="M15.9054 36.6454
L15.8042 36.6931
" />
<path d="M15.8042 36.6931
L15.5661 36.6931
" />
<path d="M15.5661 36.6931
L15.4768 36.6454
" />
<path d="M15.4768 36.6454
L15.4411 36.5502
" />
<path d="M15.4411 36.5502
L15.4530 36.4550
" />
<path d="M15.4530 36.4550
L15.5125 36.3597
" />
<path d="M15.5125 36.3597
L15.6137 36.3121
" />
<path d="M15.6137 36.3121
L15.8518 36.3121
" />
<path d="M15.8518 36.3121
L15.9530 36.2645
" />
<path d="M16.2804 36.6931
L16.8875 36.0264
" />
<path d="M16.3637 36.0264
L16.8042 36.6931
" />
<path d="M17.1852 36.6931
L17.3102 35.6931
" />
<path d="M17.3102 35.6931
L17.6911 35.6931
" />
<path d="M17.6911 35.6931
L17.7804 35.7407
" />
<path d="M17.7804 35.7407
L17.8221 35.7883
" />
<path d="M17.8221 35.7883
L17.8578 35.8835
" />
<path d="M17.8578 35.8835
L17.8399 36.0264
" />
<path d="M17.8399 36.0264
L17.7804 36.1216
" />
<path d="M17.7804 36.1216
L17.7268 36.1693
" />
<path d="M17.7268 36.1693
L17.6256 36.2169
" />
<path d="M17.6256 36.2169
L17.2447 36.2169
" />
<path d="M18.1852 36.6931
L18.2685 36.0264
" />
<path d="M18.3102 35.6931
L18.2566 35.7407
" />
<path d="M18.2566 35.7407
L18.2982 35.7883
" />
<path d="M18.2982 35.7883
L18.3518 35.7407
" />
<path d="M18.3518 35.7407
L18.3102 35.6931
" />
<path d="M18.3102 35.6931
L18.2982 35.7883
" />
<path d="M18.8042 36.6931
L18.7149 36.6454
" />
<path d="M18.7149 36.6454
L18.6792 36.5502
" />
<path d="M18.6792 36.5502
L18.7863 35.6931
" />
<path d="M19.3280 36.6931
L19.2387 36.6454
" />
<path d="M19.2387 36.6454
L19.1971 36.5978
" />
<path d="M19.1971 36.5978
L19.1613 36.5026
" />
<path d="M19.1613 36.5026
L19.1971 36.2169
" />
<path d="M19.1971 36.2169
L19.2566 36.1216
" />
<path d="M19.2566 36.1216
L19.3102 36.0740
" />
<path d="M19.3102 36.0740
L19.4113 36.0264
" />
<path d="M19.4113 36.0264
L19.5542 36.0264
" />
<path d="M19.5542 36.0264
L19.6435 36.0740
" />
<path d="M19.6435 36.0740
L19.6852 36.1216
" />
<path d="M19.6852 36.1216
L19.7209 36.2169
" />
<path d="M19.7209 36.2169
L19.6852 36.5026
" />
<path d="M19.6852 36.5026
L19.6256 36.5978
" />
<path d="M19.6256 36.5978
L19.5721 36.6454
" />
<path d="M19.5721 36.6454
L19.4709 36.6931
" />
<path d="M19.4709 36.6931
L19.3280 36.6931
" />
<path d="M20.0304 36.0264
L20.4113 36.0264
" />
<path d="M20.2149 35.6931
L20.1078 36.5502
" />
<path d="M20.1078 36.5502
L20.1435 36.6454
" />
<path d="M20.1435 36.6454
L20.2328 36.6931
" />
<path d="M20.2328 36.6931
L20.3280 36.6931
" />
<path d="M21.4054 35.6931
L21.6137 36.6931
" />
<path d="M21.6137 36.6931
L22.0721 35.6931
" />
<path d="M22.3459 35.7883
L22.3994 35.7407
" />
<path d="M22.3994 35.7407
L22.5006 35.6931
" />
<path d="M22.5006 35.6931
L22.7387 35.6931
" />
<path d="M22.7387 35.6931
L22.8280 35.7407
" />
<path d="M22.8280 35.7407
L22.8697 35.7883
" />
<path d="M22.8697 35.7883
L22.9054 35.8835
" />
<path d="M22.9054 35.8835
L22.8935 35.9788
" />
<path d="M22.8935 35.9788
L22.8280 36.1216
" />
<path d="M22.8280 36.1216
L22.1852 36.6931
" />
<path d="M22.1852 36.6931
L22.8042 36.6931
" />
</g></g>
<g style="fill:none; 
stroke:#F2EDA1; stroke-width:0.1200; stroke-opacity:1; 
stroke-linecap:round; stroke-linejoin:round;">
<text x="18.5482" y="37.8783"
textLength="10.4095" font-size="1.0667" lengthAdjust="spacingAndGlyphs"
text-anchor="middle" opacity="0" stroke-opacity="0">CERN-OHL-S v2</text>
<g class="stroked-text"><desc>CERN-OHL-S v2</desc>
<path d="M14.0911 37.7659
L14.0530 37.8040
" />
<path d="M14.0530 37.8040
L13.9387 37.8421
" />
<path d="M13.9387 37.8421
L13.8625 37.8421
" />
<path d="M13.8625 37.8421
L13.7482 37.8040
" />
<path d="M13.7482 37.8040
L13.6721 37.7278
" />
<path d="M13.6721 37.7278
L13.6340 37.6516
" />
<path d="M13.6340 37.6516
L13.5959 37.4992
" />
<path d="M13.5959 37.4992
L13.5959 37.3850
" />
<path d="M13.5959 37.3850
L13.6340 37.2326
" />
<path d="M13.6340 37.2326
L13.6721 37.1564
" />
<path d="M13.6721 37.1564
L13.7482 37.0802
" />
<path d="M13.7482 37.0802
L13.8625 37.0421
" />
<path d="M13.8625 37.0421
L13.9387 37.0421
" />
<path d="M13.9387 37.0421
L14.0530 37.0802
" />
<path d="M14.0530 37.0802
L14.0911 37.1183
" />
<path d="M14.4340 37.4231
L14.7006 37.4231
" />
<path d="M14.8149 37.8421
L14.4340 37.8421
" />
<path d="M14.4340 37.8421
L14.4340 37.0421
" />
<path d="M14.4340 37.0421
L14.8149 37.0421
" />
<path d="M15.6149 37.8421
L15.3483 37.4612
" />
<path d="M15.1578 37.8421
L15.1578 37.0421
" />
<path d="M15.1578 37.0421
L15.4625 37.0421
" />
<path d="M15.4625 37.0421
L15.5387 37.0802
" />
<path d="M15.5387 37.0802
L15.5768 37.1183
" />
<path d="M15.5768 37.1183
L15.6149 37.1945
" />
<path d="M15.6149 37.1945
L15.6149 37.3088
" />
<path d="M15.6149 37.3088
L15.5768 37.3850
" />
<path d="M15.5768 37.3850
L15.5387 37.4231
" />
<path d="M15.5387 37.4231
L15.4625 37.4612
" />
<path d="M15.4625 37.4612
L15.1578 37.4612
" />
<path d="M15.9578 37.8421
L15.9578 37.0421
" />
<path d="M15.9578 37.0421
L16.4149 37.8421
" />
<path d="M16.4149 37.8421
L16.4149 37.0421
" />
<path d="M16.7959 37.5373
L17.4054 37.5373
" />
<path d="M17.9387 37.0421
L18.0911 37.0421
" />
<path d="M18.0911 37.0421
L18.1673 37.0802
" />
<path d="M18.1673 37.0802
L18.2435 37.1564
" />
<path d="M18.2435 37.1564
L18.2816 37.3088
" />
<path d="M18.2816 37.3088
L18.2816 37.5754
" />
<path d="M18.2816 37.5754
L18.2435 37.7278
" />
<path d="M18.2435 37.7278
L18.1673 37.8040
" />
<path d="M18.1673 37.8040
L18.0911 37.8421
" />
<path d="M18.0911 37.8421
L17.9387 37.8421
" />
<path d="M17.9387 37.8421
L17.8625 37.8040
" />
<path d="M17.8625 37.8040
L17.7863 37.7278
" />
<path d="M17.7863 37.7278
L17.7482 37.5754
" />
<path d="M17.7482 37.5754
L17.7482 37.3088
" />
<path d="M17.7482 37.3088
L17.7863 37.1564
" />
<path d="M17.7863 37.1564
L17.8625 37.0802
" />
<path d="M17.8625 37.0802
L17.9387 37.0421
" />
<path d="M18.6244 37.8421
L18.6244 37.0421
" />
<path d="M18.6244 37.4231
L19.0816 37.4231
" />
<path d="M19.0816 37.8421
L19.0816 37.0421
" />
<path d="M19.8435 37.8421
L19.4625 37.8421
" />
<path d="M19.4625 37.8421
L19.4625 37.0421
" />
<path d="M20.1102 37.5373
L20.7197 37.5373
" />
<path d="M21.0625 37.8040
L21.1768 37.8421
" />
<path d="M21.1768 37.8421
L21.3673 37.8421
" />
<path d="M21.3673 37.8421
L21.4435 37.8040
" />
<path d="M21.4435 37.8040
L21.4816 37.7659
" />
<path d="M21.4816 37.7659
L21.5197 37.6897
" />
<path d="M21.5197 37.6897
L21.5197 37.6135
" />
<path d="M21.5197 37.6135
L21.4816 37.5373
" />
<path d="M21.4816 37.5373
L21.4435 37.4992
" />
<path d="M21.4435 37.4992
L21.3673 37.4612
" />
<path d="M21.3673 37.4612
L21.2149 37.4231
" />
<path d="M21.2149 37.4231
L21.1387 37.3850
" />
<path d="M21.1387 37.3850
L21.1006 37.3469
" />
<path d="M21.1006 37.3469
L21.0625 37.2707
" />
<path d="M21.0625 37.2707
L21.0625 37.1945
" />
<path d="M21.0625 37.1945
L21.1006 37.1183
" />
<path d="M21.1006 37.1183
L21.1387 37.0802
" />
<path d="M21.1387 37.0802
L21.2149 37.0421
" />
<path d="M21.2149 37.0421
L21.4054 37.0421
" />
<path d="M21.4054 37.0421
L21.5197 37.0802
" />
<path d="M22.3959 37.3088
L22.5863 37.8421
" />
<path d="M22.5863 37.8421
L22.7768 37.3088
" />
<path d="M23.0435 37.1183
L23.0816 37.0802
" />
<path d="M23.0816 37.0802
L23.1578 37.0421
" />
<path d="M23.1578 37.0421
L23.3482 37.0421
" />
<path d="M23.3482 37.0421
L23.4244 37.0802
" />
<path d="M23.4244 37.0802
L23.4625 37.1183
" />
<path d="M23.4625 37.1183
L23.5006 37.1945
" />
<path d="M23.5006 37.1945
L23.5006 37.2707
" />
<path d="M23.5006 37.2707
L23.4625 37.3850
" />
<path d="M23.4625 37.3850
L23.0054 37.8421
" />
<path d="M23.0054 37.8421
L23.5006 37.8421
" />
</g></g>
<g style="fill:none; 
stroke:#F2EDA1; stroke-width:0.1500; stroke-opacity:1; 
stroke-linecap:round; stroke-linejoin:round;">
<text x="59.1882" y="6.0882"
textLength="2.2024" font-size="1.3333" lengthAdjust="spacingAndGlyphs"
text-anchor="middle" opacity="0" stroke-opacity="0">R2</text>
<g class="stroked-text"><desc>R2</desc>
<path d="M59.0216 6.0431
L58.6882 5.5669
" />
<path d="M58.4502 6.0431
L58.4502 5.0431
" />
<path d="M58.4502 5.0431
L58.8311 5.0431
" />
<path d="M58.8311 5.0431
L58.9263 5.0907
" />
<path d="M58.9263 5.0907
L58.9740 5.1383
" />
<path d="M58.9740 5.1383
L59.0216 5.2335
" />
<path d="M59.0216 5.2335
L59.0216 5.3764
" />
<path d="M59.0216 5.3764
L58.9740 5.4716
" />
<path d="M58.9740 5.4716
L58.9263 5.5193
" />
<path d="M58.9263 5.5193
L58.8311 5.5669
" />
<path d="M58.8311 5.5669
L58.4502 5.5669
" />
<path d="M59.4025 5.1383
L59.4502 5.0907
" />
<path d="M59.4502 5.0907
L59.5454 5.0431
" />
<path d="M59.5454 5.0431
L59.7835 5.0431
" />
<path d="M59.7835 5.0431
L59.8787 5.0907
" />
<path d="M59.8787 5.0907
L59.9263 5.1383
" />
<path d="M59.9263 5.1383
L59.9740 5.2335
" />
<path d="M59.9740 5.2335
L59.9740 5.3288
" />
<path d="M59.9740 5.3288
L59.9263 5.4716
" />
<path d="M59.9263 5.4716
L59.3549 6.0431
" />
<path d="M59.3549 6.0431
L59.9740 6.0431
" />
</g><text x="18.5482" y="3.7182"
textLength="2.0595" font-size="1.3333" lengthAdjust="spacingAndGlyphs"
text-anchor="middle" opacity="0" stroke-opacity="0">F1</text>
<g class="stroked-text"><desc>F1</desc>
<path d="M18.2149 3.1493
L17.8816 3.1493
" />
<path d="M17.8816 3.6731
L17.8816 2.6731
" />
<path d="M17.8816 2.6731
L18.3578 2.6731
" />
<path d="M19.2625 3.6731
L18.6911 3.6731
" />
<path d="M18.9768 3.6731
L18.9768 2.6731
" />
<path d="M18.9768 2.6731
L18.8816 2.8159
" />
<path d="M18.8816 2.8159
L18.7863 2.9112
" />
<path d="M18.7863 2.9112
L18.6911 2.9588
" />
</g><text x="29.9782" y="16.2082"
textLength="2.2500" font-size="1.3333" lengthAdjust="spacingAndGlyphs"
text-anchor="middle" opacity="0" stroke-opacity="0">U3</text>
<g class="stroked-text"><desc>U3</desc>
<path d="M29.2163 15.1631
L29.2163 15.9726
" />
<path d="M29.2163 15.9726
L29.2640 16.0678
" />
<path d="M29.2640 16.0678
L29.3116 16.1154
" />
<path d="M29.3116 16.1154
L29.4068 16.1631
" />
<path d="M29.4068 16.1631
L29.5973 16.1631
" />
<path d="M29.5973 16.1631
L29.6925 16.1154
" />
<path d="M29.6925 16.1154
L29.7402 16.0678
" />
<path d="M29.7402 16.0678
L29.7878 15.9726
" />
<path d="M29.7878 15.9726
L29.7878 15.1631
" />
<path d="M30.1687 15.1631
L30.7878 15.1631
" />
<path d="M30.7878 15.1631
L30.4544 15.5440
" />
<path d="M30.4544 15.5440
L30.5973 15.5440
" />
<path d="M30.5973 15.5440
L30.6925 15.5916
" />
<path d="M30.6925 15.5916
L30.7402 15.6393
" />
<path d="M30.7402 15.6393
L30.7878 15.7345
" />
<path d="M30.7878 15.7345
L30.7878 15.9726
" />
<path d="M30.7878 15.9726
L30.7402 16.0678
" />
<path d="M30.7402 16.0678
L30.6925 16.1154
" />
<path d="M30.6925 16.1154
L30.5973 16.1631
" />
<path d="M30.5973 16.1631
L30.3116 16.1631
" />
<path d="M30.3116 16.1631
L30.2163 16.1154
" />
<path d="M30.2163 16.1154
L30.1687 16.0678
" />
</g><g transform="rotate(-90.000000 11.8483 20.9982)">
<text x="11.8483" y="21.4982"
textLength="1.9643" font-size="1.3333" lengthAdjust="spacingAndGlyphs"
text-anchor="middle" opacity="0" stroke-opacity="0">J1</text>
</g>
<g class="stroked-text"><desc>J1</desc>
<path d="M11.3031 21.3316
L12.0174 21.3316
" />
<path d="M12.0174 21.3316
L12.1602 21.3792
" />
<path d="M12.1602 21.3792
L12.2554 21.4744
" />
<path d="M12.2554 21.4744
L12.3031 21.6173
" />
<path d="M12.3031 21.6173
L12.3031 21.7125
" />
<path d="M12.3031 20.3316
L12.3031 20.9030
" />
<path d="M12.3031 20.6173
L11.3031 20.6173
" />
<path d="M11.3031 20.6173
L11.4459 20.7125
" />
<path d="M11.4459 20.7125
L11.5412 20.8078
" />
<path d="M11.5412 20.8078
L11.5888 20.9030
" />
</g><text x="59.1882" y="11.1682"
textLength="2.2024" font-size="1.3333" lengthAdjust="spacingAndGlyphs"
text-anchor="middle" opacity="0" stroke-opacity="0">R1</text>
<g class="stroked-text"><desc>R1</desc>
<path d="M59.0216 11.1231
L58.6882 10.6469
" />
<path d="M58.4502 11.1231
L58.4502 10.1231
" />
<path d="M58.4502 10.1231
L58.8311 10.1231
" />
<path d="M58.8311 10.1231
L58.9263 10.1707
" />
<path d="M58.9263 10.1707
L58.9740 10.2183
" />
<path d="M58.9740 10.2183
L59.0216 10.3135
" />
<path d="M59.0216 10.3135
L59.0216 10.4564
" />
<path d="M59.0216 10.4564
L58.9740 10.5516
" />
<path d="M58.9740 10.5516
L58.9263 10.5993
" />
<path d="M58.9263 10.5993
L58.8311 10.6469
" />
<path d="M58.8311 10.6469
L58.4502 10.6469
" />
<path d="M59.9740 11.1231
L59.4025 11.1231
" />
<path d="M59.6882 11.1231
L59.6882 10.1231
" />
<path d="M59.6882 10.1231
L59.5930 10.2659
" />
<path d="M59.5930 10.2659
L59.4978 10.3612
" />
<path d="M59.4978 10.3612
L59.4025 10.4088
" />
</g><g transform="rotate(-90.000000 29.8483 24.3332)">
<text x="29.8483" y="24.8332"
textLength="3.1548" font-size="1.3333" lengthAdjust="spacingAndGlyphs"
text-anchor="middle" opacity="0" stroke-opacity="0">PS1</text>
</g>
<g class="stroked-text"><desc>PS1</desc>
<path d="M30.3031 25.5475
L29.3031 25.5475
" />
<path d="M29.3031 25.5475
L29.3031 25.1666
" />
<path d="M29.3031 25.1666
L29.3507 25.0713
" />
<path d="M29.3507 25.0713
L29.3983 25.0237
" />
<path d="M29.3983 25.0237
L29.4935 24.9761
" />
<path d="M29.4935 24.9761
L29.6364 24.9761
" />
<path d="M29.6364 24.9761
L29.7316 25.0237
" />
<path d="M29.7316 25.0237
L29.7793 25.0713
" />
<path d="M29.7793 25.0713
L29.8269 25.1666
" />
<path d="M29.8269 25.1666
L29.8269 25.5475
" />
<path d="M30.2554 24.5952
L30.3031 24.4523
" />
<path d="M30.3031 24.4523
L30.3031 24.2142
" />
<path d="M30.3031 24.2142
L30.2554 24.1190
" />
<path d="M30.2554 24.1190
L30.2078 24.0713
" />
<path d="M30.2078 24.0713
L30.1126 24.0237
" />
<path d="M30.1126 24.0237
L30.0174 24.0237
" />
<path d="M30.0174 24.0237
L29.9221 24.0713
" />
<path d="M29.9221 24.0713
L29.8745 24.1190
" />
<path d="M29.8745 24.1190
L29.8269 24.2142
" />
<path d="M29.8269 24.2142
L29.7793 24.4047
" />
<path d="M29.7793 24.4047
L29.7316 24.4999
" />
<path d="M29.7316 24.4999
L29.6840 24.5475
" />
<path d="M29.6840 24.5475
L29.5888 24.5952
" />
<path d="M29.5888 24.5952
L29.4935 24.5952
" />
<path d="M29.4935 24.5952
L29.3983 24.5475
" />
<path d="M29.3983 24.5475
L29.3507 24.4999
" />
<path d="M29.3507 24.4999
L29.3031 24.4047
" />
<path d="M29.3031 24.4047
L29.3031 24.1666
" />
<path d="M29.3031 24.1666
L29.3507 24.0237
" />
<path d="M30.3031 23.0713
L30.3031 23.6428
" />
<path d="M30.3031 23.3571
L29.3031 23.3571
" />
<path d="M29.3031 23.3571
L29.4459 23.4523
" />
<path d="M29.4459 23.4523
L29.5412 23.5475
" />
<path d="M29.5412 23.5475
L29.5888 23.6428
" />
</g><g transform="rotate(-90.000000 12.7582 13.3782)">
<text x="12.7582" y="13.8782"
textLength="3.0595" font-size="1.3333" lengthAdjust="spacingAndGlyphs"
text-anchor="middle" opacity="0" stroke-opacity="0">RV1</text>
</g>
<g class="stroked-text"><desc>RV1</desc>
<path d="M13.2131 13.9735
L12.7369 14.3068
" />
<path d="M13.2131 14.5449
L12.2131 14.5449
" />
<path d="M12.2131 14.5449
L12.2131 14.1640
" />
<path d="M12.2131 14.1640
L12.2607 14.0687
" />
<path d="M12.2607 14.0687
L12.3083 14.0211
" />
<path d="M12.3083 14.0211
L12.4035 13.9735
" />
<path d="M12.4035 13.9735
L12.5464 13.9735
" />
<path d="M12.5464 13.9735
L12.6416 14.0211
" />
<path d="M12.6416 14.0211
L12.6893 14.0687
" />
<path d="M12.6893 14.0687
L12.7369 14.1640
" />
<path d="M12.7369 14.1640
L12.7369 14.5449
" />
<path d="M12.2131 13.6878
L13.2131 13.3544
" />
<path d="M13.2131 13.3544
L12.2131 13.0211
" />
<path d="M13.2131 12.1640
L13.2131 12.7354
" />
<path d="M13.2131 12.4497
L12.2131 12.4497
" />
<path d="M12.2131 12.4497
L12.3559 12.5449
" />
<path d="M12.3559 12.5449
L12.4512 12.6402
" />
<path d="M12.4512 12.6402
L12.4988 12.7354
" />
</g><text x="43.9432" y="13.6682"
textLength="2.2500" font-size="1.3333" lengthAdjust="spacingAndGlyphs"
text-anchor="middle" opacity="0" stroke-opacity="0">U2</text>
<g class="stroked-text"><desc>U2</desc>
<path d="M43.1813 12.6231
L43.1813 13.4326
" />
<path d="M43.1813 13.4326
L43.2290 13.5278
" />
<path d="M43.2290 13.5278
L43.2766 13.5755
" />
<path d="M43.2766 13.5755
L43.3718 13.6231
" />
<path d="M43.3718 13.6231
L43.5623 13.6231
" />
<path d="M43.5623 13.6231
L43.6575 13.5755
" />
<path d="M43.6575 13.5755
L43.7052 13.5278
" />
<path d="M43.7052 13.5278
L43.7528 13.4326
" />
<path d="M43.7528 13.4326
L43.7528 12.6231
" />
<path d="M44.1813 12.7183
L44.2290 12.6707
" />
<path d="M44.2290 12.6707
L44.3242 12.6231
" />
<path d="M44.3242 12.6231
L44.5623 12.6231
" />
<path d="M44.5623 12.6231
L44.6575 12.6707
" />
<path d="M44.6575 12.6707
L44.7052 12.7183
" />
<path d="M44.7052 12.7183
L44.7528 12.8135
" />
<path d="M44.7528 12.8135
L44.7528 12.9088
" />
<path d="M44.7528 12.9088
L44.7052 13.0516
" />
<path d="M44.7052 13.0516
L44.1337 13.6231
" />
<path d="M44.1337 13.6231
L44.7528 13.6231
" />
</g><text x="91.3482" y="37.0682"
textLength="2.2500" font-size="1.3333" lengthAdjust="spacingAndGlyphs"
text-anchor="middle" opacity="0" stroke-opacity="0">U1</text>
<g class="stroked-text"><desc>U1</desc>
<path d="M90.5863 36.0231
L90.5863 36.8326
" />
<path d="M90.5863 36.8326
L90.6340 36.9278
" />
<path d="M90.6340 36.9278
L90.6816 36.9754
" />
<path d="M90.6816 36.9754
L90.7768 37.0231
" />
<path d="M90.7768 37.0231
L90.9673 37.0231
" />
<path d="M90.9673 37.0231
L91.0625 36.9754
" />
<path d="M91.0625 36.9754
L91.1102 36.9278
" />
<path d="M91.1102 36.9278
L91.1578 36.8326
" />
<path d="M91.1578 36.8326
L91.1578 36.0231
" />
<path d="M92.1578 37.0231
L91.5863 37.0231
" />
<path d="M91.8721 37.0231
L91.8721 36.0231
" />
<path d="M91.8721 36.0231
L91.7768 36.1659
" />
<path d="M91.7768 36.1659
L91.6816 36.2612
" />
<path d="M91.6816 36.2612
L91.5863 36.3088
" />
</g><g transform="rotate(-90.000000 28.6382 26.0782)">
<text x="28.6382" y="26.5782"
textLength="2.2024" font-size="1.3333" lengthAdjust="spacingAndGlyphs"
text-anchor="middle" opacity="0" stroke-opacity="0">D1</text>
</g>
<g class="stroked-text"><desc>D1</desc>
<path d="M29.0931 26.8163
L28.0931 26.8163
" />
<path d="M28.0931 26.8163
L28.0931 26.5782
" />
<path d="M28.0931 26.5782
L28.1407 26.4354
" />
<path d="M28.1407 26.4354
L28.2359 26.3402
" />
<path d="M28.2359 26.3402
L28.3312 26.2925
" />
<path d="M28.3312 26.2925
L28.5216 26.2449
" />
<path d="M28.5216 26.2449
L28.6645 26.2449
" />
<path d="M28.6645 26.2449
L28.8550 26.2925
" />
<path d="M28.8550 26.2925
L28.9502 26.3402
" />
<path d="M28.9502 26.3402
L29.0454 26.4354
" />
<path d="M29.0454 26.4354
L29.0931 26.5782
" />
<path d="M29.0931 26.5782
L29.0931 26.8163
" />
<path d="M29.0931 25.2925
L29.0931 25.8640
" />
<path d="M29.0931 25.5782
L28.0931 25.5782
" />
<path d="M28.0931 25.5782
L28.2359 25.6735
" />
<path d="M28.2359 25.6735
L28.3312 25.7687
" />
<path d="M28.3312 25.7687
L28.3788 25.8640
" />
</g><g transform="rotate(-90.000000 28.2682 20.9982)">
<text x="28.2682" y="21.4982"
textLength="1.2500" font-size="1.3333" lengthAdjust="spacingAndGlyphs"
text-anchor="middle" opacity="0" stroke-opacity="0">K</text>
</g>
<g class="stroked-text"><desc>K</desc>
<path d="M28.7231 21.2602
L27.7231 21.2602
" />
<path d="M28.7231 20.6887
L28.1516 21.1173
" />
<path d="M27.7231 20.6887
L28.2945 21.2602
" />
</g><g transform="rotate(-90.000000 16.0783 28.6182)">
<text x="16.0783" y="29.1182"
textLength="2.2024" font-size="1.3333" lengthAdjust="spacingAndGlyphs"
text-anchor="middle" opacity="0" stroke-opacity="0">D2</text>
</g>
<g class="stroked-text"><desc>D2</desc>
<path d="M16.5331 29.3563
L15.5331 29.3563
" />
<path d="M15.5331 29.3563
L15.5331 29.1182
" />
<path d="M15.5331 29.1182
L15.5807 28.9754
" />
<path d="M15.5807 28.9754
L15.6759 28.8802
" />
<path d="M15.6759 28.8802
L15.7712 28.8325
" />
<path d="M15.7712 28.8325
L15.9616 28.7849
" />
<path d="M15.9616 28.7849
L16.1045 28.7849
" />
<path d="M16.1045 28.7849
L16.2950 28.8325
" />
<path d="M16.2950 28.8325
L16.3902 28.8802
" />
<path d="M16.3902 28.8802
L16.4855 28.9754
" />
<path d="M16.4855 28.9754
L16.5331 29.1182
" />
<path d="M16.5331 29.1182
L16.5331 29.3563
" />
<path d="M15.6283 28.4040
L15.5807 28.3563
" />
<path d="M15.5807 28.3563
L15.5331 28.2611
" />
<path d="M15.5331 28.2611
L15.5331 28.0230
" />
<path d="M15.5331 28.0230
L15.5807 27.9278
" />
<path d="M15.5807 27.9278
L15.6283 27.8802
" />
<path d="M15.6283 27.8802
L15.7235 27.8325
" />
<path d="M15.7235 27.8325
L15.8188 27.8325
" />
<path d="M15.8188 27.8325
L15.9616 27.8802
" />
<path d="M15.9616 27.8802
L16.5331 28.4516
" />
<path d="M16.5331 28.4516
L16.5331 27.8325
" />
</g><g transform="rotate(-90.000000 16.4482 33.6983)">
<text x="16.4482" y="34.1983"
textLength="1.2500" font-size="1.3333" lengthAdjust="spacingAndGlyphs"
text-anchor="middle" opacity="0" stroke-opacity="0">K</text>
</g>
<g class="stroked-text"><desc>K</desc>
<path d="M16.9031 33.9602
L15.9031 33.9602
" />
<path d="M16.9031 33.3887
L16.3316 33.8173
" />
<path d="M15.9031 33.3887
L16.4745 33.9602
" />
</g><text x="61.7682" y="11.3782"
textLength="2.2024" font-size="1.3333" lengthAdjust="spacingAndGlyphs"
text-anchor="middle" opacity="0" stroke-opacity="0">C1</text>
<g class="stroked-text"><desc>C1</desc>
<path d="M61.6016 11.2378
L61.5540 11.2854
" />
<path d="M61.5540 11.2854
L61.4111 11.3331
" />
<path d="M61.4111 11.3331
L61.3159 11.3331
" />
<path d="M61.3159 11.3331
L61.1730 11.2854
" />
<path d="M61.1730 11.2854
L61.0778 11.1902
" />
<path d="M61.0778 11.1902
L61.0302 11.0950
" />
<path d="M61.0302 11.0950
L60.9825 10.9045
" />
<path d="M60.9825 10.9045
L60.9825 10.7616
" />
<path d="M60.9825 10.7616
L61.0302 10.5712
" />
<path d="M61.0302 10.5712
L61.0778 10.4759
" />
<path d="M61.0778 10.4759
L61.1730 10.3807
" />
<path d="M61.1730 10.3807
L61.3159 10.3331
" />
<path d="M61.3159 10.3331
L61.4111 10.3331
" />
<path d="M61.4111 10.3331
L61.5540 10.3807
" />
<path d="M61.5540 10.3807
L61.6016 10.4283
" />
<path d="M62.5540 11.3331
L61.9825 11.3331
" />
<path d="M62.2682 11.3331
L62.2682 10.3331
" />
<path d="M62.2682 10.3331
L62.1730 10.4759
" />
<path d="M62.1730 10.4759
L62.0778 10.5712
" />
<path d="M62.0778 10.5712
L61.9825 10.6188
" />
</g></g>
<g style="fill:none; 
stroke:#F2EDA1; stroke-width:0.1200; stroke-opacity:1; 
stroke-linecap:round; stroke-linejoin:round;">
<path d="M55.1482 3.2182
L55.9183 3.2182
" />
<path d="M55.9183 1.8482
L55.9183 4.5882
" />
<path d="M55.9183 4.5882
L62.4582 4.5882
" />
<path d="M62.4582 1.8482
L55.9183 1.8482
" />
<path d="M62.4582 4.5882
L62.4582 1.8482
" />
<path d="M63.2282 3.2182
L62.4582 3.2182
" />
<path d="M12.3682 3.2182
L13.4782 3.2182
" />
<path d="M24.7282 3.2182
L23.6182 3.2182
" />
<path style="fill:none; 
stroke:#F2EDA1; stroke-width:0.1200; stroke-opacity:1; 
stroke-linecap:round; stroke-linejoin:round;fill:none"
d="M 13.4782,1.2982
23.6182,1.2982
23.6182,5.1383
13.4782,5.1383
Z" /> 
<path d="M27.3282 6.9682
L27.3282 14.7082
" />
<path d="M27.3282 14.7082
L28.9782 14.7082
" />
<path d="M30.9782 14.7082
L32.6283 14.7082
" />
<path d="M32.6283 6.9682
L27.3282 6.9682
" />
<path d="M32.6283 14.7082
L32.6283 6.9682
" />
<path d="M30.9782 14.7082 A1.0000 1.0000 0.0 0 0 28.9782 14.7082" />
<path d="M1.9782 9.5083
L10.6182 9.5083
" />
<path d="M1.9782 32.4883
L1.9782 9.5083
" />
<path d="M3.7482 10.4882
L3.7482 11.2382
" />
<path d="M3.7482 15.5183
L3.7482 18.8582
" />
<path d="M3.7482 23.1382
L3.7482 26.4782
" />
<path d="M3.7482 30.7583
L3.7482 31.5282
" />
<path d="M9.0482 10.4882
L3.7482 10.4882
" />
<path d="M9.0482 10.4882
L9.0482 31.5282
" />
<path d="M9.0482 31.5282
L3.7482 31.5282
" />
<path d="M10.6182 9.5083
L10.6182 32.4883
" />
<path d="M10.6182 32.4883
L1.9782 32.4883
" />
<path d="M10.9182 9.2082
L9.9182 9.2082
" />
<path d="M10.9182 9.2082
L10.9182 10.2082
" />
<path d="M3.7483 11.2383 A2.9942 2.9942 0.0 0 0 3.7482 15.5182" />
<path d="M3.7483 18.8582 A2.9942 2.9942 0.0 0 0 3.7482 23.1382" />
<path d="M3.7483 26.4782 A2.9942 2.9942 0.0 0 0 3.7482 30.7583" />
<path d="M55.1482 8.2982
L55.9183 8.2982
" />
<path d="M55.9183 6.9282
L55.9183 9.6682
" />
<path d="M55.9183 9.6682
L62.4582 9.6682
" />
<path d="M62.4582 6.9282
L55.9183 6.9282
" />
<path d="M62.4582 9.6682
L62.4582 6.9282
" />
<path d="M63.2282 8.2982
L62.4582 8.2982
" />
<path d="M30.9982 23.8833
L30.9982 25.8932
" />
<path d="M31.3882 17.2832
L31.3882 37.4832
" />
<path d="M31.3882 37.4832
L65.5883 37.4832
" />
<path d="M65.5883 17.2832
L31.3882 17.2832
" />
<path d="M65.5883 37.4832
L65.5883 17.2832
" />
</g>
<g style="fill:none; 
stroke:#F2EDA1; stroke-width:0.1500; stroke-opacity:1; 
stroke-linecap:round; stroke-linejoin:round;">
<path d="M13.7582 7.3782
L13.7582 19.3782
" />
<path d="M18.2583 7.3782
L13.7582 7.3782
" />
<path d="M18.2583 7.3782
L18.2583 19.3782
" />
<path d="M18.2583 19.3782
L13.7582 19.3782
" />
</g>
<g style="fill:none; 
stroke:#F2EDA1; stroke-width:0.1200; stroke-opacity:1; 
stroke-linecap:round; stroke-linejoin:round;">
<path d="M41.2933 4.4283
L41.2933 12.1682
" />
<path d="M41.2933 12.1682
L42.9432 12.1682
" />
<path d="M44.9432 12.1682
L46.5932 12.1682
" />
<path d="M46.5932 4.4283
L41.2933 4.4283
" />
<path d="M46.5932 12.1682
L46.5932 4.4283
" />
<path d="M44.9432 12.1682 A1.0000 1.0000 0.0 0 0 42.9432 12.1682" />
<path d="M67.8482 28.7882
L67.8482 3.3582
" />
<path d="M67.8482 28.7882
L70.3882 28.7882
" />
<path d="M70.3882 28.7882
L70.3882 35.6882
" />
<path d="M70.3882 35.6882
L93.7082 35.6882
" />
<path d="M91.5883 1.2282
L69.9783 1.2282
" />
<path d="M93.7082 35.6882
L93.7082 3.3582
" />
<path d="M69.9783 1.2283 A2.1300 2.1300 0.0 0 0 67.8482 3.3582" />
<path d="M93.7082 3.3582 A2.1300 2.1300 0.0 0 0 91.5782 1.2283" />
<path style="fill:#F2EDA1; fill-opacity:1.0000; 
stroke:#F2EDA1; stroke-width:0.1500; stroke-opacity:1; 
stroke-linecap:round; stroke-linejoin:round;fill-rule:evenodd;"
d="M 67.4432,9.5682
66.8083,10.2032
66.8083,8.9332
Z" /> 
</g>
<g style="fill:none; 
stroke:#F2EDA1; stroke-width:0.1200; stroke-opacity:1; 
stroke-linecap:round; stroke-linejoin:round;">
<path d="M24.6982 23.3582
L24.6982 28.7982
" />
<path d="M24.6982 28.7982
L27.6382 28.7982
" />
<path d="M26.1683 22.3382
L26.1683 23.3582
" />
<path d="M26.1683 29.8182
L26.1683 28.7982
" />
<path d="M27.6382 23.3582
L24.6982 23.3582
" />
<path d="M27.6382 24.1382
L24.6982 24.1382
" />
<path d="M27.6382 24.2583
L24.6982 24.2583
" />
<path d="M27.6382 24.3782
L24.6982 24.3782
" />
<path d="M27.6382 28.7982
L27.6382 23.3582
" />
<path d="M17.0783 25.8982
L17.0783 31.3382
" />
<path d="M17.0783 30.3182
L20.0182 30.3182
" />
<path d="M17.0783 30.4383
L20.0182 30.4383
" />
<path d="M17.0783 30.5582
L20.0182 30.5582
" />
<path d="M17.0783 31.3382
L20.0182 31.3382
" />
<path d="M18.5482 24.8782
L18.5482 25.8982
" />
<path d="M18.5482 32.3582
L18.5482 31.3382
" />
<path d="M20.0182 25.8982
L17.0783 25.8982
" />
<path d="M20.0182 31.3382
L20.0182 25.8982
" />
<path d="M57.6482 12.0083
L57.6482 14.7482
" />
<path d="M57.6482 12.0083
L65.8882 12.0083
" />
<path d="M57.6482 14.7482
L65.8882 14.7482
" />
<path d="M65.8882 12.0083
L65.8882 14.7482
" />
</g>
<g style="fill:#D864FF; fill-opacity:0.4000; stroke:none;">
<circle cx="64.2682" cy="3.2182" r="0.8000" /> 
</g>
<g style="fill:#D864FF; fill-opacity:0.4000; stroke:none;">
<circle cx="54.1082" cy="3.2182" r="0.8000" /> 
<circle cx="10.9283" cy="3.2182" r="1.2000" /> 
</g>
<g style="fill:#D864FF; fill-opacity:0.4000; stroke:none;">
<circle cx="26.1683" cy="3.2182" r="1.2000" /> 
</g>
<g style="fill:#D864FF; fill-opacity:0.4000; stroke:none;">
<circle cx="33.7882" cy="8.2982" r="0.8000" /> 
</g>
<g style="fill:#D864FF; fill-opacity:0.4000; stroke:none;">
<circle cx="26.1683" cy="10.8383" r="0.4000" /> 
<path style="fill:#D864FF; fill-opacity:0.4000; stroke:none;fill-rule:evenodd;"
d="M 34.5882,13.9283
34.5692,14.0239
34.5150,14.1050
34.4339,14.1592
34.3382,14.1783
33.2383,14.1783
33.1426,14.1592
33.0615,14.1050
33.0073,14.0239
32.9883,13.9283
32.9883,12.8282
33.0073,12.7326
33.0615,12.6515
33.1426,12.5973
33.2383,12.5782
34.3382,12.5782
34.4339,12.5973
34.5150,12.6515
34.5692,12.7326
34.5882,12.8282
Z" /> 
</g>
<g style="fill:#D864FF; fill-opacity:0.4000; stroke:none;">
<circle cx="33.7882" cy="10.8383" r="0.8000" /> 
</g>
<g style="fill:#D864FF; fill-opacity:0.4000; stroke:none;">
<circle cx="26.1683" cy="8.2982" r="0.8000" /> 
</g>
<g style="fill:#D864FF; fill-opacity:0.4000; stroke:none;">
<circle cx="26.1683" cy="13.3782" r="0.8000" /> 
<path style="fill:#D864FF; fill-opacity:0.4000; stroke:none;fill-rule:evenodd;"
d="M 4.5782,12.1082
7.1182,12.1082
7.1182,14.6482
4.5782,14.6482
Z" /> 
</g>
<g style="fill:#D864FF; fill-opacity:0.4000; stroke:none;">
<circle cx="5.8483" cy="20.9982" r="1.2700" /> 
</g>
<g style="fill:#D864FF; fill-opacity:0.4000; stroke:none;">
<circle cx="5.8483" cy="28.6182" r="1.2700" /> 
</g>
<g style="fill:#D864FF; fill-opacity:0.4000; stroke:none;">
<circle cx="3.3082" cy="3.2182" r="1.1000" /> 
</g>
<g style="fill:#D864FF; fill-opacity:0.4000; stroke:none;">
<circle cx="97.2882" cy="36.2383" r="1.1000" /> 
</g>
<g style="fill:#D864FF; fill-opacity:0.4000; stroke:none;">
<circle cx="64.2682" cy="8.2982" r="0.8000" /> 
</g>
<g style="fill:#D864FF; fill-opacity:0.4000; stroke:none;">
<circle cx="54.1082" cy="8.2982" r="0.8000" /> 
<path style="fill:#D864FF; fill-opacity:0.4000; stroke:none;fill-rule:evenodd;"
d="M 32.6382,25.8833
32.6382,23.8833
34.9382,23.8833
34.9382,25.8833
Z" /> 
<circle cx="33.7882" cy="29.8833" r="1.1500" /> 
</g>
<g style="fill:#D864FF; fill-opacity:0.4000; stroke:none;">
<circle cx="63.1882" cy="19.6832" r="1.1500" /> 
</g>
<g style="fill:#D864FF; fill-opacity:0.4000; stroke:none;">
<circle cx="63.1882" cy="35.0832" r="1.1500" /> 
</g>
<g style="fill:#D864FF; fill-opacity:0.4000; stroke:none;">
<circle cx="16.9082" cy="9.6282" r="0.9000" /> 
</g>
<g style="fill:#D864FF; fill-opacity:0.4000; stroke:none;">
<circle cx="15.1082" cy="17.1282" r="0.9000" /> 
</g>
<g style="fill:#D864FF; fill-opacity:0.4000; stroke:none;">
<circle cx="47.7533" cy="5.7582" r="0.8000" /> 
</g>
<g style="fill:#D864FF; fill-opacity:0.4000; stroke:none;">
<circle cx="40.1332" cy="8.2982" r="0.4000" /> 
<path style="fill:#D864FF; fill-opacity:0.4000; stroke:none;fill-rule:evenodd;"
d="M 48.5532,11.3882
48.5342,11.4839
48.4800,11.5650
48.3989,11.6192
48.3032,11.6382
47.2032,11.6382
47.1076,11.6192
47.0265,11.5650
46.9723,11.4839
46.9532,11.3882
46.9532,10.2882
46.9723,10.1926
47.0265,10.1115
47.1076,10.0573
47.2032,10.0382
48.3032,10.0382
48.3989,10.0573
48.4800,10.1115
48.5342,10.1926
48.5532,10.2882
Z" /> 
</g>
<g style="fill:#D864FF; fill-opacity:0.4000; stroke:none;">
<circle cx="47.7533" cy="8.2982" r="0.8000" /> 
</g>
<g style="fill:#D864FF; fill-opacity:0.4000; stroke:none;">
<circle cx="40.1332" cy="5.7582" r="0.8000" /> 
</g>
<g style="fill:#D864FF; fill-opacity:0.4000; stroke:none;">
<circle cx="40.1332" cy="10.8383" r="0.8000" /> 
<path style="fill:#D864FF; fill-opacity:0.4000; stroke:none;fill-rule:evenodd;"
d="M 68.3482,10.5682
68.3482,8.5682
70.3482,8.5682
70.3482,10.5682
Z" /> 
</g>
<g style="fill:none; 
stroke:#D864FF; stroke-width:1.6000; stroke-opacity:1; 
stroke-linecap:round; stroke-linejoin:round;">
<path d="M69.1482 12.1082
L69.5482 12.1082
" />
<path d="M69.1482 14.6482
L69.5482 14.6482
" />
<path d="M69.1482 17.1883
L69.5482 17.1883
" />
<path d="M69.1482 19.7282
L69.5482 19.7282
" />
<path d="M69.1482 22.2682
L69.5482 22.2682
" />
<path d="M69.1482 24.8082
L69.5482 24.8082
" />
<path d="M69.1482 27.3483
L69.5482 27.3483
" />
<path d="M92.0082 27.3483
L92.4082 27.3483
" />
<path d="M92.0082 24.8082
L92.4082 24.8082
" />
<path d="M92.0082 22.2682
L92.4082 22.2682
" />
<path d="M92.0082 19.7282
L92.4082 19.7282
" />
<path d="M92.0082 17.1883
L92.4082 17.1883
" />
<path d="M92.0082 14.6482
L92.4082 14.6482
" />
<path d="M92.0082 12.1082
L92.4082 12.1082
" />
<path d="M92.0082 9.5682
L92.4082 9.5682
" />
<path style="fill:#D864FF; fill-opacity:0.4000; stroke:none;fill-rule:evenodd;"
d="M 25.0682,19.8982
27.2682,19.8982
27.2682,22.0983
25.0682,22.0983
Z" /> 
</g>
<g style="fill:#D864FF; fill-opacity:0.4000; stroke:none;">
<circle cx="26.1683" cy="31.1582" r="1.1000" /> 
<circle cx="3.3082" cy="36.2383" r="1.1000" /> 
<path style="fill:#D864FF; fill-opacity:0.4000; stroke:none;fill-rule:evenodd;"
d="M 19.6483,34.7982
17.4482,34.7982
17.4482,32.5983
19.6483,32.5983
Z" /> 
</g>
<g style="fill:#D864FF; fill-opacity:0.4000; stroke:none;">
<circle cx="18.5482" cy="23.5382" r="1.1000" /> 
<circle cx="97.2882" cy="3.2182" r="1.1000" /> 
</g>
<g style="fill:#D864FF; fill-opacity:0.4000; stroke:none;">
<circle cx="59.2682" cy="13.3782" r="0.8000" /> 
</g>
<g style="fill:#D864FF; fill-opacity:0.4000; stroke:none;">
<circle cx="64.2682" cy="13.3782" r="0.8000" /> 
</g>
<g style="fill:none; 
stroke:#D0D2CD; stroke-width:0.1000; stroke-opacity:1; 
stroke-linecap:round; stroke-linejoin:round;">
<path d="M0.7682 0.6783
L99.8282 0.6783
" />
<path d="M99.8282 38.7782
L0.7682 38.7782
" />
<path d="M99.8282 0.6783
L99.8282 38.7782
" />
<path d="M0.7682 38.7782
L0.7682 0.6783
" />
</g>
<g style="fill:#FFFFFF; fill-opacity:1.0000; stroke:none;">
<circle cx="38.3870" cy="21.6432" r="0.2000" /> 
</g>
<g style="fill:#FFFFFF; fill-opacity:1.0000; stroke:none;">
<circle cx="64.2682" cy="3.2182" r="0.4000" /> 
</g>
<g style="fill:#FFFFFF; fill-opacity:1.0000; stroke:none;">
<circle cx="54.1082" cy="3.2182" r="0.4000" /> 
</g>
<g style="fill:#FFFFFF; fill-opacity:1.0000; stroke:none;">
<circle cx="10.9283" cy="3.2182" r="0.6000" /> 
</g>
<g style="fill:#FFFFFF; fill-opacity:1.0000; stroke:none;">
<circle cx="26.1683" cy="3.2182" r="0.6000" /> 
</g>
<g style="fill:#FFFFFF; fill-opacity:1.0000; stroke:none;">
<circle cx="33.7882" cy="8.2982" r="0.4000" /> 
</g>
<g style="fill:#FFFFFF; fill-opacity:1.0000; stroke:none;">
<circle cx="26.1683" cy="10.8383" r="0.4000" /> 
</g>
<g style="fill:#FFFFFF; fill-opacity:1.0000; stroke:none;">
<circle cx="33.7882" cy="13.3782" r="0.4000" /> 
</g>
<g style="fill:#FFFFFF; fill-opacity:1.0000; stroke:none;">
<circle cx="33.7882" cy="10.8383" r="0.4000" /> 
</g>
<g style="fill:#FFFFFF; fill-opacity:1.0000; stroke:none;">
<circle cx="26.1683" cy="8.2982" r="0.4000" /> 
</g>
<g style="fill:#FFFFFF; fill-opacity:1.0000; stroke:none;">
<circle cx="26.1683" cy="13.3782" r="0.4000" /> 
</g>
<g style="fill:#FFFFFF; fill-opacity:1.0000; stroke:none;">
<circle cx="5.8483" cy="13.3782" r="0.8000" /> 
</g>
<g style="fill:#FFFFFF; fill-opacity:1.0000; stroke:none;">
<circle cx="5.8483" cy="20.9982" r="0.8000" /> 
</g>
<g style="fill:#FFFFFF; fill-opacity:1.0000; stroke:none;">
<circle cx="5.8483" cy="28.6182" r="0.8000" /> 
</g>
<g style="fill:#FFFFFF; fill-opacity:1.0000; stroke:none;">
<circle cx="3.3082" cy="3.2182" r="1.1000" /> 
</g>
<g style="fill:#FFFFFF; fill-opacity:1.0000; stroke:none;">
<circle cx="97.2882" cy="36.2383" r="1.1000" /> 
</g>
<g style="fill:#FFFFFF; fill-opacity:1.0000; stroke:none;">
<circle cx="64.2682" cy="8.2982" r="0.4000" /> 
</g>
<g style="fill:#FFFFFF; fill-opacity:1.0000; stroke:none;">
<circle cx="54.1082" cy="8.2982" r="0.4000" /> 
</g>
<g style="fill:#FFFFFF; fill-opacity:1.0000; stroke:none;">
<circle cx="33.7882" cy="24.8833" r="0.5000" /> 
</g>
<g style="fill:#FFFFFF; fill-opacity:1.0000; stroke:none;">
<circle cx="33.7882" cy="29.8833" r="0.5000" /> 
</g>
<g style="fill:#FFFFFF; fill-opacity:1.0000; stroke:none;">
<circle cx="63.1882" cy="19.6832" r="0.5000" /> 
</g>
<g style="fill:#FFFFFF; fill-opacity:1.0000; stroke:none;">
<circle cx="63.1882" cy="35.0832" r="0.5000" /> 
</g>
<g style="fill:#FFFFFF; fill-opacity:1.0000; stroke:none;">
<circle cx="16.9082" cy="9.6282" r="0.4000" /> 
</g>
<g style="fill:#FFFFFF; fill-opacity:1.0000; stroke:none;">
<circle cx="15.1082" cy="17.1282" r="0.4000" /> 
</g>
<g style="fill:#FFFFFF; fill-opacity:1.0000; stroke:none;">
<circle cx="47.7533" cy="5.7582" r="0.4000" /> 
</g>
<g style="fill:#FFFFFF; fill-opacity:1.0000; stroke:none;">
<circle cx="40.1332" cy="8.2982" r="0.4000" /> 
</g>
<g style="fill:#FFFFFF; fill-opacity:1.0000; stroke:none;">
<circle cx="47.7533" cy="10.8383" r="0.4000" /> 
</g>
<g style="fill:#FFFFFF; fill-opacity:1.0000; stroke:none;">
<circle cx="47.7533" cy="8.2982" r="0.4000" /> 
</g>
<g style="fill:#FFFFFF; fill-opacity:1.0000; stroke:none;">
<circle cx="40.1332" cy="5.7582" r="0.4000" /> 
</g>
<g style="fill:#FFFFFF; fill-opacity:1.0000; stroke:none;">
<circle cx="40.1332" cy="10.8383" r="0.4000" /> 
</g>
<g style="fill:#FFFFFF; fill-opacity:1.0000; stroke:none;">
<circle cx="69.3482" cy="9.5682" r="0.5000" /> 
</g>
<g style="fill:#FFFFFF; fill-opacity:1.0000; stroke:none;">
<circle cx="69.3482" cy="12.1082" r="0.5000" /> 
</g>
<g style="fill:#FFFFFF; fill-opacity:1.0000; stroke:none;">
<circle cx="69.3482" cy="14.6482" r="0.5000" /> 
</g>
<g style="fill:#FFFFFF; fill-opacity:1.0000; stroke:none;">
<circle cx="69.3482" cy="17.1883" r="0.5000" /> 
</g>
<g style="fill:#FFFFFF; fill-opacity:1.0000; stroke:none;">
<circle cx="69.3482" cy="19.7282" r="0.5000" /> 
</g>
<g style="fill:#FFFFFF; fill-opacity:1.0000; stroke:none;">
<circle cx="69.3482" cy="22.2682" r="0.5000" /> 
</g>
<g style="fill:#FFFFFF; fill-opacity:1.0000; stroke:none;">
<circle cx="69.3482" cy="24.8082" r="0.5000" /> 
</g>
<g style="fill:#FFFFFF; fill-opacity:1.0000; stroke:none;">
<circle cx="69.3482" cy="27.3483" r="0.5000" /> 
</g>
<g style="fill:#FFFFFF; fill-opacity:1.0000; stroke:none;">
<circle cx="92.2082" cy="27.3483" r="0.5000" /> 
</g>
<g style="fill:#FFFFFF; fill-opacity:1.0000; stroke:none;">
<circle cx="92.2082" cy="24.8082" r="0.5000" /> 
</g>
<g style="fill:#FFFFFF; fill-opacity:1.0000; stroke:none;">
<circle cx="92.2082" cy="22.2682" r="0.5000" /> 
</g>
<g style="fill:#FFFFFF; fill-opacity:1.0000; stroke:none;">
<circle cx="92.2082" cy="19.7282" r="0.5000" /> 
</g>
<g style="fill:#FFFFFF; fill-opacity:1.0000; stroke:none;">
<circle cx="92.2082" cy="17.1883" r="0.5000" /> 
</g>
<g style="fill:#FFFFFF; fill-opacity:1.0000; stroke:none;">
<circle cx="92.2082" cy="14.6482" r="0.5000" /> 
</g>
<g style="fill:#FFFFFF; fill-opacity:1.0000; stroke:none;">
<circle cx="92.2082" cy="12.1082" r="0.5000" /> 
</g>
<g style="fill:#FFFFFF; fill-opacity:1.0000; stroke:none;">
<circle cx="92.2082" cy="9.5682" r="0.5000" /> 
</g>
<g style="fill:#FFFFFF; fill-opacity:1.0000; stroke:none;">
<circle cx="26.1683" cy="20.9982" r="0.5500" /> 
</g>
<g style="fill:#FFFFFF; fill-opacity:1.0000; stroke:none;">
<circle cx="26.1683" cy="31.1582" r="0.5500" /> 
</g>
<g style="fill:#FFFFFF; fill-opacity:1.0000; stroke:none;">
<circle cx="3.3082" cy="36.2383" r="1.1000" /> 
</g>
<g style="fill:#FFFFFF; fill-opacity:1.0000; stroke:none;">
<circle cx="18.5482" cy="33.6983" r="0.5500" /> 
</g>
<g style="fill:#FFFFFF; fill-opacity:1.0000; stroke:none;">
<circle cx="18.5482" cy="23.5382" r="0.5500" /> 
</g>
<g style="fill:#FFFFFF; fill-opacity:1.0000; stroke:none;">
<circle cx="97.2882" cy="3.2182" r="1.1000" /> 
</g>
<g style="fill:#FFFFFF; fill-opacity:1.0000; stroke:none;">
<circle cx="59.2682" cy="13.3782" r="0.4000" /> 
</g>
<g style="fill:#FFFFFF; fill-opacity:1.0000; stroke:none;">
<circle cx="64.2682" cy="13.3782" r="0.4000" /> 
</g> 
</svg>
