<?xml version="1.0" standalone="no"?>
 <!DOCTYPE svg PUBLIC "-//W3C//DTD SVG 1.1//EN" 
 "http://www.w3.org/Graphics/SVG/1.1/DTD/svg11.dtd"> 
<svg
  xmlns:svg="http://www.w3.org/2000/svg"
  xmlns="http://www.w3.org/2000/svg"
  xmlns:xlink="http://www.w3.org/1999/xlink"
  version="1.1"
  width="99.8728mm" height="38.8112mm" viewBox="0.0000 0.0000 99.8728 38.8112">
<title>SVG Image created as MaxPilot-pcb-back.svg date 2026/02/21 18:07:26 </title>
  <desc>Image generated by PCBNEW </desc>
<g style="fill:#000000; fill-opacity:1.0000;stroke:#000000; stroke-opacity:1.0000;
stroke-linecap:round; stroke-linejoin:round;"
 transform="translate(0 0) scale(1 1)">
</g>
<g style="fill:#4D7FC4; fill-opacity:1.0000; stroke:none;">
<circle cx="35.6045" cy="3.2182" r="0.8000" /> 
</g>
<g style="fill:#4D7FC4; fill-opacity:1.0000; stroke:none;">
<circle cx="45.7645" cy="3.2182" r="0.8000" /> 
<circle cx="94.0245" cy="4.0583" r="1.3900" /> 
</g>
<g style="fill:#4D7FC4; fill-opacity:1.0000; stroke:none;">
<circle cx="94.0245" cy="7.4582" r="1.3900" /> 
</g>
<g style="fill:#4D7FC4; fill-opacity:1.0000; stroke:none;">
<circle cx="84.1046" cy="4.0583" r="1.3900" /> 
</g>
<g style="fill:#4D7FC4; fill-opacity:1.0000; stroke:none;">
<circle cx="84.1046" cy="7.4582" r="1.3900" /> 
</g>
<g style="fill:#4D7FC4; fill-opacity:1.0000; stroke:none;">
<circle cx="68.6245" cy="8.2982" r="0.8000" /> 
<path style="fill:#4D7FC4; fill-opacity:1.0000; stroke:none;fill-rule:evenodd;"
d="M 67.8246,13.9283
67.8436,14.0239
67.8978,14.1050
67.9789,14.1592
68.0746,14.1783
69.1745,14.1783
69.2702,14.1592
69.3513,14.1050
69.4055,14.0239
69.4245,13.9283
69.4245,12.8282
69.4055,12.7326
69.3513,12.6515
69.2702,12.5973
69.1745,12.5782
68.0746,12.5782
67.9789,12.5973
67.8978,12.6515
67.8436,12.7326
67.8246,12.8282
Z" /> 
</g>
<g style="fill:#4D7FC4; fill-opacity:1.0000; stroke:none;">
<circle cx="68.6245" cy="10.8383" r="0.8000" /> 
</g>
<g style="fill:#4D7FC4; fill-opacity:1.0000; stroke:none;">
<circle cx="76.2445" cy="8.2982" r="0.8000" /> 
</g>
<g style="fill:#4D7FC4; fill-opacity:1.0000; stroke:none;">
<circle cx="76.2445" cy="13.3782" r="0.8000" /> 
<path style="fill:#4D7FC4; fill-opacity:1.0000; stroke:none;fill-rule:evenodd;"
d="M 95.2946,17.1883
92.7545,17.1883
92.7545,19.7282
95.2946,19.7282
Z" /> 
</g>
<g style="fill:#4D7FC4; fill-opacity:1.0000; stroke:none;">
<circle cx="94.0245" cy="26.0782" r="1.2700" /> 
</g>
<g style="fill:#4D7FC4; fill-opacity:1.0000; stroke:none;">
<circle cx="94.0245" cy="33.6983" r="1.2700" /> 
</g>
<g style="fill:#4D7FC4; fill-opacity:1.0000; stroke:none;">
<circle cx="35.6045" cy="8.2982" r="0.8000" /> 
</g>
<g style="fill:#4D7FC4; fill-opacity:1.0000; stroke:none;">
<circle cx="45.7645" cy="8.2982" r="0.8000" /> 
<path style="fill:#4D7FC4; fill-opacity:1.0000; stroke:none;fill-rule:evenodd;"
d="M 67.2345,25.8833
67.2345,23.8833
64.9346,23.8833
64.9346,25.8833
Z" /> 
<circle cx="66.0845" cy="29.8833" r="1.1500" /> 
</g>
<g style="fill:#4D7FC4; fill-opacity:1.0000; stroke:none;">
<circle cx="36.6846" cy="19.6832" r="1.1500" /> 
</g>
<g style="fill:#4D7FC4; fill-opacity:1.0000; stroke:none;">
<circle cx="36.6846" cy="35.0832" r="1.1500" /> 
</g>
<g style="fill:#4D7FC4; fill-opacity:1.0000; stroke:none;">
<circle cx="82.9646" cy="12.1682" r="0.9000" /> 
</g>
<g style="fill:#4D7FC4; fill-opacity:1.0000; stroke:none;">
<circle cx="84.7645" cy="19.6683" r="0.9000" /> 
</g>
<g style="fill:#4D7FC4; fill-opacity:1.0000; stroke:none;">
<circle cx="55.9245" cy="5.7582" r="0.8000" /> 
<path style="fill:#4D7FC4; fill-opacity:1.0000; stroke:none;fill-rule:evenodd;"
d="M 55.1245,11.3882
55.1436,11.4839
55.1978,11.5650
55.2789,11.6192
55.3745,11.6382
56.4746,11.6382
56.5702,11.6192
56.6513,11.5650
56.7055,11.4839
56.7246,11.3882
56.7246,10.2882
56.7055,10.1926
56.6513,10.1115
56.5702,10.0573
56.4746,10.0382
55.3745,10.0382
55.2789,10.0573
55.1978,10.1115
55.1436,10.1926
55.1245,10.2882
Z" /> 
</g>
<g style="fill:#4D7FC4; fill-opacity:1.0000; stroke:none;">
<circle cx="55.9245" cy="8.2982" r="0.8000" /> 
</g>
<g style="fill:#4D7FC4; fill-opacity:1.0000; stroke:none;">
<circle cx="63.5445" cy="5.7582" r="0.8000" /> 
</g>
<g style="fill:#4D7FC4; fill-opacity:1.0000; stroke:none;">
<circle cx="63.5445" cy="10.8383" r="0.8000" /> 
<path style="fill:#4D7FC4; fill-opacity:1.0000; stroke:none;fill-rule:evenodd;"
d="M 27.2295,10.5682
27.2295,8.5682
25.2295,8.5682
25.2295,10.5682
Z" /> 
</g>
<g style="fill:none; 
stroke:#4D7FC4; stroke-width:1.6000; stroke-opacity:1; 
stroke-linecap:round; stroke-linejoin:round;">
<path d="M26.4295 12.1082
L26.0296 12.1082
" />
<path d="M26.4295 14.6482
L26.0296 14.6482
" />
<path d="M26.4295 17.1883
L26.0296 17.1883
" />
<path d="M26.4295 19.7282
L26.0296 19.7282
" />
<path d="M26.4295 22.2682
L26.0296 22.2682
" />
<path d="M26.4295 24.8082
L26.0296 24.8082
" />
<path d="M26.4295 27.3483
L26.0296 27.3483
" />
<path d="M3.5696 27.3483
L3.1695 27.3483
" />
<path d="M3.5696 24.8082
L3.1695 24.8082
" />
<path d="M3.5696 22.2682
L3.1695 22.2682
" />
<path d="M3.5696 19.7282
L3.1695 19.7282
" />
<path d="M3.5696 17.1883
L3.1695 17.1883
" />
<path d="M3.5696 14.6482
L3.1695 14.6482
" />
<path d="M3.5696 12.1082
L3.1695 12.1082
" />
<path d="M3.5696 9.5682
L3.1695 9.5682
" />
<path style="fill:#4D7FC4; fill-opacity:1.0000; stroke:none;fill-rule:evenodd;"
d="M 74.8045,19.8982
72.6046,19.8982
72.6046,22.0983
74.8045,22.0983
Z" /> 
</g>
<g style="fill:#4D7FC4; fill-opacity:1.0000; stroke:none;">
<circle cx="73.7045" cy="31.1582" r="1.1000" /> 
<path style="fill:#4D7FC4; fill-opacity:1.0000; stroke:none;fill-rule:evenodd;"
d="M 80.2245,34.7982
82.4245,34.7982
82.4245,32.5983
80.2245,32.5983
Z" /> 
<circle cx="81.3246" cy="23.5382" r="1.1000" /> 
<circle cx="30.5245" cy="28.6982" r="0.8000" /> 
</g>
<g style="fill:#4D7FC4; fill-opacity:1.0000; stroke:none;">
<circle cx="30.5245" cy="33.6983" r="0.8000" /> 
</g>
<g style="fill:#4D7FC4; fill-opacity:1.0000; stroke:none;">
<circle cx="61.4857" cy="21.6432" r="0.4000" /> 
</g>
<g style="fill:none; 
stroke:#4D7FC4; stroke-width:2.0000; stroke-opacity:1; 
stroke-linecap:round; stroke-linejoin:round;">
<path d="M81.3246 33.6983
L94.0245 33.6983
" />
<path d="M73.7045 31.1582
L76.2445 33.6983
" />
<path d="M76.2445 33.6983
L81.3246 33.6983
" />
<path d="M94.0245 7.4582
L94.0245 4.0583
" />
<path d="M77.1923 28.1392
L75.6103 26.5572
" />
<path d="M91.1745 26.0782
L85.9256 20.8292
" />
<path d="M83.2304 28.1392
L77.1923 28.1392
" />
<path d="M75.6103 26.5572
L71.7987 26.5572
" />
<path d="M68.4727 29.8833
L66.0845 29.8833
" />
<path d="M85.9256 25.4440
L83.2304 28.1392
" />
<path d="M94.0245 26.0782
L91.1745 26.0782
" />
<path d="M84.7645 19.6683
L85.9256 20.8292
" />
<path d="M71.7987 26.5572
L68.4727 29.8833
" />
<path d="M85.9256 20.8292
L85.9256 25.4440
" />
<path d="M85.9256 20.8292
L84.7645 19.6683
" />
</g>
<g style="fill:none; 
stroke:#4D7FC4; stroke-width:0.2500; stroke-opacity:1; 
stroke-linecap:round; stroke-linejoin:round;">
<path d="M30.5245 33.6983
L29.3894 32.5630
" />
<path d="M29.3894 32.5630
L29.3894 26.9784
" />
<path d="M29.3894 26.9784
L36.6846 19.6832
" />
<path d="M35.6045 8.2982
L38.2308 10.9245
" />
<path d="M38.2308 10.9245
L38.2308 20.9919
" />
<path d="M35.6045 3.2182
L35.6045 8.2982
" />
<path d="M36.6846 34.8582
L30.5245 28.6982
" />
<path d="M38.2308 20.9919
L30.5245 28.6982
" />
<path d="M36.6846 35.0832
L36.6846 34.8582
" />
<path d="M66.0845 15.9182
L68.6245 13.3782
" />
<path d="M59.0279 15.9182
L66.0845 15.9182
" />
<path d="M46.8912 3.2182
L46.8912 3.7815
" />
<path d="M45.7645 3.2182
L46.8912 3.2182
" />
<path d="M46.8912 3.7815
L59.0279 15.9182
" />
<path d="M69.7732 14.1551
L69.7732 11.9870
" />
<path d="M61.4857 21.6432
L62.2851 21.6432
" />
<path d="M62.2851 21.6432
L61.4857 21.6432
" />
<path d="M69.7732 11.9870
L68.6245 10.8383
" />
<path d="M62.2851 21.6432
L69.7732 14.1551
" />
<path d="M61.4857 21.6432
L62.2851 21.6432
" />
</g>
<g style="fill:#02FFEE; fill-opacity:0.4000; stroke:none;">
<circle cx="35.6045" cy="3.2182" r="0.8000" /> 
</g>
<g style="fill:#02FFEE; fill-opacity:0.4000; stroke:none;">
<circle cx="45.7645" cy="3.2182" r="0.8000" /> 
<circle cx="94.0245" cy="4.0583" r="1.3900" /> 
</g>
<g style="fill:#02FFEE; fill-opacity:0.4000; stroke:none;">
<circle cx="94.0245" cy="7.4582" r="1.3900" /> 
</g>
<g style="fill:#02FFEE; fill-opacity:0.4000; stroke:none;">
<circle cx="84.1046" cy="4.0583" r="1.3900" /> 
</g>
<g style="fill:#02FFEE; fill-opacity:0.4000; stroke:none;">
<circle cx="84.1046" cy="7.4582" r="1.3900" /> 
</g>
<g style="fill:#02FFEE; fill-opacity:0.4000; stroke:none;">
<circle cx="68.6245" cy="8.2982" r="0.8000" /> 
</g>
<g style="fill:#02FFEE; fill-opacity:0.4000; stroke:none;">
<circle cx="76.2445" cy="10.8383" r="0.4000" /> 
<path style="fill:#02FFEE; fill-opacity:0.4000; stroke:none;fill-rule:evenodd;"
d="M 67.8246,13.9283
67.8436,14.0239
67.8978,14.1050
67.9789,14.1592
68.0746,14.1783
69.1745,14.1783
69.2702,14.1592
69.3513,14.1050
69.4055,14.0239
69.4245,13.9283
69.4245,12.8282
69.4055,12.7326
69.3513,12.6515
69.2702,12.5973
69.1745,12.5782
68.0746,12.5782
67.9789,12.5973
67.8978,12.6515
67.8436,12.7326
67.8246,12.8282
Z" /> 
</g>
<g style="fill:#02FFEE; fill-opacity:0.4000; stroke:none;">
<circle cx="68.6245" cy="10.8383" r="0.8000" /> 
</g>
<g style="fill:#02FFEE; fill-opacity:0.4000; stroke:none;">
<circle cx="76.2445" cy="8.2982" r="0.8000" /> 
</g>
<g style="fill:#02FFEE; fill-opacity:0.4000; stroke:none;">
<circle cx="76.2445" cy="13.3782" r="0.8000" /> 
<path style="fill:#02FFEE; fill-opacity:0.4000; stroke:none;fill-rule:evenodd;"
d="M 95.2946,17.1883
92.7545,17.1883
92.7545,19.7282
95.2946,19.7282
Z" /> 
</g>
<g style="fill:#02FFEE; fill-opacity:0.4000; stroke:none;">
<circle cx="94.0245" cy="26.0782" r="1.2700" /> 
</g>
<g style="fill:#02FFEE; fill-opacity:0.4000; stroke:none;">
<circle cx="94.0245" cy="33.6983" r="1.2700" /> 
</g>
<g style="fill:#02FFEE; fill-opacity:0.4000; stroke:none;">
<circle cx="35.6045" cy="8.2982" r="0.8000" /> 
</g>
<g style="fill:#02FFEE; fill-opacity:0.4000; stroke:none;">
<circle cx="45.7645" cy="8.2982" r="0.8000" /> 
<path style="fill:#02FFEE; fill-opacity:0.4000; stroke:none;fill-rule:evenodd;"
d="M 67.2345,25.8833
67.2345,23.8833
64.9346,23.8833
64.9346,25.8833
Z" /> 
<circle cx="66.0845" cy="29.8833" r="1.1500" /> 
</g>
<g style="fill:#02FFEE; fill-opacity:0.4000; stroke:none;">
<circle cx="36.6846" cy="19.6832" r="1.1500" /> 
</g>
<g style="fill:#02FFEE; fill-opacity:0.4000; stroke:none;">
<circle cx="36.6846" cy="35.0832" r="1.1500" /> 
</g>
<g style="fill:#02FFEE; fill-opacity:0.4000; stroke:none;">
<circle cx="82.9646" cy="12.1682" r="0.9000" /> 
</g>
<g style="fill:#02FFEE; fill-opacity:0.4000; stroke:none;">
<circle cx="84.7645" cy="19.6683" r="0.9000" /> 
</g>
<g style="fill:#02FFEE; fill-opacity:0.4000; stroke:none;">
<circle cx="55.9245" cy="5.7582" r="0.8000" /> 
</g>
<g style="fill:#02FFEE; fill-opacity:0.4000; stroke:none;">
<circle cx="63.5445" cy="8.2982" r="0.4000" /> 
<path style="fill:#02FFEE; fill-opacity:0.4000; stroke:none;fill-rule:evenodd;"
d="M 55.1245,11.3882
55.1436,11.4839
55.1978,11.5650
55.2789,11.6192
55.3745,11.6382
56.4746,11.6382
56.5702,11.6192
56.6513,11.5650
56.7055,11.4839
56.7246,11.3882
56.7246,10.2882
56.7055,10.1926
56.6513,10.1115
56.5702,10.0573
56.4746,10.0382
55.3745,10.0382
55.2789,10.0573
55.1978,10.1115
55.1436,10.1926
55.1245,10.2882
Z" /> 
</g>
<g style="fill:#02FFEE; fill-opacity:0.4000; stroke:none;">
<circle cx="55.9245" cy="8.2982" r="0.8000" /> 
</g>
<g style="fill:#02FFEE; fill-opacity:0.4000; stroke:none;">
<circle cx="63.5445" cy="5.7582" r="0.8000" /> 
</g>
<g style="fill:#02FFEE; fill-opacity:0.4000; stroke:none;">
<circle cx="63.5445" cy="10.8383" r="0.8000" /> 
<path style="fill:#02FFEE; fill-opacity:0.4000; stroke:none;fill-rule:evenodd;"
d="M 27.2295,10.5682
27.2295,8.5682
25.2295,8.5682
25.2295,10.5682
Z" /> 
</g>
<g style="fill:none; 
stroke:#02FFEE; stroke-width:1.6000; stroke-opacity:1; 
stroke-linecap:round; stroke-linejoin:round;">
<path d="M26.4295 12.1082
L26.0296 12.1082
" />
<path d="M26.4295 14.6482
L26.0296 14.6482
" />
<path d="M26.4295 17.1883
L26.0296 17.1883
" />
<path d="M26.4295 19.7282
L26.0296 19.7282
" />
<path d="M26.4295 22.2682
L26.0296 22.2682
" />
<path d="M26.4295 24.8082
L26.0296 24.8082
" />
<path d="M26.4295 27.3483
L26.0296 27.3483
" />
<path d="M3.5696 27.3483
L3.1695 27.3483
" />
<path d="M3.5696 24.8082
L3.1695 24.8082
" />
<path d="M3.5696 22.2682
L3.1695 22.2682
" />
<path d="M3.5696 19.7282
L3.1695 19.7282
" />
<path d="M3.5696 17.1883
L3.1695 17.1883
" />
<path d="M3.5696 14.6482
L3.1695 14.6482
" />
<path d="M3.5696 12.1082
L3.1695 12.1082
" />
<path d="M3.5696 9.5682
L3.1695 9.5682
" />
<path style="fill:#02FFEE; fill-opacity:0.4000; stroke:none;fill-rule:evenodd;"
d="M 74.8045,19.8982
72.6046,19.8982
72.6046,22.0983
74.8045,22.0983
Z" /> 
</g>
<g style="fill:#02FFEE; fill-opacity:0.4000; stroke:none;">
<circle cx="73.7045" cy="31.1582" r="1.1000" /> 
<path style="fill:#02FFEE; fill-opacity:0.4000; stroke:none;fill-rule:evenodd;"
d="M 80.2245,34.7982
82.4245,34.7982
82.4245,32.5983
80.2245,32.5983
Z" /> 
<circle cx="81.3246" cy="23.5382" r="1.1000" /> 
<circle cx="30.5245" cy="28.6982" r="0.8000" /> 
</g>
<g style="fill:#02FFEE; fill-opacity:0.4000; stroke:none;">
<circle cx="30.5245" cy="33.6983" r="0.8000" /> 
</g>
<g style="fill:none; 
stroke:#D0D2CD; stroke-width:0.1000; stroke-opacity:1; 
stroke-linecap:round; stroke-linejoin:round;">
<path d="M99.1045 0.6783
L0.0445 0.6783
" />
<path d="M0.0445 38.7782
L99.1045 38.7782
" />
<path d="M0.0445 0.6783
L0.0445 38.7782
" />
<path d="M99.1045 38.7782
L99.1045 0.6783
" />
</g>
<g style="fill:#FFFFFF; fill-opacity:1.0000; stroke:none;">
<circle cx="61.4857" cy="21.6432" r="0.2000" /> 
</g>
<g style="fill:#FFFFFF; fill-opacity:1.0000; stroke:none;">
<circle cx="35.6045" cy="3.2182" r="0.4000" /> 
</g>
<g style="fill:#FFFFFF; fill-opacity:1.0000; stroke:none;">
<circle cx="45.7645" cy="3.2182" r="0.4000" /> 
</g>
<g style="fill:#FFFFFF; fill-opacity:1.0000; stroke:none;">
<circle cx="94.0245" cy="4.0583" r="0.8900" /> 
</g>
<g style="fill:#FFFFFF; fill-opacity:1.0000; stroke:none;">
<circle cx="94.0245" cy="7.4582" r="0.8900" /> 
</g>
<g style="fill:#FFFFFF; fill-opacity:1.0000; stroke:none;">
<circle cx="84.1046" cy="4.0583" r="0.8900" /> 
</g>
<g style="fill:#FFFFFF; fill-opacity:1.0000; stroke:none;">
<circle cx="84.1046" cy="7.4582" r="0.8900" /> 
</g>
<g style="fill:#FFFFFF; fill-opacity:1.0000; stroke:none;">
<circle cx="68.6245" cy="8.2982" r="0.4000" /> 
</g>
<g style="fill:#FFFFFF; fill-opacity:1.0000; stroke:none;">
<circle cx="76.2445" cy="10.8383" r="0.4000" /> 
</g>
<g style="fill:#FFFFFF; fill-opacity:1.0000; stroke:none;">
<circle cx="68.6245" cy="13.3782" r="0.4000" /> 
</g>
<g style="fill:#FFFFFF; fill-opacity:1.0000; stroke:none;">
<circle cx="68.6245" cy="10.8383" r="0.4000" /> 
</g>
<g style="fill:#FFFFFF; fill-opacity:1.0000; stroke:none;">
<circle cx="76.2445" cy="8.2982" r="0.4000" /> 
</g>
<g style="fill:#FFFFFF; fill-opacity:1.0000; stroke:none;">
<circle cx="76.2445" cy="13.3782" r="0.4000" /> 
</g>
<g style="fill:#FFFFFF; fill-opacity:1.0000; stroke:none;">
<circle cx="94.0245" cy="18.4582" r="0.8000" /> 
</g>
<g style="fill:#FFFFFF; fill-opacity:1.0000; stroke:none;">
<circle cx="94.0245" cy="26.0782" r="0.8000" /> 
</g>
<g style="fill:#FFFFFF; fill-opacity:1.0000; stroke:none;">
<circle cx="94.0245" cy="33.6983" r="0.8000" /> 
</g>
<g style="fill:#FFFFFF; fill-opacity:1.0000; stroke:none;">
<circle cx="35.6045" cy="8.2982" r="0.4000" /> 
</g>
<g style="fill:#FFFFFF; fill-opacity:1.0000; stroke:none;">
<circle cx="45.7645" cy="8.2982" r="0.4000" /> 
</g>
<g style="fill:#FFFFFF; fill-opacity:1.0000; stroke:none;">
<circle cx="66.0845" cy="24.8833" r="0.5000" /> 
</g>
<g style="fill:#FFFFFF; fill-opacity:1.0000; stroke:none;">
<circle cx="66.0845" cy="29.8833" r="0.5000" /> 
</g>
<g style="fill:#FFFFFF; fill-opacity:1.0000; stroke:none;">
<circle cx="36.6846" cy="19.6832" r="0.5000" /> 
</g>
<g style="fill:#FFFFFF; fill-opacity:1.0000; stroke:none;">
<circle cx="36.6846" cy="35.0832" r="0.5000" /> 
</g>
<g style="fill:#FFFFFF; fill-opacity:1.0000; stroke:none;">
<circle cx="82.9646" cy="12.1682" r="0.4000" /> 
</g>
<g style="fill:#FFFFFF; fill-opacity:1.0000; stroke:none;">
<circle cx="84.7645" cy="19.6683" r="0.4000" /> 
</g>
<g style="fill:#FFFFFF; fill-opacity:1.0000; stroke:none;">
<circle cx="55.9245" cy="5.7582" r="0.4000" /> 
</g>
<g style="fill:#FFFFFF; fill-opacity:1.0000; stroke:none;">
<circle cx="63.5445" cy="8.2982" r="0.4000" /> 
</g>
<g style="fill:#FFFFFF; fill-opacity:1.0000; stroke:none;">
<circle cx="55.9245" cy="10.8383" r="0.4000" /> 
</g>
<g style="fill:#FFFFFF; fill-opacity:1.0000; stroke:none;">
<circle cx="55.9245" cy="8.2982" r="0.4000" /> 
</g>
<g style="fill:#FFFFFF; fill-opacity:1.0000; stroke:none;">
<circle cx="63.5445" cy="5.7582" r="0.4000" /> 
</g>
<g style="fill:#FFFFFF; fill-opacity:1.0000; stroke:none;">
<circle cx="63.5445" cy="10.8383" r="0.4000" /> 
</g>
<g style="fill:#FFFFFF; fill-opacity:1.0000; stroke:none;">
<circle cx="26.2295" cy="9.5682" r="0.5000" /> 
</g>
<g style="fill:#FFFFFF; fill-opacity:1.0000; stroke:none;">
<circle cx="26.2295" cy="12.1082" r="0.5000" /> 
</g>
<g style="fill:#FFFFFF; fill-opacity:1.0000; stroke:none;">
<circle cx="26.2295" cy="14.6482" r="0.5000" /> 
</g>
<g style="fill:#FFFFFF; fill-opacity:1.0000; stroke:none;">
<circle cx="26.2295" cy="17.1883" r="0.5000" /> 
</g>
<g style="fill:#FFFFFF; fill-opacity:1.0000; stroke:none;">
<circle cx="26.2295" cy="19.7282" r="0.5000" /> 
</g>
<g style="fill:#FFFFFF; fill-opacity:1.0000; stroke:none;">
<circle cx="26.2295" cy="22.2682" r="0.5000" /> 
</g>
<g style="fill:#FFFFFF; fill-opacity:1.0000; stroke:none;">
<circle cx="26.2295" cy="24.8082" r="0.5000" /> 
</g>
<g style="fill:#FFFFFF; fill-opacity:1.0000; stroke:none;">
<circle cx="26.2295" cy="27.3483" r="0.5000" /> 
</g>
<g style="fill:#FFFFFF; fill-opacity:1.0000; stroke:none;">
<circle cx="3.3695" cy="27.3483" r="0.5000" /> 
</g>
<g style="fill:#FFFFFF; fill-opacity:1.0000; stroke:none;">
<circle cx="3.3695" cy="24.8082" r="0.5000" /> 
</g>
<g style="fill:#FFFFFF; fill-opacity:1.0000; stroke:none;">
<circle cx="3.3695" cy="22.2682" r="0.5000" /> 
</g>
<g style="fill:#FFFFFF; fill-opacity:1.0000; stroke:none;">
<circle cx="3.3695" cy="19.7282" r="0.5000" /> 
</g>
<g style="fill:#FFFFFF; fill-opacity:1.0000; stroke:none;">
<circle cx="3.3695" cy="17.1883" r="0.5000" /> 
</g>
<g style="fill:#FFFFFF; fill-opacity:1.0000; stroke:none;">
<circle cx="3.3695" cy="14.6482" r="0.5000" /> 
</g>
<g style="fill:#FFFFFF; fill-opacity:1.0000; stroke:none;">
<circle cx="3.3695" cy="12.1082" r="0.5000" /> 
</g>
<g style="fill:#FFFFFF; fill-opacity:1.0000; stroke:none;">
<circle cx="3.3695" cy="9.5682" r="0.5000" /> 
</g>
<g style="fill:#FFFFFF; fill-opacity:1.0000; stroke:none;">
<circle cx="73.7045" cy="20.9982" r="0.5500" /> 
</g>
<g style="fill:#FFFFFF; fill-opacity:1.0000; stroke:none;">
<circle cx="73.7045" cy="31.1582" r="0.5500" /> 
</g>
<g style="fill:#FFFFFF; fill-opacity:1.0000; stroke:none;">
<circle cx="81.3246" cy="33.6983" r="0.5500" /> 
</g>
<g style="fill:#FFFFFF; fill-opacity:1.0000; stroke:none;">
<circle cx="81.3246" cy="23.5382" r="0.5500" /> 
</g>
<g style="fill:#FFFFFF; fill-opacity:1.0000; stroke:none;">
<circle cx="30.5245" cy="28.6982" r="0.4000" /> 
</g>
<g style="fill:#FFFFFF; fill-opacity:1.0000; stroke:none;">
<circle cx="30.5245" cy="33.6983" r="0.4000" /> 
</g> 
</svg>
